<?xml version="1.0" encoding="utf-8"?>
<!-- Generator: Adobe Illustrator 13.0.2, SVG Export Plug-In . SVG Version: 6.00 Build 14948)  -->
<!DOCTYPE svg PUBLIC "-//W3C//DTD SVG 1.1//EN" "http://www.w3.org/Graphics/SVG/1.1/DTD/svg11.dtd">
<svg version="1.1" id="Layer_1" xmlns="http://www.w3.org/2000/svg" xmlns:xlink="http://www.w3.org/1999/xlink" x="0px" y="0px"
	 width="239.572px" height="246.361px" viewBox="0 0 239.572 246.361" enable-background="new 0 0 239.572 246.361"
	 xml:space="preserve">
<path opacity="0.04" enable-background="new    " d="M147.065,107.663l-42.242-6.688c-7.207-1.203-13.614-7.053-15.924-13.987l0,0
	c-0.271-0.833-0.48-1.688-0.612-2.549l0,0l-6.692-42.246c-1.191-8.075,3.387-17.053,10.618-20.835l0,0l38.104-19.414
	c0.775-0.398,1.589-0.731,2.424-1.005l0,0c6.966-2.207,15.464-0.464,20.677,4.661l0,0l30.244,30.241
	c2.08,2.081,3.571,4.726,4.496,7.568l0,0c1.637,5.071,1.524,10.838-0.836,15.528l0,0l-19.419,38.107
	c-2.403,4.672-7.008,8.149-12.073,9.81l0,0C152.985,107.776,149.972,108.121,147.065,107.663L147.065,107.663z M133.978,4.741
	c-0.643,0.209-1.256,0.465-1.843,0.764l0,0L94.027,24.918c-5.51,2.712-9.528,10.601-8.482,16.647l0,0l6.693,42.256
	c0.096,0.635,0.254,1.282,0.467,1.929l0,0c1.711,5.438,7.332,10.479,12.742,11.274l0,0l42.244,6.688
	c2.164,0.346,4.574,0.096,6.902-0.661l0,0c4.166-1.342,7.986-4.327,9.746-7.819l0,0l19.416-38.107
	c1.791-3.479,1.963-8.324,0.6-12.479l0,0c-0.756-2.33-1.971-4.428-3.522-5.978l0,0L150.588,8.427
	c-3.802-3.885-11.108-5.475-16.503-3.722l0,0C134.049,4.717,134.013,4.729,133.978,4.741L133.978,4.741z"/>
<path opacity="0.04" enable-background="new    " d="M197.38,176.908l-42.245-6.688c-7.208-1.203-13.614-7.054-15.921-13.985l0,0
	c-0.271-0.834-0.48-1.687-0.615-2.551l0,0l-6.69-42.243c-1.191-8.075,3.384-17.056,10.616-20.837l0,0l38.105-19.415
	c0.776-0.397,1.588-0.731,2.424-1.004l0,0c6.967-2.207,15.465-0.466,20.676,4.661l0,0l30.246,30.243
	c2.078,2.082,3.571,4.724,4.498,7.567l0,0c1.633,5.072,1.522,10.84-0.841,15.53l0,0l-19.418,38.105l-0.001-0.001
	c-2.4,4.67-7.005,8.149-12.07,9.81l0,0C203.298,177.023,200.281,177.367,197.38,176.908L197.38,176.908z M184.29,73.988
	c-0.643,0.209-1.258,0.463-1.844,0.762l0,0l-38.107,19.416c-5.508,2.709-9.527,10.6-8.48,16.648l0,0l6.691,42.249
	c0.1,0.638,0.258,1.287,0.471,1.933l0,0c1.709,5.437,7.328,10.479,12.74,11.273l0,0l42.245,6.688
	c2.162,0.348,4.572,0.096,6.901-0.661l0,0c4.168-1.341,7.984-4.325,9.744-7.819l0,0l1.781,0.907l-1.783-0.909l19.418-38.103
	c1.793-3.483,1.963-8.327,0.6-12.48l0,0c-0.755-2.331-1.969-4.428-3.521-5.977l0,0l-30.246-30.243
	c-3.803-3.887-11.105-5.473-16.5-3.72l0,0C184.362,73.965,184.326,73.977,184.29,73.988L184.29,73.988z"/>
<path opacity="0.04" enable-background="new    " d="M147.071,246.159l-42.247-6.688c-7.207-1.204-13.615-7.058-15.922-13.99l0,0
	c-0.27-0.831-0.483-1.687-0.615-2.546l0,0l-6.689-42.246c-1.191-8.076,3.383-17.059,10.618-20.837l0,0l38.104-19.415
	c0.777-0.399,1.59-0.73,2.424-1.004l0,0c6.966-2.206,15.466-0.465,20.676,4.659l0,0l30.247,30.245
	c2.079,2.082,3.571,4.724,4.498,7.568l0,0c1.636,5.072,1.524,10.838-0.839,15.529l0,0l-19.416,38.106l-1.783-0.908l1.781,0.909
	c-2.403,4.669-7.008,8.147-12.074,9.808l0,0C152.987,246.274,149.974,246.617,147.071,246.159L147.071,246.159z M133.979,143.237
	c-0.644,0.209-1.26,0.463-1.842,0.76l0,0L94.03,163.413c-5.509,2.711-9.527,10.596-8.48,16.65l0,0l6.691,42.254
	c0.096,0.633,0.254,1.279,0.467,1.926l0,0c1.711,5.438,7.331,10.48,12.742,11.277l0,0l42.248,6.688
	c2.164,0.345,4.572,0.098,6.898-0.661l0,0c4.166-1.34,7.985-4.324,9.746-7.82l0,0h-0.002l19.42-38.107
	c1.79-3.479,1.961-8.322,0.598-12.477l0,0c-0.754-2.33-1.969-4.429-3.521-5.979l0,0l-30.247-30.243
	c-3.8-3.886-11.107-5.473-16.503-3.721l0,0C134.051,143.212,134.015,143.226,133.979,143.237L133.979,143.237z"/>
<path opacity="0.04" enable-background="new    " d="M65.659,134.112l-42.242-6.688c-7.208-1.201-13.616-7.054-15.924-13.986l0,0
	c-0.271-0.834-0.481-1.687-0.614-2.549l0,0L0.188,68.643c-1.189-8.075,3.386-17.054,10.617-20.836l0,0l38.104-19.414
	c0.779-0.397,1.59-0.731,2.426-1.004l0,0c6.966-2.208,15.464-0.465,20.676,4.66l0,0l30.246,30.241
	c2.079,2.083,3.572,4.727,4.497,7.567l0,0c1.633,5.073,1.524,10.84-0.839,15.53l0,0l-19.416,38.108l-1.782-0.909l1.78,0.91
	c-2.401,4.668-7.006,8.147-12.072,9.808l0,0C71.579,134.228,68.562,134.571,65.659,134.112L65.659,134.112z M52.57,31.192
	c-0.643,0.208-1.258,0.465-1.842,0.762l0,0L12.622,51.37c-5.511,2.709-9.529,10.598-8.483,16.646l0,0l6.691,42.254
	c0.098,0.636,0.257,1.281,0.467,1.93l0,0c1.711,5.438,7.333,10.477,12.746,11.274l0,0l42.242,6.688
	c2.163,0.346,4.572,0.096,6.901-0.663l0,0c4.169-1.339,7.986-4.323,9.747-7.817l0,0l19.416-38.107
	c1.791-3.48,1.963-8.324,0.598-12.479l0,0c-0.755-2.329-1.97-4.427-3.521-5.977l0,0l-30.244-30.24
	c-3.803-3.887-11.109-5.475-16.502-3.722l0,0C52.643,31.169,52.606,31.181,52.57,31.192L52.57,31.192z"/>
<path opacity="0.04" enable-background="new    " d="M65.662,219.706l-42.244-6.688c-7.206-1.204-13.613-7.056-15.92-13.986l0,0
	c-0.271-0.832-0.481-1.686-0.615-2.549l0,0l-6.69-42.246c-1.191-8.074,3.383-17.054,10.616-20.836l0,0l38.104-19.414
	c0.778-0.396,1.589-0.732,2.425-1.004l0,0c6.965-2.208,15.463-0.465,20.676,4.659l0,0l30.246,30.242
	c2.08,2.083,3.571,4.728,4.496,7.567l0,0c1.636,5.073,1.525,10.842-0.838,15.532l0,0l-19.417,38.104
	c-2.401,4.67-7.008,8.149-12.073,9.81l0,0C71.582,219.821,68.566,220.165,65.662,219.706L65.662,219.706z M52.574,116.784
	c-0.643,0.209-1.258,0.465-1.844,0.763l0,0l-38.105,19.415c-5.51,2.709-9.528,10.6-8.482,16.648l0,0l6.691,42.252
	c0.1,0.636,0.256,1.284,0.469,1.932l0,0c1.71,5.435,7.331,10.479,12.741,11.272l0,0l42.245,6.688
	c2.163,0.349,4.574,0.099,6.902-0.661l0,0c4.166-1.34,7.987-4.324,9.744-7.819l0,0l19.417-38.105
	c1.792-3.479,1.964-8.325,0.601-12.48l0,0c-0.757-2.328-1.971-4.427-3.522-5.974l0,0l-30.244-30.244
	c-3.803-3.886-11.111-5.474-16.504-3.721l0,0C52.646,116.76,52.609,116.772,52.574,116.784L52.574,116.784z"/>
</svg>
