<?xml version="1.0" encoding="utf-8"?>
<!-- Generator: Adobe Illustrator 13.0.2, SVG Export Plug-In . SVG Version: 6.00 Build 14948)  -->
<!DOCTYPE svg PUBLIC "-//W3C//DTD SVG 1.1//EN" "http://www.w3.org/Graphics/SVG/1.1/DTD/svg11.dtd">
<svg version="1.1" id="Layer_1" xmlns="http://www.w3.org/2000/svg" xmlns:xlink="http://www.w3.org/1999/xlink" x="0px" y="0px"
	 width="720px" height="432px" viewBox="0 0 720 432" enable-background="new 0 0 720 432" xml:space="preserve">
<g>
	<g>
		<polygon opacity="0.03" enable-background="new    " points="107.998,378.001 107.998,378 107.998,378 		"/>
		<path opacity="0.03" enable-background="new    " d="M360,360L360,360L360,360z"/>
		<path opacity="0.03" enable-background="new    " d="M287.998,252.001L287.998,252.001L287.998,252.001z"/>
		<polygon opacity="0.03" enable-background="new    " points="72.002,432 72.002,432 72.002,431.998 		"/>
		<path opacity="0.03" enable-background="new    " d="M539.998,378L539.998,378L539.998,378z"/>
		<path opacity="0.03" enable-background="new    " d="M539.998,306.001L539.998,306.001L539.998,306.001z"/>
		<path opacity="0.03" enable-background="new    " d="M648,360L648,360L648,360z"/>
		<path opacity="0.03" enable-background="new    " d="M107.998,306.001L107.998,306.001L107.998,306.001z"/>
		<path opacity="0.03" enable-background="new    " d="M521.998,207.001L521.998,207.001L521.998,207.001z"/>
	</g>
	<g>
		<polygon opacity="0.03" enable-background="new    " points="0,72.001 72,36.001 108,54 144,36.001 252,90 216,108.001 
			180,90.001 144,108.001 108,90 36,126.001 0,108 		"/>
		<polygon opacity="0.03" enable-background="new    " points="162,153.001 198,135.001 216,144.001 252,126 252,90 287.998,72.001 
			342,99.001 342,117.001 414,153.001 360,180.001 288,144.001 216,180.001 		"/>
		<polygon opacity="0.03" enable-background="new    " points="342,99.001 359.998,90.001 395.998,108.001 432,90.001 450,99.001 
			414,117.001 432,126.001 414,135.001 		"/>
		<polygon opacity="0.03" enable-background="new    " points="359.998,72.001 467.998,18.001 540,54 576,36 612,54 648,36.002 
			720,72.001 720,108 648,72.001 612,90.001 576,72.001 540,90.001 504,72.001 468,90.001 432,72.001 395.998,90.001 		"/>
		<polygon opacity="0.03" enable-background="new    " points="432,126.001 450,117.001 468,126.001 432,144.001 		"/>
		<polygon opacity="0.03" enable-background="new    " points="450,153.001 468,144.001 486,153.001 450,171.001 		"/>
		<polygon opacity="0.03" enable-background="new    " points="71.998,234.001 90,225 108,234 89.998,243.001 		"/>
		<polygon opacity="0.03" enable-background="new    " points="180,234.001 198.002,225 216.002,234 198,243.001 		"/>
		<polygon opacity="0.03" enable-background="new    " points="252,216.001 270.002,207 288.002,216 270,225.001 		"/>
		<polygon opacity="0.03" enable-background="new    " points="270,189.001 288.002,180 306.002,189 288,198.001 		"/>
		<polygon opacity="0.03" enable-background="new    " points="414,153.001 432.002,144 450.002,153 432,162.001 		"/>
		<polygon opacity="0.03" enable-background="new    " points="432,180.001 450.002,171 468.002,180 450,189.001 		"/>
		<polygon opacity="0.03" enable-background="new    " points="414,207.001 432.002,198 450.002,207 432,216.001 		"/>
		<polygon opacity="0.03" enable-background="new    " points="503.998,234.001 522,225 540,234 521.998,243.001 		"/>
		<polygon opacity="0.03" enable-background="new    " points="521.998,261.001 540,252 558,261 539.998,270.001 		"/>
		<polygon opacity="0.03" enable-background="new    " points="468,126.001 504,108.001 540.002,126.001 504,144.001 		"/>
		<polygon opacity="0.03" enable-background="new    " points="467.998,306.001 503.998,288.001 540,306.001 503.998,324.001 		"/>
		<polygon opacity="0.03" enable-background="new    " points="612,306.001 648,288.001 684.002,306.001 648,324.001 		"/>
		<polygon opacity="0.03" enable-background="new    " points="540.002,126.001 576,108.001 612,126 648,108.001 720,144.001 
			648,180 		"/>
		<polygon opacity="0.03" enable-background="new    " points="468,180.001 486,171.001 504,180.001 540,162 612,198 576,216 
			558,207.001 539.998,216.001 522,207.001 503.998,216.001 468,198.001 		"/>
		<polygon opacity="0.03" enable-background="new    " points="378,189.001 414,171.001 432,180.001 396,198.001 		"/>
		<polygon opacity="0.03" enable-background="new    " points="35.998,162.001 108,126 126,135.001 126,153.001 71.998,180.001 		
			"/>
		<polygon opacity="0.03" enable-background="new    " points="126,135.001 180,108.001 198,117.001 144,144.001 		"/>
		<polygon opacity="0.03" enable-background="new    " points="0,288 0,216.001 71.998,252.001 		"/>
		<polygon opacity="0.03" enable-background="new    " points="107.998,198 126,189.001 144,198.001 162,189.001 198,207.001 
			180,216.001 162,207 143.998,216 		"/>
		<polygon opacity="0.03" enable-background="new    " points="144,252.001 162,243 198,261 180,270.001 		"/>
		<polygon opacity="0.03" enable-background="new    " points="89.998,261.001 108,252.001 108,234 144,252.001 107.998,270.001 		
			"/>
		<polygon opacity="0.03" enable-background="new    " points="215.998,252.001 252,234.001 270,243.001 288,234.001 342,261.001 
			324,270.001 287.998,252.001 252,270.001 		"/>
		<polygon opacity="0.03" enable-background="new    " points="288,216.001 306,207.001 360,234.001 378,225.001 396,234.001 
			360,252.001 		"/>
		<polygon opacity="0.03" enable-background="new    " points="378,261.001 414,243.001 432,252.001 468,234.001 503.998,252.001 
			432,288.001 		"/>
		<polygon opacity="0.03" enable-background="new    " points="539.998,234.001 558,225 576,234 594,225.001 612,234.001 
			575.998,252.001 		"/>
		<polygon opacity="0.03" enable-background="new    " points="539.998,306.001 558,297 576,306 594,297.001 612,306.001 
			575.998,324.001 		"/>
		<polygon opacity="0.03" enable-background="new    " points="324,306.001 342.002,297 360.002,306 378.002,297.001 
			396.002,306.001 360,324.001 		"/>
		<polygon opacity="0.03" enable-background="new    " points="594,261.001 612,252 612,234.001 647.998,252.001 612,270.001 		"/>
		<polygon opacity="0.03" enable-background="new    " points="647.998,252.001 720,216.001 720,288 		"/>
		<polygon opacity="0.03" enable-background="new    " points="251.998,378 324,342 360,360 396,342 432,360 467.998,342 504,360 
			539.998,342 576,360 612,342 648,360 684,342 720,360 648,396 612,378 576,396 539.998,378 504,396 467.998,378 396,414 324,378 
			288,396 		"/>
		<polygon opacity="0.03" enable-background="new    " points="0,324 72,288.001 108,306.001 36.002,342 		"/>
		<polygon opacity="0.03" enable-background="new    " points="108,306.001 144,288.001 180,306.001 215.998,288.001 252,306.001 
			288,288.001 324,306.001 215.998,360 		"/>
		<polygon opacity="0.03" enable-background="new    " points="36.002,378 107.998,342 180,378 144,396 108,378.001 72,396 		"/>
	</g>
</g>
</svg>
