<svg xmlns="http://www.w3.org/2000/svg" version="1.1" id="Layer_1" x="0px" y="0px" width="288px" height="228px" viewBox="0 0 288 228" enable-background="new 0 0 288 228" xml:space="preserve"><g id="Layer_1_1_"/><g id="Layer_3"><rect fill="none" width="288" height="228"/><g id="ART"><circle fill="#7DC145" cx="144" cy="113.998" r="110.539"/><path fill="#99D8F4" d="M144.92 224.523c-1.904-12.627-3.889-22.338-4.259-24.607 -5.222-31.93-26.57-46.014-26.57-46.014l-12.541 14.391 -26.044-11.529 1.31-3.494c0 0-4.646-7.311-12.196-1.326l-1.409-0.604 -1.293 2.756c-4.443 3.555-9.623 7.777-15.187 12.459 12.129 22.402 31.775 40.131 55.55 49.83l5.642-38.348 11.358 43.713c7.949 1.814 16.22 2.791 24.72 2.791C144.309 224.537 144.613 224.527 144.92 224.523z"/><polygon fill="#009ACD" points="60.077,154.006 66.401,141.764 103.544,162.033 92.344,184.314   "/><polygon fill="#009ACD" points="122.544,157.379 116.815,142.014 103.544,162.033 120.911,179.119   "/><polygon fill="#231F20" points="90.114,163.701 112.981,160.115 108.036,181.324   "/><path fill="#231F20" d="M102.281 216.381c5.462 2.229 11.143 4.027 17 5.365l-11.358-43.713L102.281 216.381z"/><path fill="#A15F5D" d="M202.164 24.582c0 0-4.143-1.508-12.617 6.887 -4.635 4.592-37.898 40.291-37.023 70.312 0.748 26.115 23.459 50.521 35.677 30.592L202.164 24.582z"/><linearGradient id="SVGID_1_" gradientUnits="userSpaceOnUse" x1="299.8291" y1="-513.145" x2="264.1848" y2="-477.5008" gradientTransform="matrix(0.9936 0.1134 0.1134 -0.9936 7.7814 -384.6948)"><stop offset="0" stop-color="#F7A58A"/><stop offset="1" stop-color="#FABD96"/></linearGradient><path fill="url(#SVGID_1_)" d="M225.316 168.197c-2.812-4.363 6.395-22.025 19.756-31.228 36.543-28.735 12.938-91.475 3.102-100.491l-51.041-6.057c0 0-31.871 62.793-29.926 80.404 1.939 17.631 22.984 25.125 26.17 43.877 0.773 4.516-6.684 17.994-10.021 24.672 0 0 8.035 17.463 3.623 27.438C196.717 182.262 220.963 179.262 225.316 168.197z"/><linearGradient id="SVGID_2_" gradientUnits="userSpaceOnUse" x1="929.1895" y1="-482.8901" x2="932.9203" y2="-466.8463" gradientTransform="matrix(0.9991 -0.0433 -0.0433 -0.9991 -726.4554 -383.7883)"><stop offset="0" stop-color="#FAB78F"/><stop offset="1" stop-color="#E98D69"/></linearGradient><path fill="url(#SVGID_2_)" d="M248.172 36.48l-51.039-6.057c0 0-5.73 11.283-12.188 25.638 14.979 4.952 37.811 8.53 43.83 9.118 3.701 0.373 18.27-0.137 31.651-3.098C256.779 49.458 251.627 39.652 248.172 36.48z"/><path fill="#A15F5D" d="M244.148 44.414c0 0 22.715 59.137-6.83 83.959 3.938 13.256 9.852 20.479 17.371 21.652 7.518 1.156 34.112-14.178 28.961-47.194 -5.162-33.015-23.986-44.906-27.592-59.32 -3.617-14.395-15.037-19.504-15.037-19.504l-3.386 8.002L244.148 44.414z"/><path fill="#A15F5D" d="M194.453 26.677c0 0 18.033 19.855 39.246 26.781 -2.807-4.369-6.658-15.768-6.658-15.768s10.398 15.979 22.17 20.316c11.768 4.353 7.881-16.301 2.27-24.362C245.855 25.572 233.455 8.596 194.453 26.677z"/><linearGradient id="SVGID_3_" gradientUnits="userSpaceOnUse" x1="1035.915" y1="-213.2466" x2="1028.3634" y2="-221.4851" gradientTransform="matrix(0.9904 0.1383 0.1383 -0.9904 -790.0561 -258.1567)"><stop offset="0" stop-color="#FAB78F"/><stop offset="1" stop-color="#E98D69"/></linearGradient><path fill="url(#SVGID_3_)" d="M239.225 77.457c-0.602 4.239-4.896 7.146-9.584 6.5 -4.69-0.664-8.026-4.637-7.432-8.891 0.584-4.238 4.875-7.158 9.572-6.5C236.496 69.228 239.803 73.199 239.225 77.457z"/><linearGradient id="SVGID_4_" gradientUnits="userSpaceOnUse" x1="885.4521" y1="-526.7661" x2="851.1302" y2="-529.0053" gradientTransform="matrix(0.9991 -0.0433 -0.0433 -0.9991 -726.4554 -383.7883)"><stop offset="0" stop-color="#FAB78F"/><stop offset="1" stop-color="#E98D69"/></linearGradient><path fill="url(#SVGID_4_)" d="M167.207 110.83c1.105 10.104 10.256 17.538 18.459 25.581l-7.475-64.694C171.762 87.396 166.359 103.263 167.207 110.83z"/><path fill="#834249" d="M272.893 132.387l-1.363-0.617c11.648-25.622-10.42-64.57-10.645-64.962l1.289-0.734C263.104 67.693 284.838 106.054 272.893 132.387z"/><path fill="#834249" d="M259.385 142.102l-1.154-0.94c11.019-13.521 7.312-43.157 7.271-43.454l1.463-0.191C267.129 98.755 270.797 128.064 259.385 142.102z"/><path fill="#834249" d="M225.164 45.356l-0.758 1.286c-5.344-3.135-21.43-16.482-22.107-17.047l0.938-1.145C203.408 28.598 219.916 42.312 225.164 45.356z"/><path fill="#834249" d="M244.916 47.835c-0.736-4.476-3.359-11.543-5.791-17.142l1.354-0.579c0.98 2.245 5.869 13.768 6.131 19.418l0.06 1.566 -1.256-0.934c-8.513-6.383-18.332-22.619-18.74-23.313l1.269-0.759C228.045 26.259 236.961 41.009 244.916 47.835z"/><path fill="#834249" d="M184.479 50.063c-0.271 0.382-26.221 37.438-24.414 62.201l-1.487 0.101c-1.841-25.271 23.603-61.627 24.676-63.148L184.479 50.063z"/><polygon fill="#DB3191" points="229.791,153.572 229.791,153.57 229.791,153.568   "/><path fill="#DB3191" d="M229.791 153.572c0-0.002 0-0.002 0-0.004C229.641 153.602 229.713 153.588 229.791 153.572z"/><path fill="#DB3191" d="M229.791 153.568C229.791 153.57 229.791 153.57 229.791 153.568 229.867 153.555 229.945 153.539 229.791 153.568z"/><path fill="#DB3191" d="M225.67 188.486c-0.504-12.037-0.355-21.566 0.936-25.578 1.004-3.117 1.799-6.219 3.187-9.338 0 0.002 0 0.002 0 0.002 -10.854 14.471-22.854 19.104-44.463 21.754 -9.332 11.754-21.164 23.855-17.638 46.658C190.42 217.02 210.537 205.068 225.67 188.486z"/><path fill="#EFEBDD" d="M181.734 183.113c-0.674-0.287-1.334-0.562-1.99-0.832 1.869-2.381 3.771-4.676 5.584-6.955 21.607-2.65 33.607-7.281 44.463-21.754v-0.002c-1.389 3.119-2.184 6.221-3.188 9.338 -0.392 1.213-0.677 2.938-0.871 5.074C214.732 176.938 201.459 180.693 181.734 183.113z"/><linearGradient id="SVGID_5_" gradientUnits="userSpaceOnUse" x1="1557.6602" y1="-80.1304" x2="1550.1858" y2="-88.2845" gradientTransform="matrix(0.9643 0.2645 0.2645 -0.9643 -1276.6439 -393.062)"><stop offset="0" stop-color="#FAB78F"/><stop offset="1" stop-color="#E98D69"/></linearGradient><path fill="url(#SVGID_5_)" d="M238.812 81.869c-1.138 4.092-5.711 6.399-10.234 5.164 -4.525-1.246-7.287-5.562-6.156-9.666 1.113-4.084 5.688-6.402 10.219-5.16C237.176 73.462 239.92 77.777 238.812 81.869z"/><radialGradient id="SVGID_6_" cx="1470.0684" cy="-482.3408" r="11.6391" gradientTransform="matrix(0.9963 0.0855 0.0855 -0.9963 -1197.0076 -509.5278)" gradientUnits="userSpaceOnUse"><stop offset="0" stop-color="#EC9E7D"/><stop offset="1" stop-color="#FAB78F"/></radialGradient><path fill="url(#SVGID_6_)" d="M237.232 98.207c-0.543 6.514-6.101 11.369-12.385 10.819 -6.293-0.532-10.939-6.257-10.38-12.78 0.574-6.514 6.113-11.357 12.414-10.826C233.158 85.947 237.809 91.687 237.232 98.207z"/><radialGradient id="SVGID_7_" cx="1432.9395" cy="-474.9141" r="11.6445" gradientTransform="matrix(0.9963 0.0855 0.0855 -0.9963 -1197.0076 -509.5278)" gradientUnits="userSpaceOnUse"><stop offset="0" stop-color="#EC9E7D"/><stop offset="1" stop-color="#FAB78F"/></radialGradient><path fill="url(#SVGID_7_)" d="M200.879 87.626c-0.553 6.522-6.105 11.369-12.4 10.836 -6.283-0.549-10.934-6.278-10.369-12.789 0.574-6.516 6.119-11.368 12.416-10.842C196.797 75.373 201.461 81.099 200.879 87.626z"/><path fill="#991115" d="M229.391 66.91c8.9-5.744 20.299 0.873 22.504 9.034C246.129 70.996 244.713 66.544 229.391 66.91z"/><path fill="#991115" d="M185.703 46.091c8.895-5.756 20.293 0.867 22.488 9.039C202.422 50.182 201.023 45.725 185.703 46.091z"/><linearGradient id="SVGID_8_" gradientUnits="userSpaceOnUse" x1="392.5088" y1="-458.4863" x2="414.8091" y2="-468.0436" gradientTransform="matrix(0.9831 0.1833 0.1833 -0.9831 -106.4243 -408.7018)"><stop offset="0.0056" stop-color="#ED7057"/><stop offset="1" stop-color="#C93C2C"/></linearGradient><path fill="url(#SVGID_8_)" d="M185.127 97.152c0 0 2.33 11.76 34.162 17.407 -10.697 8.715-19.52 14.102-29.939 10.52C181.496 122.414 183.371 105.062 185.127 97.152z"/><path fill="#FFFBDA" d="M192.486 120.662c5.082 2.053 12.391-0.096 19.422-4.305 -12.621-2.796-19.777-6.583-23.805-9.803C187.502 111.854 187.93 118.832 192.486 120.662z"/><path fill="#C93C2C" d="M216.752 115.947l6.303-1.159c0.394-0.072 0.652-0.449 0.584-0.843l0 0c-0.074-0.394-0.451-0.651-0.844-0.583l0 0 -6.307 1.158c-0.396 0.072-0.652 0.449-0.584 0.842l0 0c0.061 0.322 0.322 0.556 0.637 0.591l0 0C216.607 115.963 216.678 115.961 216.752 115.947L216.752 115.947z"/><path fill="#CB8B7A" d="M212.932 75.335c0.012 1.656-0.354 9.595-6.238 15.625 -5.868 6.026-8.352-0.058-4.094-2.906 5.979-4.004 7.596-9.391 7.752-10.297C211.176 72.634 212.92 72.302 212.932 75.335z"/><path fill="#121013" d="M230.736 88.162c-0.906 2.533-0.236 5.067 1.483 5.672 1.705 0.606 3.835-0.955 4.714-3.494 0.901-2.527 0.229-5.067-1.484-5.687C233.727 84.065 231.615 85.619 230.736 88.162z"/><path fill="#121013" d="M189.463 74.089c-0.906 2.519-0.23 5.063 1.492 5.676 1.701 0.594 3.82-0.969 4.715-3.501 0.898-2.524 0.229-5.071-1.49-5.687C192.455 69.979 190.35 71.561 189.463 74.089z"/><linearGradient id="SVGID_9_" gradientUnits="userSpaceOnUse" x1="-340.1172" y1="-572.3818" x2="-322.37" y2="-577.2227" gradientTransform="matrix(-0.9974 0.0719 -0.0719 -0.9974 -310.3348 -451.7245)"><stop offset="0" stop-color="#F3BC96"/><stop offset="1" stop-color="#EBA274"/></linearGradient><path fill="url(#SVGID_9_)" d="M71.036 152.684c-0.496-5.371-13.658-35.033-17.65-46.6C49.079 93.58 30.213 56.5 32.233 49.023c2.006-7.457 15.512-33.148 49.182-39.231 33.68-6.09 54.444 21.704 52.31 51.14 -1.408 19.241 4.53 51.082 0.53 73.484 -0.606 3.408-17.113 4.66-17.439 7.598 -0.66 5.914 0.34 11.889 1.357 15.002 -11.406 8.877-10.676 6.174-25.668 7.254C81.698 165.049 80.762 156.33 71.036 152.684z"/><linearGradient id="SVGID_10_" gradientUnits="userSpaceOnUse" x1="-334.4395" y1="-529.2812" x2="-319.6858" y2="-537.9604" gradientTransform="matrix(-0.9974 0.0719 -0.0719 -0.9974 -310.3348 -451.7245)"><stop offset="0" stop-color="#862837"/><stop offset="1" stop-color="#4C0433"/></linearGradient><path fill="url(#SVGID_10_)" d="M81.415 9.792c17.166-3.105 30.971 2.595 40.096 12.844 -43.717-7.438-71.499 16.355-71.674 25.117C49.64 56.93 62.903 87.082 62.903 87.082l-22.838 2.56c-6.543-14.837-9.135-35.815-7.832-40.618C34.239 41.566 47.745 15.875 81.415 9.792z"/><linearGradient id="SVGID_11_" gradientUnits="userSpaceOnUse" x1="-321.0264" y1="-559.7075" x2="-313.4292" y2="-549.1623" gradientTransform="matrix(-0.9974 0.0719 -0.0719 -0.9974 -310.3348 -451.7245)"><stop offset="0" stop-color="#F3BC96"/><stop offset="1" stop-color="#EBA274"/></linearGradient><path fill="url(#SVGID_11_)" d="M58.669 84.64c0 0-18.242-11.167-26.111-3.669 -7.863 7.508 12.174 34.49 34.623 14.157C89.631 74.785 58.669 84.64 58.669 84.64z"/><radialGradient id="SVGID_12_" cx="-347.4897" cy="-1796.3989" r="17.1439" gradientTransform="matrix(1.3352 -0.122 -0.0661 -0.7242 428.5427 -1261.1925)" gradientUnits="userSpaceOnUse"><stop offset="0.0955" stop-color="#E39979"/><stop offset="0.6124" stop-color="#F3BC96"/></radialGradient><path fill="url(#SVGID_12_)" d="M103.292 79.812c0.516 5.709-7.602 11.113-18.141 12.086 -10.525 0.965-19.482-2.895-20.014-8.613 -0.521-5.713 7.588-11.125 18.121-12.08C93.805 70.246 102.76 74.096 103.292 79.812z"/><radialGradient id="SVGID_13_" cx="-586.8018" cy="-2141.2725" r="17.1288" gradientTransform="matrix(1.3004 -0.3267 -0.1772 -0.7054 514.1805 -1620.8723)" gradientUnits="userSpaceOnUse"><stop offset="0.0955" stop-color="#E39979"/><stop offset="0.6124" stop-color="#F3BC96"/></radialGradient><path fill="url(#SVGID_13_)" d="M112.794 85.212c1.398 5.588 10.848 8.002 21.101 5.412 0.412-0.102 0.791-0.238 1.178-0.342 -0.123-7.322-1.211-14.281-2.771-19.994 -0.022-0.147-0.082-0.297-0.11-0.449 -1.105 0.168-2.224 0.367-3.353 0.65C118.585 73.059 111.395 79.654 112.794 85.212z"/><linearGradient id="SVGID_14_" gradientUnits="userSpaceOnUse" x1="238.502" y1="-321.6807" x2="243.1451" y2="-305.4302" gradientTransform="matrix(0.9989 0.0463 0.0463 -0.9989 -102.1064 -293.7419)"><stop offset="0.0056" stop-color="#782F38"/><stop offset="1" stop-color="#22201E"/></linearGradient><path fill="url(#SVGID_14_)" d="M114.717 42.764c-0.16 0.118-0.676 0.448-1.209-0.302 -0.688-0.971-0.783-3.305 1.949-5.397 3.354-2.582 9.266-3.588 11.934-2.032 0.857 0.508 1.248 1.232 1.21 2.272 -0.014 0.129-0.021 0.255-0.049 0.396 0.004 0.036-0.006 0.082-0.012 0.125 0 0.282 0.111 0.512 0.252 0.74C123.725 38.531 117.559 40.942 114.717 42.764z"/><linearGradient id="SVGID_15_" gradientUnits="userSpaceOnUse" x1="202.7832" y1="-314.2979" x2="207.4283" y2="-298.0412" gradientTransform="matrix(0.9989 0.0463 0.0463 -0.9989 -102.1064 -293.7419)"><stop offset="0.0056" stop-color="#782F38"/><stop offset="1" stop-color="#22201E"/></linearGradient><path fill="url(#SVGID_15_)" d="M74.012 49.684c-0.154 0.104-0.682 0.44-1.207-0.313 -0.691-0.979-0.771-3.322 1.934-5.394 3.363-2.574 9.273-3.599 11.934-2.041 0.887 0.502 1.279 1.229 1.219 2.271 -0.002 0.129-0.012 0.271-0.039 0.396 -0.002 0.054-0.006 0.089-0.004 0.132 -0.01 0.275 0.107 0.52 0.248 0.736C83.03 45.431 76.864 47.855 74.012 49.684z"/><path fill="#231F20" d="M119.141 61.016c-0.209 2.483 0.975 4.603 2.668 4.756 1.666 0.13 3.205-1.765 3.408-4.241 0.201-2.482-1.002-4.611-2.678-4.746C120.864 56.65 119.337 58.552 119.141 61.016z"/><path fill="#231F20" d="M76.569 74.104c-0.201 2.487 0.988 4.61 2.682 4.748 1.674 0.142 3.213-1.759 3.396-4.237 0.213-2.49-0.988-4.596-2.67-4.734C78.299 69.732 76.784 71.632 76.569 74.104z"/><linearGradient id="SVGID_16_" gradientUnits="userSpaceOnUse" x1="-920.3423" y1="-553.8955" x2="-903.9688" y2="-553.8955" gradientTransform="matrix(0.9974 -0.0719 -0.0719 -0.9974 985.9363 -545.1732)"><stop offset="0" stop-color="#F3BC96"/><stop offset="1" stop-color="#EBA274"/></linearGradient><path fill="url(#SVGID_16_)" d="M107.081 55.583c1.824 5.377 12.482 23.67 17.902 28.35 -5.461 5.218-10.855 6.518-13.18 7.158 2.482-2.469-1.463-2.647 1.227-6.422 -4.354-3.693-6.176-23.092-6.432-28.276L107.081 55.583z"/><path fill="#F4F3D9" d="M80.999 98.964c16.488 16.959 31.799 16.313 41.656 13.535 3.463-0.99 2.781-6.336 4.053-15.414 -0.174 0.106-0.365 0.131-0.537 0.283C119.68 102.919 96.118 107.901 80.999 98.964z"/><path fill="#C88978" d="M80.311 99.626c-0.332-0.344-0.361-0.881-0.062-1.252l0 0c0.291-0.377 0.82-0.479 1.232-0.237l0 0c6.914 4.092 15.791 5.211 23.904 4.616l0 0c8.99-0.627 17.068-3.432 20.143-6.096l0 0c0.439-0.357 0.693-0.361 0.678-0.388l0 0c0.32-0.194 0.719-0.185 1.025 0.015l0 0c0.307 0.203 0.473 0.563 0.418 0.934l0 0c-1.395 8.867-0.186 14.488-4.736 16.201l0 0c-2.408 0.66-5.129 1.22-8.121 1.437l0 0c-0.016 0-0.031 0.002-0.049 0.002l0 0C105.198 115.547 92.993 112.695 80.311 99.626L80.311 99.626zM114.653 112.951c2.836-0.205 5.439-0.729 7.74-1.377l0 0c2.189-0.252 2.225-4.584 3.123-12.537l0 0c-4.145 2.742-11.623 5.002-19.994 5.623l0 0c-6.418 0.457-13.342-0.084-19.559-2.33l0 0C96.727 111.576 106.651 113.514 114.653 112.951L114.653 112.951zM80.508 99.783l0.488-0.818L80.508 99.783 80.508 99.783z"/><path fill="#C88978" d="M125.307 97.783c-0.234-0.476-0.029-1.049 0.447-1.275l0 0c1.855-0.899 3.422-1.771 4.57-2.512l0 0c0.445-0.285 1.035-0.156 1.32 0.291l0 0c0.28 0.438 0.159 1.031-0.285 1.317l0 0c-1.238 0.794-2.855 1.7-4.777 2.625l0 0c-0.113 0.056-0.23 0.085-0.35 0.095l0 0C125.856 98.351 125.481 98.146 125.307 97.783L125.307 97.783z"/><path fill="#C88978" d="M101.526 53.205c1.824 5.377 12.482 23.67 17.902 28.35 -5.461 5.219-10.855 6.517-13.18 7.16 2.482-2.471 6.297-4.215 8.986-7.991 -4.348-3.69-13.936-21.522-14.191-26.709L101.526 53.205z"/><polygon fill="#EFEBDD" points="60.077,154.006 66.401,141.764 103.544,162.033 93.751,177.965   "/><polygon fill="#EFEBDD" points="124.094,154.621 116.815,142.014 103.544,162.033 120.338,174.307   "/></g></g></svg>