<?xml version="1.0" encoding="utf-8"?>
<!-- Generator: Adobe Illustrator 13.0.2, SVG Export Plug-In . SVG Version: 6.00 Build 14948)  -->
<!DOCTYPE svg PUBLIC "-//W3C//DTD SVG 1.1//EN" "http://www.w3.org/Graphics/SVG/1.1/DTD/svg11.dtd">
<svg version="1.1" id="Layer_1" xmlns="http://www.w3.org/2000/svg" xmlns:xlink="http://www.w3.org/1999/xlink" x="0px" y="0px"
	 width="253.492px" height="221.079px" viewBox="0 0 253.492 221.079" enable-background="new 0 0 253.492 221.079"
	 xml:space="preserve">
<g id="Layer_1_1_">
</g>
<g id="ART">
	<circle fill="#7DC145" cx="113.184" cy="110.54" r="110.539"/>
	<path fill="#99D8F4" d="M114.104,221.066c-1.905-12.628-3.888-22.338-4.259-24.608c-5.221-31.93-26.57-46.014-26.57-46.014
		l-12.541,14.391l-26.044-11.53l1.31-3.493c0,0-4.646-7.312-12.196-1.327l-1.409-0.604l-1.293,2.756
		c-4.443,3.555-9.623,7.777-15.187,12.46c12.129,22.401,31.775,40.13,55.55,49.829l5.642-38.348l11.358,43.713
		c7.949,1.815,16.22,2.791,24.72,2.791C113.492,221.079,113.797,221.069,114.104,221.066z"/>
	<polygon fill="#009ACD" points="29.261,150.547 35.585,138.305 72.728,158.575 61.528,180.856 	"/>
	<polygon fill="#009ACD" points="91.728,153.92 85.999,138.556 72.728,158.575 90.095,175.661 	"/>
	<polygon fill="#231F20" points="59.298,160.243 82.165,156.657 77.22,177.866 	"/>
	<path fill="#231F20" d="M71.465,212.922c5.462,2.229,11.143,4.027,17,5.365l-11.358-43.713L71.465,212.922z"/>
	<g>
		<path fill="#A15F5D" d="M171.348,21.123c0,0-4.142-1.508-12.618,6.888c-4.635,4.591-37.898,40.29-37.023,70.312
			c0.748,26.116,23.46,50.522,35.677,30.592L171.348,21.123z"/>
		
			<linearGradient id="SVGID_1_" gradientUnits="userSpaceOnUse" x1="386.9214" y1="11.3301" x2="351.2771" y2="46.9744" gradientTransform="matrix(0.9936 0.1134 0.1134 -0.9936 -169.0459 123.0916)">
			<stop  offset="0" style="stop-color:#F7A58A"/>
			<stop  offset="1" style="stop-color:#FABD96"/>
		</linearGradient>
		<path fill="url(#SVGID_1_)" d="M194.501,164.739c-2.811-4.363,6.393-22.025,19.756-31.226
			c36.543-28.735,12.938-91.475,3.1-100.491l-51.04-6.056c0,0-31.872,62.792-29.927,80.404c1.941,17.63,22.986,25.125,26.17,43.876
			c0.775,4.516-6.682,17.994-10.021,24.672c0,0,8.035,17.463,3.623,27.438C165.901,178.803,190.146,175.803,194.501,164.739z"/>
		
			<linearGradient id="SVGID_2_" gradientUnits="userSpaceOnUse" x1="1103.311" y1="100.3989" x2="1107.0417" y2="116.4422" gradientTransform="matrix(0.9991 -0.0433 -0.0433 -0.9991 -905.9797 203.0565)">
			<stop  offset="0" style="stop-color:#FAB78F"/>
			<stop  offset="1" style="stop-color:#E98D69"/>
		</linearGradient>
		<path fill="url(#SVGID_2_)" d="M217.356,33.022l-51.04-6.056c0,0-5.729,11.283-12.186,25.637c14.977,4.952,37.81,8.53,43.83,9.118
			c3.701,0.373,18.269-0.137,31.652-3.097C225.964,46.001,220.81,36.194,217.356,33.022z"/>
		<path fill="#A15F5D" d="M213.332,40.956c0,0,22.715,59.136-6.83,83.958c3.939,13.256,9.852,20.479,17.371,21.653
			c7.517,1.156,34.114-14.177,28.961-47.193c-5.162-33.015-23.986-44.906-27.592-59.321c-3.617-14.395-15.037-19.504-15.037-19.504
			l-3.385,8.003L213.332,40.956z"/>
		<path fill="#A15F5D" d="M163.636,23.22c0,0,18.035,19.854,39.248,26.781c-2.807-4.369-6.66-15.768-6.66-15.768
			s10.4,15.978,22.171,20.317c11.767,4.352,7.88-16.302,2.269-24.363C215.039,22.114,202.638,5.138,163.636,23.22z"/>
		
			<linearGradient id="SVGID_3_" gradientUnits="userSpaceOnUse" x1="1109.9692" y1="300.6079" x2="1102.4171" y2="292.3689" gradientTransform="matrix(0.9904 0.1383 0.1383 -0.9904 -965.2822 237.0665)">
			<stop  offset="0" style="stop-color:#FAB78F"/>
			<stop  offset="1" style="stop-color:#E98D69"/>
		</linearGradient>
		<path fill="url(#SVGID_3_)" d="M208.408,73.998c-0.601,4.24-4.896,7.146-9.584,6.501c-4.691-0.665-8.027-4.637-7.431-8.891
			c0.584-4.239,4.875-7.158,9.573-6.5C205.679,65.77,208.987,69.741,208.408,73.998z"/>
		
			<linearGradient id="SVGID_4_" gradientUnits="userSpaceOnUse" x1="1059.5728" y1="56.522" x2="1025.2487" y2="54.2827" gradientTransform="matrix(0.9991 -0.0433 -0.0433 -0.9991 -905.9797 203.0565)">
			<stop  offset="0" style="stop-color:#FAB78F"/>
			<stop  offset="1" style="stop-color:#E98D69"/>
		</linearGradient>
		<path fill="url(#SVGID_4_)" d="M136.39,107.371c1.107,10.104,10.256,17.538,18.459,25.581l-7.473-64.694
			C140.946,83.938,135.544,99.805,136.39,107.371z"/>
		<g>
			<path fill="#834249" d="M242.076,128.928l-1.363-0.616c11.649-25.622-10.42-64.571-10.645-64.964l1.29-0.734
				C232.287,64.235,254.022,102.596,242.076,128.928z"/>
			<path fill="#834249" d="M228.569,138.644l-1.155-0.942c11.017-13.521,7.311-43.157,7.272-43.453l1.463-0.192
				C236.313,95.297,239.981,124.606,228.569,138.644z"/>
			<path fill="#834249" d="M194.347,41.898l-0.756,1.286c-5.344-3.135-21.43-16.483-22.109-17.047l0.938-1.145
				C172.593,25.14,189.099,38.854,194.347,41.898z"/>
			<path fill="#834249" d="M214.099,44.377c-0.736-4.475-3.359-11.542-5.791-17.141l1.355-0.58
				c0.979,2.246,5.869,13.768,6.131,19.419l0.057,1.566l-1.256-0.934c-8.51-6.382-18.332-22.618-18.739-23.313l1.267-0.758
				C197.229,22.801,206.144,37.552,214.099,44.377z"/>
			<path fill="#834249" d="M153.662,46.605c-0.271,0.382-26.22,37.438-24.414,62.201l-1.488,0.101
				c-1.84-25.272,23.602-61.627,24.676-63.149L153.662,46.605z"/>
		</g>
	</g>
	<polygon fill="#DB3191" points="198.974,150.114 198.974,150.112 198.975,150.111 	"/>
	<path fill="#DB3191" d="M198.974,150.114c0-0.002,0-0.002,0.001-0.003C198.824,150.144,198.897,150.129,198.974,150.114z"/>
	<path fill="#DB3191" d="M198.975,150.111C198.975,150.112,198.974,150.112,198.975,150.111
		C199.052,150.097,199.13,150.081,198.975,150.111z"/>
	<path fill="#DB3191" d="M194.854,185.029c-0.504-12.038-0.356-21.567,0.935-25.579c1.004-3.117,1.799-6.219,3.186-9.338
		c0,0.002,0,0.002,0,0.002c-10.854,14.471-22.854,19.104-44.463,21.754c-9.332,11.754-21.164,23.855-17.637,46.658
		C159.604,213.562,179.721,201.611,194.854,185.029z"/>
	<g>
		<path fill="#EFEBDD" d="M150.919,179.655c-0.674-0.287-1.334-0.562-1.991-0.832c1.87-2.381,3.772-4.676,5.583-6.955
			c21.609-2.65,33.609-7.281,44.463-21.754l0.001-0.002c-1.388,3.119-2.183,6.221-3.187,9.338c-0.392,1.213-0.677,2.938-0.871,5.075
			C183.916,173.48,170.642,177.235,150.919,179.655z"/>
	</g>
	
		<linearGradient id="SVGID_5_" gradientUnits="userSpaceOnUse" x1="1569.2222" y1="374.147" x2="1561.7482" y2="365.9933" gradientTransform="matrix(0.9643 0.2645 0.2645 -0.9643 -1438.7655 38.4798)">
		<stop  offset="0" style="stop-color:#FAB78F"/>
		<stop  offset="1" style="stop-color:#E98D69"/>
	</linearGradient>
	<path fill="url(#SVGID_5_)" d="M207.996,78.411c-1.137,4.092-5.711,6.399-10.234,5.163c-4.525-1.246-7.287-5.562-6.156-9.666
		c1.113-4.083,5.688-6.401,10.219-5.16C206.36,70.005,209.103,74.319,207.996,78.411z"/>
	
		<radialGradient id="SVGID_6_" cx="1571.9771" cy="53.6777" r="11.6401" gradientTransform="matrix(0.9963 0.0855 0.0855 -0.9963 -1375.1837 12.3362)" gradientUnits="userSpaceOnUse">
		<stop  offset="0" style="stop-color:#EC9E7D"/>
		<stop  offset="1" style="stop-color:#FAB78F"/>
	</radialGradient>
	<path fill="url(#SVGID_6_)" d="M206.417,94.748c-0.543,6.514-6.101,11.369-12.385,10.82c-6.293-0.532-10.939-6.257-10.379-12.781
		c0.573-6.513,6.112-11.357,12.413-10.826C202.343,82.489,206.992,88.229,206.417,94.748z"/>
	
		<radialGradient id="SVGID_7_" cx="1534.8462" cy="61.1035" r="11.6445" gradientTransform="matrix(0.9963 0.0855 0.0855 -0.9963 -1375.1837 12.3362)" gradientUnits="userSpaceOnUse">
		<stop  offset="0" style="stop-color:#EC9E7D"/>
		<stop  offset="1" style="stop-color:#FAB78F"/>
	</radialGradient>
	<path fill="url(#SVGID_7_)" d="M170.062,84.168c-0.551,6.523-6.105,11.369-12.4,10.836c-6.283-0.549-10.934-6.278-10.369-12.789
		c0.574-6.515,6.119-11.368,12.416-10.841C165.981,71.915,170.644,77.641,170.062,84.168z"/>
	<g>
		<path fill="#991115" d="M198.574,63.452c8.9-5.745,20.299,0.872,22.504,9.034C215.312,67.537,213.897,63.086,198.574,63.452z"/>
		<path fill="#991115" d="M154.886,42.634c8.896-5.757,20.294,0.866,22.49,9.039C171.606,46.724,170.207,42.267,154.886,42.634z"/>
		<g>
			
				<linearGradient id="SVGID_8_" gradientUnits="userSpaceOnUse" x1="443.6265" y1="35.2012" x2="465.9267" y2="25.6439" gradientTransform="matrix(0.9831 0.1833 0.1833 -0.9831 -277.9898 63.8143)">
				<stop  offset="0.0056" style="stop-color:#ED7057"/>
				<stop  offset="1" style="stop-color:#C93C2C"/>
			</linearGradient>
			<path fill="url(#SVGID_8_)" d="M154.31,93.694c0,0,2.33,11.76,34.162,17.406c-10.696,8.716-19.518,14.102-29.938,10.52
				C150.679,118.956,152.554,101.604,154.31,93.694z"/>
			<g>
				<path fill="#FFFBDA" d="M161.671,117.204c5.082,2.053,12.389-0.096,19.422-4.305c-12.623-2.796-19.778-6.581-23.805-9.803
					C156.685,108.396,157.114,115.374,161.671,117.204z"/>
			</g>
		</g>
		<path fill="#C93C2C" d="M185.935,112.489l6.303-1.158c0.393-0.072,0.652-0.449,0.584-0.843l0,0
			c-0.074-0.393-0.451-0.652-0.844-0.583l0,0l-6.305,1.158c-0.396,0.072-0.654,0.449-0.584,0.842l0,0
			c0.059,0.322,0.322,0.555,0.635,0.59l0,0C185.792,112.504,185.862,112.502,185.935,112.489L185.935,112.489z"/>
		<path fill="#CB8B7A" d="M182.115,71.877c0.012,1.656-0.353,9.595-6.238,15.626c-5.869,6.026-8.351-0.058-4.094-2.907
			c5.979-4.003,7.596-9.391,7.752-10.296C180.36,69.176,182.103,68.844,182.115,71.877z"/>
		<g>
			<path fill="#121013" d="M199.921,84.704c-0.908,2.533-0.238,5.067,1.484,5.671c1.704,0.607,3.834-0.955,4.713-3.494
				c0.901-2.527,0.229-5.067-1.484-5.686C202.91,80.607,200.8,82.16,199.921,84.704z"/>
			<path fill="#121013" d="M158.646,70.632c-0.906,2.518-0.23,5.063,1.493,5.675c1.702,0.594,3.821-0.969,4.714-3.501
				c0.9-2.525,0.23-5.071-1.49-5.687C161.638,66.521,159.533,68.103,158.646,70.632z"/>
		</g>
	</g>
	<g>
		
			<linearGradient id="SVGID_9_" gradientUnits="userSpaceOnUse" x1="477.9458" y1="20.1616" x2="495.693" y2="15.3207" gradientTransform="matrix(-0.9974 0.0719 -0.0719 -0.9974 517.39 77.0016)">
			<stop  offset="0" style="stop-color:#F3BC96"/>
			<stop  offset="1" style="stop-color:#EBA274"/>
		</linearGradient>
		<path fill="url(#SVGID_9_)" d="M40.22,149.226c-0.496-5.372-13.658-35.034-17.65-46.6C18.263,90.122-0.603,53.042,1.417,45.565
			c2.006-7.457,15.512-33.148,49.182-39.231c33.68-6.09,54.445,21.704,52.309,51.14c-1.408,19.242,4.531,51.082,0.531,73.483
			c-0.607,3.408-17.113,4.66-17.439,7.599c-0.66,5.913,0.34,11.888,1.357,15.001c-11.406,8.878-10.676,6.175-25.668,7.255
			C50.882,161.59,49.946,152.872,40.22,149.226z"/>
	</g>
	
		<linearGradient id="SVGID_10_" gradientUnits="userSpaceOnUse" x1="483.6235" y1="63.2588" x2="498.3774" y2="54.5794" gradientTransform="matrix(-0.9974 0.0719 -0.0719 -0.9974 517.39 77.0016)">
		<stop  offset="0" style="stop-color:#862837"/>
		<stop  offset="1" style="stop-color:#4C0433"/>
	</linearGradient>
	<path fill="url(#SVGID_10_)" d="M50.599,6.334C67.765,3.229,81.57,8.929,90.695,19.178C46.978,11.74,19.196,35.533,19.021,44.296
		c-0.197,9.176,13.066,39.328,13.066,39.328L9.249,86.183C2.706,71.346,0.114,50.368,1.417,45.565
		C3.423,38.108,16.929,12.417,50.599,6.334z"/>
	
		<linearGradient id="SVGID_11_" gradientUnits="userSpaceOnUse" x1="497.0376" y1="32.834" x2="504.635" y2="43.3795" gradientTransform="matrix(-0.9974 0.0719 -0.0719 -0.9974 517.39 77.0016)">
		<stop  offset="0" style="stop-color:#F3BC96"/>
		<stop  offset="1" style="stop-color:#EBA274"/>
	</linearGradient>
	<path fill="url(#SVGID_11_)" d="M27.853,81.182c0,0-18.242-11.167-26.111-3.669c-7.863,7.508,12.174,34.489,34.623,14.158
		C58.815,71.326,27.853,81.182,27.853,81.182z"/>
	<g>
		
			<radialGradient id="SVGID_12_" cx="-68.3994" cy="-973.6719" r="17.1433" gradientTransform="matrix(1.3352 -0.122 -0.0661 -0.7242 79.4668 -634.7817)" gradientUnits="userSpaceOnUse">
			<stop  offset="0.0955" style="stop-color:#E39979"/>
			<stop  offset="0.6124" style="stop-color:#F3BC96"/>
		</radialGradient>
		<path fill="url(#SVGID_12_)" d="M72.476,76.354c0.516,5.709-7.602,11.113-18.141,12.086c-10.525,0.965-19.482-2.895-20.014-8.614
			c-0.521-5.712,7.588-11.125,18.121-12.079C62.989,66.787,71.944,70.638,72.476,76.354z"/>
		<g>
			
				<radialGradient id="SVGID_13_" cx="-236.1152" cy="-1264.3765" r="17.1288" gradientTransform="matrix(1.3004 -0.3267 -0.1772 -0.7054 182.7164 -891.1989)" gradientUnits="userSpaceOnUse">
				<stop  offset="0.0955" style="stop-color:#E39979"/>
				<stop  offset="0.6124" style="stop-color:#F3BC96"/>
			</radialGradient>
			<path fill="url(#SVGID_13_)" d="M81.978,81.755c1.398,5.588,10.848,8.002,21.1,5.412c0.412-0.102,0.791-0.239,1.178-0.342
				c-0.123-7.322-1.211-14.281-2.77-19.994c-0.023-0.148-0.082-0.297-0.111-0.449c-1.105,0.168-2.223,0.367-3.352,0.649
				C87.769,69.601,80.579,76.196,81.978,81.755z"/>
		</g>
		<g>
			
				<linearGradient id="SVGID_14_" gradientUnits="userSpaceOnUse" x1="361.7593" y1="229.731" x2="366.4023" y2="245.9808" gradientTransform="matrix(0.9989 0.0463 0.0463 -0.9989 -281.5745 247.8997)">
				<stop  offset="0.0056" style="stop-color:#782F38"/>
				<stop  offset="1" style="stop-color:#22201E"/>
			</linearGradient>
			<path fill="url(#SVGID_14_)" d="M83.901,39.306c-0.16,0.118-0.676,0.449-1.209-0.301c-0.688-0.972-0.783-3.306,1.949-5.398
				c3.354-2.582,9.266-3.588,11.934-2.032c0.857,0.508,1.248,1.232,1.211,2.272c-0.014,0.129-0.021,0.255-0.049,0.395
				c0.004,0.037-0.006,0.082-0.012,0.126c0,0.282,0.111,0.512,0.252,0.74C92.909,35.072,86.743,37.484,83.901,39.306z"/>
			
				<linearGradient id="SVGID_15_" gradientUnits="userSpaceOnUse" x1="326.0396" y1="237.1147" x2="330.6848" y2="253.3721" gradientTransform="matrix(0.9989 0.0463 0.0463 -0.9989 -281.5745 247.8997)">
				<stop  offset="0.0056" style="stop-color:#782F38"/>
				<stop  offset="1" style="stop-color:#22201E"/>
			</linearGradient>
			<path fill="url(#SVGID_15_)" d="M43.196,46.226c-0.154,0.105-0.682,0.441-1.207-0.314c-0.691-0.978-0.771-3.322,1.934-5.393
				c3.363-2.574,9.273-3.598,11.934-2.041c0.887,0.502,1.279,1.229,1.219,2.271c-0.002,0.128-0.012,0.271-0.039,0.395
				c-0.002,0.054-0.006,0.089-0.004,0.132c-0.01,0.276,0.107,0.52,0.248,0.736C52.214,41.973,46.048,44.397,43.196,46.226z"/>
		</g>
		<path fill="#231F20" d="M88.325,57.558c-0.209,2.484,0.975,4.602,2.668,4.756c1.666,0.13,3.205-1.764,3.408-4.241
			c0.201-2.483-1.002-4.612-2.678-4.747C90.048,53.192,88.521,55.094,88.325,57.558z"/>
		<path fill="#231F20" d="M45.753,70.646c-0.201,2.487,0.988,4.61,2.682,4.748c1.674,0.142,3.213-1.758,3.396-4.237
			c0.213-2.49-0.988-4.596-2.67-4.735C47.483,66.274,45.968,68.175,45.753,70.646z"/>
	</g>
	
		<linearGradient id="SVGID_16_" gradientUnits="userSpaceOnUse" x1="-729.4058" y1="38.647" x2="-713.0322" y2="38.647" gradientTransform="matrix(0.9974 -0.0719 -0.0719 -0.9974 807.2842 56.0991)">
		<stop  offset="0" style="stop-color:#F3BC96"/>
		<stop  offset="1" style="stop-color:#EBA274"/>
	</linearGradient>
	<path fill="url(#SVGID_16_)" d="M76.265,52.126c1.824,5.376,12.482,23.67,17.902,28.349c-5.461,5.218-10.855,6.517-13.18,7.159
		c2.482-2.469-1.463-2.648,1.227-6.423c-4.354-3.693-6.176-23.091-6.432-28.276L76.265,52.126z"/>
	<g>
		<g>
			<path fill="#F4F3D9" d="M50.183,95.507c16.488,16.958,31.799,16.312,41.656,13.534c3.463-0.989,2.781-6.335,4.053-15.413
				c-0.174,0.106-0.365,0.131-0.537,0.283C88.864,99.462,65.302,104.443,50.183,95.507z"/>
			<path fill="#C88978" d="M49.495,96.168c-0.332-0.343-0.361-0.88-0.062-1.252l0,0c0.291-0.376,0.82-0.479,1.232-0.237l0,0
				c6.914,4.092,15.791,5.211,23.904,4.616l0,0c8.99-0.626,17.068-3.431,20.143-6.095l0,0c0.439-0.358,0.693-0.361,0.678-0.388l0,0
				c0.32-0.195,0.719-0.184,1.025,0.015l0,0c0.307,0.203,0.473,0.563,0.418,0.934l0,0c-1.395,8.867-0.186,14.488-4.736,16.201l0,0
				c-2.408,0.66-5.129,1.219-8.121,1.435l0,0c-0.016,0.001-0.031,0.003-0.049,0.003l0,0
				C74.382,112.088,62.177,109.237,49.495,96.168L49.495,96.168z M83.837,109.492c2.836-0.204,5.439-0.729,7.74-1.376l0,0
				c2.189-0.252,2.225-4.584,3.123-12.537l0,0c-4.145,2.742-11.623,5.001-19.994,5.623l0,0c-6.418,0.457-13.342-0.084-19.559-2.33
				l0,0C65.911,108.118,75.835,110.056,83.837,109.492L83.837,109.492z M49.692,96.325l0.488-0.818L49.692,96.325L49.692,96.325z"/>
		</g>
	</g>
	<path fill="#C88978" d="M94.491,94.325c-0.234-0.476-0.029-1.049,0.447-1.276l0,0c1.855-0.899,3.422-1.771,4.57-2.511l0,0
		c0.445-0.285,1.035-0.156,1.32,0.291l0,0c0.281,0.437,0.16,1.031-0.285,1.317l0,0c-1.238,0.794-2.855,1.7-4.777,2.625l0,0
		c-0.113,0.055-0.23,0.085-0.35,0.095l0,0C95.04,94.893,94.665,94.688,94.491,94.325L94.491,94.325z"/>
	<path fill="#C88978" d="M70.71,49.747c1.824,5.377,12.482,23.67,17.902,28.349c-5.461,5.219-10.855,6.517-13.18,7.16
		c2.482-2.47,6.297-4.214,8.986-7.991c-4.348-3.691-13.936-21.523-14.191-26.709L70.71,49.747z"/>
	<polygon fill="#EFEBDD" points="29.261,150.547 35.585,138.305 72.728,158.575 62.935,174.506 	"/>
	<polygon fill="#EFEBDD" points="93.278,151.163 85.999,138.556 72.728,158.575 89.522,170.849 	"/>
</g>
</svg>
