<svg xmlns="http://www.w3.org/2000/svg" version="1.1" id="Layer_1" x="0px" y="0px" width="261.432px" height="390.257px" viewBox="0 0 261.432 390.257" enable-background="new 0 0 261.432 390.257" xml:space="preserve"><g id="Layer_1_1_"/><g id="ART"><path fill="#A15F5D" d="M91.728 8.69c0 0 4.285-1.029 11.756 8.274 4.085 5.086 33.087 44.327 28.814 74.054 -3.705 25.863-29.038 47.539-38.915 26.35L91.728 8.69z"/><linearGradient id="SVGID_1_" gradientUnits="userSpaceOnUse" x1="-666.5833" y1="540.0122" x2="-702.2286" y2="504.3669" gradientTransform="matrix(-1 0 0 1 -635.1597 -402.7432)"><stop offset="0" stop-color="#F7A58A"/><stop offset="1" stop-color="#FABD96"/></linearGradient><path fill="url(#SVGID_1_)" d="M52.442 148.755c3.286-4.017-3.854-22.608-16.09-33.264C3.303 82.798 33.869 23.139 44.667 15.297l51.396-0.23c0 0 24.548 66.001 20.618 83.28 -3.927 17.297-25.688 22.355-30.977 40.626 -1.281 4.397 4.6 18.635 7.159 25.649 0 0-9.963 16.438-6.711 26.85C79.263 165.971 55.514 160.242 52.442 148.755z"/><path fill="#A15F5D" d="M47.767 23.635c0 0-29.271 56.18-2.731 84.191 -5.417 12.724-12.108 19.231-19.715 19.545 -7.599 0.297-32.287-17.953-23.425-50.173 8.873-32.216 28.923-41.897 34.144-55.811C41.26 7.497 53.186 3.715 53.186 3.715l2.455 8.335L47.767 23.635z"/><path fill="#A15F5D" d="M99.152 11.648c0 0-20.171 17.681-42.03 22.158 3.282-4.022 8.404-14.911 8.404-14.911S53.381 33.591 41.194 36.569c-12.184 2.989-5.979-17.09 0.51-24.463C48.206 4.721 62.452-10.739 99.152 11.648z"/><path fill="#834249" d="M9.233 107.781l1.428-0.458C1.987 80.545 28.332 44.35 28.599 43.985L27.4 43.109C26.294 44.616 0.35 80.265 9.233 107.781z"/><path fill="#834249" d="M21.552 118.966l1.254-0.807c-9.412-14.683-2.371-43.707-2.3-43.996l-1.431-0.357C18.771 75.021 11.804 103.725 21.552 118.966z"/><path fill="#834249" d="M66.522 26.724l0.604 1.364c5.666-2.509 23.159-13.947 23.897-14.431l-0.8-1.243C90.037 12.54 72.081 24.293 66.522 26.724z"/><path fill="#834249" d="M46.616 26.948c1.236-4.363 4.646-11.087 7.695-16.374l-1.279-0.73c-1.229 2.121-7.395 13.014-8.295 18.599l-0.233 1.55 1.354-0.785C55.039 23.832 66.637 8.814 67.12 8.169l-1.174-0.897C65.823 7.422 55.294 21.068 46.616 26.948z"/><path fill="#834249" d="M106.41 36.013c0.228 0.411 21.806 40.17 17.206 64.568l1.468 0.27c4.692-24.901-16.464-63.906-17.359-65.541L106.41 36.013z"/><path fill="#F2D9A1" d="M91.366 160.372c-21.172-5.084-32.568-11.046-41.713-26.658 -0.299-0.096 0.3 0.099 0 0 1.025 3.257 1.465 6.428 2.108 9.64 3.309 16.521-21.545 118.668-21.545 118.668l49.026 6.608c0 0 2.764-12.119 19.825-47.928C113.261 190.962 100.636 175.243 91.366 160.372z"/><path fill="#EFEBDD" d="M94.052 168.517c0.701-0.21 1.388-0.408 2.071-0.602 -1.587-2.577-3.22-5.073-4.758-7.542 -21.171-5.084-32.567-11.046-41.712-26.656l0 0c1.025 3.256 1.464 6.427 2.108 9.639 0.25 1.249 0.337 2.995 0.288 5.142C61.968 158.64 74.73 163.876 94.052 168.517z"/><linearGradient id="SVGID_2_" gradientUnits="userSpaceOnUse" x1="-46.9832" y1="930.9858" x2="-18.0787" y2="930.9858" gradientTransform="matrix(0.9944 -0.1056 0.1056 0.9944 152.8621 -756.3243)"><stop offset="0" stop-color="#F7A58A"/><stop offset="1" stop-color="#FABD96"/></linearGradient><path fill="url(#SVGID_2_)" d="M207.709 173.411c0 0 22.582-7.965 24.953-6.793 2.379 1.168-10.398 9.168-15.447 11.463C217.215 178.081 197.147 178.932 207.709 173.411z"/><linearGradient id="SVGID_3_" gradientUnits="userSpaceOnUse" x1="-134.7581" y1="947.271" x2="8.3613" y2="947.271" gradientTransform="matrix(0.9944 -0.1056 0.1056 0.9944 152.8621 -756.3243)"><stop offset="0" stop-color="#F7A58A"/><stop offset="1" stop-color="#FABD96"/></linearGradient><path fill="url(#SVGID_3_)" d="M129.867 199.355c-13.402-4.744-13.104 20.348-1.204 16.289l74.84-26.093c8.182 3.38 27.491 8.775 39.282 4.984l-19.653-2.123c-0.303-0.039-0.483-0.35-0.4-0.697 0.078-0.361 0.385-0.615 0.691-0.602l22.311 2.418c4.377-1.574 8.176-3.275 10.926-4.834l-29.771-3.963c-0.299-0.042-0.47-0.364-0.392-0.73 0.09-0.348 0.395-0.604 0.683-0.553l31.26 4.167c2.2-1.46 3.356-2.673 2.894-3.355 -2.218-3.473-42.539-11.384-53.621-10.851L129.867 199.355z"/><path fill="#A88859" d="M127.199 196.13c-1.697 6.393-6.027 13.139-9.635 17.902 1.688 0.6 3.354 1.156 4.956 1.658 3.405-4.812 7.642-11.33 9.452-17.33C130.555 197.757 128.958 196.996 127.199 196.13z"/><path fill="#F2D9A1" d="M58.867 188.339c5.043 3.301 38.774 18.721 58.697 25.694 3.606-4.764 7.938-11.51 9.635-17.902 -16.618-8.312-55.268-34.319-55.268-34.319L58.867 188.339z"/><path fill="#A88859" d="M58.456 188.966l0.819-1.255c4.903 3.216 33.634 17.218 57.075 25.41l0 0 -0.5 1.412C92.243 206.267 63.636 192.347 58.456 188.966L58.456 188.966z"/><path fill="#7A7941" d="M30.218 262.023l49.026 6.609 4.269 121.625 -78.67-7.318C4.843 382.939-12.1 305.765 30.218 262.023z"/><path fill="#991115" d="M59.879 47.659c-8.192-6.717-20.27-1.435-23.384 6.425C42.785 49.82 44.694 45.558 59.879 47.659z"/><path fill="#991115" d="M105.646 31.929c-8.187-6.729-20.262-1.44-23.372 6.431C88.568 34.097 90.466 29.827 105.646 31.929z"/><linearGradient id="SVGID_4_" gradientUnits="userSpaceOnUse" x1="-603.5505" y1="571.2505" x2="-581.2501" y2="580.8079" gradientTransform="matrix(-0.9975 0.0707 0.0707 0.9975 -554.1274 -428.8677)"><stop offset="0.0056" stop-color="#ED7057"/><stop offset="1" stop-color="#C93C2C"/></linearGradient><path fill="url(#SVGID_4_)" d="M100.428 82.725c0 0-3.646 11.42-35.915 13.422 9.64 9.872 17.794 16.223 28.552 13.844C101.172 108.235 101.275 90.782 100.428 82.725z"/><path fill="#FFFBDA" d="M90.448 105.248c-5.281 1.463-12.299-1.499-18.811-6.479 12.859-1.347 20.397-4.296 24.763-7.04C96.402 97.062 95.185 103.947 90.448 105.248z"/><path fill="#C93C2C" d="M66.877 97.813l-6.131-1.865c-0.384-0.116-0.6-0.521-0.484-0.903l0 0c0.118-0.382 0.521-0.598 0.903-0.483l0 0 6.134 1.865c0.383 0.116 0.599 0.521 0.484 0.902l0 0c-0.098 0.313-0.386 0.515-0.697 0.515l0 0C67.017 97.844 66.947 97.834 66.877 97.813L66.877 97.813z"/><path fill="#CB8B7A" d="M75.275 57.896c-0.197 1.645-0.735 9.573 4.43 16.233 5.146 6.652 8.303 0.89 4.396-2.425 -5.484-4.655-6.481-10.191-6.536-11.108C77.325 55.411 75.633 54.884 75.275 57.896z"/><path fill="#121013" d="M56.13 68.622c0.615 2.62-0.337 5.062-2.118 5.466 -1.763 0.41-3.701-1.384-4.286-4.006 -0.607-2.613 0.346-5.062 2.12-5.48C53.625 64.213 55.546 65.994 56.13 68.622z"/><path fill="#121013" d="M98.735 59.319c0.614 2.604-0.346 5.058-2.127 5.469 -1.758 0.397-3.688-1.396-4.287-4.013 -0.606-2.61 0.349-5.064 2.126-5.48C96.229 54.896 98.142 56.706 98.735 59.319z"/></g></svg>