<?xml version="1.0" encoding="utf-8"?>
<!-- Generator: Adobe Illustrator 13.0.2, SVG Export Plug-In . SVG Version: 6.00 Build 14948)  -->
<!DOCTYPE svg PUBLIC "-//W3C//DTD SVG 1.1//EN" "http://www.w3.org/Graphics/SVG/1.1/DTD/svg11.dtd">
<svg version="1.1" id="Layer_1" xmlns="http://www.w3.org/2000/svg" xmlns:xlink="http://www.w3.org/1999/xlink" x="0px" y="0px"
	 width="261.43px" height="390.26px" viewBox="0 0 261.43 390.26" enable-background="new 0 0 261.43 390.26" xml:space="preserve">
<g id="Layer_1_1_">
</g>
<g id="ART">
	<path fill="#A15F5D" d="M91.73,8.69c0,0,4.29-1.03,11.76,8.27c4.08,5.09,33.09,44.33,28.81,74.05
		c-3.71,25.86-29.04,47.54-38.92,26.35L91.73,8.69z"/>
	
		<linearGradient id="SVGID_1_" gradientUnits="userSpaceOnUse" x1="-1324.1516" y1="-150.7554" x2="-1359.7969" y2="-115.1101" gradientTransform="matrix(-1 0 0 -1 -1292.728 -13.4863)">
		<stop  offset="0" style="stop-color:#F7A58A"/>
		<stop  offset="1" style="stop-color:#FABD96"/>
	</linearGradient>
	<path fill="url(#SVGID_1_)" d="M52.44,148.75c3.29-4.02-3.85-22.61-16.09-33.26C3.3,82.8,33.87,23.14,44.67,15.3l51.4-0.23
		c0,0,24.55,66,20.62,83.28c-3.93,17.3-25.69,22.35-30.98,40.63c-1.28,4.4,4.6,18.63,7.16,25.65c0,0-9.96,16.44-6.71,26.85
		C79.26,165.97,55.51,160.24,52.44,148.75z"/>
	<path fill="#A15F5D" d="M47.77,23.63c0,0-29.27,56.18-2.73,84.19c-5.42,12.72-12.11,19.23-19.72,19.54
		c-7.6,0.3-32.29-17.95-23.42-50.17c8.87-32.22,28.92-41.9,34.14-55.81C41.26,7.5,53.19,3.71,53.19,3.71l2.46,8.33L47.77,23.63z"/>
	<path fill="#A15F5D" d="M99.15,11.65c0,0-20.17,17.68-42.03,22.16c3.28-4.02,8.4-14.91,8.4-14.91s-12.14,14.7-24.33,17.67
		c-12.18,2.99-5.98-17.09,0.51-24.46C48.21,4.72,62.45-10.74,99.15,11.65z"/>
	<path fill="#834249" d="M9.23,107.78l1.43-0.46C1.99,80.54,28.33,44.35,28.6,43.98l-1.2-0.88C26.29,44.62,0.35,80.27,9.23,107.78z"
		/>
	<path fill="#834249" d="M21.55,118.97l1.25-0.81c-9.41-14.68-2.37-43.71-2.3-44l-1.43-0.36C18.77,75.02,11.8,103.73,21.55,118.97z"
		/>
	<path fill="#834249" d="M66.52,26.72l0.6,1.36c5.67-2.51,23.16-13.95,23.9-14.43l-0.8-1.24C90.04,12.54,72.08,24.29,66.52,26.72z"
		/>
	<path fill="#834249" d="M46.62,26.95c1.24-4.36,4.65-11.09,7.69-16.37l-1.28-0.73c-1.23,2.12-7.4,13.01-8.3,18.6l-0.23,1.55
		l1.35-0.79c9.18-5.38,20.78-20.39,21.26-21.04l-1.17-0.9C65.82,7.42,55.29,21.07,46.62,26.95z"/>
	<path fill="#834249" d="M106.41,36.01c0.23,0.41,21.81,40.17,17.21,64.57l1.47,0.27c4.69-24.9-16.46-63.91-17.36-65.54
		L106.41,36.01z"/>
	<path fill="#F2D9A1" d="M91.37,160.37c-21.17-5.08-32.57-11.05-41.71-26.66c-0.3-0.1,0.3,0.1,0,0c1.03,3.26,1.47,6.43,2.11,9.64
		c3.31,16.52-21.54,118.67-21.54,118.67l49.03,6.61c0,0,2.76-12.12,19.82-47.93C113.26,190.96,100.64,175.24,91.37,160.37z"/>
	<path fill="#EFEBDD" d="M94.05,168.52c0.7-0.21,1.39-0.41,2.07-0.6c-1.59-2.58-3.22-5.07-4.76-7.54
		c-21.17-5.08-32.57-11.05-41.71-26.66l0,0c1.03,3.26,1.46,6.43,2.11,9.64c0.25,1.25,0.34,3,0.29,5.14
		C61.97,158.64,74.73,163.88,94.05,168.52z"/>
	
		<linearGradient id="SVGID_2_" gradientUnits="userSpaceOnUse" x1="-375.2302" y1="-559.166" x2="-346.3252" y2="-559.166" gradientTransform="matrix(0.9944 -0.1056 -0.1056 -0.9944 518.5347 -421.2513)">
		<stop  offset="0" style="stop-color:#F7A58A"/>
		<stop  offset="1" style="stop-color:#FABD96"/>
	</linearGradient>
	<path fill="url(#SVGID_2_)" d="M207.71,173.41c0,0,22.58-7.97,24.95-6.79c2.38,1.17-10.4,9.17-15.45,11.46
		C217.22,178.08,197.15,178.93,207.71,173.41z"/>
	
		<linearGradient id="SVGID_3_" gradientUnits="userSpaceOnUse" x1="-463.0051" y1="-575.4517" x2="-319.8853" y2="-575.4517" gradientTransform="matrix(0.9944 -0.1056 -0.1056 -0.9944 518.5347 -421.2513)">
		<stop  offset="0" style="stop-color:#F7A58A"/>
		<stop  offset="1" style="stop-color:#FABD96"/>
	</linearGradient>
	<path fill="url(#SVGID_3_)" d="M129.87,199.35c-13.4-4.74-13.1,20.35-1.2,16.29l74.84-26.09c8.18,3.38,27.49,8.77,39.28,4.98
		l-19.65-2.12c-0.3-0.04-0.48-0.35-0.4-0.7c0.08-0.36,0.39-0.61,0.69-0.6l22.31,2.42c4.38-1.57,8.18-3.28,10.93-4.83l-29.77-3.96
		c-0.3-0.04-0.47-0.36-0.39-0.73c0.09-0.35,0.39-0.6,0.68-0.55l31.26,4.17c2.2-1.46,3.36-2.67,2.89-3.35
		c-2.22-3.47-42.54-11.38-53.62-10.85L129.87,199.35z"/>
	<path fill="#A88859" d="M127.2,196.13c-1.7,6.39-6.03,13.14-9.64,17.9c1.69,0.6,3.35,1.16,4.96,1.66
		c3.41-4.81,7.64-11.33,9.45-17.33C130.55,197.76,128.96,197,127.2,196.13z"/>
	<path fill="#F2D9A1" d="M58.87,188.34c5.04,3.3,38.77,18.72,58.7,25.69c3.61-4.76,7.94-11.51,9.64-17.9
		c-16.62-8.31-55.27-34.32-55.27-34.32L58.87,188.34z"/>
	<path fill="#A88859" d="M58.46,188.97l0.82-1.25c4.9,3.22,33.63,17.22,57.08,25.41l0,0l-0.5,1.41
		C92.24,206.27,63.64,192.35,58.46,188.97L58.46,188.97z"/>
	<path fill="#991115" d="M59.88,47.66c-8.19-6.72-20.27-1.44-23.38,6.42C42.79,49.82,44.69,45.56,59.88,47.66z"/>
	<path fill="#991115" d="M105.65,31.93c-8.19-6.73-20.26-1.44-23.37,6.43C88.57,34.1,90.47,29.83,105.65,31.93z"/>
	
		<linearGradient id="SVGID_4_" gradientUnits="userSpaceOnUse" x1="-1246.4402" y1="-193.916" x2="-1224.1398" y2="-203.4734" gradientTransform="matrix(-0.9975 0.0707 -0.0707 -0.9975 -1168.7334 -7.0253)">
		<stop  offset="5.600000e-03" style="stop-color:#ED7057"/>
		<stop  offset="1" style="stop-color:#C93C2C"/>
	</linearGradient>
	<path fill="url(#SVGID_4_)" d="M100.43,82.73c0,0-3.65,11.42-35.92,13.42c9.64,9.87,17.79,16.22,28.55,13.84
		C101.17,108.23,101.27,90.78,100.43,82.73z"/>
	<path fill="#FFFBDA" d="M90.45,105.25c-5.28,1.46-12.3-1.5-18.81-6.48c12.86-1.35,20.4-4.3,24.76-7.04
		C96.4,97.06,95.18,103.95,90.45,105.25z"/>
	<path fill="#C93C2C" d="M66.88,97.81l-6.13-1.86c-0.38-0.12-0.6-0.52-0.48-0.9l0,0c0.12-0.38,0.52-0.6,0.9-0.48l0,0l6.13,1.86
		c0.38,0.12,0.6,0.52,0.48,0.9l0,0c-0.1,0.31-0.39,0.51-0.7,0.51l0,0C67.02,97.84,66.95,97.83,66.88,97.81L66.88,97.81z"/>
	<path fill="#CB8B7A" d="M75.27,57.9c-0.2,1.65-0.73,9.57,4.43,16.23c5.15,6.65,8.3,0.89,4.4-2.42c-5.48-4.66-6.48-10.19-6.54-11.11
		C77.33,55.41,75.63,54.88,75.27,57.9z"/>
	<path fill="#121013" d="M56.13,68.62c0.62,2.62-0.34,5.06-2.12,5.47c-1.76,0.41-3.7-1.38-4.29-4.01c-0.61-2.61,0.35-5.06,2.12-5.48
		C53.63,64.21,55.55,65.99,56.13,68.62z"/>
	<path fill="#121013" d="M98.73,59.32c0.61,2.6-0.35,5.06-2.13,5.47c-1.76,0.4-3.69-1.4-4.29-4.01c-0.61-2.61,0.35-5.06,2.13-5.48
		C96.23,54.9,98.14,56.71,98.73,59.32z"/>
</g>
</svg>
