<svg xmlns="http://www.w3.org/2000/svg" version="1.1" id="Layer_1" x="0px" y="0px" width="308.693px" height="500.976px" viewBox="0 0 308.693 500.976" enable-background="new 0 0 308.693 500.976" xml:space="preserve"><linearGradient id="SVGID_1_" gradientUnits="userSpaceOnUse" x1="-1844.6914" y1="-352.9028" x2="-1833.6783" y2="-355.6567" gradientTransform="matrix(-0.3864 -0.9224 -0.9224 0.3864 -987.306 -1339.1346)"><stop offset="0" stop-color="#EFA489"/><stop offset="1" stop-color="#F3BC96"/></linearGradient><path fill="url(#SVGID_1_)" d="M26.904 210.339c0 0 5.272 8.98-7.521 15.982 -1.733 4.093-2.045 2.46-0.567 5.298 6.103 0.376 15.442 3.904 20.935 4.303 5.512 0.364 4.297-15.472 17.08-23.4 12.78-7.922 14.539-3.194 24.379-9.208l-10.961-8.462c-9.059 1.211-11.449 2.674-15.729 5.187 -4.289 2.531-19.36 2.47-26.229 1.672C26.438 201.486 26.904 210.339 26.904 210.339z"/><linearGradient id="SVGID_2_" gradientUnits="userSpaceOnUse" x1="-1956.1665" y1="-284.6943" x2="-1948.3258" y2="-302.6483" gradientTransform="matrix(0.1321 0.9912 -0.9912 0.1321 -37.5532 2185.8816)"><stop offset="0" stop-color="#EFA489"/><stop offset="1" stop-color="#F3BC96"/></linearGradient><path fill="url(#SVGID_2_)" d="M49.802 226.052c-4.065 5.278-7.454 10.033-10.049 9.87 -5.494-0.401-19.136-6.194-25.229-6.573 6.432-7.335 14.296-19.728 14.296-19.728s10.111 8.045 16.69 13.109L49.802 226.052z"/><linearGradient id="SVGID_3_" gradientUnits="userSpaceOnUse" x1="-1951.2793" y1="-288.606" x2="-1944.1018" y2="-305.0417" gradientTransform="matrix(0.1321 0.9912 -0.9912 0.1321 -37.5532 2185.8816)"><stop offset="0" stop-color="#EFA489"/><stop offset="1" stop-color="#F3BC96"/></linearGradient><path fill="url(#SVGID_3_)" d="M29.427 233.839c3.986 0.974 7.816 1.892 10.326 2.079 2.595 0.167 5.985-4.586 10.049-9.869l-4.289-3.327c-2.312-1.764-5.912-3.606-9.637-5.234C30.2 222.893 29.474 230.735 29.427 233.839z"/><linearGradient id="SVGID_4_" gradientUnits="userSpaceOnUse" x1="-1903.3066" y1="-322.019" x2="-1919.0031" y2="-314.9817" gradientTransform="matrix(0.1321 0.9912 -0.9912 0.1321 -37.5532 2185.8816)"><stop offset="0" stop-color="#EFA489"/><stop offset="1" stop-color="#F3BC96"/></linearGradient><path fill="url(#SVGID_4_)" d="M28.225 224.782c0 0-18.531 22.124-22.625 28.217 -5.726 8.521 3.601 11.025 11.563 1.002 13.439-16.901 22.668-26.049 22.668-26.049S32.069 224.479 28.225 224.782z"/><linearGradient id="SVGID_5_" gradientUnits="userSpaceOnUse" x1="-2153.3003" y1="-136.2866" x2="-2152.6177" y2="-118.6892" gradientTransform="matrix(-0.2702 0.9628 -0.9628 -0.2702 -658.948 2284.6353)"><stop offset="0" stop-color="#EFA489"/><stop offset="1" stop-color="#F3BC96"/></linearGradient><path fill="url(#SVGID_5_)" d="M39.005 226.643c0 0-17.864 20.542-21.494 26.907 -5.09 8.922 4.383 10.736 11.602 0.15 12.15-17.849 20.691-27.649 20.691-27.649S42.825 226.066 39.005 226.643z"/><linearGradient id="SVGID_6_" gradientUnits="userSpaceOnUse" x1="-1633.8257" y1="-589.6152" x2="-1641.6799" y2="-588.3599" gradientTransform="matrix(0.3819 0.9243 -0.9243 0.3819 99.7309 1980.0975)"><stop offset="0" stop-color="#EFA489"/><stop offset="1" stop-color="#F3BC96"/></linearGradient><path fill="url(#SVGID_6_)" d="M24.429 218.229c0 0-18.836 19.622-22.774 25.823 -5.508 8.657 3.867 10.919 11.563 0.713 13.02-17.229 18.193-21.206 18.193-21.206S28.279 217.827 24.429 218.229z"/><linearGradient id="SVGID_7_" gradientUnits="userSpaceOnUse" x1="-1934.8271" y1="-309.1709" x2="-1947.2155" y2="-316.0066" gradientTransform="matrix(0.1321 0.9912 -0.9912 0.1321 -37.5532 2185.8816)"><stop offset="0" stop-color="#EFA489"/><stop offset="1" stop-color="#F3BC96"/></linearGradient><path fill="url(#SVGID_7_)" d="M23.872 212.975c-9.05 8.785-16.789 5.42-17.547-1.443 1.102-1.225 19.768-10.598 21.967-9.823 0.695 1.092 5.73 9.055 2.496 13.925L23.872 212.975z"/><path fill="#C88978" d="M22.392 232.292c-0.322-0.264-0.797-0.214-1.059 0.11l0 0c-0.05 0.103-12.662 15.712-13.308 17.318l0 0c-0.065 0.165-0.04 0.36-0.042 0.362l0 0 0.006 0.001c0.051 0.414 0.428 0.701 0.84 0.647l0 0c0.319-0.042 0.566-0.274 0.631-0.568l0 0c0.304-0.575 3.547-4.866 6.604-8.717l0 0c3.243-4.132 6.435-8.1 6.44-8.102l0 0c0.054-0.069 0.097-0.142 0.123-0.22l0 0C22.731 232.832 22.642 232.496 22.392 232.292L22.392 232.292z"/><path fill="#C88978" d="M27.175 239.817c-0.342-0.231-0.807-0.141-1.041 0.196l0 0 -9.98 14.725c-0.23 0.342-0.141 0.803 0.204 1.039l0 0c0.342 0.229 0.804 0.139 1.035-0.199l0 0 9.981-14.72c0.041-0.052 0.066-0.113 0.088-0.17l0 0C27.571 240.373 27.46 240.015 27.175 239.817L27.175 239.817z"/><path fill="#C88978" d="M32.429 241.254c-6.782-2.505-11.961-13.988-11.965-14.036l0 0 0.004 0.007c-0.166-0.386-0.605-0.558-0.983-0.391l0 0c-0.377 0.166-0.553 0.61-0.385 0.984l0 0c0.062 0.048 5.071 11.81 12.792 14.836l0 0c0.387 0.148 0.82-0.051 0.968-0.433l0 0c0.002-0.008 0.005-0.015 0.006-0.021l0 0C33.001 241.815 32.807 241.394 32.429 241.254L32.429 241.254z"/><linearGradient id="SVGID_8_" gradientUnits="userSpaceOnUse" x1="-2201.5723" y1="-130.1665" x2="-2179.9683" y2="-122.5909" gradientTransform="matrix(-0.2702 0.9628 -0.9628 -0.2702 -658.948 2284.6353)"><stop offset="0" stop-color="#EFA489"/><stop offset="1" stop-color="#F3BC96"/></linearGradient><path fill="url(#SVGID_8_)" d="M47.534 209.154c-4.605 3.894-9.395 31.45-9.395 31.45l11.662-14.555c2.564-3.225 8.705-13.248 12.455-16.574C58.171 205.721 50.499 206.664 47.534 209.154z"/><path fill="#C88978" d="M48.103 208.667c-0.264-0.318-0.737-0.359-1.051-0.087l0 0c-1.807 1.544-3.141 4.409-4.256 7.54l0 0c-2.088 5.95-3.195 12.857-3.195 12.887l0 0c-0.067 0.401 0.213 0.79 0.617 0.856l0 0c0.41 0.059 0.783-0.217 0.854-0.619l0 0c0.007-0.013 1.104-6.862 3.134-12.623l0 0c1.053-3.029 2.426-5.751 3.809-6.894l0 0c0.109-0.089 0.184-0.198 0.227-0.318l0 0C48.327 209.161 48.279 208.88 48.103 208.667L48.103 208.667z"/><path fill="#F2D9A1" d="M191.009 173.383l-28.697-22.232c-8.389 0.57-49.74 18.357-80.757 33.633 4.186 6.076 7.736 15.35 9.703 22.407C119.441 197.185 184.798 179.844 191.009 173.383z"/><path fill="#A88859" d="M142.27 191.032c-0.074-17.783 15.571-36.322 20.522-41.447C176.156 164.412 164.149 187.593 142.27 191.032z"/><linearGradient id="SVGID_9_" gradientUnits="userSpaceOnUse" x1="-2236.6743" y1="-106.6743" x2="-2200.9331" y2="-106.6743" gradientTransform="matrix(-0.3321 0.9432 -0.9432 -0.3321 -763.7488 2258.3945)"><stop offset="0" stop-color="#EFEBDD"/><stop offset="1" stop-color="#FFFFFF"/></linearGradient><path fill="url(#SVGID_9_)" d="M81.557 184.783c2.805 4.749 8.044 17.089 9.7 22.407 -8.192 3.44-19.75 7.638-25.809 9.812 -2.794-5.413-7.191-15.751-9.538-21.261C63.95 192.542 74.179 188.095 81.557 184.783z"/><path fill="#A88859" d="M91.964 206.967c-1.687-5.416-6.902-17.7-9.769-22.562l0 0c-0.212-0.363-0.667-0.474-1.021-0.269l0 0c-0.363 0.21-0.482 0.668-0.271 1.027l0 0c2.749 4.64 8.006 17.022 9.636 22.256l0 0c0.125 0.389 0.541 0.606 0.938 0.484l0 0c0.232-0.073 0.4-0.25 0.477-0.465l0 0C92.007 207.289 92.016 207.125 91.964 206.967L91.964 206.967z"/><linearGradient id="SVGID_10_" gradientUnits="userSpaceOnUse" x1="-754.0264" y1="-550.2939" x2="-736.2798" y2="-555.1346" gradientTransform="matrix(1 0 0 -1 964.1455 -466.0977)"><stop offset="0" stop-color="#F3BC96"/><stop offset="1" stop-color="#EBA274"/></linearGradient><path fill="url(#SVGID_10_)" d="M213.306 142.086c0.105-5.394 11.104-35.925 14.254-47.747 3.396-12.781 19.547-51.122 16.996-58.434 -2.537-7.294-17.854-31.947-51.875-35.594 -34.031-3.653-52.744 25.562-48.496 54.769 2.787 19.091-0.852 51.275 4.752 73.332 0.852 3.356 17.4 3.418 17.938 6.325 1.084 5.85 0.521 11.881-0.271 15.06 12.017 8.034 11.092 5.391 26.123 5.391C203.562 155.187 203.867 146.423 213.306 142.086z"/><linearGradient id="SVGID_11_" gradientUnits="userSpaceOnUse" x1="-748.3442" y1="-507.1968" x2="-733.5908" y2="-515.8761" gradientTransform="matrix(1 0 0 -1 964.1455 -466.0977)"><stop offset="0" stop-color="#862837"/><stop offset="1" stop-color="#4C0433"/></linearGradient><path fill="url(#SVGID_11_)" d="M192.683 0.312c-17.35-1.863-30.705 4.814-39.068 15.693 43.068-10.562 72.488 11.171 73.293 19.9 0.855 9.137-10.205 40.166-10.205 40.166l22.964 0.909c5.459-15.269 6.536-36.378 4.896-41.075C242.021 28.61 226.701 3.958 192.683 0.312z"/><linearGradient id="SVGID_12_" gradientUnits="userSpaceOnUse" x1="-734.9346" y1="-537.6221" x2="-727.3372" y2="-527.0766" gradientTransform="matrix(1 0 0 -1 964.1455 -466.0977)"><stop offset="0" stop-color="#F3BC96"/><stop offset="1" stop-color="#EBA274"/></linearGradient><path fill="url(#SVGID_12_)" d="M220.751 73.329c0 0 17.396-12.449 25.779-5.537 8.383 6.922-9.663 35.276-33.518 16.61C189.159 65.726 220.751 73.329 220.751 73.329z"/><radialGradient id="SVGID_13_" cx="-1879.3486" cy="-1745.6079" r="17.1421" gradientTransform="matrix(-1.3405 -0.0257 0.0139 -0.7271 -2299.0164 -1244.907)" gradientUnits="userSpaceOnUse"><stop offset="0.0955" stop-color="#E39979"/><stop offset="0.6124" stop-color="#F3BC96"/></radialGradient><path fill="url(#SVGID_13_)" d="M175.894 71.724c-0.104 5.731 8.381 10.537 18.963 10.75 10.564 0.206 19.226-4.288 19.345-10.031 0.11-5.734-8.369-10.55-18.943-10.744C184.669 61.499 176.013 65.982 175.894 71.724z"/><radialGradient id="SVGID_14_" cx="-2107.418" cy="-1956.2822" r="17.1325" gradientTransform="matrix(-1.3205 -0.2324 0.126 -0.7163 -2387.521 -1815.8984)" gradientUnits="userSpaceOnUse"><stop offset="0.0955" stop-color="#E39979"/><stop offset="0.6124" stop-color="#F3BC96"/></radialGradient><path fill="url(#SVGID_14_)" d="M166.808 77.792c-0.994 5.675-10.244 8.763-20.657 6.916 -0.418-0.072-0.308-0.282-0.698-0.356 -0.404-7.312-0.32-14.232 0.823-20.041 0.015-0.15 0.06-0.303 0.078-0.457 1.112 0.088 2.246 0.207 3.392 0.406C160.156 66.085 167.8 72.148 166.808 77.792z"/><linearGradient id="SVGID_15_" gradientUnits="userSpaceOnUse" x1="-1455.8945" y1="-375.4126" x2="-1451.251" y2="-359.1608" gradientTransform="matrix(-0.993 0.118 -0.118 -0.993 -1334.9689 -169.0566)"><stop offset="0.0056" stop-color="#782F38"/><stop offset="1" stop-color="#22201E"/></linearGradient><path fill="url(#SVGID_15_)" d="M147.495 32.417c0.122-0.237 0.217-0.475 0.196-0.756 -0.009-0.044-0.021-0.088-0.021-0.125 -0.037-0.138-0.055-0.263-0.076-0.391 -0.107-1.035 0.229-1.785 1.049-2.354 2.549-1.744 8.518-1.166 12.049 1.169 2.875 1.891 2.942 4.225 2.332 5.244 -0.48 0.788-1.021 0.494-1.188 0.388C158.87 33.979 152.546 32.018 147.495 32.417z"/><linearGradient id="SVGID_16_" gradientUnits="userSpaceOnUse" x1="-1491.6138" y1="-368.0269" x2="-1486.9679" y2="-351.7668" gradientTransform="matrix(-0.993 0.118 -0.118 -0.993 -1334.9689 -169.0566)"><stop offset="0.0056" stop-color="#782F38"/><stop offset="1" stop-color="#22201E"/></linearGradient><path fill="url(#SVGID_16_)" d="M188.583 36.376c0.125-0.228 0.229-0.478 0.191-0.753 0-0.044-0.006-0.078-0.012-0.131 -0.037-0.122-0.06-0.263-0.068-0.391 -0.135-1.034 0.205-1.788 1.055-2.353 2.541-1.744 8.51-1.147 12.049 1.178 2.852 1.872 2.938 4.215 2.314 5.24 -0.469 0.791-1.021 0.494-1.182 0.4C199.958 37.949 193.632 35.974 188.583 36.376z"/><path fill="#231F20" d="M158.733 54.116c0.391 2.462-0.644 4.659-2.316 4.934 -1.648 0.25-3.324-1.528-3.705-3.984 -0.379-2.462 0.668-4.672 2.33-4.928C156.704 49.883 158.362 51.671 158.733 54.116z"/><path fill="#231F20" d="M202.136 64.109c0.385 2.466-0.65 4.669-2.328 4.928 -1.66 0.262-3.332-1.522-3.692-3.981 -0.392-2.469 0.655-4.656 2.321-4.916C200.099 59.872 201.747 61.659 202.136 64.109z"/><path fill="#F4F3D9" d="M199.505 89.223c-15.227 18.1-30.545 18.556-40.57 16.494 -3.525-0.738-3.229-6.119-5.15-15.082 0.182 0.094 0.375 0.104 0.557 0.244C161.21 95.949 185.069 99.224 199.505 89.223z"/><path fill="#C88978" d="M200.21 88.579c-0.312-0.353-0.852-0.418-1.246-0.147 -6.602 4.578-15.375 6.331-23.51 6.322 -9.01 0.022-15.366-1.908-25.499-6.94 -0.466-0.253-1.043-0.081-1.296 0.384 -0.25 0.457-0.086 1.041 0.38 1.294 1.063 0.577 2.396 1.211 3.928 1.853 1.886 8.451 1.208 13.955 5.779 15.309 2.448 0.485 5.203 0.847 8.203 0.847h0.049c9.567 0 21.537-3.721 33.246-17.668C200.546 89.467 200.54 88.93 200.21 88.579zM166.944 105.593c-2.842 0-5.479-0.338-7.818-0.816 -2.203-0.093-2.549-4.412-4.016-12.281 6.467 2.595 11.951 4.153 20.346 4.172 6.438-0.006 13.301-1.043 19.34-3.731C184.728 102.933 174.966 105.58 166.944 105.593z"/><path fill="#C88978" d="M175.742 45.058c-1.431 5.494-10.747 24.506-15.815 29.562 5.822 4.812 11.299 5.719 13.66 6.194 -2.65-2.284-6.584-3.75-9.537-7.325 4.07-3.994 12.354-22.469 12.233-27.659L175.742 45.058z"/><path fill="#F2D9A1" d="M308.656 218.688c0.001-0.001 0-0.002-0.001-0.003 -0.197-1.611-0.986-3.51-0.986-3.51 -25.525-32.564-69.992-62.458-85.146-72.151l-38.527 16.824 -13.544-13.45c0 0-20.28 15.581-23.192 47.803 -0.5 5.57-8.852 55.575-2.512 83.773l43.189 9.378 47.125-8.255 -9.011-97.762 49.242 44.542 -22.521 26.792 20.336 5.847C273.106 258.516 309.985 229.5 308.656 218.688z"/><polygon fill="#A88859" points="224.333,142.618 217.146,130.86 181.554,153.749 194.329,175.167 "/><polygon fill="#A88859" points="162.271,150.474 166.878,134.735 181.554,153.749 165.462,172.039 "/><polygon fill="#231F20" points="194.544,154.975 171.478,153.041 177.937,173.839 "/><polygon fill="#231F20" points="178.337,170.022 166.263,235.538 179.384,248.351 192.29,232.99 "/><polygon fill="#EFEBDD" points="224.333,142.618 217.146,130.86 181.554,153.749 192.468,168.937 "/><polygon fill="#EFEBDD" points="160.524,147.833 166.878,134.735 181.554,153.749 165.688,167.199 "/><path fill="#A88859" d="M80.538 208.942c-0.044 0.162-0.08 0.303-0.134 0.46l0 0c-0.813 2.198-3.417 3.229-6.002 2.678l0 0c-0.274-0.064-0.54-0.136-0.792-0.224l0 0c-2.33-0.821-3.96-2.907-3.521-5.164l0 0c0.02-0.151 0.078-0.314 0.117-0.431l0 0c0.805-2.212 3.418-3.276 6.047-2.71l0 0c0.267 0.049 0.521 0.125 0.763 0.21l0 0C79.35 204.572 81.005 206.662 80.538 208.942L80.538 208.942zM75.958 205.01l0.146-0.736 -0.153 0.732 0 0c-2.099-0.445-3.913 0.471-4.325 1.75l0 0c-0.035 0.094-0.053 0.145-0.062 0.185l0 0c-0.291 1.33 0.716 2.847 2.543 3.499l0 0c0.194 0.067 0.399 0.125 0.622 0.175l0 0c2.031 0.442 3.855-0.462 4.258-1.71l0 0c0.032-0.09 0.062-0.197 0.096-0.311l0 0c0.293-1.246-0.717-2.764-2.564-3.42l0 0C76.326 205.106 76.138 205.043 75.958 205.01L75.958 205.01z"/><path d="M223.308 473.746c29.553 21.703 38.355 14.686 37.15 25.605 -0.832 7.52-46.686-13.518-46.686-13.518l-4.234 3.387 -3.043-0.842 -1.01-16.402L223.308 473.746z"/><path d="M159.862 474.289c-31.779 17.914-39.746 9.855-39.775 20.85 -0.021 7.576 47.895-7.666 47.895-7.666l3.814 3.896 3.114-0.475L181.149 476 159.862 474.289z"/><path fill="#7A7941" d="M236.007 288.854l-90.435-0.808 3.494 80.646 6.394 107.175 26.023 1.229 8.498-135.926 15.147 140.652 27.603-2.396C232.731 479.425 235.841 292.303 236.007 288.854L236.007 288.854 236.007 288.854z"/><path d="M144.745 277.975c0.23 3.36 0.486 6.731 0.826 10.073 9.438 3.326 90.438 0.806 90.438 0.806l-0.943-9.756C218.593 279.492 159.487 280.684 144.745 277.975z"/><path fill="#D8CFB9" d="M189.851 281.998c0 4.09-3.279 7.606-7.318 7.846 -4.045 0.246-7.317-2.863-7.317-6.959 0-4.075 3.272-7.602 7.317-7.848C186.569 274.796 189.851 277.917 189.851 281.998z"/><path fill="#A88859" d="M178.38 282.662c0.004-2.306 1.828-4.267 4.115-4.41l0 0c0.079-0.006 0.161-0.01 0.252-0.01l0 0c2.188 0.002 3.93 1.752 3.938 3.98l0 0c-0.01 2.307-1.83 4.265-4.125 4.41l0 0c-0.084 0.006-0.168 0.009-0.25 0.009l0 0C180.116 286.634 178.384 284.89 178.38 282.662L178.38 282.662zM182.562 279.248c-1.742 0.102-3.188 1.648-3.186 3.414l0 0c0.008 1.698 1.287 2.973 2.932 2.979l0 0c0.062 0 0.131-0.002 0.191-0.009l0 0c1.738-0.096 3.188-1.646 3.186-3.411l0 0c-0.012-1.699-1.299-2.979-2.938-2.983l0 0C182.694 279.237 182.632 279.242 182.562 279.248L182.562 279.248z"/><linearGradient id="SVGID_17_" gradientUnits="userSpaceOnUse" x1="-874.2729" y1="1149.2173" x2="-895.3279" y2="1152.5822" gradientTransform="matrix(1 0 0 1 1148.6113 -872.0723)"><stop offset="0" stop-color="#EFA489"/><stop offset="1" stop-color="#F3BC96"/></linearGradient><path fill="url(#SVGID_17_)" d="M253.233 255.328c-2.396 2.914-17.611 7.075-17.898 7.229 -5.59 1.632-13.561 4.697-14.197 5.292 0.271 5.229 5.035 7.062 14.824 3.553l2.021-0.135c-0.703 1.608-1.641 3.69-2.235 5.489 -3.832 4.83-11.425 14.551-13.336 18.188 -3.597 6.894 3.619 8.039 8.799-0.188 2.646-4.182 4.813-7.397 6.563-9.86 0.34 0.31 0.722 0.616 1.134 0.976 -2.669 5.834-6.058 13.528-6.869 16.698 -1.904 7.537 5.401 6.953 8.521-2.235 1.439-4.229 2.803-7.955 4.025-11.158 0.938-0.098 1.854-0.195 2.729-0.305 -1.881 5.282-3.668 10.631-4.09 13.021 -1.336 7.656 5.889 6.531 8.344-2.859 1.58-6.087 3.174-11.469 4.539-15.793 0.761-1.964 2.711-8.162 2.892-8.676 2.362-2.361 4.217-4.57 7.291-6.711L253.233 255.328z"/><linearGradient id="SVGID_18_" gradientUnits="userSpaceOnUse" x1="-3065.9307" y1="-245.9077" x2="-3058.3054" y2="-223.0212" gradientTransform="matrix(-0.5262 -0.8503 -0.8503 0.5262 -1542.4156 -2223.7026)"><stop offset="0" stop-color="#EFEBDD"/><stop offset="1" stop-color="#FFFFFF"/></linearGradient><path fill="url(#SVGID_18_)" d="M277.202 259.483c-2.312-2.821-13.445-14.216-16.393-16.479 -6.574 7.062-7.068 7.917-11.982 13.814 2.713 2.965 12.807 13.395 15.676 16.104C268.343 268.65 273.462 263.324 277.202 259.483z"/><path fill="#A88859" d="M276.794 260.062c0.318-0.262 0.365-0.732 0.104-1.055l0 0c-2.396-2.911-13.443-14.22-16.521-16.598l0 0c-0.324-0.252-0.789-0.189-1.045 0.139l0 0c-0.254 0.328-0.188 0.797 0.143 1.05l0 0c2.818 2.15 14.035 13.629 16.271 16.354l0 0 -0.002 0.01c0.125 0.146 0.295 0.242 0.473 0.267l0 0C276.413 260.253 276.624 260.201 276.794 260.062L276.794 260.062z"/><path fill="#A88859" d="M261.401 260.728c-0.161-0.006-0.312-0.018-0.478-0.037l0 0c-2.312-0.355-3.85-2.711-3.815-5.35l0 0c0.008-0.295 0.021-0.562 0.061-0.826l0 0c0.332-2.441 2.059-4.459 4.361-4.47l0 0c0.156-0.014 0.322 0.009 0.447 0.026l0 0c2.317 0.35 3.881 2.696 3.856 5.384h0.002l0 0c-0.004 0.271-0.024 0.535-0.062 0.787l0 0C265.444 258.689 263.728 260.73 261.401 260.728L261.401 260.728zM264.337 255.446l0.748 0.005 -0.748-0.01 0 0c0.021-2.141-1.234-3.732-2.562-3.888l0 0c-0.104-0.015-0.166-0.017-0.211-0.017l0 0c-1.346-0.021-2.639 1.258-2.908 3.185l0 0c-0.028 0.196-0.045 0.409-0.049 0.646l0 0c-0.028 2.074 1.224 3.691 2.525 3.842l0 0c0.098 0.013 0.201 0.021 0.328 0.021l0 0c1.275 0.035 2.562-1.256 2.836-3.195l0 0C264.324 255.83 264.339 255.628 264.337 255.446L264.337 255.446z"/><path fill="#231F20" d="M232.839 64.774l-17.648-1.755 2.605-6.501c0.158-0.399 0.143-0.847-0.053-1.232 -0.189-0.383-0.539-0.667-0.953-0.776l-29.018-7.762c-0.424-0.114-0.879-0.033-1.241 0.217 -0.36 0.25-0.595 0.648-0.638 1.087l-0.25 2.548c-3.541-3.146-7.3-4.19-10.461-4.176 -2.476 0.008-4.578 0.593-6.084 1.188l0.463-1.899c0.102-0.416 0.018-0.862-0.229-1.214 -0.248-0.352-0.638-0.583-1.062-0.632l-28.915-3.262c-0.433-0.049-0.869 0.095-1.188 0.389 -0.316 0.296-0.496 0.721-0.479 1.155l0.907 25.739c0.011 0.399 0.188 0.784 0.485 1.056 0.277 0.251 0.642 0.392 1.015 0.392 0.026 0 0.055-0.001 0.083-0.002l22.843-1.276c0.66-0.035 1.219-0.5 1.375-1.142l3.775-15.513c0.031-0.018 0.064-0.03 0.098-0.05h-0.002c0.002 0 0.135-0.091 0.467-0.27 0.996-0.544 3.47-1.663 6.447-1.656 2.891 0.017 6.26 0.961 9.704 4.63 0.114 0.124 0.25 0.216 0.392 0.292l-1.549 15.863c-0.063 0.662 0.316 1.29 0.937 1.538l21.89 8.763c0.184 0.073 0.368 0.107 0.557 0.107 0.596 0 1.16-0.355 1.395-0.941l5.521-13.758 18.518 1.841c0.049 0.005 0.102 0.007 0.148 0.007 0.764 0 1.416-0.578 1.492-1.354C234.267 65.589 233.663 64.855 232.839 64.774zM161.749 65.123l-20.203 1.127 -0.793-22.472 25.492 2.878L161.749 65.123zM206.276 77.167l-19.449-7.786 1.883-19.28 25.67 6.869L206.276 77.167z"/></svg>