<?xml version="1.0" encoding="utf-8"?>
<!-- Generator: Adobe Illustrator 13.0.2, SVG Export Plug-In . SVG Version: 6.00 Build 14948)  -->
<!DOCTYPE svg PUBLIC "-//W3C//DTD SVG 1.1//EN" "http://www.w3.org/Graphics/SVG/1.1/DTD/svg11.dtd">
<svg version="1.1" id="Layer_1" xmlns="http://www.w3.org/2000/svg" xmlns:xlink="http://www.w3.org/1999/xlink" x="0px" y="0px"
	 width="233.168px" height="221.079px" viewBox="0 0 233.168 221.079" enable-background="new 0 0 233.168 221.079"
	 xml:space="preserve">
<g id="Layer_1_1_">
</g>
<g id="B_x2F_G">
	<path fill="#7DC145" d="M154.184,156.004c51.5-5.812,51.088-11.717,51.088-11.717s3.633,2.16,7.963,7.223
		c5.06-12.67,7.847-26.494,7.847-40.97C221.08,49.49,171.59,0,110.54,0C59.497,0,16.56,34.605,3.847,81.628l59.361-15.091
		l46.426,17.241l-81.332,19.584l5.492,68.338l12.129,28.35l81.332-17.946l-0.903,4.44L50.894,203.59
		c17.209,11.057,37.672,17.488,59.646,17.488c15.08,0,29.453-3.023,42.552-8.492C151.861,188.097,151.811,165.915,154.184,156.004z"
		/>
</g>
<g id="Icones">
	<g>
		<path fill="#8C9373" d="M121.812,201.62l0.361-1.195c2.311,0.703,4.947,1.019,7.742,1.019l0,0
			c6.82,0.011,14.562-1.896,20.703-4.437l0,0c-5.699-1.502-9.479-5.03-9.572-8.379l0,0c-0.012-1.432,0.807-2.771,2.344-3.631l0,0
			c1.541-0.873,3.789-1.367,6.892-1.371l0,0c0.807,0.002,1.672,0.035,2.594,0.106l0,0c3.437,0.267,5.877,0.802,7.531,1.585l0,0
			c1.637,0.762,2.581,1.902,2.575,3.248l0,0c-0.03,1.695-1.319,3.266-3.284,4.835l0,0c-1.318,1.04-2.978,2.07-4.88,3.048l0,0
			c0.517,0.037,1.043,0.057,1.58,0.057l0,0c2.211,0,4.593-0.323,7.08-1.08l0,0c3.726-1.154,5.402-3.084,5.402-5.321l0,0
			c0.084-3.794-5.213-9.438-16.961-13.91l0,0c-11.718-4.497-29.729-7.942-54.73-7.938l0,0c-9.793-0.004-20.658,0.525-32.634,1.725
			l0,0l-0.124-1.243c12.015-1.202,22.92-1.733,32.758-1.733l0,0c25.117,0.002,43.264,3.455,55.178,8.025l0,0
			c11.881,4.598,17.682,10.191,17.766,15.076l0,0c0,2.973-2.319,5.331-6.291,6.518l0,0c-2.604,0.791-5.108,1.135-7.442,1.135l0,0
			c-1.275-0.008-2.5-0.111-3.666-0.301l0,0c-0.314,0.144-0.633,0.285-0.957,0.424l0,0c-6.389,2.742-14.555,4.812-21.859,4.814l0,0
			C127.027,202.692,124.273,202.368,121.812,201.62L121.812,201.62z M144.012,186.083c-1.248,0.729-1.701,1.576-1.715,2.545l0,0
			c-0.023,1.516,1.342,3.539,3.854,5.125l0,0c1.689,1.074,3.871,1.955,6.398,2.412l0,0c2.574-1.188,4.773-2.475,6.375-3.744l0,0
			c1.873-1.461,2.842-2.899,2.809-3.854l0,0c-0.004-0.719-0.434-1.422-1.862-2.118l0,0c-1.418-0.678-3.74-1.213-7.091-1.468l0,0
			c-0.895-0.067-1.727-0.103-2.497-0.103l0,0c-0.013,0-0.023,0-0.035,0l0,0C147.299,184.877,145.255,185.372,144.012,186.083
			L144.012,186.083z"/>
	</g>
	<g>
		<path fill="#536145" d="M127.884,202.638h-0.002l0.07-1.25c0.646,0.036,1.299,0.055,1.962,0.055l0,0c0.135,0,0.27,0,0.402-0.002
			l0,0l0.015,1.25c-0.14,0.002-0.278,0.002-0.417,0.002l0,0C129.229,202.692,128.551,202.674,127.884,202.638L127.884,202.638z
			 M133.874,201.249c0.783-0.074,1.573-0.168,2.362-0.281l0,0l0.178,1.236c-0.811,0.115-1.618,0.213-2.422,0.289l0,0
			L133.874,201.249L133.874,201.249z M121.812,201.62l0.361-1.195c0.727,0.222,1.486,0.404,2.273,0.551l0,0l-0.23,1.229
			C123.391,202.049,122.587,201.856,121.812,201.62L121.812,201.62z M139.757,200.347c0.78-0.164,1.558-0.341,2.328-0.533l0,0
			l0.302,1.213c-0.785,0.195-1.576,0.378-2.373,0.545l0,0L139.757,200.347L139.757,200.347z M145.529,198.847
			c0.769-0.24,1.525-0.493,2.267-0.757l0,0l0.415,1.18c-0.755,0.27-1.525,0.523-2.311,0.77l0,0L145.529,198.847L145.529,198.847z
			 M151.128,196.795c0.748-0.319,1.474-0.647,2.166-0.983l0,0l0.246,0.508c0.668,0.089,1.356,0.147,2.065,0.173l0,0l-0.045,1.248
			c-0.848-0.029-1.67-0.105-2.465-0.221l0,0l0.037-0.248c-0.494,0.229-1,0.454-1.516,0.673l0,0L151.128,196.795L151.128,196.795z
			 M159.262,197.584l-0.146-1.242c0.76-0.086,1.531-0.215,2.316-0.387l0,0l0.264,1.225c-0.824,0.179-1.635,0.312-2.434,0.406l0,0
			V197.584L159.262,197.584z M147.169,195.745l0.543-1.125c0.67,0.32,1.392,0.613,2.158,0.866l0,0l-0.394,1.188
			C148.659,196.404,147.889,196.09,147.169,195.745L147.169,195.745z M164.779,194.961c0.771-0.321,1.429-0.687,1.976-1.088l0,0
			l0.738,1.01c-0.642,0.47-1.386,0.877-2.231,1.232l0,0L164.779,194.961L164.779,194.961z M156.427,194.127
			c0.716-0.432,1.373-0.867,1.964-1.299l0,0l0.737,1.006c-0.623,0.459-1.312,0.912-2.055,1.363l0,0L156.427,194.127L156.427,194.127
			z M142.24,191.872l1.013-0.731c0.397,0.549,0.916,1.103,1.547,1.628l0,0l-0.801,0.96
			C143.298,193.14,142.708,192.518,142.24,191.872L142.24,191.872z M168.688,191.372c0.129-0.404,0.193-0.826,0.193-1.27l0,0
			c0-0.262-0.021-0.531-0.068-0.809l0,0l1.23-0.209c0.059,0.342,0.088,0.682,0.09,1.018l0,0c0,0.566-0.086,1.121-0.254,1.65l0,0
			L168.688,191.372L168.688,191.372z M161.893,191.26l-0.988-0.764c0.533-0.688,0.797-1.312,0.826-1.817l0,0l1.25,0.079
			c-0.062,0.861-0.463,1.691-1.088,2.504l0,0V191.26L161.893,191.26z M141.091,188.051c0.132-0.901,0.604-1.748,1.39-2.418l0,0
			l0.815,0.947c-0.586,0.51-0.877,1.058-0.971,1.654l0,0L141.091,188.051L141.091,188.051z M157.934,185.763l0.315-1.208
			c0.938,0.248,1.729,0.539,2.383,0.875l0,0l-0.569,1.109C159.509,186.258,158.805,185.993,157.934,185.763L157.934,185.763z
			 M166.011,184.506l0.898-0.869c0.62,0.646,1.153,1.287,1.598,1.927l0,0l-1.026,0.713
			C167.079,185.698,166.591,185.106,166.011,184.506L166.011,184.506z M146.016,184.038c0.736-0.164,1.559-0.283,2.473-0.349l0,0
			l0.09,1.245c-0.859,0.062-1.622,0.174-2.291,0.322l0,0L146.016,184.038L146.016,184.038z M152.779,184.979
			c-0.229-0.018-0.454-0.031-0.674-0.047l0,0l0.07-1.247c0.23,0.015,0.463,0.028,0.699,0.047l0,0
			c0.609,0.047,1.188,0.104,1.736,0.167l0,0l-0.146,1.241C153.938,185.079,153.376,185.024,152.779,184.979L152.779,184.979z
			 M161.427,180.858l0.677-1.051c0.719,0.461,1.391,0.928,2.016,1.396l0,0l-0.75,0.998
			C162.771,181.754,162.124,181.307,161.427,180.858L161.427,180.858z M156.223,178.019l0.528-1.132
			c0.763,0.355,1.488,0.718,2.183,1.084l0,0l-0.582,1.105C157.673,178.719,156.964,178.366,156.223,178.019L156.223,178.019z
			 M158.934,177.971L158.934,177.971L158.934,177.971L158.934,177.971L158.934,177.971z M150.712,175.743l0.429-1.176
			c0.78,0.284,1.536,0.573,2.268,0.868l0,0l-0.465,1.159C152.225,176.307,151.48,176.022,150.712,175.743L150.712,175.743z
			 M145.027,173.897l0.349-1.203c0.794,0.23,1.565,0.465,2.319,0.703l0,0l-0.379,1.191
			C146.575,174.353,145.812,174.124,145.027,173.897L145.027,173.897z M139.236,172.397l0.281-1.219
			c0.799,0.186,1.584,0.375,2.353,0.568l0,0l-0.306,1.211C140.805,172.769,140.027,172.581,139.236,172.397L139.236,172.397z
			 M133.37,171.187l0.226-1.229c0.807,0.147,1.598,0.301,2.375,0.457l0,0l-0.246,1.226
			C134.953,171.483,134.169,171.333,133.37,171.187L133.37,171.187z M127.452,170.224l0.179-1.235
			c0.809,0.112,1.605,0.233,2.391,0.358l0,0l-0.195,1.233C129.048,170.458,128.256,170.338,127.452,170.224L127.452,170.224z
			 M121.501,169.479l0.136-1.244c0.812,0.088,1.61,0.18,2.4,0.275l0,0l-0.15,1.24C123.104,169.657,122.309,169.565,121.501,169.479
			L121.501,169.479z M67.422,168.446c0.806-0.074,1.606-0.145,2.403-0.215l0,0l-0.002,0.002l0.107,1.244
			c-0.793,0.068-1.591,0.141-2.395,0.213l0,0L67.422,168.446L67.422,168.446z M73.431,167.94c0.809-0.061,1.61-0.117,2.406-0.174
			l0,0l0.086,1.246c-0.795,0.056-1.592,0.115-2.398,0.174l0,0L73.431,167.94L73.431,167.94z M115.528,168.926l0.096-1.245
			c0.812,0.062,1.614,0.128,2.408,0.198l0,0l-0.112,1.246C117.133,169.054,116.335,168.989,115.528,168.926L115.528,168.926z
			 M79.448,167.536c0.809-0.047,1.612-0.09,2.408-0.131l0,0h0.002l0.062,1.248c-0.793,0.041-1.593,0.084-2.4,0.133l0,0
			L79.448,167.536L79.448,167.536z M109.538,168.547l0.062-1.248c0.812,0.039,1.616,0.084,2.41,0.134l0,0l-0.076,1.247
			C111.146,168.633,110.346,168.588,109.538,168.547L109.538,168.547z M85.472,167.241c0.811-0.033,1.614-0.062,2.412-0.088l0,0
			l0.041,1.25c-0.796,0.025-1.596,0.055-2.401,0.088l0,0L85.472,167.241L85.472,167.241z M103.539,168.327l0.03-1.248
			c0.812,0.021,1.615,0.041,2.414,0.07l0,0h-0.002l-0.041,1.248C105.146,168.37,104.347,168.349,103.539,168.327L103.539,168.327z
			 M91.502,167.06c0.812-0.017,1.616-0.03,2.413-0.039l0,0l0.015,1.25c-0.794,0.011-1.595,0.022-2.403,0.039l0,0L91.502,167.06
			L91.502,167.06z M97.534,168.252L97.536,167c0.812,0.002,1.615,0.006,2.413,0.015l0,0l-0.013,1.25
			C99.144,168.258,98.342,168.252,97.534,168.252L97.534,168.252z"/>
	</g>
	<path fill="#834249" d="M33.794,171.7l-5.492-68.338L2.283,88.093C0.788,95.341,0,102.849,0,110.54
		c0,36.931,18.114,69.626,45.939,89.699l-0.016-0.189L33.794,171.7z"/>
	<polygon fill="#6AA8A3" points="112.829,156.856 109.634,83.778 28.302,103.362 33.794,171.7 	"/>
	<polygon fill="#BEC2B4" points="112.829,156.856 127.255,182.103 45.923,200.049 33.794,171.7 	"/>
	<path fill="#834249" d="M127.255,182.103l-81.332,17.946l0.016,0.189c1.616,1.166,3.275,2.271,4.955,3.352l75.458-17.047
		L127.255,182.103z"/>
	<path fill="#150B1A" d="M101.743,101.999c6.809,3.522,7.326,35.955,4.182,43.316c-3.145,7.363-54.854,19.189-62.656,15.459
		c-7.797-3.725-10.531-35.372-3.885-45.359C46.034,105.436,90.595,96.227,101.743,101.999z"/>
	
		<linearGradient id="SVGID_1_" gradientUnits="userSpaceOnUse" x1="-140.0957" y1="2.5659" x2="-99.2634" y2="-4.9339" gradientTransform="matrix(-1 0 0 -1 -52.9785 130.0791)">
		<stop  offset="0.19" style="stop-color:#68B4E4"/>
		<stop  offset="0.2702" style="stop-color:#76BAE6"/>
		<stop  offset="0.4971" style="stop-color:#98C8EB"/>
		<stop  offset="0.62" style="stop-color:#A5CDED"/>
	</linearGradient>
	<path fill="url(#SVGID_1_)" d="M99.286,105.873c6.252,3.05,6.727,31.125,3.84,37.499c-2.889,6.375-50.367,16.611-57.529,13.383
		c-7.16-3.225-9.672-30.621-3.568-39.266C48.134,108.849,89.05,100.876,99.286,105.873z"/>
	<path fill="#7DC145" d="M2.283,88.093l26.019,15.269L2.283,88.093z"/>
	<g>
		<path fill="#E99E3D" d="M89.511,81.442L55.878,68.953v0.002c-0.208-0.077-0.338-0.257-0.382-0.457L4.745,81.399L29.46,95.903
			L89.511,81.442z"/>
		<path fill="#E99E3D" d="M63.208,66.537l-6.082,1.546l34.74,12.901c0.258,0.098,0.424,0.35,0.405,0.623
			c-0.017,0.276-0.21,0.506-0.478,0.57L29.509,97.18c-0.049,0.01-0.098,0.016-0.146,0.016c-0.111,0-0.221-0.029-0.317-0.085
			L3.691,82.231c-0.516,1.936-1.001,3.884-1.409,5.861l26.019,15.27l81.332-19.584L63.208,66.537z"/>
		<path fill="#8C9373" d="M29.362,97.195c0.049,0,0.098-0.006,0.146-0.016l62.285-15.002c0.268-0.064,0.461-0.294,0.478-0.57
			c0.019-0.273-0.147-0.525-0.405-0.623l-34.74-12.901l-1.63,0.415c0.044,0.2,0.174,0.38,0.382,0.457v-0.002l33.633,12.489
			L29.46,95.903L4.745,81.399l-0.897,0.229c-0.054,0.2-0.102,0.402-0.156,0.604L29.045,97.11
			C29.142,97.166,29.251,97.195,29.362,97.195z"/>
	</g>
	<path fill="#190000" d="M32.323,106.737c-0.156,1.748,0.723,3.255,1.969,3.369c1.246,0.111,2.387-1.209,2.547-2.954
		c0.16-1.745-0.721-3.252-1.967-3.366C33.624,103.671,32.485,104.992,32.323,106.737z"/>
	<g>
		<polygon fill="#6AA8A3" points="45.788,199.439 127.12,181.493 127.389,182.711 46.058,200.661 		"/>
		<polygon fill="#6AA8A3" points="43.364,193.77 124.238,176.442 124.5,177.663 43.626,194.989 		"/>
		<polygon fill="#6AA8A3" points="40.942,188.097 121.355,171.393 121.609,172.616 41.198,189.323 		"/>
		<polygon fill="#6AA8A3" points="38.522,182.426 118.477,166.342 118.723,167.567 38.767,183.653 		"/>
		<polygon fill="#6AA8A3" points="36.099,176.756 115.593,161.292 115.832,162.521 36.338,177.983 		"/>
		<polygon fill="#6AA8A3" points="33.677,171.084 112.713,156.241 112.943,157.471 33.909,172.314 		"/>
	</g>
	<g>
		<polygon fill="#6AA8A3" points="33.218,171.946 34.368,171.456 46.497,199.804 45.347,200.295 		"/>
		<polygon fill="#6AA8A3" points="40.405,170.601 41.55,170.099 53.887,198.167 52.743,198.67 		"/>
		<polygon fill="#6AA8A3" points="47.593,169.258 48.732,168.745 61.28,196.529 60.14,197.043 		"/>
		<polygon fill="#6AA8A3" points="54.78,167.915 55.915,167.39 68.669,194.892 67.536,195.417 		"/>
		<polygon fill="#6AA8A3" points="61.969,166.571 63.098,166.034 76.062,193.254 74.933,193.793 		"/>
		<polygon fill="#6AA8A3" points="69.157,165.228 70.28,164.679 83.452,191.616 82.329,192.167 		"/>
		<polygon fill="#6AA8A3" points="76.346,163.885 77.462,163.323 90.845,189.98 89.726,190.542 		"/>
		<polygon fill="#6AA8A3" points="83.533,162.54 84.644,161.969 98.233,188.342 97.123,188.913 		"/>
		<polygon fill="#6AA8A3" points="90.72,161.198 91.825,160.612 105.626,186.706 104.521,187.29 		"/>
		<polygon fill="#6AA8A3" points="97.909,159.854 99.007,159.256 113.015,185.067 111.917,185.665 		"/>
		<polygon fill="#6AA8A3" points="105.097,158.508 106.188,157.901 120.404,183.431 119.314,184.038 		"/>
		<polygon fill="#6AA8A3" points="112.286,157.167 113.37,156.545 127.796,181.792 126.711,182.413 		"/>
	</g>
	<g>
		
			<linearGradient id="SVGID_2_" gradientUnits="userSpaceOnUse" x1="-149.7246" y1="1.4194" x2="-132.2237" y2="1.4194" gradientTransform="matrix(-1 0 0 -1 -52.9785 130.0791)">
			<stop  offset="0.0055" style="stop-color:#A5CDED"/>
			<stop  offset="0.533" style="stop-color:#68B4E4"/>
		</linearGradient>
		<path fill="url(#SVGID_2_)" d="M96.565,108.536c5.635,2.724,6.064,27.808,3.461,33.501c-1.133,2.48-9.889,5.613-19.947,8.125
			v-42.611C87.208,106.848,93.458,107.032,96.565,108.536z"/>
	</g>
	<ellipse fill="#E99E3D" cx="119.495" cy="202.688" rx="13.75" ry="5"/>
	<path fill="#834249" d="M106.544,201.022c1.889,1.939,6.967,3.334,12.951,3.334c5.983,0,11.062-1.395,12.95-3.334
		c0.509,0.521,0.8,1.08,0.8,1.666c0,2.762-6.156,5-13.75,5c-7.594,0-13.75-2.238-13.75-5
		C105.745,202.103,106.036,201.543,106.544,201.022z"/>
</g>
<g id="INFO">
	<path fill="#7DC145" d="M213.232,151.51c-4.33-5.062-7.961-7.223-7.961-7.223s0.412,5.903-51.088,11.717
		c-2.375,9.91-2.322,32.093-1.093,56.582C180.443,201.168,202.227,179.075,213.232,151.51z"/>
	<g>
		
			<linearGradient id="SVGID_3_" gradientUnits="userSpaceOnUse" x1="213.084" y1="-47.3604" x2="262.1148" y2="-31.8769" gradientTransform="matrix(-1 0 0 -1 517.582 130.0791)">
			<stop  offset="0.0449" style="stop-color:#003B68"/>
			<stop  offset="1" style="stop-color:#0089C0"/>
		</linearGradient>
		<path fill="url(#SVGID_3_)" d="M208.881,147.062c0.2,0.179,0.407,0.362,0.619,0.56
			C209.288,147.426,209.081,147.241,208.881,147.062z"/>
		
			<linearGradient id="SVGID_4_" gradientUnits="userSpaceOnUse" x1="213.2979" y1="-46.7222" x2="262.1362" y2="-31.2995" gradientTransform="matrix(-1 0 0 -1 517.582 130.0791)">
			<stop  offset="0.0449" style="stop-color:#003B68"/>
			<stop  offset="1" style="stop-color:#0089C0"/>
		</linearGradient>
		<path fill="url(#SVGID_4_)" d="M208.018,146.321c0.1,0.083,0.2,0.168,0.305,0.258
			C208.218,146.489,208.116,146.404,208.018,146.321z"/>
		
			<linearGradient id="SVGID_5_" gradientUnits="userSpaceOnUse" x1="211.9824" y1="-46.1089" x2="261.3284" y2="-30.5259" gradientTransform="matrix(-1 0 0 -1 517.582 130.0791)">
			<stop  offset="0.0449" style="stop-color:#003B68"/>
			<stop  offset="1" style="stop-color:#0089C0"/>
		</linearGradient>
		<path fill="url(#SVGID_5_)" d="M205.802,144.633c0.066,0.045,0.144,0.098,0.22,0.15
			C205.941,144.729,205.869,144.679,205.802,144.633z"/>
		
			<linearGradient id="SVGID_6_" gradientUnits="userSpaceOnUse" x1="212.708" y1="-45.7417" x2="261.6759" y2="-30.2781" gradientTransform="matrix(-1 0 0 -1 517.582 130.0791)">
			<stop  offset="0.0449" style="stop-color:#003B68"/>
			<stop  offset="1" style="stop-color:#0089C0"/>
		</linearGradient>
		<path fill="url(#SVGID_6_)" d="M205.406,144.372c0.058,0.037,0.142,0.09,0.234,0.152
			C205.542,144.458,205.467,144.409,205.406,144.372z"/>
		
			<linearGradient id="SVGID_7_" gradientUnits="userSpaceOnUse" x1="213.2041" y1="-46.2632" x2="262.0198" y2="-30.8477" gradientTransform="matrix(-1 0 0 -1 517.582 130.0791)">
			<stop  offset="0.0449" style="stop-color:#003B68"/>
			<stop  offset="1" style="stop-color:#0089C0"/>
		</linearGradient>
		<path fill="url(#SVGID_7_)" d="M207.053,145.545c0.083,0.064,0.176,0.138,0.264,0.207
			C207.229,145.683,207.137,145.61,207.053,145.545z"/>
		
			<linearGradient id="SVGID_8_" gradientUnits="userSpaceOnUse" x1="215.2412" y1="-44.8726" x2="262.9534" y2="-29.8055" gradientTransform="matrix(-1 0 0 -1 517.582 130.0791)">
			<stop  offset="0.0449" style="stop-color:#003B68"/>
			<stop  offset="1" style="stop-color:#0089C0"/>
		</linearGradient>
		<path fill="url(#SVGID_8_)" d="M205.271,144.288c0,0,0.039,0.023,0.065,0.041C205.298,144.304,205.271,144.288,205.271,144.288z"
			/>
		
			<linearGradient id="SVGID_9_" gradientUnits="userSpaceOnUse" x1="219.9121" y1="-68.5239" x2="268.8756" y2="-53.0617" gradientTransform="matrix(-1 0 0 -1 517.582 130.0791)">
			<stop  offset="0.0449" style="stop-color:#003B68"/>
			<stop  offset="1" style="stop-color:#0089C0"/>
		</linearGradient>
		<path fill="url(#SVGID_9_)" d="M213.232,151.51c-0.817-0.957-1.61-1.809-2.359-2.562c-4.255,6.926-13.253,20.438-20.489,38.02
			C200.113,176.806,207.93,164.797,213.232,151.51z"/>
		
			<linearGradient id="SVGID_10_" gradientUnits="userSpaceOnUse" x1="212.542" y1="-46.188" x2="261.6486" y2="-30.6806" gradientTransform="matrix(-1 0 0 -1 517.582 130.0791)">
			<stop  offset="0.0449" style="stop-color:#003B68"/>
			<stop  offset="1" style="stop-color:#0089C0"/>
		</linearGradient>
		<path fill="url(#SVGID_10_)" d="M206.4,145.056c0.093,0.067,0.189,0.139,0.293,0.217
			C206.589,145.193,206.495,145.124,206.4,145.056z"/>
		
			<linearGradient id="SVGID_11_" gradientUnits="userSpaceOnUse" x1="228.7979" y1="-96.7085" x2="277.7675" y2="-81.2443" gradientTransform="matrix(-1 0 0 -1 517.582 130.0791)">
			<stop  offset="0.0449" style="stop-color:#003B68"/>
			<stop  offset="1" style="stop-color:#0089C0"/>
		</linearGradient>
		<path fill="url(#SVGID_11_)" d="M154.184,156.004c-2.373,9.91-2.32,32.093-1.092,56.582c4.491-1.875,8.829-4.043,12.997-6.471
			c-4.371-16.215-8.332-34.111-11.04-50.212C154.759,155.938,154.477,155.971,154.184,156.004z"/>
		
			<linearGradient id="SVGID_12_" gradientUnits="userSpaceOnUse" x1="213.3965" y1="-47.9277" x2="262.3643" y2="-32.4641" gradientTransform="matrix(-1 0 0 -1 517.582 130.0791)">
			<stop  offset="0.0449" style="stop-color:#003B68"/>
			<stop  offset="1" style="stop-color:#0089C0"/>
		</linearGradient>
		<path fill="url(#SVGID_12_)" d="M209.989,148.083c0.177,0.168,0.356,0.346,0.54,0.525
			C210.348,148.428,210.167,148.25,209.989,148.083z"/>
		
			<linearGradient id="SVGID_13_" gradientUnits="userSpaceOnUse" x1="-2782.27" y1="187.1245" x2="-2749.1899" y2="166.1473" gradientTransform="matrix(0.9976 -0.0695 -0.0695 -0.9976 2967.1296 123.2642)">
			<stop  offset="0" style="stop-color:#E9E0C4"/>
			<stop  offset="1" style="stop-color:#FFFFFF"/>
		</linearGradient>
		<path fill="url(#SVGID_13_)" d="M206.021,144.784c0.114,0.08,0.24,0.172,0.379,0.271
			C206.261,144.954,206.136,144.864,206.021,144.784z"/>
		
			<linearGradient id="SVGID_14_" gradientUnits="userSpaceOnUse" x1="-2781.8491" y1="186.978" x2="-2749.2363" y2="166.2971" gradientTransform="matrix(0.9976 -0.0695 -0.0695 -0.9976 2967.1296 123.2642)">
			<stop  offset="0" style="stop-color:#E9E0C4"/>
			<stop  offset="1" style="stop-color:#FFFFFF"/>
		</linearGradient>
		<path fill="url(#SVGID_14_)" d="M205.338,144.329c0.02,0.012,0.042,0.025,0.068,0.043
			C205.37,144.349,205.359,144.34,205.338,144.329z"/>
		
			<linearGradient id="SVGID_15_" gradientUnits="userSpaceOnUse" x1="-2782.3086" y1="187.2319" x2="-2749.1306" y2="166.1927" gradientTransform="matrix(0.9976 -0.0695 -0.0695 -0.9976 2967.1296 123.2642)">
			<stop  offset="0" style="stop-color:#E9E0C4"/>
			<stop  offset="1" style="stop-color:#FFFFFF"/>
		</linearGradient>
		<path fill="url(#SVGID_15_)" d="M205.643,144.524c0.047,0.031,0.104,0.07,0.159,0.107
			C205.745,144.594,205.689,144.557,205.643,144.524z"/>
		
			<linearGradient id="SVGID_16_" gradientUnits="userSpaceOnUse" x1="-2782.6968" y1="186.3286" x2="-2749.6863" y2="165.3955" gradientTransform="matrix(0.9976 -0.0695 -0.0695 -0.9976 2967.1296 123.2642)">
			<stop  offset="0" style="stop-color:#E9E0C4"/>
			<stop  offset="1" style="stop-color:#FFFFFF"/>
		</linearGradient>
		<path fill="url(#SVGID_16_)" d="M209.5,147.622c0.159,0.146,0.324,0.305,0.489,0.461C209.823,147.924,209.66,147.77,209.5,147.622
			z"/>
		
			<linearGradient id="SVGID_17_" gradientUnits="userSpaceOnUse" x1="-2782.8501" y1="186.0034" x2="-2749.8784" y2="165.095" gradientTransform="matrix(0.9976 -0.0695 -0.0695 -0.9976 2967.1296 123.2642)">
			<stop  offset="0" style="stop-color:#E9E0C4"/>
			<stop  offset="1" style="stop-color:#FFFFFF"/>
		</linearGradient>
		<path fill="url(#SVGID_17_)" d="M210.875,148.943c-0.119-0.12-0.229-0.22-0.346-0.335c0.115,0.111,0.228,0.221,0.344,0.338
			C210.874,148.945,210.874,148.944,210.875,148.943z"/>
		
			<linearGradient id="SVGID_18_" gradientUnits="userSpaceOnUse" x1="-2791.2856" y1="172.7817" x2="-2758.2744" y2="151.8482" gradientTransform="matrix(0.9976 -0.0695 -0.0695 -0.9976 2967.1296 123.2642)">
			<stop  offset="0" style="stop-color:#E9E0C4"/>
			<stop  offset="1" style="stop-color:#FFFFFF"/>
		</linearGradient>
		<path fill="url(#SVGID_18_)" d="M205.271,144.288c0,0,0.383,5.838-50.224,11.616l0,0
			C205.671,150.124,205.271,144.288,205.271,144.288z"/>
		
			<linearGradient id="SVGID_19_" gradientUnits="userSpaceOnUse" x1="-2782.4604" y1="186.6108" x2="-2749.4946" y2="165.7061" gradientTransform="matrix(0.9976 -0.0695 -0.0695 -0.9976 2967.1296 123.2642)">
			<stop  offset="0" style="stop-color:#E9E0C4"/>
			<stop  offset="1" style="stop-color:#FFFFFF"/>
		</linearGradient>
		<path fill="url(#SVGID_19_)" d="M208.32,146.579c0.183,0.152,0.367,0.312,0.561,0.483
			C208.688,146.892,208.503,146.732,208.32,146.579z"/>
		
			<linearGradient id="SVGID_20_" gradientUnits="userSpaceOnUse" x1="-2782.3696" y1="186.8423" x2="-2749.3591" y2="165.9092" gradientTransform="matrix(0.9976 -0.0695 -0.0695 -0.9976 2967.1296 123.2642)">
			<stop  offset="0" style="stop-color:#E9E0C4"/>
			<stop  offset="1" style="stop-color:#FFFFFF"/>
		</linearGradient>
		<path fill="url(#SVGID_20_)" d="M207.316,145.752c0.22,0.174,0.451,0.363,0.699,0.568
			C207.77,146.114,207.536,145.926,207.316,145.752z"/>
		
			<linearGradient id="SVGID_21_" gradientUnits="userSpaceOnUse" x1="-2782.1553" y1="186.9146" x2="-2749.2898" y2="166.0733" gradientTransform="matrix(0.9976 -0.0695 -0.0695 -0.9976 2967.1296 123.2642)">
			<stop  offset="0" style="stop-color:#E9E0C4"/>
			<stop  offset="1" style="stop-color:#FFFFFF"/>
		</linearGradient>
		<path fill="url(#SVGID_21_)" d="M206.693,145.272c0.113,0.085,0.232,0.176,0.358,0.271
			C206.927,145.448,206.809,145.357,206.693,145.272z"/>
		
			<linearGradient id="SVGID_22_" gradientUnits="userSpaceOnUse" x1="223.3389" y1="-79.4077" x2="272.3068" y2="-63.9441" gradientTransform="matrix(-1 0 0 -1 517.582 130.0791)">
			<stop  offset="0.0449" style="stop-color:#003B68"/>
			<stop  offset="1" style="stop-color:#0089C0"/>
		</linearGradient>
		<path fill="url(#SVGID_22_)" d="M190.384,186.967c7.236-17.582,16.234-31.094,20.489-38.02c-0.116-0.117-0.229-0.227-0.344-0.339
			c-0.184-0.181-0.363-0.356-0.54-0.524c-0.165-0.158-0.33-0.314-0.489-0.461c-0.212-0.197-0.419-0.383-0.619-0.561
			c-0.191-0.171-0.378-0.331-0.561-0.484c-0.104-0.088-0.204-0.174-0.305-0.256c-0.248-0.207-0.479-0.396-0.699-0.568
			c-0.09-0.07-0.182-0.144-0.265-0.209c-0.126-0.096-0.245-0.188-0.358-0.271c-0.104-0.078-0.2-0.148-0.293-0.217
			c-0.14-0.102-0.266-0.191-0.381-0.271c-0.076-0.054-0.151-0.105-0.219-0.15c-0.055-0.037-0.113-0.077-0.16-0.108
			c-0.094-0.062-0.178-0.116-0.234-0.153c-0.026-0.017-0.051-0.031-0.068-0.043c-0.025-0.017-0.066-0.041-0.066-0.041
			s0.399,5.838-50.223,11.617c2.708,16.102,6.669,33.998,11.04,50.213C175.068,200.885,183.243,194.426,190.384,186.967z"/>
		
			<linearGradient id="SVGID_23_" gradientUnits="userSpaceOnUse" x1="-2801.71" y1="156.3462" x2="-2768.6995" y2="135.4132" gradientTransform="matrix(0.9976 -0.0695 -0.0695 -0.9976 2967.1296 123.2642)">
			<stop  offset="0" style="stop-color:#E9E0C4"/>
			<stop  offset="1" style="stop-color:#FFFFFF"/>
		</linearGradient>
		<path fill="url(#SVGID_23_)" d="M190.384,186.967c7.236-17.582,16.234-31.094,20.489-38.02c-0.116-0.117-0.229-0.227-0.344-0.339
			c-0.184-0.181-0.363-0.356-0.54-0.524c-0.165-0.158-0.33-0.314-0.489-0.461c-0.212-0.197-0.419-0.383-0.619-0.561
			c-0.191-0.171-0.378-0.331-0.561-0.484c-0.104-0.088-0.204-0.174-0.305-0.256c-0.248-0.207-0.479-0.396-0.699-0.568
			c-0.09-0.07-0.182-0.144-0.265-0.209c-0.126-0.096-0.245-0.188-0.358-0.271c-0.104-0.078-0.2-0.148-0.293-0.217
			c-0.14-0.102-0.266-0.191-0.381-0.271c-0.076-0.054-0.151-0.105-0.219-0.15c-0.055-0.037-0.113-0.077-0.16-0.108
			c-0.094-0.062-0.178-0.116-0.234-0.153c-0.026-0.017-0.051-0.031-0.068-0.043c-0.025-0.017-0.066-0.041-0.066-0.041
			s0.399,5.838-50.223,11.617c2.708,16.102,6.669,33.998,11.04,50.213C175.068,200.885,183.243,194.426,190.384,186.967z"/>
	</g>
	<g>
		
			<linearGradient id="SVGID_24_" gradientUnits="userSpaceOnUse" x1="3718.9053" y1="484.7905" x2="3735.3223" y2="473.4253" gradientTransform="matrix(-0.9635 0.2675 -0.2675 -0.9635 3886.8228 -389.5862)">
			<stop  offset="0" style="stop-color:#F7A58A"/>
			<stop  offset="1" style="stop-color:#FABD96"/>
		</linearGradient>
		<path fill="url(#SVGID_24_)" d="M158.549,158.241c3.092,10.932,13.713,12.555,25.658,9.311
			c11.943-3.25,15.352-9.598,20.303-18.713c-3.1-10.928,6.93-69.312-17.555-56.425C176.002,98.18,148.297,83.395,158.549,158.241z"
			/>
		
			<linearGradient id="SVGID_25_" gradientUnits="userSpaceOnUse" x1="-2792.3442" y1="145.5571" x2="-2806.1504" y2="147.529" gradientTransform="matrix(0.9976 -0.0695 -0.0695 -0.9976 2967.1296 123.2642)">
			<stop  offset="0.0055" style="stop-color:#991115"/>
			<stop  offset="0.5495" style="stop-color:#F05B5B"/>
		</linearGradient>
		<polygon fill="url(#SVGID_25_)" points="187.871,161.952 162.898,161.6 171.402,183.499 		"/>
		<g>
			<polygon fill="#E5E1D4" points="210.662,149.573 204.396,138.428 171.504,161.713 187.871,161.952 177.424,175.616 
				183.178,183.893 			"/>
		</g>
		<g>
			
				<linearGradient id="SVGID_26_" gradientUnits="userSpaceOnUse" x1="-2802.4414" y1="166.2241" x2="-2796.1536" y2="188.4166" gradientTransform="matrix(0.9976 -0.0695 -0.0695 -0.9976 2967.1296 123.2642)">
				<stop  offset="0.0449" style="stop-color:#003B68"/>
				<stop  offset="1" style="stop-color:#0089C0"/>
			</linearGradient>
			<path fill="url(#SVGID_26_)" d="M154.75,156.277l-0.309,1.365l1.844,22.224l2.734-3.195c-1.472-6.935-2.785-13.799-3.902-20.373
				C154.996,156.29,154.877,156.286,154.75,156.277z"/>
			<path fill="#E5E1D4" d="M166.104,154.532c-3.395,0.454-7.047,0.916-11.055,1.372c1.127,6.688,2.473,13.693,3.971,20.767
				l12.951-15.162L166.104,154.532z"/>
		</g>
		
			<linearGradient id="SVGID_27_" gradientUnits="userSpaceOnUse" x1="3685.6553" y1="461.1841" x2="3727.208" y2="459.8869" gradientTransform="matrix(-0.9635 0.2675 -0.2675 -0.9635 3886.8228 -389.5862)">
			<stop  offset="0" style="stop-color:#F2EDDE"/>
			<stop  offset="1" style="stop-color:#FFFFFF"/>
		</linearGradient>
		<polygon fill="url(#SVGID_27_)" points="212.543,150.055 206.277,138.911 171.971,161.508 183.83,175.803 		"/>
		
			<linearGradient id="SVGID_28_" gradientUnits="userSpaceOnUse" x1="3727.665" y1="469.9526" x2="3745.8301" y2="469.3856" gradientTransform="matrix(-0.9635 0.2675 -0.2675 -0.9635 3886.8228 -389.5862)">
			<stop  offset="0" style="stop-color:#F2EDDE"/>
			<stop  offset="1" style="stop-color:#FFFFFF"/>
		</linearGradient>
		<polygon fill="url(#SVGID_28_)" points="154.184,156.004 155.576,141.786 171.971,161.508 157.168,175.928 		"/>
	</g>
	<g>
		
			<linearGradient id="SVGID_29_" gradientUnits="userSpaceOnUse" x1="-841.0015" y1="4026.854" x2="-809.4813" y2="4082.0154" gradientTransform="matrix(0.3501 -0.0541 -0.0541 -0.3501 662.9243 1509.8411)">
			<stop  offset="0" style="stop-color:#F8A68B"/>
			<stop  offset="1" style="stop-color:#FBBE97"/>
		</linearGradient>
		<path fill="url(#SVGID_29_)" d="M132.656,86.527c0,0-3.936-11.354,4.059-28.955c15.359-33.803,37.375-42.48,71.494-27.812
			c34.781,14.955,4.455,68.811,4.455,68.811l-1.613,0.061c0,0-5.746,23.835-7.498,33.416c0,0-14.574,9.693-36.562,15.357
			c-30.822,7.934-31.521-15.408-31.521-15.408l-2.51-25.746L132.656,86.527z"/>
		
			<linearGradient id="SVGID_30_" gradientUnits="userSpaceOnUse" x1="-152.2793" y1="113.2778" x2="-175.6445" y2="99.0308" gradientTransform="matrix(0.9985 -0.0556 -0.0556 -0.9985 374.2227 139.213)">
			<stop  offset="0" style="stop-color:#F8A68B"/>
			<stop  offset="1" style="stop-color:#FBBE97"/>
		</linearGradient>
		<path fill="url(#SVGID_30_)" d="M208.209,29.76c-14.289-6.145-26.449-8.176-36.891-5.998
			c-0.076,14.953,9.879,27.703,30.154,39.484c8.846,5.139,16.43,7.09,21.729,7.781C226.76,55.393,226.076,37.443,208.209,29.76z"/>
		
			<linearGradient id="SVGID_31_" gradientUnits="userSpaceOnUse" x1="-845.4829" y1="4340.1304" x2="-785.606" y2="4297.5493" gradientTransform="matrix(0.3501 -0.0541 -0.0541 -0.3501 663.4673 1516.8274)">
			<stop  offset="0" style="stop-color:#F8A68B"/>
			<stop  offset="1" style="stop-color:#FBBE97"/>
		</linearGradient>
		<path fill="url(#SVGID_31_)" d="M130.465,57.295c0.053,15.553,1.744,33.553,4.623,39.631l62.125-74.086l-14.938-4.289
			C160.703,17.258,130.393,32.262,130.465,57.295z"/>
		<g>
			<path fill="#CB8B7A" d="M179.152,62.133c-3.818-1.686-8.854-3.02-14.461-3.654c-5.965-0.684-11.51-0.471-15.771,0.428
				c4.072-0.238,9.758-0.02,15.996,0.686C170.42,60.227,175.395,61.139,179.152,62.133z"/>
		</g>
		<g>
			
				<linearGradient id="SVGID_32_" gradientUnits="userSpaceOnUse" x1="-5772.0625" y1="4376.5317" x2="-5733.8965" y2="4376.5317" gradientTransform="matrix(-0.6926 0.1018 -0.1018 -0.6926 -3324.397 3681.9194)">
				<stop  offset="0" style="stop-color:#7A1E33"/>
				<stop  offset="1" style="stop-color:#380B10"/>
			</linearGradient>
			<path fill="url(#SVGID_32_)" d="M202.236,72.908c-1.771-11.541,13.977-31.895,17.889-35.129
				c13.508,12.846,1.439,42.455-3.537,53.492C212.939,86.863,203.172,79,202.236,72.908z"/>
			
				<linearGradient id="SVGID_33_" gradientUnits="userSpaceOnUse" x1="-5766.0967" y1="4436.7349" x2="-5663.5508" y2="4436.7349" gradientTransform="matrix(-0.6926 0.1018 -0.1018 -0.6926 -3324.7231 3682.9116)">
				<stop  offset="0" style="stop-color:#7A1E33"/>
				<stop  offset="1" style="stop-color:#380B10"/>
			</linearGradient>
			<path fill="url(#SVGID_33_)" d="M219.287,37.135c0,0-28.232-24.723-48.939-21.807c-20.707,2.92-24.451,16.135-24.451,16.135
				s10.236,10.338,32.285,9.945C200.24,41.021,219.287,37.135,219.287,37.135z"/>
			<g>
				<g>
					<g>
						<defs>
							<path id="SVGID_34_" d="M220.125,37.779c-2.701,2.23-10.832,18.314-15.33,25.18l-1.047-18.605l-11.91-2.301l-0.205-3.654
								c12.336,1.203,12.822,1.156,13.307,1.104c7.416-0.766,14.349-2.367,14.349-2.367s-28.231-24.723-48.938-21.807
								c-20.707,2.92-24.451,16.135-24.451,16.135s10.235,10.338,32.285,9.945c5.104-0.092,9.842-0.428,12.278-0.547l1.588,28.207
								l10.388-0.803c-0.353,1.498-0.443,3.043-0.199,4.643c0.936,6.092,10.703,13.955,14.352,18.363
								C221.564,80.234,233.586,49.801,220.125,37.779z"/>
						</defs>
						<clipPath id="SVGID_35_">
							<use xlink:href="#SVGID_34_"  overflow="visible"/>
						</clipPath>
						<path clip-path="url(#SVGID_35_)" fill="#A77972" d="M224.68,91.963c-0.01-0.006-4.529-3.906-9.059-8.455l0,0
							c-4.52-4.619-9.086-9.576-9.199-12.682l0,0c0-0.152,0.008-0.328,0.053-0.49l0,0c2.211-10.756,6.285-21.557,6.342-21.678l0,0
							l12.886-21.07l0.1-0.072c-0.006-0.004,0.58-0.459,0.82-0.811l0,0c-0.093-0.014-0.215-0.025-0.371-0.023l0,0
							c-1.24-0.008-4.235,0.584-10.084,2.473l0,0c-1.219,0.49-2.858,0.682-4.854,0.686l0,0
							c-10.877-0.016-32.442-6.025-42.742-11.939l0,0c-3.409-2.01-5.713-3.883-5.799-6.1l0,0c0-1.215,0.842-2.24,2.277-3.002l0,0
							c0.957-0.516,1.615-0.967,2.002-1.32l0,0c0.328-0.285,0.424-0.473,0.447-0.539l0,0c-0.033-0.029-0.127-0.088-0.277-0.143l0,0
							c-0.336-0.115-0.924-0.197-1.652-0.197l0,0c-2.399-0.004-6.315,0.814-9.543,2.408l0,0c-3.256,1.607-5.707,3.926-5.684,6.795
							l0,0c0,1.064,0.322,2.254,1.111,3.592l0,0c7.162,5.17,23.221,9.793,37.434,13.047l0,0c14.289,3.277,26.727,5.223,26.758,5.227
							l0,0c0.002,0,0.455,0.072,0.955,0.146l0,0l0.049-0.211c0.949,0.221,1.256,0.273,1.558,0.42l0,0
							c0.028,0.072,0.233-0.016,0.34,0.564l0,0c-0.103,0.629-0.498,0.594-0.517,0.619l0,0c-0.086,0.02-0.125,0.014-0.17,0.014l0,0
							c-0.537-0.004-2.385-0.318-2.412-0.318l0,0c-0.051-0.033-49.896-7.754-64.823-18.572l0,0l-0.104-0.074l-0.062-0.105
							c-0.93-1.529-1.361-2.986-1.361-4.348l0,0c0.209-7.27,11.266-10.375,16.475-10.451l0,0c1.541,0.062,2.949,0.115,3.177,1.559
							l0,0c-0.108,1.15-1.113,1.844-3.104,2.988l0,0c-1.252,0.684-1.619,1.316-1.619,1.902l0,0c-0.088,1.148,1.817,3.127,5.17,5.018
							l0,0c3.326,1.916,7.951,3.875,13.031,5.623l0,0c10.139,3.5,22.11,6.156,29.092,6.152l0,0c1.903,0.004,3.438-0.207,4.428-0.607
							l0,0c5.953-1.916,8.947-2.547,10.51-2.553l0,0c0.824,0,1.68,0.26,1.719,1.113l0,0c-0.133,1.01-0.981,1.609-1.297,1.855l0,0
							l-12.738,20.801c-0.004,0.027-4.053,10.754-6.248,21.422l0,0c-0.008,0.031-0.018,0.1-0.018,0.201l0,0
							c-0.113,1.99,4.34,7.363,8.838,11.799l0,0c3.42,3.438,6.838,6.504,8.277,7.771l0,0l2.766-8.58
							c-1.879-1.744-11.789-11.27-11.836-22.023l0,0c-0.018-6.75,4.059-13.816,16.133-19.305l0,0l-1.699-18.613l-6.164-3.738
							c-1.59-0.381-20.852-4.824-25.161-7.871l0,0c-3.812-2.758-16.095-8.059-17.421-8.623l0,0l-23.071,0.213l-11.654,10.623
							l-2.377,9.451c0.179,0.379,0.668,1.357,1.642,2.719l0,0c1.264,1.771,3.322,4.15,6.479,6.537l0,0
							c6.317,4.775,17.052,9.623,34.761,9.75l0,0l-0.015,1.246c-35.879-0.221-44.072-19.801-44.104-19.953l0,0l-0.078-0.193
							l2.574-10.225l12.285-11.199l23.812-0.219l0.123,0.053c0.02,0.018,13.453,5.711,17.772,8.809l0,0
							c1.871,1.373,8.185,3.377,13.888,4.93l0,0c5.723,1.566,10.918,2.758,10.928,2.762l0,0l0.1,0.02l6.867,4.164l1.836,20.129
							l-0.41,0.184c-12.137,5.459-15.779,12.086-15.795,18.352l0,0c-0.012,5.496,2.895,10.863,5.84,14.834l0,0
							c2.939,3.973,5.863,6.525,5.871,6.529l0,0l0.311,0.266l-3.598,11.16L224.68,91.963L224.68,91.963z"/>
					</g>
				</g>
			</g>
		</g>
		
			<radialGradient id="SVGID_36_" cx="1404.4336" cy="-906.5205" r="16.3997" gradientTransform="matrix(-1.3274 -0.0062 0.0073 -0.6791 2052.6113 -509.5179)" gradientUnits="userSpaceOnUse">
			<stop  offset="0.0955" style="stop-color:#E59A7A"/>
			<stop  offset="0.6124" style="stop-color:#FABD96"/>
		</radialGradient>
		<path fill="url(#SVGID_36_)" d="M162.227,98.193c-0.053,5.117,8.025,9.316,18.047,9.355c10.029,0.061,18.189-4.059,18.238-9.197
			c0.053-5.127-8.012-9.314-18.035-9.357C170.449,88.936,162.293,93.068,162.227,98.193z"/>
		
			<linearGradient id="SVGID_37_" gradientUnits="userSpaceOnUse" x1="-148.4507" y1="43.4897" x2="-158.1086" y2="48.0341" gradientTransform="matrix(0.9985 -0.0556 -0.0556 -0.9985 374.2227 139.213)">
			<stop  offset="0" style="stop-color:#F8A68B"/>
			<stop  offset="1" style="stop-color:#FBBE97"/>
		</linearGradient>
		<path fill="url(#SVGID_37_)" d="M205.93,97.564c0,0,10.014-13.631,17.822-7.906c7.816,5.719-1.021,20.516-10.5,22.506
			l-5.887,0.037L205.93,97.564z"/>
		<g>
			<g>
				
					<linearGradient id="SVGID_38_" gradientUnits="userSpaceOnUse" x1="-166.9004" y1="51.2222" x2="-175.2099" y2="44.0203" gradientTransform="matrix(0.9985 -0.0556 -0.0556 -0.9985 374.2227 139.213)">
					<stop  offset="0" style="stop-color:#F8A68B"/>
					<stop  offset="1" style="stop-color:#FBBE97"/>
				</linearGradient>
				<path fill="url(#SVGID_38_)" d="M205.93,97.564c0,0,4.082-5.537,9.062-8.068c-0.633-0.66-1.332-1.367-2.072-2.111
					C208.562,90.936,205.93,97.564,205.93,97.564z"/>
				<path d="M218.803,85.197c-2.195-0.152-4.168,0.787-5.883,2.188c0.74,0.744,1.439,1.451,2.072,2.111
					c0.799-0.4,1.621-0.74,2.455-0.953C217.893,87.488,218.346,86.371,218.803,85.197z"/>
			</g>
		</g>
		<g>
			<path fill="#121013" d="M180.188,86.379c0.375,2.189-0.582,4.178-2.164,4.428c-1.569,0.246-3.174-1.324-3.543-3.504
				c-0.391-2.201,0.588-4.18,2.162-4.438C178.211,82.609,179.805,84.184,180.188,86.379z"/>
			<g>
				
					<linearGradient id="SVGID_39_" gradientUnits="userSpaceOnUse" x1="2350.0215" y1="566.5415" x2="2354.1846" y2="581.112" gradientTransform="matrix(-0.9702 0.2423 -0.2423 -0.9702 2556.2759 47.829)">
					<stop  offset="0.0056" style="stop-color:#834249"/>
					<stop  offset="1" style="stop-color:#000A31"/>
				</linearGradient>
				<path fill="url(#SVGID_39_)" d="M131.994,68.922c0.086-0.211,0.143-0.441,0.086-0.684c-0.016-0.035-0.029-0.074-0.041-0.115
					c-0.035-0.115-0.076-0.236-0.1-0.326c-0.246-0.902,0-1.613,0.707-2.219c2.194-1.832,7.869-2.014,11.475-0.34
					c2.902,1.33,3.252,3.393,2.791,4.385c-0.355,0.74-0.895,0.547-1.088,0.477C142.867,69.014,136.707,67.988,131.994,68.922z"/>
				
					<linearGradient id="SVGID_40_" gradientUnits="userSpaceOnUse" x1="2278.8711" y1="554.9409" x2="2282.9937" y2="569.369" gradientTransform="matrix(-0.9916 0.1294 -0.1294 -0.9916 2503.5725 312.2674)">
					<stop  offset="0.0056" style="stop-color:#834249"/>
					<stop  offset="1" style="stop-color:#000A31"/>
				</linearGradient>
				<path fill="url(#SVGID_40_)" d="M170.828,71.137c0.121-0.203,0.213-0.418,0.176-0.666c-0.012-0.039-0.008-0.072-0.012-0.107
					c-0.035-0.133-0.049-0.242-0.072-0.365c-0.129-0.906,0.201-1.592,0.975-2.104c2.388-1.59,8.054-1.15,11.431,0.895
					c2.707,1.639,2.819,3.725,2.227,4.645c-0.438,0.723-0.948,0.469-1.112,0.381C181.609,72.41,175.611,70.715,170.828,71.137z"/>
			</g>
		</g>
		<g>
			<g>
				
					<linearGradient id="SVGID_41_" gradientUnits="userSpaceOnUse" x1="-204.6699" y1="28.5156" x2="-196.9674" y2="25.9481" gradientTransform="matrix(0.9985 -0.0556 -0.0556 -0.9985 374.2227 139.213)">
					<stop  offset="0.0056" style="stop-color:#FFFFFF"/>
					<stop  offset="1" style="stop-color:#C9E3EF"/>
				</linearGradient>
				<path fill="url(#SVGID_41_)" d="M183.045,113.467c-13.699,14.205-26.404,17.812-34.922,15.838
					c-3.02-0.688-3.023-8.734-4.365-16.045c0.164,0.072,0.33,0.096,0.482,0.207C149.951,117.775,170.309,121.113,183.045,113.467z"
					/>
				<path fill="#CB8B7A" d="M182.711,112.948c-12.258,7.356-32.287,4.396-38.078,0.038l-0.488-0.243
					c-0.217-0.103-0.516-0.089-0.709,0.043c-0.192,0.137-0.348,0.348-0.313,0.575l0.86,5.777c0.738,5.663,1.33,10.147,3.984,10.76
					c4.936,1.146,18.291,1.858,35.559-16.035c0.218-0.228,0.222-0.567,0.019-0.797C183.338,112.833,182.98,112.793,182.711,112.948z
					 M145.252,118.975c0,0-0.451-3.078-0.68-4.602c6.199,3.985,22.727,6.537,35.107,1.393
					c-15.341,14.422-26.976,13.986-31.408,12.953C146.484,128.314,145.859,123.566,145.252,118.975z"/>
			</g>
			<path fill="#CB8B7A" d="M140.492,111.006l4.008,1.909c-0.314-0.152-0.678-0.027-0.84,0.293c-0.152,0.295,0.006,0.672,0.314,0.821
				l-4.144-1.979c-0.317-0.15-0.397-0.496-0.238-0.785C139.742,110.959,140.178,110.859,140.492,111.006z"/>
		</g>
		<g>
			
				<radialGradient id="SVGID_42_" cx="1227.4404" cy="-1613.9785" r="16.3928" gradientTransform="matrix(-1.3095 -0.1996 0.1184 -0.6705 1930.3218 -743.9739)" gradientUnits="userSpaceOnUse">
				<stop  offset="0.0955" style="stop-color:#E59A7A"/>
				<stop  offset="0.6124" style="stop-color:#FABD96"/>
			</radialGradient>
			<path fill="url(#SVGID_42_)" d="M148.918,95.34c0.889-5.033-6.305-10.312-16.094-11.85l0.27,17.492l0.113,1.164
				C141.428,102.496,148.145,99.75,148.918,95.34z"/>
		</g>
		<path fill="#121013" d="M144.262,83.418c0.373,2.186-0.588,4.178-2.174,4.418c-1.566,0.256-3.166-1.324-3.549-3.498
			c-0.375-2.189,0.588-4.18,2.162-4.432C142.293,79.654,143.871,81.223,144.262,83.418z"/>
		<path fill="#CB8B7A" d="M154.104,73.529c-0.186,5.506-6.512,25.701-11.586,31.732c9.099,3.01,16.543,2.459,19.756,2.299
			c-4.166-1.459-9.756-1.824-14.7-4.42c4.081-4.775,9.229-24.191,7.469-29.033L154.104,73.529z"/>
		<path fill="#CB8B7A" d="M220.852,95.082c0.355,0.143,0.513,0.531,0.351,0.873c-0.17,0.338-0.578,0.492-0.943,0.338
			c-1.225-0.521-6.413,4.531-11.352,11.049c-0.22,0.291-0.662,0.373-0.978,0.148c-0.332-0.211-0.396-0.635-0.172-0.928
			C210.049,103.531,217.779,93.764,220.852,95.082z"/>
		<path fill="#CB8B7A" d="M217.762,102.275c0.336,0.168,0.479,0.566,0.297,0.895c-0.18,0.322-0.604,0.443-0.955,0.283
			c-0.139-0.062-3.5-1.631-5.643,1.057c-0.248,0.301-0.693,0.354-1.008,0.131c-0.314-0.209-0.367-0.631-0.127-0.934
			C212.635,100.824,216.195,101.516,217.762,102.275z"/>
		<path fill="#CB8B7A" d="M187.303,86.822c-0.055-0.418,0.236-0.799,0.654-0.859l0,0l8.15-1.1c0.418-0.055,0.801,0.234,0.856,0.654
			l0,0c0.06,0.418-0.239,0.801-0.651,0.857l0,0l-8.15,1.102c-0.035,0.006-0.07,0.006-0.104,0.006l0,0
			C187.682,87.482,187.355,87.205,187.303,86.822L187.303,86.822z"/>
		<path fill="#CB8B7A" d="M135.391,81.623l-2.526-1.863c-0.339-0.252-0.412-0.729-0.158-1.066l0,0
			c0.244-0.34,0.721-0.414,1.062-0.16l0,0l2.535,1.865c0.338,0.246,0.411,0.725,0.159,1.062l0,0
			c-0.149,0.203-0.383,0.311-0.616,0.311l0,0C135.688,81.771,135.529,81.725,135.391,81.623L135.391,81.623z"/>
		<path fill="#CB8B7A" d="M144.15,134.038h0.006c-0.336-0.252-0.4-0.736-0.139-1.066l0,0c0.256-0.334,0.731-0.395,1.067-0.141l0,0
			c0.002-0.008,0.869,0.68,2.479,1.383l0,0c1.611,0.707,3.929,1.412,6.722,1.412l0,0c1.545,0,3.248-0.219,5.08-0.773l0,0
			c0.397-0.121,0.825,0.105,0.944,0.506l0,0c0.121,0.4-0.104,0.826-0.504,0.949l0,0c-1.977,0.604-3.832,0.844-5.521,0.844l0,0
			C148.174,137.141,144.225,134.086,144.15,134.038L144.15,134.038z"/>
		<path fill="#CB8B7A" d="M189.053,90.92c-0.004-0.424,0.336-0.768,0.758-0.768l0,0l5.765-0.029c0.424,0,0.766,0.338,0.766,0.762
			l0,0c0,0.416-0.338,0.762-0.758,0.762l0,0l-5.763,0.029C189.396,91.676,189.053,91.336,189.053,90.92L189.053,90.92z"/>
		<path fill="#CB8B7A" d="M135.984,86.217l-2.73-0.092c-0.422-0.012-0.754-0.361-0.736-0.785l0,0c0.015-0.42,0.363-0.75,0.785-0.736
			l0,0l2.729,0.092c0.422,0.016,0.754,0.369,0.737,0.789l0,0c-0.012,0.412-0.346,0.732-0.754,0.732l0,0
			C136.004,86.217,135.994,86.217,135.984,86.217L135.984,86.217z"/>
	</g>
</g>
</svg>
