<svg xmlns="http://www.w3.org/2000/svg" xmlns:xlink="http://www.w3.org/1999/xlink" version="1.1" id="Layer_1" x="0px" y="0px" width="288px" height="228px" viewBox="0 0 288 228" enable-background="new 0 0 288 228" xml:space="preserve"><g id="Layer_1_1_"/><g id="Layer_2"><rect fill="none" width="288" height="228"/><g id="B_x2F_G"><path fill="#7DC145" d="M187.645 159.465c51.5-5.812 51.088-11.717 51.088-11.717s3.633 2.16 7.963 7.223c5.061-12.67 7.848-26.494 7.848-40.971C254.54 52.951 205.05 3.461 144 3.461c-51.043 0-93.979 34.604-106.692 81.627l59.36-15.09 46.426 17.24 -81.332 19.584 5.492 68.338 12.129 28.35 81.332-17.945 -0.902 4.439 -75.458 17.047c17.209 11.057 37.672 17.488 59.646 17.488 15.08 0 29.453-3.023 42.552-8.492C185.32 191.559 185.271 169.375 187.645 159.465z"/></g><g id="Icones"><path fill="#8C9373" d="M155.271 205.08l0.36-1.195c2.312 0.703 4.947 1.02 7.742 1.02l0 0c6.819 0.013 14.562-1.896 20.703-4.438l0 0c-5.699-1.502-9.479-5.029-9.572-8.379l0 0c-0.012-1.432 0.808-2.771 2.345-3.631l0 0c1.541-0.873 3.789-1.367 6.893-1.371l0 0c0.807 0.002 1.672 0.035 2.594 0.105l0 0c3.438 0.268 5.877 0.803 7.531 1.586l0 0c1.637 0.762 2.581 1.902 2.574 3.248l0 0c-0.029 1.695-1.318 3.266-3.284 4.834l0 0c-1.317 1.041-2.978 2.07-4.88 3.049l0 0c0.518 0.037 1.043 0.057 1.58 0.057l0 0c2.211 0 4.594-0.322 7.08-1.08l0 0c3.727-1.152 5.401-3.084 5.401-5.32l0 0c0.084-3.793-5.213-9.438-16.961-13.909l0 0c-11.718-4.496-29.729-7.941-54.729-7.938l0 0c-9.793-0.004-20.658 0.525-32.635 1.725l0 0 -0.123-1.241c12.014-1.203 22.92-1.734 32.758-1.734l0 0c25.117 0.002 43.264 3.455 55.178 8.025l0 0c11.881 4.598 17.682 10.19 17.766 15.075l0 0c0 2.974-2.317 5.332-6.291 6.519l0 0c-2.604 0.791-5.106 1.136-7.44 1.136l0 0c-1.275-0.009-2.5-0.111-3.666-0.302l0 0c-0.314 0.146-0.633 0.285-0.957 0.424l0 0c-6.389 2.742-14.555 4.812-21.859 4.814l0 0C160.486 206.152 157.732 205.828 155.271 205.08L155.271 205.08zM177.473 189.543c-1.248 0.729-1.701 1.576-1.716 2.545l0 0c-0.022 1.518 1.343 3.539 3.854 5.125l0 0c1.688 1.074 3.871 1.955 6.397 2.412l0 0c2.574-1.188 4.773-2.475 6.375-3.744l0 0c1.873-1.461 2.843-2.898 2.81-3.854l0 0c-0.004-0.719-0.435-1.422-1.861-2.117l0 0c-1.418-0.68-3.74-1.215-7.092-1.469l0 0c-0.895-0.066-1.727-0.104-2.496-0.104l0 0c-0.014 0-0.023 0-0.035 0l0 0C180.759 188.338 178.715 188.832 177.473 189.543L177.473 189.543z"/><path fill="#536145" d="M161.344 206.1h-0.002l0.07-1.25c0.646 0.035 1.299 0.055 1.962 0.055l0 0c0.135 0 0.271 0 0.401-0.002l0 0 0.016 1.25c-0.141 0.002-0.277 0.002-0.417 0.002l0 0C162.688 206.152 162.012 206.135 161.344 206.1L161.344 206.1zM167.334 204.709c0.783-0.074 1.573-0.168 2.361-0.281l0 0 0.179 1.236c-0.812 0.115-1.618 0.213-2.422 0.289l0 0L167.334 204.709 167.334 204.709zM155.271 205.08l0.36-1.195c0.728 0.223 1.486 0.404 2.272 0.553l0 0 -0.229 1.229C156.852 205.51 156.047 205.316 155.271 205.08L155.271 205.08zM173.217 203.809c0.78-0.164 1.559-0.342 2.328-0.533l0 0 0.303 1.213c-0.785 0.195-1.576 0.378-2.373 0.545l0 0L173.217 203.809 173.217 203.809zM178.989 202.309c0.769-0.24 1.524-0.494 2.267-0.758l0 0 0.415 1.18c-0.755 0.271-1.524 0.523-2.312 0.771l0 0L178.989 202.309 178.989 202.309zM184.588 200.256c0.748-0.318 1.475-0.646 2.166-0.982l0 0 0.246 0.506c0.668 0.09 1.355 0.147 2.064 0.174l0 0 -0.045 1.248c-0.849-0.029-1.67-0.105-2.465-0.221l0 0 0.036-0.248c-0.493 0.229-1 0.453-1.516 0.673l0 0L184.588 200.256 184.588 200.256zM192.723 201.045l-0.146-1.242c0.76-0.086 1.529-0.215 2.314-0.387l0 0 0.265 1.225c-0.823 0.18-1.636 0.312-2.435 0.406l0 0v-0.002H192.723zM180.629 199.205l0.543-1.125c0.67 0.32 1.393 0.613 2.158 0.865l0 0 -0.395 1.188C182.119 199.864 181.35 199.551 180.629 199.205L180.629 199.205zM198.239 198.422c0.771-0.32 1.429-0.688 1.976-1.088l0 0 0.738 1.01c-0.643 0.471-1.387 0.877-2.23 1.232l0 0L198.239 198.422 198.239 198.422zM189.887 197.588c0.717-0.434 1.373-0.867 1.965-1.299l0 0 0.736 1.006c-0.623 0.459-1.312 0.912-2.055 1.363l0 0L189.887 197.588 189.887 197.588zM175.7 195.332l1.013-0.73c0.396 0.549 0.916 1.104 1.547 1.629l0 0 -0.801 0.959C176.758 196.602 176.168 195.979 175.7 195.332L175.7 195.332zM202.146 194.832c0.129-0.404 0.193-0.826 0.193-1.27l0 0c0-0.263-0.021-0.531-0.068-0.81l0 0 1.23-0.209c0.059 0.342 0.088 0.683 0.09 1.019l0 0c0 0.565-0.086 1.121-0.254 1.649l0 0L202.146 194.832 202.146 194.832zM195.354 194.721l-0.988-0.764c0.533-0.688 0.798-1.312 0.826-1.818l0 0 1.25 0.08c-0.062 0.861-0.463 1.691-1.088 2.504l0 0V194.721L195.354 194.721zM174.551 191.512c0.133-0.9 0.604-1.748 1.391-2.418l0 0 0.814 0.947c-0.586 0.51-0.877 1.059-0.971 1.652l0 0L174.551 191.512 174.551 191.512zM191.395 189.225l0.314-1.209c0.938 0.248 1.729 0.539 2.383 0.875l0 0 -0.57 1.109C192.969 189.719 192.266 189.453 191.395 189.225L191.395 189.225zM199.471 187.967l0.898-0.869c0.619 0.646 1.152 1.287 1.598 1.928l0 0 -1.025 0.713C200.539 189.158 200.051 188.566 199.471 187.967L199.471 187.967zM179.477 187.498c0.735-0.164 1.56-0.283 2.474-0.35l0 0 0.09 1.246c-0.858 0.062-1.622 0.174-2.291 0.321l0 0L179.477 187.498 179.477 187.498zM186.239 188.439c-0.229-0.019-0.454-0.031-0.675-0.047l0 0 0.069-1.248c0.229 0.016 0.464 0.028 0.699 0.047l0 0c0.608 0.048 1.188 0.104 1.735 0.168l0 0 -0.146 1.24C187.396 188.539 186.836 188.484 186.239 188.439L186.239 188.439zM194.887 184.318l0.678-1.051c0.72 0.461 1.392 0.928 2.017 1.396l0 0 -0.75 0.998C196.23 185.215 195.584 184.768 194.887 184.318L194.887 184.318zM189.684 181.479l0.527-1.131c0.764 0.354 1.488 0.717 2.184 1.084l0 0 -0.582 1.104C191.133 182.18 190.424 181.826 189.684 181.479L189.684 181.479zM192.395 181.432L192.395 181.432 192.395 181.432 192.395 181.432 192.395 181.432zM184.172 179.203l0.43-1.176c0.779 0.283 1.535 0.572 2.269 0.867l0 0 -0.466 1.16C185.686 179.768 184.939 179.482 184.172 179.203L184.172 179.203zM178.486 177.357l0.35-1.203c0.794 0.229 1.564 0.465 2.318 0.703l0 0 -0.379 1.19C180.035 177.812 179.271 177.584 178.486 177.357L178.486 177.357zM172.695 175.857l0.281-1.219c0.799 0.186 1.584 0.375 2.354 0.567l0 0 -0.307 1.211C174.266 176.229 173.486 176.041 172.695 175.857L172.695 175.857zM166.83 174.646l0.227-1.229c0.807 0.146 1.598 0.301 2.375 0.457l0 0 -0.246 1.227C168.413 174.943 167.629 174.793 166.83 174.646L166.83 174.646zM160.912 173.686l0.179-1.235c0.81 0.112 1.604 0.233 2.392 0.358l0 0 -0.194 1.232C162.508 173.918 161.716 173.799 160.912 173.686L160.912 173.686zM154.961 172.939l0.137-1.244c0.812 0.088 1.609 0.18 2.399 0.274l0 0 -0.149 1.24C156.562 173.117 155.77 173.025 154.961 172.939L154.961 172.939zM100.882 171.906c0.807-0.074 1.605-0.146 2.403-0.215l0 0 -0.002 0.002 0.106 1.244c-0.793 0.067-1.591 0.141-2.395 0.213l0 0L100.882 171.906 100.882 171.906zM106.892 171.4c0.809-0.062 1.609-0.117 2.405-0.174l0 0 0.086 1.246c-0.795 0.055-1.592 0.114-2.397 0.174l0 0L106.892 171.4 106.892 171.4zM148.986 172.387l0.098-1.244c0.812 0.062 1.614 0.127 2.408 0.197l0 0 -0.112 1.246C150.593 172.516 149.795 172.449 148.986 172.387L148.986 172.387zM112.908 170.996c0.809-0.047 1.612-0.09 2.407-0.131l0 0h0.002l0.062 1.248c-0.793 0.041-1.593 0.084-2.4 0.133l0 0L112.908 170.996 112.908 170.996zM142.998 172.008l0.062-1.248c0.812 0.039 1.616 0.084 2.411 0.135l0 0 -0.076 1.246C144.605 172.094 143.806 172.049 142.998 172.008L142.998 172.008zM118.933 170.701c0.811-0.033 1.613-0.062 2.411-0.088l0 0 0.041 1.25c-0.796 0.025-1.596 0.055-2.401 0.088l0 0L118.933 170.701 118.933 170.701zM136.999 171.787l0.029-1.248c0.812 0.021 1.615 0.041 2.414 0.07l0 0h-0.002l-0.041 1.248C138.606 171.83 137.808 171.811 136.999 171.787L136.999 171.787zM124.962 170.521c0.812-0.018 1.616-0.03 2.413-0.039l0 0 0.015 1.25c-0.793 0.011-1.595 0.021-2.402 0.039l0 0L124.962 170.521 124.962 170.521zM130.994 171.713l0.002-1.252c0.812 0.002 1.614 0.006 2.413 0.016l0 0 -0.014 1.25C132.604 171.719 131.802 171.713 130.994 171.713L130.994 171.713z"/><path fill="#834249" d="M67.254 175.16l-5.492-68.338L35.743 91.552C34.248 98.801 33.46 106.31 33.46 114c0 36.932 18.113 69.627 45.939 89.699l-0.017-0.189L67.254 175.16z"/><polygon fill="#6AA8A3" points="146.289,160.316 143.094,87.238 61.762,106.822 67.254,175.16    "/><polygon fill="#BEC2B4" points="146.289,160.316 160.715,185.562 79.383,203.51 67.254,175.16    "/><path fill="#834249" d="M160.715 185.562L79.383 203.51l0.017 0.188c1.615 1.166 3.274 2.271 4.955 3.353l75.458-17.047L160.715 185.562z"/><path fill="#150B1A" d="M135.203 105.459c6.809 3.522 7.325 35.955 4.182 43.316 -3.146 7.363-54.854 19.188-62.655 15.459 -7.797-3.726-10.531-35.373-3.886-45.359C79.494 108.896 124.056 99.688 135.203 105.459z"/><linearGradient id="SVGID_1_" gradientUnits="userSpaceOnUse" x1="-1004.5547" y1="-565.895" x2="-963.7224" y2="-573.3948" gradientTransform="matrix(-1 0 0 -1 -883.9785 -434.9209)"><stop offset="0.19" stop-color="#68B4E4"/><stop offset="0.2702" stop-color="#76BAE6"/><stop offset="0.4971" stop-color="#98C8EB"/><stop offset="0.62" stop-color="#A5CDED"/></linearGradient><path fill="url(#SVGID_1_)" d="M132.746 109.334c6.252 3.049 6.728 31.125 3.84 37.498 -2.89 6.375-50.367 16.611-57.528 13.383 -7.16-3.225-9.673-30.621-3.568-39.266C81.594 112.31 122.51 104.336 132.746 109.334z"/><path fill="#7DC145" d="M35.743 91.553l26.019 15.271L35.743 91.553z"/><path fill="#E99E3D" d="M122.972 84.902L89.338 72.414v0.002c-0.208-0.078-0.338-0.258-0.382-0.457l-50.751 12.9L62.92 99.363 122.972 84.902z"/><path fill="#E99E3D" d="M96.668 69.998l-6.082 1.545 34.74 12.901c0.258 0.099 0.424 0.351 0.405 0.623 -0.018 0.276-0.211 0.506-0.479 0.569L62.968 100.64c-0.049 0.01-0.098 0.016-0.146 0.016 -0.111 0-0.221-0.029-0.317-0.085l-25.354-14.88c-0.517 1.936-1.002 3.885-1.409 5.861l26.019 15.271 81.332-19.584L96.668 69.998z"/><path fill="#8C9373" d="M62.821 100.655c0.05 0 0.099-0.006 0.146-0.016l62.285-15.003c0.268-0.062 0.461-0.293 0.479-0.569 0.019-0.272-0.147-0.524-0.405-0.623l-34.74-12.901 -1.63 0.416c0.044 0.199 0.174 0.379 0.382 0.457v-0.002l33.633 12.488L62.92 99.363 38.205 84.859l-0.897 0.229c-0.054 0.201-0.102 0.402-0.156 0.604l25.354 14.878C62.603 100.627 62.711 100.655 62.821 100.655z"/><path fill="#190000" d="M65.783 110.197c-0.156 1.748 0.723 3.256 1.969 3.369 1.246 0.111 2.388-1.209 2.547-2.954 0.16-1.745-0.721-3.252-1.967-3.366C67.084 107.131 65.944 108.453 65.783 110.197z"/><polygon fill="#6AA8A3" points="79.248,202.898 160.58,184.953 160.85,186.172 79.519,204.121     "/><polygon fill="#6AA8A3" points="76.823,197.23 157.698,179.902 157.96,181.123 77.086,198.449     "/><polygon fill="#6AA8A3" points="74.401,191.559 154.814,174.854 155.068,176.076 74.658,192.783     "/><polygon fill="#6AA8A3" points="71.981,185.887 151.938,169.803 152.184,171.027 72.228,187.113     "/><polygon fill="#6AA8A3" points="69.56,180.217 149.053,164.752 149.292,165.98 69.798,181.443     "/><polygon fill="#6AA8A3" points="67.137,174.545 146.173,159.701 146.402,160.932 67.369,175.773     "/><polygon fill="#6AA8A3" points="66.678,175.406 67.828,174.916 79.957,203.266 78.808,203.756     "/><polygon fill="#6AA8A3" points="73.864,174.062 75.01,173.561 87.347,201.627 86.203,202.131     "/><polygon fill="#6AA8A3" points="81.053,172.719 82.192,172.205 94.739,199.989 93.601,200.504     "/><polygon fill="#6AA8A3" points="88.239,171.375 89.375,170.852 102.129,198.354 100.996,198.877     "/><polygon fill="#6AA8A3" points="95.429,170.031 96.558,169.494 109.522,196.715 108.394,197.254     "/><polygon fill="#6AA8A3" points="102.617,168.688 103.739,168.141 116.912,195.076 115.789,195.627     "/><polygon fill="#6AA8A3" points="109.806,167.346 110.922,166.783 124.306,193.439 123.187,194.002     "/><polygon fill="#6AA8A3" points="116.993,166 118.104,165.43 131.692,191.803 130.583,192.373     "/><polygon fill="#6AA8A3" points="124.181,164.658 125.285,164.072 139.086,190.166 137.981,190.75     "/><polygon fill="#6AA8A3" points="131.369,163.314 132.467,162.717 146.477,188.527 145.377,189.125     "/><polygon fill="#6AA8A3" points="138.558,161.969 139.647,161.361 153.863,186.893 152.773,187.498     "/><polygon fill="#6AA8A3" points="145.746,160.627 146.83,160.006 161.256,185.252 160.171,185.873     "/><linearGradient id="SVGID_2_" gradientUnits="userSpaceOnUse" x1="-1014.1846" y1="-567.041" x2="-996.6837" y2="-567.041" gradientTransform="matrix(-1 0 0 -1 -883.9785 -434.9209)"><stop offset="0.0055" stop-color="#A5CDED"/><stop offset="0.533" stop-color="#68B4E4"/></linearGradient><path fill="url(#SVGID_2_)" d="M130.024 111.996c5.636 2.725 6.064 27.809 3.461 33.502 -1.133 2.479-9.889 5.611-19.946 8.125v-42.611C120.668 110.309 126.918 110.492 130.024 111.996z"/><ellipse fill="#E99E3D" cx="152.955" cy="206.148" rx="13.75" ry="5"/><path fill="#834249" d="M140.004 204.482c1.89 1.938 6.969 3.334 12.951 3.334s11.062-1.396 12.949-3.334c0.51 0.521 0.801 1.08 0.801 1.666 0 2.762-6.156 5-13.75 5 -7.596 0-13.75-2.238-13.75-5C139.205 205.562 139.496 205.004 140.004 204.482z"/></g><g id="INFO"><path fill="#7DC145" d="M246.691 154.971c-4.33-5.062-7.961-7.223-7.961-7.223s0.412 5.902-51.088 11.717c-2.375 9.91-2.322 32.094-1.094 56.582C213.902 204.629 235.688 182.535 246.691 154.971z"/><linearGradient id="SVGID_3_" gradientUnits="userSpaceOnUse" x1="-651.2549" y1="-615.7832" x2="-602.2871" y2="-600.3196" gradientTransform="matrix(-1 0 0 -1 -313.418 -434.9209)"><stop offset="0.0449" stop-color="#003B68"/><stop offset="1" stop-color="#0089C0"/></linearGradient><path fill="url(#SVGID_3_)" d="M242.341 150.521c0.2 0.18 0.407 0.362 0.619 0.561C242.748 150.887 242.541 150.701 242.341 150.521z"/><linearGradient id="SVGID_4_" gradientUnits="userSpaceOnUse" x1="-650.9097" y1="-615.104" x2="-602.2002" y2="-599.722" gradientTransform="matrix(-1 0 0 -1 -313.418 -434.9209)"><stop offset="0.0449" stop-color="#003B68"/><stop offset="1" stop-color="#0089C0"/></linearGradient><path fill="url(#SVGID_4_)" d="M241.479 149.781c0.101 0.083 0.199 0.168 0.306 0.258C241.678 149.949 241.576 149.864 241.479 149.781z"/><linearGradient id="SVGID_5_" gradientUnits="userSpaceOnUse" x1="-652.8589" y1="-614.6904" x2="-603.3239" y2="-599.0478" gradientTransform="matrix(-1 0 0 -1 -313.418 -434.9209)"><stop offset="0.0449" stop-color="#003B68"/><stop offset="1" stop-color="#0089C0"/></linearGradient><path fill="url(#SVGID_5_)" d="M239.262 148.094c0.066 0.045 0.145 0.098 0.221 0.15C239.4 148.189 239.329 148.141 239.262 148.094z"/><linearGradient id="SVGID_6_" gradientUnits="userSpaceOnUse" x1="-651.3916" y1="-614.0889" x2="-602.6011" y2="-598.6814" gradientTransform="matrix(-1 0 0 -1 -313.418 -434.9209)"><stop offset="0.0449" stop-color="#003B68"/><stop offset="1" stop-color="#0089C0"/></linearGradient><path fill="url(#SVGID_6_)" d="M238.866 147.832c0.058 0.037 0.142 0.09 0.233 0.152C239.002 147.918 238.927 147.869 238.866 147.832z"/><linearGradient id="SVGID_7_" gradientUnits="userSpaceOnUse" x1="-650.6538" y1="-614.5317" x2="-602.1409" y2="-599.2119" gradientTransform="matrix(-1 0 0 -1 -313.418 -434.9209)"><stop offset="0.0449" stop-color="#003B68"/><stop offset="1" stop-color="#0089C0"/></linearGradient><path fill="url(#SVGID_7_)" d="M240.514 149.006c0.082 0.062 0.176 0.139 0.264 0.207C240.688 149.145 240.598 149.07 240.514 149.006z"/><linearGradient id="SVGID_8_" gradientUnits="userSpaceOnUse" x1="-649.2188" y1="-613.333" x2="-601.5065" y2="-598.2659" gradientTransform="matrix(-1 0 0 -1 -313.418 -434.9209)"><stop offset="0.0449" stop-color="#003B68"/><stop offset="1" stop-color="#0089C0"/></linearGradient><path fill="url(#SVGID_8_)" d="M238.73 147.748c0 0 0.039 0.023 0.064 0.041C238.758 147.766 238.73 147.748 238.73 147.748z"/><linearGradient id="SVGID_9_" gradientUnits="userSpaceOnUse" x1="-644.5454" y1="-636.9844" x2="-595.5818" y2="-621.5222" gradientTransform="matrix(-1 0 0 -1 -313.418 -434.9209)"><stop offset="0.0449" stop-color="#003B68"/><stop offset="1" stop-color="#0089C0"/></linearGradient><path fill="url(#SVGID_9_)" d="M246.691 154.971c-0.816-0.957-1.609-1.809-2.358-2.562 -4.255 6.926-13.253 20.438-20.489 38.021C233.573 180.268 241.391 168.258 246.691 154.971z"/><linearGradient id="SVGID_10_" gradientUnits="userSpaceOnUse" x1="-651.917" y1="-614.6504" x2="-602.8105" y2="-599.143" gradientTransform="matrix(-1 0 0 -1 -313.418 -434.9209)"><stop offset="0.0449" stop-color="#003B68"/><stop offset="1" stop-color="#0089C0"/></linearGradient><path fill="url(#SVGID_10_)" d="M239.859 148.518c0.094 0.066 0.188 0.139 0.293 0.217C240.049 148.652 239.955 148.584 239.859 148.518z"/><linearGradient id="SVGID_11_" gradientUnits="userSpaceOnUse" x1="-635.6616" y1="-665.167" x2="-586.692" y2="-649.7029" gradientTransform="matrix(-1 0 0 -1 -313.418 -434.9209)"><stop offset="0.0449" stop-color="#003B68"/><stop offset="1" stop-color="#0089C0"/></linearGradient><path fill="url(#SVGID_11_)" d="M187.645 159.465c-2.373 9.91-2.32 32.094-1.093 56.582 4.491-1.875 8.829-4.043 12.997-6.471 -4.371-16.217-8.332-34.111-11.04-50.213C188.219 159.398 187.938 159.432 187.645 159.465z"/><linearGradient id="SVGID_12_" gradientUnits="userSpaceOnUse" x1="-651.0635" y1="-616.3867" x2="-602.0957" y2="-600.923" gradientTransform="matrix(-1 0 0 -1 -313.418 -434.9209)"><stop offset="0.0449" stop-color="#003B68"/><stop offset="1" stop-color="#0089C0"/></linearGradient><path fill="url(#SVGID_12_)" d="M243.449 151.543c0.177 0.168 0.355 0.346 0.54 0.525C243.809 151.889 243.627 151.711 243.449 151.543z"/><linearGradient id="SVGID_13_" gradientUnits="userSpaceOnUse" x1="-2969.2139" y1="-404.8633" x2="-2936.064" y2="-425.8849" gradientTransform="matrix(0.9976 -0.0695 -0.0695 -0.9976 3145.8823 -476.8671)"><stop offset="0" stop-color="#E9E0C4"/><stop offset="1" stop-color="#FFFFFF"/></linearGradient><path fill="url(#SVGID_13_)" d="M239.48 148.244c0.113 0.08 0.24 0.172 0.379 0.271C239.721 148.414 239.596 148.324 239.48 148.244z"/><linearGradient id="SVGID_14_" gradientUnits="userSpaceOnUse" x1="-2968.7339" y1="-405.0459" x2="-2936.1211" y2="-425.7267" gradientTransform="matrix(0.9976 -0.0695 -0.0695 -0.9976 3145.8823 -476.8671)"><stop offset="0" stop-color="#E9E0C4"/><stop offset="1" stop-color="#FFFFFF"/></linearGradient><path fill="url(#SVGID_14_)" d="M238.798 147.789c0.021 0.012 0.042 0.025 0.068 0.043C238.83 147.811 238.818 147.801 238.798 147.789z"/><linearGradient id="SVGID_15_" gradientUnits="userSpaceOnUse" x1="-2968.7954" y1="-405.0454" x2="-2936.1245" y2="-425.7631" gradientTransform="matrix(0.9976 -0.0695 -0.0695 -0.9976 3145.8823 -476.8671)"><stop offset="0" stop-color="#E9E0C4"/><stop offset="1" stop-color="#FFFFFF"/></linearGradient><path fill="url(#SVGID_15_)" d="M239.104 147.984c0.047 0.031 0.104 0.07 0.158 0.106C239.205 148.055 239.148 148.018 239.104 147.984z"/><linearGradient id="SVGID_16_" gradientUnits="userSpaceOnUse" x1="-2969.5371" y1="-405.7231" x2="-2936.5762" y2="-426.6248" gradientTransform="matrix(0.9976 -0.0695 -0.0695 -0.9976 3145.8823 -476.8671)"><stop offset="0" stop-color="#E9E0C4"/><stop offset="1" stop-color="#FFFFFF"/></linearGradient><path fill="url(#SVGID_16_)" d="M242.96 151.082c0.159 0.146 0.324 0.305 0.489 0.461C243.283 151.385 243.12 151.23 242.96 151.082z"/><linearGradient id="SVGID_17_" gradientUnits="userSpaceOnUse" x1="-2969.605" y1="-406.1045" x2="-2936.772" y2="-426.9251" gradientTransform="matrix(0.9976 -0.0695 -0.0695 -0.9976 3145.8823 -476.8671)"><stop offset="0" stop-color="#E9E0C4"/><stop offset="1" stop-color="#FFFFFF"/></linearGradient><path fill="url(#SVGID_17_)" d="M244.335 152.402c-0.119-0.119-0.229-0.219-0.346-0.334 0.114 0.11 0.228 0.221 0.344 0.338C244.334 152.405 244.334 152.404 244.335 152.402z"/><linearGradient id="SVGID_18_" gradientUnits="userSpaceOnUse" x1="-2978.1724" y1="-419.2446" x2="-2945.1626" y2="-440.177" gradientTransform="matrix(0.9976 -0.0695 -0.0695 -0.9976 3145.8823 -476.8671)"><stop offset="0" stop-color="#E9E0C4"/><stop offset="1" stop-color="#FFFFFF"/></linearGradient><path fill="url(#SVGID_18_)" d="M238.73 147.748c0 0 0.384 5.838-50.225 11.616l0 0C239.131 153.584 238.73 147.748 238.73 147.748z"/><linearGradient id="SVGID_19_" gradientUnits="userSpaceOnUse" x1="-2969.3462" y1="-405.4126" x2="-2936.3804" y2="-426.3174" gradientTransform="matrix(0.9976 -0.0695 -0.0695 -0.9976 3145.8823 -476.8671)"><stop offset="0" stop-color="#E9E0C4"/><stop offset="1" stop-color="#FFFFFF"/></linearGradient><path fill="url(#SVGID_19_)" d="M241.779 150.039c0.184 0.152 0.367 0.312 0.562 0.482C242.146 150.354 241.963 150.191 241.779 150.039z"/><linearGradient id="SVGID_20_" gradientUnits="userSpaceOnUse" x1="-2969.2876" y1="-405.1621" x2="-2936.2407" y2="-426.1183" gradientTransform="matrix(0.9976 -0.0695 -0.0695 -0.9976 3145.8823 -476.8671)"><stop offset="0" stop-color="#E9E0C4"/><stop offset="1" stop-color="#FFFFFF"/></linearGradient><path fill="url(#SVGID_20_)" d="M240.775 149.213c0.221 0.174 0.451 0.363 0.699 0.567C241.229 149.574 240.996 149.387 240.775 149.213z"/><linearGradient id="SVGID_21_" gradientUnits="userSpaceOnUse" x1="-2968.9795" y1="-405.1465" x2="-2936.1865" y2="-425.9419" gradientTransform="matrix(0.9976 -0.0695 -0.0695 -0.9976 3145.8823 -476.8671)"><stop offset="0" stop-color="#E9E0C4"/><stop offset="1" stop-color="#FFFFFF"/></linearGradient><path fill="url(#SVGID_21_)" d="M240.152 148.732c0.113 0.084 0.231 0.176 0.357 0.271C240.387 148.908 240.27 148.816 240.152 148.732z"/><linearGradient id="SVGID_22_" gradientUnits="userSpaceOnUse" x1="-641.1211" y1="-647.873" x2="-592.1523" y2="-632.4091" gradientTransform="matrix(-1 0 0 -1 -313.418 -434.9209)"><stop offset="0.0449" stop-color="#003B68"/><stop offset="1" stop-color="#0089C0"/></linearGradient><path fill="url(#SVGID_22_)" d="M223.844 190.428c7.236-17.582 16.234-31.094 20.489-38.02 -0.116-0.117-0.229-0.229-0.344-0.34 -0.185-0.183-0.363-0.355-0.54-0.523 -0.165-0.158-0.33-0.314-0.489-0.461 -0.212-0.197-0.419-0.383-0.619-0.562 -0.19-0.17-0.378-0.33-0.562-0.482 -0.104-0.088-0.203-0.175-0.305-0.256 -0.248-0.207-0.479-0.396-0.699-0.568 -0.09-0.07-0.183-0.145-0.266-0.209 -0.126-0.096-0.244-0.188-0.357-0.271 -0.104-0.077-0.199-0.147-0.293-0.217 -0.141-0.102-0.267-0.19-0.381-0.271 -0.076-0.054-0.15-0.104-0.22-0.149 -0.055-0.037-0.112-0.076-0.159-0.107 -0.095-0.062-0.179-0.115-0.233-0.152 -0.026-0.018-0.052-0.031-0.068-0.043 -0.024-0.018-0.065-0.041-0.065-0.041s0.398 5.838-50.224 11.617c2.708 16.102 6.671 33.998 11.04 50.213C208.527 204.346 216.703 197.887 223.844 190.428z"/><linearGradient id="SVGID_23_" gradientUnits="userSpaceOnUse" x1="-2988.5981" y1="-435.6816" x2="-2955.5891" y2="-456.6137" gradientTransform="matrix(0.9976 -0.0695 -0.0695 -0.9976 3145.8823 -476.8671)"><stop offset="0" stop-color="#E9E0C4"/><stop offset="1" stop-color="#FFFFFF"/></linearGradient><path fill="url(#SVGID_23_)" d="M223.844 190.428c7.236-17.582 16.234-31.094 20.489-38.02 -0.116-0.117-0.229-0.229-0.344-0.34 -0.185-0.183-0.363-0.355-0.54-0.523 -0.165-0.158-0.33-0.314-0.489-0.461 -0.212-0.197-0.419-0.383-0.619-0.562 -0.19-0.17-0.378-0.33-0.562-0.482 -0.104-0.088-0.203-0.175-0.305-0.256 -0.248-0.207-0.479-0.396-0.699-0.568 -0.09-0.07-0.183-0.145-0.266-0.209 -0.126-0.096-0.244-0.188-0.357-0.271 -0.104-0.077-0.199-0.147-0.293-0.217 -0.141-0.102-0.267-0.19-0.381-0.271 -0.076-0.054-0.15-0.104-0.22-0.149 -0.055-0.037-0.112-0.076-0.159-0.107 -0.095-0.062-0.179-0.115-0.233-0.152 -0.026-0.018-0.052-0.031-0.068-0.043 -0.024-0.018-0.065-0.041-0.065-0.041s0.398 5.838-50.224 11.617c2.708 16.102 6.671 33.998 11.04 50.213C208.527 204.346 216.703 197.887 223.844 190.428z"/><linearGradient id="SVGID_24_" gradientUnits="userSpaceOnUse" x1="3019.4561" y1="-159.0322" x2="3035.8728" y2="-170.3973" gradientTransform="matrix(-0.9635 0.2675 -0.2675 -0.9635 3074.1387 -819.3461)"><stop offset="0" stop-color="#F7A58A"/><stop offset="1" stop-color="#FABD96"/></linearGradient><path fill="url(#SVGID_24_)" d="M192.009 161.701c3.093 10.932 13.714 12.555 25.658 9.311 11.942-3.25 15.353-9.598 20.304-18.713 -3.101-10.928 6.93-69.312-17.556-56.424C209.462 101.641 181.757 86.855 192.009 161.701z"/><linearGradient id="SVGID_25_" gradientUnits="userSpaceOnUse" x1="-2979.2305" y1="-446.4678" x2="-2993.0366" y2="-444.4957" gradientTransform="matrix(0.9976 -0.0695 -0.0695 -0.9976 3145.8823 -476.8671)"><stop offset="0.0055" stop-color="#991115"/><stop offset="0.5495" stop-color="#F05B5B"/></linearGradient><polygon fill="url(#SVGID_25_)" points="221.331,165.412 196.357,165.061 204.861,186.959     "/><polygon fill="#E5E1D4" points="244.122,153.033 237.855,141.889 204.964,165.174 221.331,165.412 210.884,179.076        216.639,187.354      "/><linearGradient id="SVGID_26_" gradientUnits="userSpaceOnUse" x1="-2989.3281" y1="-425.7993" x2="-2983.0398" y2="-403.6054" gradientTransform="matrix(0.9976 -0.0695 -0.0695 -0.9976 3145.8823 -476.8671)"><stop offset="0.0449" stop-color="#003B68"/><stop offset="1" stop-color="#0089C0"/></linearGradient><path fill="url(#SVGID_26_)" d="M188.21 159.736l-0.31 1.365 1.845 22.225 2.733-3.195c-1.473-6.936-2.785-13.799-3.901-20.373C188.456 159.75 188.337 159.746 188.21 159.736z"/><path fill="#E5E1D4" d="M199.562 157.992c-3.395 0.453-7.047 0.916-11.055 1.372 1.127 6.688 2.473 13.692 3.971 20.767l12.951-15.162L199.562 157.992z"/><linearGradient id="SVGID_27_" gradientUnits="userSpaceOnUse" x1="2986.2061" y1="-182.6377" x2="3027.7588" y2="-183.9349" gradientTransform="matrix(-0.9635 0.2675 -0.2675 -0.9635 3074.1387 -819.3461)"><stop offset="0" stop-color="#F2EDDE"/><stop offset="1" stop-color="#FFFFFF"/></linearGradient><polygon fill="url(#SVGID_27_)" points="246.003,153.516 239.736,142.371 205.432,164.969 217.29,179.264     "/><linearGradient id="SVGID_28_" gradientUnits="userSpaceOnUse" x1="3028.2158" y1="-173.8691" x2="3046.3818" y2="-174.4362" gradientTransform="matrix(-0.9635 0.2675 -0.2675 -0.9635 3074.1387 -819.3461)"><stop offset="0" stop-color="#F2EDDE"/><stop offset="1" stop-color="#FFFFFF"/></linearGradient><polygon fill="url(#SVGID_28_)" points="187.645,159.465 189.036,145.246 205.432,164.969 190.628,179.389     "/><linearGradient id="SVGID_29_" gradientUnits="userSpaceOnUse" x1="-589.9453" y1="2287.1641" x2="-558.4253" y2="2342.3252" gradientTransform="matrix(0.3501 -0.0541 -0.0541 -0.3501 514.3726 917.8185)"><stop offset="0" stop-color="#F8A68B"/><stop offset="1" stop-color="#FBBE97"/></linearGradient><path fill="url(#SVGID_29_)" d="M166.116 89.987c0 0-3.937-11.354 4.059-28.954 15.359-33.804 37.375-42.48 71.494-27.812 34.781 14.955 4.455 68.811 4.455 68.811l-1.613 0.061c0 0-5.745 23.837-7.497 33.416 0 0-14.574 9.693-36.562 15.357 -30.822 7.934-31.521-15.408-31.521-15.408l-2.511-25.746L166.116 89.987z"/><linearGradient id="SVGID_30_" gradientUnits="userSpaceOnUse" x1="-330.9668" y1="-474.2344" x2="-354.3323" y2="-488.4816" gradientTransform="matrix(0.9985 -0.0556 -0.0556 -0.9985 553.4366 -453.8928)"><stop offset="0" stop-color="#F8A68B"/><stop offset="1" stop-color="#FBBE97"/></linearGradient><path fill="url(#SVGID_30_)" d="M241.669 33.221c-14.289-6.145-26.448-8.176-36.892-5.998 -0.075 14.953 9.88 27.703 30.154 39.484 8.846 5.139 16.43 7.09 21.729 7.78C260.221 58.854 259.536 40.903 241.669 33.221z"/><linearGradient id="SVGID_31_" gradientUnits="userSpaceOnUse" x1="-594.4282" y1="2600.4404" x2="-534.55" y2="2557.8584" gradientTransform="matrix(0.3501 -0.0541 -0.0541 -0.3501 514.9155 924.8049)"><stop offset="0" stop-color="#F8A68B"/><stop offset="1" stop-color="#FBBE97"/></linearGradient><path fill="url(#SVGID_31_)" d="M163.925 60.756c0.054 15.553 1.744 33.553 4.623 39.631l62.125-74.086 -14.938-4.289C194.163 20.719 163.854 35.723 163.925 60.756z"/><path fill="#CB8B7A" d="M212.611 65.594c-3.817-1.686-8.854-3.021-14.461-3.654 -5.965-0.684-11.51-0.471-15.771 0.428 4.072-0.238 9.759-0.02 15.996 0.686C203.88 63.688 208.854 64.6 212.611 65.594z"/><linearGradient id="SVGID_32_" gradientUnits="userSpaceOnUse" x1="-6666.8984" y1="3498.7686" x2="-6628.7319" y2="3498.7686" gradientTransform="matrix(-0.6926 0.1018 -0.1018 -0.6926 -4000.0562 3168.5334)"><stop offset="0" stop-color="#7A1E33"/><stop offset="1" stop-color="#380B10"/></linearGradient><path fill="url(#SVGID_32_)" d="M235.695 76.369c-1.771-11.541 13.978-31.896 17.89-35.13 13.508 12.847 1.438 42.455-3.537 53.492C246.398 90.323 236.632 82.461 235.695 76.369z"/><linearGradient id="SVGID_33_" gradientUnits="userSpaceOnUse" x1="-6660.9307" y1="3558.9678" x2="-6558.3867" y2="3558.9678" gradientTransform="matrix(-0.6926 0.1018 -0.1018 -0.6926 -4000.3823 3169.5256)"><stop offset="0" stop-color="#7A1E33"/><stop offset="1" stop-color="#380B10"/></linearGradient><path fill="url(#SVGID_33_)" d="M252.747 40.596c0 0-28.231-24.723-48.938-21.807 -20.707 2.92-24.451 16.135-24.451 16.135s10.235 10.338 32.285 9.945C233.7 44.481 252.747 40.596 252.747 40.596z"/><defs><path id="SVGID_34_" d="M253.585 41.239c-2.701 2.229-10.832 18.312-15.33 25.181l-1.047-18.605 -11.91-2.301 -0.205-3.654c12.337 1.203 12.822 1.156 13.308 1.104 7.416-0.766 14.35-2.367 14.35-2.367s-28.23-24.723-48.938-21.807c-20.707 2.92-24.451 16.135-24.451 16.135s10.234 10.338 32.285 9.945c5.104-0.092 9.842-0.428 12.276-0.547l1.588 28.207 10.39-0.803c-0.354 1.498-0.443 3.043-0.199 4.643 0.936 6.092 10.703 13.955 14.352 18.363C255.023 83.694 267.046 53.262 253.585 41.239z"/></defs><clipPath id="SVGID_35_"><use xlink:href="#SVGID_34_" overflow="visible"/></clipPath><path clip-path="url(#SVGID_35_)" fill="#A77972" d="M258.141 95.424c-0.011-0.006-4.529-3.906-9.06-8.455l0 0c-4.521-4.619-9.086-9.576-9.199-12.682l0 0c0-0.152 0.009-0.328 0.054-0.49l0 0c2.211-10.756 6.285-21.558 6.342-21.678l0 0 12.887-21.07 0.1-0.072c-0.006-0.004 0.58-0.459 0.82-0.811l0 0c-0.094-0.015-0.215-0.025-0.371-0.023l0 0c-1.24-0.008-4.234 0.584-10.084 2.473l0 0c-1.219 0.49-2.857 0.682-4.854 0.686l0 0c-10.877-0.016-32.442-6.024-42.742-11.938l0 0c-3.409-2.01-5.713-3.883-5.799-6.101l0 0c0-1.215 0.842-2.239 2.275-3.002l0 0c0.957-0.516 1.615-0.967 2.002-1.319l0 0c0.328-0.285 0.426-0.474 0.447-0.539l0 0c-0.033-0.028-0.127-0.088-0.275-0.144l0 0c-0.338-0.114-0.926-0.196-1.652-0.196l0 0c-2.399-0.004-6.315 0.813-9.543 2.407l0 0c-3.256 1.607-5.707 3.927-5.686 6.796l0 0c0 1.063 0.322 2.254 1.111 3.592l0 0c7.162 5.17 23.221 9.793 37.436 13.047l0 0c14.287 3.276 26.727 5.224 26.758 5.228l0 0c0.002 0 0.455 0.072 0.955 0.146l0 0 0.049-0.211c0.949 0.222 1.256 0.272 1.558 0.42l0 0c0.028 0.072 0.233-0.017 0.34 0.563l0 0c-0.103 0.629-0.498 0.595-0.517 0.619l0 0c-0.086 0.021-0.125 0.015-0.17 0.015l0 0c-0.537-0.005-2.385-0.318-2.412-0.318l0 0c-0.051-0.032-49.896-7.754-64.823-18.571l0 0 -0.104-0.074 -0.062-0.105c-0.931-1.529-1.36-2.986-1.36-4.348l0 0c0.209-7.27 11.267-10.375 16.476-10.451l0 0c1.541 0.062 2.948 0.115 3.177 1.559l0 0c-0.107 1.15-1.111 1.844-3.104 2.988l0 0c-1.252 0.684-1.619 1.316-1.619 1.902l0 0c-0.088 1.148 1.816 3.127 5.17 5.018l0 0c3.326 1.916 7.951 3.875 13.031 5.623l0 0c10.14 3.5 22.109 6.156 29.092 6.152l0 0c1.904 0.004 3.438-0.207 4.429-0.607l0 0c5.953-1.916 8.946-2.547 10.511-2.553l0 0c0.823 0 1.68 0.26 1.719 1.113l0 0c-0.133 1.01-0.98 1.609-1.297 1.854l0 0 -12.737 20.802c-0.005 0.026-4.054 10.754-6.248 21.422l0 0c-0.009 0.031-0.019 0.1-0.019 0.201l0 0c-0.113 1.989 4.34 7.362 8.838 11.799l0 0c3.42 3.438 6.838 6.504 8.276 7.771l0 0 2.767-8.58c-1.879-1.743-11.789-11.271-11.836-22.022l0 0c-0.019-6.75 4.06-13.816 16.133-19.305l0 0 -1.698-18.613 -6.164-3.738c-1.59-0.381-20.853-4.824-25.161-7.871l0 0c-3.812-2.758-16.095-8.059-17.421-8.623l0 0 -23.071 0.213L180.15 15.946l-2.377 9.451c0.178 0.379 0.668 1.357 1.641 2.719l0 0c1.266 1.771 3.322 4.15 6.479 6.537l0 0c6.317 4.775 17.053 9.623 34.762 9.75l0 0 -0.016 1.246c-35.879-0.221-44.07-19.801-44.104-19.953l0 0 -0.077-0.193 2.573-10.225 12.285-11.199 23.812-0.219 0.123 0.053c0.021 0.018 13.453 5.711 17.771 8.809l0 0c1.871 1.373 8.187 3.377 13.89 4.931l0 0c5.723 1.565 10.918 2.758 10.928 2.763l0 0 0.101 0.02 6.867 4.164 1.836 20.129 -0.41 0.184c-12.137 5.459-15.779 12.086-15.795 18.352l0 0c-0.013 5.496 2.896 10.863 5.84 14.834l0 0c2.938 3.974 5.863 6.525 5.871 6.529l0 0 0.312 0.266 -3.599 11.16L258.141 95.424 258.141 95.424z"/><radialGradient id="SVGID_36_" cx="623.9238" cy="-1740.8535" r="16.4003" gradientTransform="matrix(-1.3274 -0.0062 0.0073 -0.6791 1056.1149 -1077.4917)" gradientUnits="userSpaceOnUse"><stop offset="0.0955" stop-color="#E59A7A"/><stop offset="0.6124" stop-color="#FABD96"/></radialGradient><path fill="url(#SVGID_36_)" d="M195.688 101.653c-0.054 5.117 8.024 9.315 18.047 9.354 10.029 0.062 18.188-4.059 18.238-9.196 0.053-5.127-8.013-9.313-18.035-9.356C203.909 92.396 195.753 96.528 195.688 101.653z"/><linearGradient id="SVGID_37_" gradientUnits="userSpaceOnUse" x1="-327.1396" y1="-544.0244" x2="-336.7969" y2="-539.4803" gradientTransform="matrix(0.9985 -0.0556 -0.0556 -0.9985 553.4366 -453.8928)"><stop offset="0" stop-color="#F8A68B"/><stop offset="1" stop-color="#FBBE97"/></linearGradient><path fill="url(#SVGID_37_)" d="M239.391 101.024c0 0 10.014-13.631 17.821-7.905 7.815 5.719-1.021 20.516-10.5 22.506l-5.887 0.037L239.391 101.024z"/><linearGradient id="SVGID_38_" gradientUnits="userSpaceOnUse" x1="-345.5864" y1="-536.2905" x2="-353.8951" y2="-543.4917" gradientTransform="matrix(0.9985 -0.0556 -0.0556 -0.9985 553.4366 -453.8928)"><stop offset="0" stop-color="#F8A68B"/><stop offset="1" stop-color="#FBBE97"/></linearGradient><path fill="url(#SVGID_38_)" d="M239.391 101.024c0 0 4.082-5.537 9.062-8.067 -0.634-0.66-1.332-1.367-2.072-2.111C242.021 94.396 239.391 101.024 239.391 101.024z"/><path d="M252.264 88.658c-2.195-0.152-4.168 0.786-5.884 2.188 0.74 0.744 1.438 1.451 2.072 2.111 0.799-0.4 1.621-0.74 2.455-0.953C251.354 90.948 251.807 89.832 252.264 88.658z"/><path fill="#121013" d="M213.646 89.84c0.375 2.188-0.582 4.178-2.164 4.428 -1.567 0.246-3.174-1.324-3.543-3.504 -0.391-2.201 0.588-4.18 2.162-4.438C211.671 86.069 213.266 87.645 213.646 89.84z"/><linearGradient id="SVGID_39_" gradientUnits="userSpaceOnUse" x1="1633.8779" y1="-71.9722" x2="1638.041" y2="-57.4017" gradientTransform="matrix(-0.9702 0.2423 -0.2423 -0.9702 1740.2191 -394.6738)"><stop offset="0.0056" stop-color="#834249"/><stop offset="1" stop-color="#000A31"/></linearGradient><path fill="url(#SVGID_39_)" d="M165.454 72.383c0.086-0.211 0.144-0.441 0.086-0.685 -0.017-0.034-0.029-0.073-0.041-0.114 -0.035-0.115-0.076-0.236-0.101-0.326 -0.246-0.902 0-1.613 0.707-2.219 2.193-1.832 7.869-2.015 11.476-0.34 2.901 1.329 3.252 3.393 2.791 4.385 -0.354 0.74-0.896 0.547-1.088 0.477C176.327 72.475 170.167 71.448 165.454 72.383z"/><linearGradient id="SVGID_40_" gradientUnits="userSpaceOnUse" x1="1490.9219" y1="-55.1855" x2="1495.0447" y2="-40.7569" gradientTransform="matrix(-0.9916 0.1294 -0.1294 -0.9916 1676.7529 -187.3162)"><stop offset="0.0056" stop-color="#834249"/><stop offset="1" stop-color="#000A31"/></linearGradient><path fill="url(#SVGID_40_)" d="M204.288 74.598c0.121-0.203 0.213-0.418 0.176-0.666 -0.012-0.039-0.008-0.072-0.012-0.107 -0.035-0.133-0.05-0.242-0.072-0.365 -0.129-0.906 0.201-1.592 0.976-2.104 2.389-1.59 8.055-1.15 11.432 0.895 2.707 1.64 2.818 3.726 2.227 4.646 -0.438 0.724-0.947 0.469-1.111 0.381C215.068 75.871 209.07 74.176 204.288 74.598z"/><linearGradient id="SVGID_41_" gradientUnits="userSpaceOnUse" x1="-383.3564" y1="-558.9961" x2="-375.6539" y2="-561.5636" gradientTransform="matrix(0.9985 -0.0556 -0.0556 -0.9985 553.4366 -453.8928)"><stop offset="0.0056" stop-color="#FFFFFF"/><stop offset="1" stop-color="#C9E3EF"/></linearGradient><path fill="url(#SVGID_41_)" d="M216.505 116.928c-13.698 14.205-26.403 17.812-34.922 15.838 -3.021-0.688-3.022-8.733-4.365-16.045 0.164 0.072 0.33 0.096 0.482 0.207C183.411 121.234 203.77 124.573 216.505 116.928z"/><path fill="#CB8B7A" d="M216.171 116.408c-12.258 7.355-32.287 4.396-38.078 0.037l-0.487-0.242c-0.217-0.104-0.517-0.089-0.709 0.043 -0.191 0.137-0.349 0.348-0.312 0.574l0.859 5.777c0.738 5.663 1.33 10.147 3.983 10.76 4.937 1.146 18.291 1.858 35.56-16.034 0.219-0.229 0.223-0.567 0.02-0.798C216.798 116.293 216.439 116.254 216.171 116.408zM178.712 122.436c0 0-0.451-3.078-0.68-4.602 6.198 3.984 22.727 6.537 35.106 1.393 -15.342 14.422-26.977 13.986-31.408 12.953C179.943 131.773 179.318 127.025 178.712 122.436z"/><path fill="#CB8B7A" d="M173.952 114.467l4.008 1.908c-0.313-0.15-0.678-0.025-0.84 0.293 -0.152 0.295 0.006 0.672 0.313 0.821l-4.145-1.979c-0.316-0.148-0.396-0.494-0.238-0.783C173.202 114.42 173.639 114.319 173.952 114.467z"/><radialGradient id="SVGID_42_" cx="380.4248" cy="-2359.8838" r="16.3928" gradientTransform="matrix(-1.3095 -0.1996 0.1184 -0.6705 942.9286 -1409.7073)" gradientUnits="userSpaceOnUse"><stop offset="0.0955" stop-color="#E59A7A"/><stop offset="0.6124" stop-color="#FABD96"/></radialGradient><path fill="url(#SVGID_42_)" d="M182.378 98.801c0.89-5.033-6.305-10.312-16.094-11.85l0.271 17.491 0.112 1.164C174.889 105.957 181.604 103.211 182.378 98.801z"/><path fill="#121013" d="M177.723 86.879c0.373 2.186-0.589 4.178-2.175 4.418 -1.565 0.256-3.166-1.324-3.549-3.498 -0.375-2.189 0.588-4.18 2.162-4.432C175.753 83.114 177.331 84.684 177.723 86.879z"/><path fill="#CB8B7A" d="M187.562 76.989c-0.186 5.507-6.512 25.701-11.586 31.73 9.101 3.011 16.543 2.459 19.756 2.3 -4.166-1.459-9.756-1.824-14.698-4.42 4.08-4.774 9.229-24.19 7.469-29.033L187.562 76.989z"/><path fill="#CB8B7A" d="M254.312 98.543c0.354 0.143 0.514 0.53 0.352 0.873 -0.17 0.338-0.578 0.492-0.943 0.338 -1.225-0.521-6.412 4.531-11.352 11.049 -0.221 0.291-0.662 0.373-0.979 0.148 -0.332-0.212-0.396-0.636-0.173-0.929C243.509 106.992 251.239 97.225 254.312 98.543z"/><path fill="#CB8B7A" d="M251.223 105.735c0.336 0.168 0.479 0.565 0.297 0.896 -0.181 0.322-0.604 0.442-0.955 0.283 -0.14-0.062-3.5-1.631-5.644 1.057 -0.248 0.301-0.692 0.354-1.008 0.131 -0.313-0.209-0.367-0.631-0.127-0.934C246.096 104.285 249.654 104.977 251.223 105.735z"/><path fill="#CB8B7A" d="M220.764 90.283c-0.056-0.419 0.235-0.8 0.653-0.859l0 0 8.149-1.101c0.418-0.055 0.802 0.234 0.855 0.654l0 0c0.061 0.418-0.238 0.801-0.65 0.856l0 0 -8.149 1.103c-0.035 0.006-0.07 0.006-0.104 0.006l0 0C221.143 90.942 220.814 90.666 220.764 90.283L220.764 90.283z"/><path fill="#CB8B7A" d="M168.852 85.084l-2.525-1.863c-0.34-0.252-0.412-0.729-0.158-1.066l0 0c0.244-0.34 0.721-0.414 1.062-0.16l0 0 2.535 1.865c0.338 0.246 0.409 0.725 0.157 1.062l0 0c-0.147 0.203-0.383 0.311-0.614 0.311l0 0C169.146 85.231 168.989 85.186 168.852 85.084L168.852 85.084z"/><path fill="#CB8B7A" d="M177.609 137.498h0.007c-0.337-0.252-0.4-0.736-0.14-1.064l0 0c0.256-0.334 0.73-0.396 1.066-0.143l0 0c0.002-0.008 0.869 0.68 2.479 1.383l0 0c1.611 0.707 3.931 1.412 6.724 1.412l0 0c1.545 0 3.248-0.219 5.08-0.771l0 0c0.396-0.121 0.823 0.104 0.942 0.506l0 0c0.121 0.398-0.104 0.826-0.504 0.949l0 0c-1.977 0.604-3.832 0.844-5.521 0.844l0 0C181.634 140.602 177.686 137.547 177.609 137.498L177.609 137.498z"/><path fill="#CB8B7A" d="M222.514 94.381c-0.005-0.424 0.336-0.769 0.758-0.769l0 0 5.766-0.028c0.424 0 0.766 0.338 0.766 0.762l0 0c0 0.416-0.338 0.762-0.758 0.762l0 0 -5.764 0.029C222.855 95.137 222.514 94.797 222.514 94.381L222.514 94.381z"/><path fill="#CB8B7A" d="M169.443 89.678l-2.729-0.092c-0.422-0.013-0.754-0.361-0.735-0.785l0 0c0.016-0.42 0.362-0.75 0.785-0.736l0 0 2.729 0.092c0.422 0.016 0.754 0.369 0.736 0.789l0 0c-0.013 0.412-0.347 0.732-0.754 0.732l0 0C169.464 89.678 169.454 89.678 169.443 89.678L169.443 89.678z"/></g></g></svg>