<svg xmlns="http://www.w3.org/2000/svg" version="1.1" id="Layer_1" x="0px" y="0px" width="288px" height="228px" viewBox="0 0 288 228" enable-background="new 0 0 288 228" xml:space="preserve"><rect fill="none" width="288" height="228"/><g id="ART_1_"><circle fill="#7DC145" cx="144" cy="114" r="110.541"/><path fill="#EFEBDD" d="M128.477 192.396c6.766 6.511 15.069 10.447 23.703 11.873 0.143 0.029 0.264 0.08 0.402 0.104 1.064 0.166 2.121 0.25 3.182 0.34 0.121 0.014 0.248 0.033 0.375 0.041 7.119 0.557 14.148-0.604 20.641-3.332 0.18-0.072 0.357-0.143 0.537-0.213 1.027-0.453 2.033-0.951 3.021-1.477 0.354-0.187 0.719-0.355 1.072-0.562 0.847-0.476 1.66-0.996 2.479-1.522 0.443-0.289 0.904-0.574 1.351-0.887 0.217-0.154 0.442-0.281 0.655-0.433 0.582-0.424 1.108-0.899 1.672-1.347 0.387-0.313 0.769-0.604 1.147-0.924 0.907-0.781 1.755-1.604 2.591-2.44 0.148-0.154 0.316-0.281 0.463-0.437 0.026-0.026 0.053-0.062 0.067-0.092 6.304-6.557 10.476-14.836 11.912-24.016 0.462-2.934-1.542-5.682-4.472-6.146 -2.933-0.457-5.686 1.547-6.146 4.479 -1.11 7.094-4.36 13.479-9.284 18.492 -0.705 0.721-1.434 1.406-2.182 2.055 -0.232 0.191-0.479 0.377-0.715 0.564 -0.631 0.52-1.271 1.014-1.928 1.477 -0.293 0.207-0.6 0.393-0.891 0.586 -0.662 0.434-1.337 0.857-2.027 1.246 -0.217 0.117-0.441 0.229-0.668 0.35 -0.801 0.43-1.61 0.83-2.438 1.189 -0.088 0.035-0.18 0.068-0.26 0.104 -5.023 2.111-10.458 2.977-15.825 2.566 -0.026 0.002-0.067-0.008-0.103-0.01 -7.574-0.603-14.997-3.715-20.883-9.381l6.209-6.453 -25.418-4.576 5.547 25.219L128.477 192.396z"/><path fill="#EFEBDD" d="M95.918 59.208c1.117-7.143 4.418-13.572 9.396-18.609 0.662-0.665 1.342-1.307 2.031-1.908 0.287-0.247 0.592-0.475 0.889-0.708 0.57-0.457 1.14-0.91 1.73-1.325 0.357-0.254 0.736-0.486 1.104-0.72 0.599-0.39 1.191-0.771 1.802-1.117 0.298-0.165 0.599-0.312 0.899-0.474 0.729-0.374 1.463-0.749 2.207-1.068 0.172-0.076 0.34-0.138 0.513-0.21 0.89-0.362 1.792-0.707 2.694-0.998 0.047-0.019 0.086-0.03 0.127-0.046 3.104-0.963 6.318-1.484 9.547-1.55 0.054 0.002 0.107 0.004 0.166-0.001 0.998-0.014 2.007 0.018 3.016 0.091 0.214 0.017 0.432 0.045 0.646 0.065 7.42 0.688 14.672 3.772 20.442 9.332l-6.211 6.451 25.421 4.582 -5.547-25.227 -6.211 6.453c-6.788-6.534-15.111-10.475-23.773-11.885 -0.117-0.029-0.223-0.071-0.342-0.096 -0.89-0.141-1.779-0.197-2.664-0.281 -0.337-0.035-0.666-0.086-1-0.115 -1.283-0.094-2.555-0.114-3.826-0.104 -0.127 0-0.244-0.003-0.361-0.003 -4.237 0.08-8.405 0.767-12.411 2.019 -0.11 0.031-0.22 0.06-0.327 0.098 -1.148 0.368-2.273 0.797-3.393 1.258 -0.271 0.111-0.56 0.217-0.84 0.332 -0.938 0.41-1.856 0.872-2.767 1.348 -0.438 0.227-0.87 0.447-1.296 0.686 -0.777 0.436-1.534 0.923-2.298 1.413 -0.501 0.329-1.013 0.644-1.511 0.993 -0.203 0.14-0.42 0.255-0.615 0.406 -0.682 0.494-1.32 1.037-1.969 1.567 -0.237 0.196-0.477 0.368-0.707 0.562 -1.145 0.978-2.246 1.979-3.278 3.055 -6.312 6.555-10.462 14.88-11.897 24.068 -0.459 2.931 1.541 5.682 4.474 6.142C92.713 64.142 95.461 62.136 95.918 59.208"/><path fill="#7DC145" d="M230.166 183.232c2.284-2.84 4.412-5.807 6.411-8.864l-32.879 18.702L230.166 183.232z"/><linearGradient id="SVGID_1_" gradientUnits="userSpaceOnUse" x1="-389.667" y1="-649.9219" x2="-412.1644" y2="-636.9423" gradientTransform="matrix(-0.9971 -0.0765 0.017 -1.0016 -166.7859 -491.1909)"><stop offset="0" stop-color="#AC6539"/><stop offset="1" stop-color="#CC8669"/></linearGradient><polygon fill="url(#SVGID_1_)" points="201.741,194.186 203.699,193.07 202.555,193.495  "/><path fill="#7DC145" d="M248.965 140.952c0.555-1.457-10.93-2.272-10.562-3.849 -0.131-1.983-12.312-2.992-12.549-4.938l-40.33-4.205c-0.529 9.935 0.275 26.465 1.416 41.988l15.623 23.541 -0.008 0.006 1.145-0.425 32.879-18.702c2.411-3.688 4.607-7.525 6.572-11.504C244.893 155.618 246.434 147.593 248.965 140.952z"/><linearGradient id="SVGID_2_" gradientUnits="userSpaceOnUse" x1="-373.5122" y1="-621.9062" x2="-396.0126" y2="-608.925" gradientTransform="matrix(-0.9971 -0.0765 0.017 -1.0016 -166.7859 -491.1909)"><stop offset="0" stop-color="#AC6539"/><stop offset="1" stop-color="#CC8669"/></linearGradient><path fill="url(#SVGID_2_)" d="M248.965 140.952c0.555-1.457-10.93-2.272-10.562-3.849 -0.131-1.983-12.312-2.992-12.549-4.938l-40.33-4.205c-0.529 9.935 0.275 26.465 1.416 41.988l15.623 23.541 -0.008 0.006 1.145-0.425 32.879-18.702c2.411-3.688 4.607-7.525 6.572-11.504C244.893 155.618 246.434 147.593 248.965 140.952z"/><path fill="#7DC145" d="M237.484 173.003l-35.836 20.386 7.572 9.858C220.432 195.04 230.039 184.773 237.484 173.003z"/><linearGradient id="SVGID_3_" gradientUnits="userSpaceOnUse" x1="-389.3354" y1="-655.3652" x2="-431.9657" y2="-600.711" gradientTransform="matrix(-0.9971 -0.0765 0.017 -1.0016 -166.7859 -491.1909)"><stop offset="0.011" stop-color="#F6FBFD"/><stop offset="1" stop-color="#9CCCE6"/></linearGradient><path fill="url(#SVGID_3_)" d="M237.484 173.003l-35.836 20.386 7.572 9.858C220.432 195.04 230.039 184.773 237.484 173.003z"/><path fill="#7DC145" d="M237.484 173.003l-35.836 20.386 7.572 9.858C220.432 195.04 230.039 184.773 237.484 173.003z"/><path fill="#7DC145" d="M230.253 183.126l-33.231 12.478 -12.061-10.146c-0.375 5.362-1.316 10.656-1.543 16.185 -0.21 5.168 0.26 10.395 0.219 15.571C202.061 210.132 218.107 198.264 230.253 183.126z"/><linearGradient id="SVGID_4_" gradientUnits="userSpaceOnUse" x1="-363.5645" y1="-681.1665" x2="-350.5382" y2="-701.7914" gradientTransform="matrix(-0.9971 -0.0765 0.017 -1.0016 -166.7859 -491.1909)"><stop offset="0.011" stop-color="#F6FBFD"/><stop offset="1" stop-color="#9CCCE6"/></linearGradient><path fill="url(#SVGID_4_)" d="M230.253 183.126l-33.231 12.478 -12.061-10.146c-0.375 5.362-1.316 10.656-1.543 16.185 -0.21 5.168 0.26 10.395 0.219 15.571C202.061 210.132 218.107 198.264 230.253 183.126z"/><path fill="#EC1C24" d="M230.166 183.232l-29.543 10.979 -15.424-3.232 11.229 20.354C209.475 204.292 220.939 194.702 230.166 183.232z"/><path fill="#7DC145" d="M188.469 180.622c0 0-11.423 17.342-19.306 41.038 7.368-1.717 14.452-4.174 21.173-7.28L188.469 180.622z"/><linearGradient id="SVGID_5_" gradientUnits="userSpaceOnUse" x1="-284.3604" y1="-687.8833" x2="-321.0418" y2="-675.9218" gradientTransform="matrix(-0.9971 -0.0765 0.017 -1.0016 -166.7859 -491.1909)"><stop offset="0.0449" stop-color="#776A6F"/><stop offset="1" stop-color="#9B979C"/></linearGradient><path fill="url(#SVGID_5_)" d="M188.469 180.622c0 0-11.423 17.342-19.306 41.038 7.368-1.717 14.452-4.174 21.173-7.28L188.469 180.622z"/><path fill="#7DC145" d="M188.87 172.396l-11.865 28.772 4.931 16.688c2.842-1.039 5.629-2.195 8.356-3.457L188.87 172.396z"/><linearGradient id="SVGID_6_" gradientUnits="userSpaceOnUse" x1="-374.2871" y1="-631.0938" x2="-344.9488" y2="-731.5209" gradientTransform="matrix(-0.9971 -0.0765 0.017 -1.0016 -166.7859 -491.1909)"><stop offset="0.0449" stop-color="#776A6F"/><stop offset="1" stop-color="#9B979C"/></linearGradient><path fill="url(#SVGID_6_)" d="M188.87 172.396l-11.865 28.772 4.931 16.688c2.842-1.039 5.629-2.195 8.356-3.457L188.87 172.396z"/><linearGradient id="SVGID_7_" gradientUnits="userSpaceOnUse" x1="-365.9722" y1="-649.0303" x2="-350.7946" y2="-656.6189" gradientTransform="matrix(-0.9971 -0.0765 0.017 -1.0016 -166.7859 -491.1909)"><stop offset="0.011" stop-color="#F6FBFD"/><stop offset="1" stop-color="#9CCCE6"/></linearGradient><polygon fill="url(#SVGID_7_)" points="184.562,182.559 186.133,168.046 202.482,192.68 184.958,207.005   "/><path fill="#9C605D" d="M270.477 116.925c0.347 0.203 0.473 0.64 0.283 0.978 -0.191 0.337-0.613 0.442-0.963 0.229 -1.186-0.713-6.744 3.939-12.154 10.184 -0.236 0.277-0.688 0.308-0.986 0.023 -0.312-0.271-0.35-0.724-0.102-1.014C259.066 124.425 267.512 115.111 270.477 116.925z"/><path fill="#9C605D" d="M266.857 124.141c0.324 0.221 0.437 0.666 0.229 0.983 -0.201 0.319-0.635 0.392-0.975 0.176 -0.133-0.088-3.369-2.211-5.709 0.357 -0.271 0.274-0.723 0.276-1.021 0 -0.293-0.269-0.315-0.724-0.057-1.007C261.848 121.909 265.35 123.118 266.857 124.141z"/><linearGradient id="SVGID_8_" gradientUnits="userSpaceOnUse" x1="-900.2627" y1="1013.8486" x2="-919.9413" y2="1060.7028" gradientTransform="matrix(-0.9968 -0.0803 0.0803 -0.9968 -634.4326 743.2803)"><stop offset="0" stop-color="#AC6539"/><stop offset="1" stop-color="#CC8669"/></linearGradient><path fill="url(#SVGID_8_)" d="M175.329 95.815c6.911-6.979 12.308 4.748 14.662 10.568 0 0 2.05 4.238 3.853 9.42 -0.396 6.342-0.978 12.727-1.711 18.908 -0.066 0.014-0.132 0.033-0.193 0.039C180.574 135.714 168.417 102.769 175.329 95.815z"/><linearGradient id="SVGID_9_" gradientUnits="userSpaceOnUse" x1="-791.978" y1="722.1865" x2="-767.752" y2="722.1865" gradientTransform="matrix(-0.9968 -0.0803 0.0803 -0.9968 -647.5322 742.2256)"><stop offset="0.0056" stop-color="#8C6A63"/><stop offset="1" stop-color="#56433E"/></linearGradient><path fill="url(#SVGID_9_)" d="M190.342 115.829c0 0 15.387-39.193 9.418-58.478 -14.568-5.87-19.543-2.513-22.017 4.806 -2.474 7.319 4.417 50.174 4.417 50.174L190.342 115.829z"/><linearGradient id="SVGID_10_" gradientUnits="userSpaceOnUse" x1="-1177.7734" y1="727.9561" x2="-1182.4596" y2="722.3329" gradientTransform="matrix(0.9968 0.0803 0.0803 -0.9968 1361.5647 903.1619)"><stop offset="0" stop-color="#AC6539"/><stop offset="1" stop-color="#CC8669"/></linearGradient><path fill="url(#SVGID_10_)" d="M264.146 75.691c-0.946 23.44-1.877 81.646-21.463 91.358 -19.586 9.695-49.147 14.842-58.521 2.801 -9.369-12.047-8.648-90.958 9.27-114.896C211.338 31.019 264.146 75.691 264.146 75.691z"/><linearGradient id="SVGID_11_" gradientUnits="userSpaceOnUse" x1="-1170.9697" y1="718.9375" x2="-1149.1855" y2="718.9375" gradientTransform="matrix(0.9968 0.0803 0.0803 -0.9968 1361.5647 903.1619)"><stop offset="0" stop-color="#1F1A2B"/><stop offset="1" stop-color="#605789"/></linearGradient><path fill="url(#SVGID_11_)" d="M250.516 123.491c0 0 3.233-40.166 3.883-59.857 15.322-3.463 19.692 0.648 20.961 8.267 1.27 7.636-12.397 48.833-12.397 48.833L250.516 123.491z"/><linearGradient id="SVGID_12_" gradientUnits="userSpaceOnUse" x1="-1247.8965" y1="729.1592" x2="-1233.7559" y2="729.1592" gradientTransform="matrix(0.9968 0.0803 0.0803 -0.9968 1361.5647 903.1619)"><stop offset="0" stop-color="#1F1A2B"/><stop offset="1" stop-color="#605789"/></linearGradient><path fill="url(#SVGID_12_)" d="M192.566 49.245c0 0-6.565 46.479-11.99 55.438 -3.238-18.119-5.057-34.251-2.832-42.526C179.975 53.874 192.566 49.245 192.566 49.245z"/><linearGradient id="SVGID_13_" gradientUnits="userSpaceOnUse" x1="15852.8008" y1="2763.0371" x2="15858.0898" y2="2781.5513" gradientTransform="matrix(-1 -0.0068 0.0068 -1 16065.6494 2965.3279)"><stop offset="0.0056" stop-color="#834249"/><stop offset="1" stop-color="#23201F"/></linearGradient><path fill="url(#SVGID_13_)" d="M223.049 93.96c0.167-0.23 0.312-0.502 0.315-0.819 0.012-0.054 0.008-0.104-0.005-0.152 -0.006-0.139-0.017-0.308-0.012-0.444 0.012-1.199 0.498-1.979 1.516-2.518 3.132-1.598 9.8-0.085 13.464 3.039 2.948 2.532 2.714 5.178 1.874 6.256 -0.656 0.83-1.223 0.413-1.41 0.289C235.678 97.362 228.814 94.226 223.049 93.96z"/><linearGradient id="SVGID_14_" gradientUnits="userSpaceOnUse" x1="15889.957" y1="2768.7432" x2="15895.2441" y2="2787.2512" gradientTransform="matrix(-1 -0.0068 0.0068 -1 16065.6494 2965.3279)"><stop offset="0.0056" stop-color="#834249"/><stop offset="1" stop-color="#23201F"/></linearGradient><path fill="url(#SVGID_14_)" d="M185.93 87.999c0.172-0.234 0.314-0.5 0.318-0.814 0.01-0.047 0.005-0.105-0.003-0.154 -0.013-0.146-0.019-0.3-0.017-0.449 0.015-1.188 0.498-1.979 1.517-2.506 3.138-1.598 9.798-0.093 13.466 3.031 2.952 2.532 2.712 5.178 1.87 6.26 -0.653 0.824-1.214 0.414-1.406 0.285C198.562 91.409 191.705 88.268 185.93 87.999z"/><linearGradient id="SVGID_15_" gradientUnits="userSpaceOnUse" x1="-430.3184" y1="726.0947" x2="-425.8665" y2="718.6633" gradientTransform="matrix(-0.9998 -0.0182 0.0182 -0.9998 -169.8139 829.846)"><stop offset="0" stop-color="#AC6539"/><stop offset="1" stop-color="#CC8669"/></linearGradient><path fill="url(#SVGID_15_)" d="M262.232 115.057c4.033-5.427 16.563-10.728 17.134 1.104 0.569 11.822-12.813 21.038-23.772 17.674C244.622 130.486 262.232 115.057 262.232 115.057z"/><path fill="#9C605D" d="M229.137 140.398c0.477-0.241 0.658-0.846 0.404-1.311l0 0c-0.254-0.484-0.834-0.652-1.316-0.4l0 0c-10.006 5.271-17.399 7.043-23.365 6.812l0 0c-8.607-0.342-11.227-3.006-18.031-7.834l0 0c-0.439-0.312-1.049-0.205-1.355 0.229l0 0c-0.309 0.457-0.203 1.061 0.23 1.356l0 0c6.745 4.783 9.763 7.812 19.076 8.188l0 0C211.219 147.691 218.958 145.771 229.137 140.398L229.137 140.398z"/><path fill="#F8F5E3" d="M191.031 142.079c8.797 5.194 18.82 7.396 37.643-2.535 -3.639 5.625-25.15 22.619-31.316 20.051C191.895 157.325 193.719 151.193 191.031 142.079z"/><path fill="#9C605D" d="M215.807 153.773c-6.18 3.914-12.717 7.207-17.02 7.086l0 0c-0.637-0.026-1.252-0.133-1.809-0.362l0 0c-2.968-1.179-4.246-3.203-4.805-5.707l0 0c-0.601-2.5-0.761-7.963-2.074-12.442l0 0c-0.117-0.373 0.023-0.787 0.336-1.033l0 0c0.31-0.25 0.754-0.275 1.09-0.072l0 0c3.996 2.369 8.172 4.047 13.332 4.254l0 0c5.975 0.236 13.36-1.531 23.367-6.805l0 0c0.392-0.195 0.868-0.135 1.17 0.201l0 0c0.301 0.321 0.342 0.809 0.102 1.172l0 0C227.581 142.979 221.962 149.809 215.807 153.773L215.807 153.773zM214.76 152.136c5.16-4.084 7.896-6.721 9.539-9.354l0 0c-7.857 3.574-14.138 4.861-19.521 4.658l0 0c-4.674-0.183-8.605-1.519-12.207-3.394l0 0c0.85 3.488 1.037 8.422 1.5 10.291l0 0c0.596 2.238 1.166 3.263 3.65 4.365l0 0c0.288 0.118 0.678 0.196 1.141 0.209l0 0C202.132 159.098 208.779 155.991 214.76 152.136L214.76 152.136z"/><radialGradient id="SVGID_16_" cx="11568.3516" cy="-396.9888" r="19.5239" gradientTransform="matrix(-1.2077 -0.1462 0.1017 -0.5907 14242.4434 1582.9027)" gradientUnits="userSpaceOnUse"><stop offset="0.0955" stop-color="#AA684D"/><stop offset="0.7562" stop-color="#CC8669"/></radialGradient><path fill="url(#SVGID_16_)" d="M210.424 123.15c-0.91 5.295 7.145 10.668 17.995 11.974 10.854 1.324 20.388-1.912 21.31-7.229 0.912-5.301-7.14-10.678-18-11.994C220.879 114.602 211.341 117.841 210.424 123.15z"/><radialGradient id="SVGID_17_" cx="11602.4277" cy="-390.5381" r="19.5344" gradientTransform="matrix(-1.2077 -0.1462 0.1017 -0.5907 14242.4434 1582.9027)" gradientUnits="userSpaceOnUse"><stop offset="0.0955" stop-color="#AA684D"/><stop offset="0.7562" stop-color="#CC8669"/></radialGradient><path fill="url(#SVGID_17_)" d="M191.223 107.106c10.855 1.322 18.904 6.691 17.998 11.996 -0.92 5.312-10.455 8.56-21.312 7.229 -3.229-0.39-6.163-1.17-8.74-2.17 0.124-5.49 0.427-11.123 0.918-16.757C183.373 106.771 187.206 106.624 191.223 107.106z"/><path fill="#121013" d="M195.695 105.062c0.087 2.835-1.404 5.19-3.321 5.237 -1.914 0.063-3.543-2.186-3.64-5.018 -0.063-2.832 1.425-5.179 3.341-5.242C193.994 99.997 195.611 102.236 195.695 105.062z"/><path fill="#121013" d="M231.872 111.458c0.087 2.828-1.403 5.168-3.325 5.219 -1.91 0.058-3.544-2.188-3.624-5.016 -0.083-2.855 1.412-5.174 3.331-5.236C230.174 106.37 231.788 108.626 231.872 111.458z"/><linearGradient id="SVGID_18_" gradientUnits="userSpaceOnUse" x1="-228.7852" y1="-512.3394" x2="-327.4754" y2="-512.7142" gradientTransform="matrix(-0.9971 -0.0765 0.0765 -0.9971 -11.9171 -478.7438)"><stop offset="0" stop-color="#1F1A2B"/><stop offset="1" stop-color="#605789"/></linearGradient><path fill="url(#SVGID_18_)" d="M179.798 57.13c11.384-12.978 68.63-36.979 94.589 12.799 -19.646 3.341-88.498-10.946-88.498-10.946S168.415 70.105 179.798 57.13z"/><path fill="#9C605D" d="M208.607 96.227c0 0 5.873 8.665-0.584 16.623 -1.5 1.849-9.248 6.601-10.832 13.058 -0.699 2.861 5.685 10.008 5.685 10.008s-9.717-3.623-9.124-10.641c0.389-4.601 10.618-12.587 13.018-14.941C210.917 106.259 208.607 96.227 208.607 96.227z"/><path fill="#5966A9" d="M206.538 59.2c0.29 0.021 0.582-0.117 0.741-0.384 4.677-7.795 34.394-10.866 34.691-10.896 0.438-0.045 0.754-0.434 0.711-0.867 -0.043-0.438-0.438-0.756-0.867-0.711 -1.256 0.127-30.812 3.187-35.896 11.658 -0.227 0.377-0.104 0.862 0.271 1.088C206.3 59.154 206.418 59.19 206.538 59.2z"/><path fill="#5966A9" d="M219.044 64.464c0.248 0.019 0.499-0.078 0.67-0.282 11.438-13.668 33.418-12.164 33.638-12.147 0.438 0.033 0.818-0.293 0.854-0.73 0.034-0.436-0.294-0.816-0.729-0.85 -0.936-0.072-23.006-1.592-34.978 12.711 -0.278 0.336-0.233 0.836 0.103 1.117C218.729 64.392 218.887 64.45 219.044 64.464z"/><path fill="#5966A9" d="M239.368 66.022c0.306 0.023 0.61-0.134 0.764-0.424 3.55-6.792 18.259-8.861 18.407-8.883 0.434-0.059 0.738-0.457 0.68-0.891 -0.06-0.436-0.457-0.736-0.892-0.681 -0.64 0.087-15.673 2.2-19.601 9.72 -0.203 0.389-0.056 0.866 0.334 1.069C239.16 65.986 239.264 66.016 239.368 66.022z"/><path fill="#5966A9" d="M257.23 113.657c0.437 0.032 0.814-0.294 0.851-0.73l3.201-41.713c0.032-0.438-0.293-0.818-0.729-0.853 -0.438-0.032-0.818 0.293-0.852 0.729l-3.201 41.713C256.465 113.241 256.792 113.622 257.23 113.657z"/><path fill="#5966A9" d="M264.879 98.105c0.365 0.026 0.715-0.202 0.82-0.569l5.838-19.994c0.123-0.42-0.118-0.859-0.538-0.981 -0.417-0.121-0.86 0.118-0.983 0.539l-5.838 19.993c-0.121 0.421 0.118 0.861 0.539 0.982C264.771 98.091 264.825 98.102 264.879 98.105z"/><path fill="#9C605D" d="M260.996 130.88c1.898-14.051 12.468-14.78 12.918-14.805l-0.08-1.607c-0.123 0.006-12.35 0.783-14.432 16.197L260.996 130.88z"/><path fill="#9C605D" d="M264.775 129.027c2.67-2.901 3.666-5.184 3.041-6.971 -0.659-1.887-2.866-2.25-2.959-2.266l-0.25 1.59 0.125-0.795 -0.129 0.795c0.015 0.002 1.359 0.238 1.693 1.213 0.227 0.652 0.173 2.215-2.709 5.344L264.775 129.027z"/><linearGradient id="SVGID_19_" gradientUnits="userSpaceOnUse" x1="-389.3354" y1="-655.3652" x2="-431.9657" y2="-600.711" gradientTransform="matrix(-0.9971 -0.0765 0.017 -1.0016 -166.7859 -491.1909)"><stop offset="0.011" stop-color="#F6FBFD"/><stop offset="1" stop-color="#9CCCE6"/></linearGradient><path fill="url(#SVGID_19_)" d="M237.484 173.003l-35.836 20.386 7.572 9.858C220.432 195.04 230.039 184.773 237.484 173.003z"/><path fill="#7DC145" d="M95.947 192.62c-0.775-1.183-1.857-3.652-2.414-5.382l-0.846-22.643 -29.573 5.844 -2.979 15.566c12.854 14.957 29.639 26.436 48.754 32.834 -2.258-5.246-4.881-11.406-7.565-17.85C101.484 200.777 97.594 195.124 95.947 192.62z"/><linearGradient id="SVGID_20_" gradientUnits="userSpaceOnUse" x1="-176.4775" y1="-623.6216" x2="-192.6258" y2="-636.3702" gradientTransform="matrix(1 0 0 -1 270 -434.9209)"><stop offset="0" stop-color="#F1A58A"/><stop offset="1" stop-color="#F4BB96"/></linearGradient><path fill="url(#SVGID_20_)" d="M95.947 192.62c-0.775-1.183-1.857-3.652-2.414-5.382l-0.846-22.643 -29.573 5.844 -2.979 15.566c12.854 14.957 29.639 26.436 48.754 32.834 -2.258-5.246-4.881-11.406-7.565-17.85C101.484 200.777 97.594 195.124 95.947 192.62z"/><linearGradient id="SVGID_21_" gradientUnits="userSpaceOnUse" x1="-10375.627" y1="-177.5786" x2="-10382.6104" y2="-216.8612" gradientTransform="matrix(0.9922 -0.1247 -0.0699 -0.9991 10351.6816 -1371.3047)"><stop offset="0" stop-color="#64222C"/><stop offset="1" stop-color="#AC7A6F"/></linearGradient><path fill="url(#SVGID_21_)" d="M106.652 55.261c11.24 14.08 30.338 63.177-0.352 106.185 -60.748 8.508-65.332 4.731-65.332 4.731s-53.453-70.332-7.757-103.668C50.091 37.143 97.184 43.401 106.652 55.261z"/><linearGradient id="SVGID_22_" gradientUnits="userSpaceOnUse" x1="-9884.1055" y1="-594.7095" x2="-9891.6729" y2="-594.3347" gradientTransform="matrix(0.9947 -0.0551 -0.001 -1.0054 9949.8115 -1015.9258)"><stop offset="0" stop-color="#F1A58A"/><stop offset="1" stop-color="#F4BB96"/></linearGradient><path fill="url(#SVGID_22_)" d="M115.561 113.335c3.646-6.039 15.726 8.082-5.223 22.858 -20.947 14.779-9.872-6.479-9.872-6.479L115.561 113.335z"/><linearGradient id="SVGID_23_" gradientUnits="userSpaceOnUse" x1="1728.6543" y1="212.2695" x2="1721.0878" y2="212.6443" gradientTransform="matrix(-0.985 0.1937 -0.1385 -0.9881 1759.853 12.9484)"><stop offset="0" stop-color="#F1A58A"/><stop offset="1" stop-color="#F4BB96"/></linearGradient><path fill="url(#SVGID_23_)" d="M28.969 124.223c-4.422-5.025-14.332 11.856 8.299 21.155 22.631 9.304 8.803-8.826 8.803-8.826L28.969 124.223z"/><linearGradient id="SVGID_24_" gradientUnits="userSpaceOnUse" x1="-9701.5283" y1="-228.1875" x2="-9704.5576" y2="-238.2861" gradientTransform="matrix(0.9924 -0.1226 -0.0677 -0.9993 9688.2529 -1317.3693)"><stop offset="0" stop-color="#F1A58A"/><stop offset="1" stop-color="#F4BB96"/></linearGradient><path fill="url(#SVGID_24_)" d="M111.225 74.239c2.894 12.87 9.998 73.053-4.08 89.034 -14.071 15.984-50.078 21.445-65.338 5.015 -15.261-16.435-9.838-100.545-5.17-106.209C41.307 56.411 111.225 74.239 111.225 74.239z"/><path fill="#862736" d="M44.373 112.269c5.018-13.566 17.283-11.559 22.509-1.688C60.012 107.389 56.993 102.124 44.373 112.269z"/><path fill="#862736" d="M83.771 107.315c5.016-13.564 17.283-11.559 22.506-1.688C99.408 102.436 96.389 97.169 83.771 107.315z"/><path fill="#533C2A" d="M66.918 125.368c-0.697-0.287-1.411-0.541-2.131-0.734 -6.086-1.664-12.156-0.043-16.389 3.791 0.029-0.213 0.057-0.399 0.104-0.623 1.211-5.512 6.612-8.791 12.059-7.309C63.314 121.239 65.541 123.042 66.918 125.368z"/><path fill="#533C2A" d="M84.365 122.282c0.607-0.502 1.246-0.978 1.896-1.4 5.518-3.58 11.713-3.983 16.623-1.666 -0.076-0.19-0.144-0.362-0.24-0.562 -2.338-4.922-8.258-6.326-13.195-3.133C86.956 117.139 85.193 119.595 84.365 122.282z"/><path fill="#C98A78" d="M78.992 122.396c-0.153 1.224-0.532 7.119 3.266 11.857 3.78 4.73 6.092 0.324 3.223-1.977 -4.021-3.23-4.766-7.303-4.797-7.978C80.49 120.466 79.262 120.143 78.992 122.396z"/><linearGradient id="SVGID_25_" gradientUnits="userSpaceOnUse" x1="-6235.2441" y1="-1624.3081" x2="-6239.2456" y2="-1602.5919" gradientTransform="matrix(0.9933 -0.1094 -0.0546 -1.001 6186.9688 -2146.8945)"><stop offset="0.0056" stop-color="#EE7057"/><stop offset="1" stop-color="#CA3C2C"/></linearGradient><path fill="url(#SVGID_25_)" d="M98.643 141.646c-9.162 4.976-30.621 8.345-40.93 5.953C69.547 163.643 87.902 175.57 98.643 141.646z"/><path fill="#FFFFFF" d="M92.924 146.667c-6.525 2.885-21.734 5.092-28.986 3.938C72.145 159.239 84.999 165.486 92.924 146.667z"/><linearGradient id="SVGID_26_" gradientUnits="userSpaceOnUse" x1="-10413.5107" y1="-163.876" x2="-10421.2793" y2="-175.9606" gradientTransform="matrix(0.9922 -0.1247 -0.0699 -0.9991 10351.6816 -1371.3047)"><stop offset="0" stop-color="#64222C"/><stop offset="1" stop-color="#AC7A6F"/></linearGradient><path fill="url(#SVGID_26_)" d="M36.837 57.995c-1.319 1.381-2.539 2.877-3.625 4.516C5.223 82.925 12.09 116.208 21.616 138.938 48.448 108.185 41.04 71.734 36.837 57.995z"/><linearGradient id="SVGID_27_" gradientUnits="userSpaceOnUse" x1="-10348.6738" y1="-183.4229" x2="-10378.0205" y2="-128.183" gradientTransform="matrix(0.9922 -0.1247 -0.0699 -0.9991 10351.6816 -1371.3047)"><stop offset="0" stop-color="#64222C"/><stop offset="1" stop-color="#AC7A6F"/></linearGradient><path fill="url(#SVGID_27_)" d="M34.189 61.169c-1.469 36.444 67.496 39.494 94.861 42.605 -2.047-22.505-16.104-40.628-22.398-48.514C97.355 43.622 51.824 37.396 34.189 61.169z"/><path fill="#6D3C33" d="M123.855 91.255c0.215-0.016 0.414-0.125 0.545-0.301 0.162-0.221 0.189-0.513 0.072-0.759 -21.23-44.284-70.279-37.797-70.773-37.726 -0.404 0.059-0.686 0.436-0.626 0.84 0.057 0.406 0.424 0.693 0.837 0.631 0.479-0.064 47.529-6.264 68.604 35.63 -12.254-1.929-30.554-6.504-47.199-11.821 -20.812-6.646-28.303-10.953-28.262-12.226l0 0c0.004 0 0.129-0.196 0.827-0.396 10.687-3.033 43.781 6.483 44.115 6.582 0.39 0.117 0.806-0.11 0.917-0.504 0.113-0.393-0.109-0.806-0.506-0.92 -1.375-0.397-33.84-9.73-44.932-6.582 -1.646 0.465-1.941 1.301-1.901 1.92 0.407 6.164 53.899 22.086 78.125 25.627C123.751 91.257 123.803 91.259 123.855 91.255z"/><path fill="#6D3C33" d="M18.789 133.173c0.199-0.014 0.391-0.108 0.521-0.271 11.953-14.563 15.196-53.729 15.33-55.387 0.032-0.407-0.272-0.763-0.681-0.798 -0.403-0.035-0.767 0.273-0.797 0.682 -0.03 0.389-3.097 37.398-13.715 52.85 -0.159-15.252 0.737-39.543 7.592-47.011 0.274-0.299 0.257-0.77-0.043-1.043 -0.304-0.278-0.774-0.259-1.049 0.041 -7.164 7.8-8.277 31.611-7.951 50.209 0.005 0.312 0.204 0.589 0.496 0.688C18.59 133.165 18.691 133.18 18.789 133.173z"/><path fill="#6D3C33" d="M130.766 91.257c0.049-0.004 0.099-0.014 0.146-0.023 0.395-0.109 0.627-0.52 0.518-0.914 -4.637-16.833-28.703-38.369-29.727-39.277 -0.307-0.271-0.775-0.246-1.047 0.061 -0.272 0.307-0.244 0.773 0.062 1.048 0.245 0.22 24.762 22.151 29.281 38.563C130.096 91.06 130.42 91.28 130.766 91.257z"/><path fill="#E5E7EC" d="M100.309 198.146l6.752 16.431c0.629 1.475 1.242 2.901 1.828 4.266 2.699 0.902 5.445 1.704 8.233 2.399l2.214-0.688L100.309 198.146z"/><radialGradient id="SVGID_28_" cx="1351.6641" cy="-527.7495" r="11.6389" gradientTransform="matrix(0.9963 0.0855 0.0855 -0.9963 -1197.031 -508.9995)" gradientUnits="userSpaceOnUse"><stop offset="0" stop-color="#EC9E7D"/><stop offset="1" stop-color="#FAB78F"/></radialGradient><path fill="url(#SVGID_28_)" d="M115.357 133.852c-0.543 6.516-6.1 11.368-12.385 10.819 -6.293-0.53-10.938-6.256-10.377-12.78 0.572-6.513 6.111-11.355 12.412-10.826C111.284 121.593 115.934 127.331 115.357 133.852z"/><radialGradient id="SVGID_29_" cx="1297.6338" cy="-536.8867" r="11.6443" gradientTransform="matrix(0.9963 0.0855 0.0855 -0.9963 -1197.031 -508.9995)" gradientUnits="userSpaceOnUse"><stop offset="0" stop-color="#EC9E7D"/><stop offset="1" stop-color="#FAB78F"/></radialGradient><path fill="url(#SVGID_29_)" d="M60.753 138.327c-0.551 6.522-6.104 11.368-12.399 10.836 -6.283-0.549-10.935-6.277-10.369-12.789 0.574-6.515 6.119-11.367 12.416-10.84C56.673 126.075 61.335 131.8 60.753 138.327z"/></g></svg>