<svg xmlns="http://www.w3.org/2000/svg" width="288" height="228"><rect width="288" height="228" fill="none"/><g><circle fill="#7DC145" cx="144" cy="114" r="110.541"/><path fill="#EFEBDD" d="M128.477 192.396c6.766 6.511 15.069 10.447 23.703 11.873l.402.104c1.064.166 2.121.25 3.182.34l.375.041c7.119.557 14.148-.604 20.641-3.332l.537-.213c1.027-.453 2.033-.951 3.021-1.477.354-.187.719-.355 1.072-.562.847-.476 1.66-.996 2.479-1.522.443-.289.904-.574 1.351-.887l.655-.433c.582-.424 1.108-.899 1.672-1.347.387-.313.769-.604 1.147-.924.907-.781 1.755-1.604 2.591-2.44l.463-.437.067-.092c6.304-6.557 10.476-14.836 11.912-24.016.462-2.934-1.542-5.682-4.472-6.146-2.933-.457-5.686 1.547-6.146 4.479-1.11 7.094-4.36 13.479-9.284 18.492-.705.721-1.434 1.406-2.182 2.055l-.715.564c-.631.52-1.271 1.014-1.928 1.477-.293.207-.6.393-.891.586-.662.434-1.337.857-2.027 1.246l-.668.35c-.801.43-1.61.83-2.438 1.189l-.26.104c-5.023 2.111-10.458 2.977-15.825 2.566l-.103-.01c-7.574-.603-14.997-3.715-20.883-9.381l6.209-6.453-25.418-4.576 5.547 25.219 6.214-6.437z"/><path fill="#EFEBDD" d="M95.918 59.208c1.117-7.143 4.418-13.572 9.396-18.609.662-.665 1.342-1.307 2.031-1.908.287-.247.592-.475.889-.708.57-.457 1.14-.91 1.73-1.325.357-.254.736-.486 1.104-.72.599-.39 1.191-.771 1.802-1.117l.899-.474c.729-.374 1.463-.749 2.207-1.068l.513-.21c.89-.362 1.792-.707 2.694-.998l.127-.046c3.104-.963 6.318-1.484 9.547-1.55l.166-.001c.998-.014 2.007.018 3.016.091l.646.065c7.42.688 14.672 3.772 20.442 9.332l-6.211 6.451 25.421 4.582-5.547-25.227-6.211 6.453c-6.788-6.534-15.111-10.475-23.773-11.885l-.342-.096c-.89-.141-1.779-.197-2.664-.281l-1-.115c-1.283-.094-2.555-.114-3.826-.104l-.361-.003c-4.237.08-8.405.767-12.411 2.019l-.327.098c-1.148.368-2.273.797-3.393 1.258l-.84.332c-.938.41-1.856.872-2.767 1.348-.438.227-.87.447-1.296.686-.777.436-1.534.923-2.298 1.413-.501.329-1.013.644-1.511.993-.203.14-.42.255-.615.406-.682.494-1.32 1.037-1.969 1.567l-.707.562c-1.145.978-2.246 1.979-3.278 3.055-6.312 6.555-10.462 14.88-11.897 24.068-.459 2.931 1.541 5.682 4.474 6.142 2.935.458 5.683-1.548 6.14-4.476"/><path fill="#7DC145" d="M230.166 183.232c2.284-2.84 4.412-5.807 6.411-8.864l-32.879 18.702 26.468-9.838z"/><linearGradient id="a" gradientUnits="userSpaceOnUse" x1="-389.667" y1="-649.922" x2="-412.164" y2="-636.942" gradientTransform="matrix(-.997 -.076 .017 -1.002 -166.786 -491.191)"><stop offset="0" stop-color="#AC6539"/><stop offset="1" stop-color="#CC8669"/></linearGradient><polygon fill="url(#a)" points="201.741,194.186 203.699,193.07 202.555,193.495"/><path fill="#7DC145" d="M248.965 140.952c.555-1.457-10.93-2.272-10.562-3.849-.131-1.983-12.312-2.992-12.549-4.938l-40.33-4.205c-.529 9.935.275 26.465 1.416 41.988l15.623 23.541-.008.006 1.145-.425 32.879-18.702c2.411-3.688 4.607-7.525 6.572-11.504 1.742-7.246 3.283-15.271 5.814-21.912z"/><linearGradient id="b" gradientUnits="userSpaceOnUse" x1="-373.512" y1="-621.906" x2="-396.013" y2="-608.925" gradientTransform="matrix(-.997 -.076 .017 -1.002 -166.786 -491.191)"><stop offset="0" stop-color="#AC6539"/><stop offset="1" stop-color="#CC8669"/></linearGradient><path fill="url(#b)" d="M248.965 140.952c.555-1.457-10.93-2.272-10.562-3.849-.131-1.983-12.312-2.992-12.549-4.938l-40.33-4.205c-.529 9.935.275 26.465 1.416 41.988l15.623 23.541-.008.006 1.145-.425 32.879-18.702c2.411-3.688 4.607-7.525 6.572-11.504 1.742-7.246 3.283-15.271 5.814-21.912z"/><path fill="#7DC145" d="M237.484 173.003l-35.836 20.386 7.572 9.858c11.212-8.207 20.819-18.474 28.264-30.244z"/><linearGradient id="c" gradientUnits="userSpaceOnUse" x1="-389.335" y1="-655.365" x2="-431.966" y2="-600.711" gradientTransform="matrix(-.997 -.076 .017 -1.002 -166.786 -491.191)"><stop offset=".011" stop-color="#F6FBFD"/><stop offset="1" stop-color="#9CCCE6"/></linearGradient><path fill="url(#c)" d="M237.484 173.003l-35.836 20.386 7.572 9.858c11.212-8.207 20.819-18.474 28.264-30.244z"/><path fill="#7DC145" d="M237.484 173.003l-35.836 20.386 7.572 9.858c11.212-8.207 20.819-18.474 28.264-30.244z"/><path fill="#7DC145" d="M230.253 183.126l-33.231 12.478-12.061-10.146c-.375 5.362-1.316 10.656-1.543 16.185-.21 5.168.26 10.395.219 15.571 18.424-7.082 34.47-18.95 46.616-34.088z"/><linearGradient id="d" gradientUnits="userSpaceOnUse" x1="-363.565" y1="-681.167" x2="-350.538" y2="-701.791" gradientTransform="matrix(-.997 -.076 .017 -1.002 -166.786 -491.191)"><stop offset=".011" stop-color="#F6FBFD"/><stop offset="1" stop-color="#9CCCE6"/></linearGradient><path fill="url(#d)" d="M230.253 183.126l-33.231 12.478-12.061-10.146c-.375 5.362-1.316 10.656-1.543 16.185-.21 5.168.26 10.395.219 15.571 18.424-7.082 34.47-18.95 46.616-34.088z"/><path fill="#EC1C24" d="M230.166 183.232l-29.543 10.979-15.424-3.232 11.229 20.354c13.047-7.041 24.511-16.631 33.738-28.101z"/><path fill="#7DC145" d="M188.469 180.622s-11.423 17.342-19.306 41.038c7.368-1.717 14.452-4.174 21.173-7.28l-1.867-33.758z"/><linearGradient id="e" gradientUnits="userSpaceOnUse" x1="-284.36" y1="-687.883" x2="-321.042" y2="-675.922" gradientTransform="matrix(-.997 -.076 .017 -1.002 -166.786 -491.191)"><stop offset=".045" stop-color="#776A6F"/><stop offset="1" stop-color="#9B979C"/></linearGradient><path fill="url(#e)" d="M188.469 180.622s-11.423 17.342-19.306 41.038c7.368-1.717 14.452-4.174 21.173-7.28l-1.867-33.758z"/><path fill="#7DC145" d="M188.87 172.396l-11.865 28.772 4.931 16.688c2.842-1.039 5.629-2.195 8.356-3.457l-1.422-42.003z"/><linearGradient id="f" gradientUnits="userSpaceOnUse" x1="-374.287" y1="-631.094" x2="-344.949" y2="-731.521" gradientTransform="matrix(-.997 -.076 .017 -1.002 -166.786 -491.191)"><stop offset=".045" stop-color="#776A6F"/><stop offset="1" stop-color="#9B979C"/></linearGradient><path fill="url(#f)" d="M188.87 172.396l-11.865 28.772 4.931 16.688c2.842-1.039 5.629-2.195 8.356-3.457l-1.422-42.003z"/><linearGradient id="g" gradientUnits="userSpaceOnUse" x1="-365.972" y1="-649.03" x2="-350.795" y2="-656.619" gradientTransform="matrix(-.997 -.076 .017 -1.002 -166.786 -491.191)"><stop offset=".011" stop-color="#F6FBFD"/><stop offset="1" stop-color="#9CCCE6"/></linearGradient><polygon fill="url(#g)" points="184.562,182.559 186.133,168.046 202.482,192.68 184.958,207.005"/><path fill="#9C605D" d="M270.477 116.925c.347.203.473.64.283.978-.191.337-.613.442-.963.229-1.186-.713-6.744 3.939-12.154 10.184-.236.277-.688.308-.986.023-.312-.271-.35-.724-.102-1.014 2.511-2.9 10.957-12.214 13.922-10.4z"/><path fill="#9C605D" d="M266.857 124.141c.324.221.437.666.229.983-.201.319-.635.392-.975.176-.133-.088-3.369-2.211-5.709.357-.271.274-.723.276-1.021 0-.293-.269-.315-.724-.057-1.007 2.524-2.741 6.026-1.532 7.533-.509z"/><linearGradient id="h" gradientUnits="userSpaceOnUse" x1="-900.263" y1="1013.849" x2="-919.941" y2="1060.703" gradientTransform="matrix(-.997 -.08 .08 -.997 -634.433 743.28)"><stop offset="0" stop-color="#AC6539"/><stop offset="1" stop-color="#CC8669"/></linearGradient><path fill="url(#h)" d="M175.329 95.815c6.911-6.979 12.308 4.748 14.662 10.568 0 0 2.05 4.238 3.853 9.42-.396 6.342-.978 12.727-1.711 18.908l-.193.039c-11.366.964-23.523-31.981-16.611-38.935z"/><linearGradient id="i" gradientUnits="userSpaceOnUse" x1="-791.978" y1="722.187" x2="-767.752" y2="722.187" gradientTransform="matrix(-.997 -.08 .08 -.997 -647.532 742.226)"><stop offset=".006" stop-color="#8C6A63"/><stop offset="1" stop-color="#56433E"/></linearGradient><path fill="url(#i)" d="M190.342 115.829s15.387-39.193 9.418-58.478c-14.568-5.87-19.543-2.513-22.017 4.806s4.417 50.174 4.417 50.174l8.182 3.498z"/><linearGradient id="j" gradientUnits="userSpaceOnUse" x1="-1177.773" y1="727.956" x2="-1182.46" y2="722.333" gradientTransform="matrix(.997 .08 .08 -.997 1361.565 903.162)"><stop offset="0" stop-color="#AC6539"/><stop offset="1" stop-color="#CC8669"/></linearGradient><path fill="url(#j)" d="M264.146 75.691c-.946 23.44-1.877 81.646-21.463 91.358-19.586 9.695-49.147 14.842-58.521 2.801-9.369-12.047-8.648-90.958 9.27-114.896 17.906-23.935 70.714 20.737 70.714 20.737z"/><linearGradient id="k" gradientUnits="userSpaceOnUse" x1="-1170.97" y1="718.938" x2="-1149.186" y2="718.938" gradientTransform="matrix(.997 .08 .08 -.997 1361.565 903.162)"><stop offset="0" stop-color="#1F1A2B"/><stop offset="1" stop-color="#605789"/></linearGradient><path fill="url(#k)" d="M250.516 123.491s3.233-40.166 3.883-59.857c15.322-3.463 19.692.648 20.961 8.267 1.27 7.636-12.397 48.833-12.397 48.833l-12.447 2.757z"/><linearGradient id="l" gradientUnits="userSpaceOnUse" x1="-1247.897" y1="729.159" x2="-1233.756" y2="729.159" gradientTransform="matrix(.997 .08 .08 -.997 1361.565 903.162)"><stop offset="0" stop-color="#1F1A2B"/><stop offset="1" stop-color="#605789"/></linearGradient><path fill="url(#l)" d="M192.566 49.245s-6.565 46.479-11.99 55.438c-3.238-18.119-5.057-34.251-2.832-42.526 2.231-8.283 14.822-12.912 14.822-12.912z"/><linearGradient id="m" gradientUnits="userSpaceOnUse" x1="15852.801" y1="2763.037" x2="15858.09" y2="2781.551" gradientTransform="matrix(-1 -.007 .007 -1 16065.649 2965.328)"><stop offset=".006" stop-color="#834249"/><stop offset="1" stop-color="#23201F"/></linearGradient><path fill="url(#m)" d="M223.049 93.96c.167-.23.312-.502.315-.819l-.005-.152-.012-.444c.012-1.199.498-1.979 1.516-2.518 3.132-1.598 9.8-.085 13.464 3.039 2.948 2.532 2.714 5.178 1.874 6.256-.656.83-1.223.413-1.41.289-3.113-2.249-9.977-5.385-15.742-5.651z"/><linearGradient id="n" gradientUnits="userSpaceOnUse" x1="15889.957" y1="2768.743" x2="15895.244" y2="2787.251" gradientTransform="matrix(-1 -.007 .007 -1 16065.649 2965.328)"><stop offset=".006" stop-color="#834249"/><stop offset="1" stop-color="#23201F"/></linearGradient><path fill="url(#n)" d="M185.93 87.999c.172-.234.314-.5.318-.814l-.003-.154-.017-.449c.015-1.188.498-1.979 1.517-2.506 3.138-1.598 9.798-.093 13.466 3.031 2.952 2.532 2.712 5.178 1.87 6.26-.653.824-1.214.414-1.406.285-3.113-2.243-9.97-5.384-15.745-5.653z"/><linearGradient id="o" gradientUnits="userSpaceOnUse" x1="-430.318" y1="726.095" x2="-425.866" y2="718.663" gradientTransform="matrix(-1 -.018 .018 -1 -169.814 829.846)"><stop offset="0" stop-color="#AC6539"/><stop offset="1" stop-color="#CC8669"/></linearGradient><path fill="url(#o)" d="M262.232 115.057c4.033-5.427 16.563-10.728 17.134 1.104.569 11.822-12.813 21.038-23.772 17.674-10.972-3.349 6.638-18.778 6.638-18.778z"/><path fill="#9C605D" d="M229.137 140.398c.477-.241.658-.846.404-1.311-.254-.484-.834-.652-1.316-.4-10.006 5.271-17.399 7.043-23.365 6.812-8.607-.342-11.227-3.006-18.031-7.834-.439-.312-1.049-.205-1.355.229-.309.457-.203 1.061.23 1.356 6.745 4.783 9.763 7.812 19.076 8.188 6.439.253 14.178-1.667 24.357-7.04z"/><path fill="#F8F5E3" d="M191.031 142.079c8.797 5.194 18.82 7.396 37.643-2.535-3.639 5.625-25.15 22.619-31.316 20.051-5.463-2.27-3.639-8.402-6.327-17.516z"/><path fill="#9C605D" d="M215.807 153.773c-6.18 3.914-12.717 7.207-17.02 7.086-.637-.026-1.252-.133-1.809-.362-2.968-1.179-4.246-3.203-4.805-5.707-.601-2.5-.761-7.963-2.074-12.442-.117-.373.023-.787.336-1.033.31-.25.754-.275 1.09-.072 3.996 2.369 8.172 4.047 13.332 4.254 5.975.236 13.36-1.531 23.367-6.805.392-.195.868-.135 1.17.201.301.321.342.809.102 1.172-1.915 2.914-7.534 9.744-13.689 13.708zm-1.047-1.637c5.16-4.084 7.896-6.721 9.539-9.354-7.857 3.574-14.138 4.861-19.521 4.658-4.674-.183-8.605-1.519-12.207-3.394.85 3.488 1.037 8.422 1.5 10.291.596 2.238 1.166 3.263 3.65 4.365.288.118.678.196 1.141.209 3.27.187 9.917-2.92 15.898-6.775z"/><radialGradient id="p" cx="11568.352" cy="-396.989" r="19.524" gradientTransform="matrix(-1.208 -.146 .102 -.591 14242.443 1582.903)" gradientUnits="userSpaceOnUse"><stop offset=".096" stop-color="#AA684D"/><stop offset=".756" stop-color="#CC8669"/></radialGradient><path fill="url(#p)" d="M210.424 123.15c-.91 5.295 7.145 10.668 17.995 11.974 10.854 1.324 20.388-1.912 21.31-7.229.912-5.301-7.14-10.678-18-11.994-10.85-1.299-20.388 1.94-21.305 7.249z"/><radialGradient id="q" cx="11602.428" cy="-390.538" r="19.534" gradientTransform="matrix(-1.208 -.146 .102 -.591 14242.443 1582.903)" gradientUnits="userSpaceOnUse"><stop offset=".096" stop-color="#AA684D"/><stop offset=".756" stop-color="#CC8669"/></radialGradient><path fill="url(#q)" d="M191.223 107.106c10.855 1.322 18.904 6.691 17.998 11.996-.92 5.312-10.455 8.56-21.312 7.229-3.229-.39-6.163-1.17-8.74-2.17.124-5.49.427-11.123.918-16.757 3.286-.633 7.119-.78 11.136-.298z"/><path fill="#121013" d="M195.695 105.062c.087 2.835-1.404 5.19-3.321 5.237-1.914.063-3.543-2.186-3.64-5.018-.063-2.832 1.425-5.179 3.341-5.242 1.919-.042 3.536 2.197 3.62 5.023z"/><path fill="#121013" d="M231.872 111.458c.087 2.828-1.403 5.168-3.325 5.219-1.91.058-3.544-2.188-3.624-5.016-.083-2.855 1.412-5.174 3.331-5.236 1.92-.055 3.534 2.201 3.618 5.033z"/><linearGradient id="r" gradientUnits="userSpaceOnUse" x1="-228.785" y1="-512.339" x2="-327.475" y2="-512.714" gradientTransform="matrix(-.997 -.076 .076 -.997 -11.917 -478.744)"><stop offset="0" stop-color="#1F1A2B"/><stop offset="1" stop-color="#605789"/></linearGradient><path fill="url(#r)" d="M179.798 57.13c11.384-12.978 68.63-36.979 94.589 12.799-19.646 3.341-88.498-10.946-88.498-10.946s-17.474 11.122-6.091-1.853z"/><path fill="#9C605D" d="M208.607 96.227s5.873 8.665-.584 16.623c-1.5 1.849-9.248 6.601-10.832 13.058-.699 2.861 5.685 10.008 5.685 10.008s-9.717-3.623-9.124-10.641c.389-4.601 10.618-12.587 13.018-14.941 4.147-4.075 1.837-14.107 1.837-14.107z"/><path fill="#5966A9" d="M206.538 59.2c.29.021.582-.117.741-.384 4.677-7.795 34.394-10.866 34.691-10.896.438-.045.754-.434.711-.867-.043-.438-.438-.756-.867-.711-1.256.127-30.812 3.187-35.896 11.658-.227.377-.104.862.271 1.088.111.066.229.102.349.112z"/><path fill="#5966A9" d="M219.044 64.464c.248.019.499-.078.67-.282 11.438-13.668 33.418-12.164 33.638-12.147.438.033.818-.293.854-.73.034-.436-.294-.816-.729-.85-.936-.072-23.006-1.592-34.978 12.711-.278.336-.233.836.103 1.117.127.109.285.167.442.181z"/><path fill="#5966A9" d="M239.368 66.022c.306.023.61-.134.764-.424 3.55-6.792 18.259-8.861 18.407-8.883.434-.059.738-.457.68-.891-.06-.436-.457-.736-.892-.681-.64.087-15.673 2.2-19.601 9.72-.203.389-.056.866.334 1.069.1.054.204.084.308.09z"/><path fill="#5966A9" d="M257.23 113.657c.437.032.814-.294.851-.73l3.201-41.713c.032-.438-.293-.818-.729-.853-.438-.032-.818.293-.852.729l-3.201 41.713c-.035.438.292.819.73.854z"/><path fill="#5966A9" d="M264.879 98.105c.365.026.715-.202.82-.569l5.838-19.994c.123-.42-.118-.859-.538-.981-.417-.121-.86.118-.983.539l-5.838 19.993c-.121.421.118.861.539.982l.162.03z"/><path fill="#9C605D" d="M260.996 130.88c1.898-14.051 12.468-14.78 12.918-14.805l-.08-1.607c-.123.006-12.35.783-14.432 16.197l1.594.215z"/><path fill="#9C605D" d="M264.775 129.027c2.67-2.901 3.666-5.184 3.041-6.971-.659-1.887-2.866-2.25-2.959-2.266l-.25 1.59.125-.795-.129.795c.015.002 1.359.238 1.693 1.213.227.652.173 2.215-2.709 5.344l1.188 1.09z"/><linearGradient id="s" gradientUnits="userSpaceOnUse" x1="-389.335" y1="-655.365" x2="-431.966" y2="-600.711" gradientTransform="matrix(-.997 -.076 .017 -1.002 -166.786 -491.191)"><stop offset=".011" stop-color="#F6FBFD"/><stop offset="1" stop-color="#9CCCE6"/></linearGradient><path fill="url(#s)" d="M237.484 173.003l-35.836 20.386 7.572 9.858c11.212-8.207 20.819-18.474 28.264-30.244z"/><path fill="#7DC145" d="M95.947 192.62c-.775-1.183-1.857-3.652-2.414-5.382l-.846-22.643-29.573 5.844-2.979 15.566c12.854 14.957 29.639 26.436 48.754 32.834-2.258-5.246-4.881-11.406-7.565-17.85.16-.212-3.73-5.865-5.377-8.369z"/><linearGradient id="t" gradientUnits="userSpaceOnUse" x1="-176.477" y1="-623.622" x2="-192.626" y2="-636.37" gradientTransform="matrix(1 0 0 -1 270 -434.921)"><stop offset="0" stop-color="#F1A58A"/><stop offset="1" stop-color="#F4BB96"/></linearGradient><path fill="url(#t)" d="M95.947 192.62c-.775-1.183-1.857-3.652-2.414-5.382l-.846-22.643-29.573 5.844-2.979 15.566c12.854 14.957 29.639 26.436 48.754 32.834-2.258-5.246-4.881-11.406-7.565-17.85.16-.212-3.73-5.865-5.377-8.369z"/><linearGradient id="u" gradientUnits="userSpaceOnUse" x1="-10375.627" y1="-177.579" x2="-10382.61" y2="-216.861" gradientTransform="matrix(.992 -.125 -.07 -.999 10351.682 -1371.305)"><stop offset="0" stop-color="#64222C"/><stop offset="1" stop-color="#AC7A6F"/></linearGradient><path fill="url(#u)" d="M106.652 55.261c11.24 14.08 30.338 63.177-.352 106.185-60.748 8.508-65.332 4.731-65.332 4.731s-53.453-70.332-7.757-103.668c16.88-25.366 63.973-19.108 73.441-7.248z"/><linearGradient id="v" gradientUnits="userSpaceOnUse" x1="-9884.105" y1="-594.71" x2="-9891.673" y2="-594.335" gradientTransform="matrix(.995 -.055 -.001 -1.005 9949.811 -1015.926)"><stop offset="0" stop-color="#F1A58A"/><stop offset="1" stop-color="#F4BB96"/></linearGradient><path fill="url(#v)" d="M115.561 113.335c3.646-6.039 15.726 8.082-5.223 22.858-20.947 14.779-9.872-6.479-9.872-6.479l15.095-16.379z"/><linearGradient id="w" gradientUnits="userSpaceOnUse" x1="1728.654" y1="212.269" x2="1721.088" y2="212.644" gradientTransform="matrix(-.985 .194 -.139 -.988 1759.853 12.948)"><stop offset="0" stop-color="#F1A58A"/><stop offset="1" stop-color="#F4BB96"/></linearGradient><path fill="url(#w)" d="M28.969 124.223c-4.422-5.025-14.332 11.856 8.299 21.155 22.631 9.304 8.803-8.826 8.803-8.826l-17.102-12.329z"/><linearGradient id="x" gradientUnits="userSpaceOnUse" x1="-9701.528" y1="-228.188" x2="-9704.558" y2="-238.286" gradientTransform="matrix(.992 -.123 -.068 -.999 9688.253 -1317.369)"><stop offset="0" stop-color="#F1A58A"/><stop offset="1" stop-color="#F4BB96"/></linearGradient><path fill="url(#x)" d="M111.225 74.239c2.894 12.87 9.998 73.053-4.08 89.034-14.071 15.984-50.078 21.445-65.338 5.015-15.261-16.435-9.838-100.545-5.17-106.209 4.67-5.668 74.588 12.16 74.588 12.16z"/><path fill="#862736" d="M44.373 112.269c5.018-13.566 17.283-11.559 22.509-1.688-6.87-3.192-9.889-8.457-22.509 1.688z"/><path fill="#862736" d="M83.771 107.315c5.016-13.564 17.283-11.559 22.506-1.688-6.869-3.191-9.888-8.458-22.506 1.688z"/><path fill="#533C2A" d="M66.918 125.368c-.697-.287-1.411-.541-2.131-.734-6.086-1.664-12.156-.043-16.389 3.791.029-.213.057-.399.104-.623 1.211-5.512 6.612-8.791 12.059-7.309 2.753.746 4.98 2.549 6.357 4.875z"/><path fill="#533C2A" d="M84.365 122.282c.607-.502 1.246-.978 1.896-1.4 5.518-3.58 11.713-3.983 16.623-1.666-.076-.19-.144-.362-.24-.562-2.338-4.922-8.258-6.326-13.195-3.133-2.493 1.618-4.256 4.074-5.084 6.761z"/><path fill="#C98A78" d="M78.992 122.396c-.153 1.224-.532 7.119 3.266 11.857 3.78 4.73 6.092.324 3.223-1.977-4.021-3.23-4.766-7.303-4.797-7.978-.194-3.832-1.422-4.155-1.692-1.902z"/><linearGradient id="y" gradientUnits="userSpaceOnUse" x1="-6235.244" y1="-1624.308" x2="-6239.246" y2="-1602.592" gradientTransform="matrix(.993 -.109 -.055 -1.001 6186.969 -2146.894)"><stop offset=".006" stop-color="#EE7057"/><stop offset="1" stop-color="#CA3C2C"/></linearGradient><path fill="url(#y)" d="M98.643 141.646c-9.162 4.976-30.621 8.345-40.93 5.953 11.834 16.044 30.189 27.971 40.93-5.953z"/><path fill="#fff" d="M92.924 146.667c-6.525 2.885-21.734 5.092-28.986 3.938 8.207 8.634 21.061 14.881 28.986-3.938z"/><linearGradient id="z" gradientUnits="userSpaceOnUse" x1="-10413.511" y1="-163.876" x2="-10421.279" y2="-175.961" gradientTransform="matrix(.992 -.125 -.07 -.999 10351.682 -1371.305)"><stop offset="0" stop-color="#64222C"/><stop offset="1" stop-color="#AC7A6F"/></linearGradient><path fill="url(#z)" d="M36.837 57.995c-1.319 1.381-2.539 2.877-3.625 4.516-27.989 20.414-21.122 53.697-11.596 76.427 26.832-30.753 19.424-67.204 15.221-80.943z"/><linearGradient id="A" gradientUnits="userSpaceOnUse" x1="-10348.674" y1="-183.423" x2="-10378.021" y2="-128.183" gradientTransform="matrix(.992 -.125 -.07 -.999 10351.682 -1371.305)"><stop offset="0" stop-color="#64222C"/><stop offset="1" stop-color="#AC7A6F"/></linearGradient><path fill="url(#A)" d="M34.189 61.169c-1.469 36.444 67.496 39.494 94.861 42.605-2.047-22.505-16.104-40.628-22.398-48.514-9.297-11.638-54.828-17.864-72.463 5.909z"/><path fill="#6D3C33" d="M123.855 91.255c.215-.016.414-.125.545-.301.162-.221.189-.513.072-.759-21.23-44.284-70.279-37.797-70.773-37.726-.404.059-.686.436-.626.84.057.406.424.693.837.631.479-.064 47.529-6.264 68.604 35.63-12.254-1.929-30.554-6.504-47.199-11.821-20.812-6.646-28.303-10.953-28.262-12.226.004 0 .129-.196.827-.396 10.687-3.033 43.781 6.483 44.115 6.582.39.117.806-.11.917-.504.113-.393-.109-.806-.506-.92-1.375-.397-33.84-9.73-44.932-6.582-1.646.465-1.941 1.301-1.901 1.92.407 6.164 53.899 22.086 78.125 25.627l.157.005z"/><path fill="#6D3C33" d="M18.789 133.173c.199-.014.391-.108.521-.271 11.953-14.563 15.196-53.729 15.33-55.387.032-.407-.272-.763-.681-.798-.403-.035-.767.273-.797.682-.03.389-3.097 37.398-13.715 52.85-.159-15.252.737-39.543 7.592-47.011.274-.299.257-.77-.043-1.043-.304-.278-.774-.259-1.049.041-7.164 7.8-8.277 31.611-7.951 50.209.005.312.204.589.496.688.098.032.199.047.297.04z"/><path fill="#6D3C33" d="M130.766 91.257l.146-.023c.395-.109.627-.52.518-.914-4.637-16.833-28.703-38.369-29.727-39.277-.307-.271-.775-.246-1.047.061-.272.307-.244.773.062 1.048.245.22 24.762 22.151 29.281 38.563.097.345.421.565.767.542z"/><path fill="#E5E7EC" d="M100.309 198.146l6.752 16.431c.629 1.475 1.242 2.901 1.828 4.266 2.699.902 5.445 1.704 8.233 2.399l2.214-.688-19.027-22.408z"/><radialGradient id="B" cx="1351.664" cy="-527.75" r="11.639" gradientTransform="matrix(.996 .086 .086 -.996 -1197.031 -509)" gradientUnits="userSpaceOnUse"><stop offset="0" stop-color="#EC9E7D"/><stop offset="1" stop-color="#FAB78F"/></radialGradient><path fill="url(#B)" d="M115.357 133.852c-.543 6.516-6.1 11.368-12.385 10.819-6.293-.53-10.938-6.256-10.377-12.78.572-6.513 6.111-11.355 12.412-10.826 6.277.528 10.927 6.266 10.35 12.787z"/><radialGradient id="C" cx="1297.634" cy="-536.887" r="11.644" gradientTransform="matrix(.996 .086 .086 -.996 -1197.031 -509)" gradientUnits="userSpaceOnUse"><stop offset="0" stop-color="#EC9E7D"/><stop offset="1" stop-color="#FAB78F"/></radialGradient><path fill="url(#C)" d="M60.753 138.327c-.551 6.522-6.104 11.368-12.399 10.836-6.283-.549-10.935-6.277-10.369-12.789.574-6.515 6.119-11.367 12.416-10.84 6.272.541 10.934 6.266 10.352 12.793z"/></g></svg>