<?xml version="1.0" encoding="utf-8"?>
<!-- Generator: Adobe Illustrator 13.0.2, SVG Export Plug-In . SVG Version: 6.00 Build 14948)  -->
<!DOCTYPE svg PUBLIC "-//W3C//DTD SVG 1.1//EN" "http://www.w3.org/Graphics/SVG/1.1/DTD/svg11.dtd">
<svg version="1.1" id="Layer_1" xmlns="http://www.w3.org/2000/svg" xmlns:xlink="http://www.w3.org/1999/xlink" x="0px" y="0px"
	 width="266.094px" height="221.079px" viewBox="0 0 266.094 221.079" enable-background="new 0 0 266.094 221.079"
	 xml:space="preserve">
<g id="Layer_1_1_">
</g>
<g id="ART">
	<circle fill="#7DC145" cx="130.711" cy="110.54" r="110.54"/>
	<path fill="#EFEBDD" d="M115.188,188.937c6.765,6.511,15.069,10.448,23.703,11.873c0.141,0.03,0.264,0.081,0.402,0.104
		c1.064,0.166,2.121,0.25,3.182,0.34c0.121,0.014,0.248,0.033,0.375,0.041c7.119,0.556,14.148-0.604,20.639-3.332
		c0.18-0.073,0.359-0.141,0.539-0.213c1.027-0.453,2.033-0.951,3.021-1.475c0.354-0.186,0.718-0.357,1.072-0.561
		c0.847-0.475,1.66-0.996,2.479-1.524c0.443-0.289,0.904-0.575,1.349-0.887c0.217-0.154,0.444-0.28,0.657-0.431
		c0.582-0.424,1.108-0.9,1.672-1.346c0.385-0.314,0.767-0.604,1.147-0.925c0.907-0.78,1.755-1.604,2.591-2.44
		c0.148-0.154,0.316-0.281,0.463-0.436c0.026-0.027,0.051-0.062,0.067-0.091c6.304-6.558,10.476-14.837,11.912-24.017
		c0.462-2.933-1.542-5.68-4.472-6.145c-2.932-0.458-5.684,1.547-6.144,4.477c-1.112,7.094-4.362,13.479-9.286,18.494
		c-0.705,0.719-1.432,1.405-2.18,2.053c-0.234,0.193-0.477,0.377-0.715,0.566c-0.63,0.518-1.271,1.012-1.926,1.475
		c-0.293,0.207-0.6,0.393-0.891,0.586c-0.662,0.434-1.337,0.858-2.027,1.246c-0.217,0.119-0.443,0.229-0.668,0.351
		c-0.801,0.428-1.612,0.83-2.438,1.188c-0.088,0.037-0.179,0.07-0.26,0.104c-5.024,2.112-10.458,2.976-15.825,2.567
		c-0.027,0.002-0.068-0.008-0.102-0.01c-7.574-0.602-14.997-3.715-20.884-9.38l6.21-6.454l-25.418-4.576l5.546,25.219
		L115.188,188.937z"/>
	<path fill="#EFEBDD" d="M82.629,55.748c1.117-7.142,4.418-13.572,9.397-18.609c0.661-0.665,1.341-1.306,2.031-1.908
		c0.287-0.247,0.592-0.474,0.888-0.708c0.571-0.457,1.14-0.91,1.731-1.325c0.357-0.254,0.736-0.487,1.104-0.72
		c0.598-0.389,1.191-0.77,1.801-1.117c0.298-0.165,0.599-0.312,0.899-0.474c0.729-0.374,1.463-0.749,2.207-1.068
		c0.172-0.076,0.34-0.138,0.513-0.21c0.89-0.362,1.792-0.707,2.695-0.998c0.046-0.018,0.086-0.031,0.126-0.046
		c3.104-0.963,6.319-1.484,9.547-1.55c0.054,0.002,0.108,0.004,0.166-0.001c0.998-0.013,2.007,0.018,3.016,0.091
		c0.214,0.016,0.431,0.045,0.646,0.066c7.42,0.687,14.672,3.772,20.443,9.331l-6.211,6.451l25.421,4.583l-5.547-25.227l-6.211,6.453
		c-6.788-6.534-15.111-10.475-23.773-11.884c-0.117-0.03-0.223-0.072-0.342-0.097c-0.89-0.14-1.779-0.196-2.665-0.28
		c-0.336-0.035-0.666-0.087-1-0.115c-1.283-0.095-2.554-0.115-3.826-0.104c-0.126,0-0.244-0.003-0.361-0.003
		c-4.237,0.08-8.405,0.767-12.411,2.019c-0.11,0.03-0.219,0.059-0.327,0.097c-1.148,0.368-2.273,0.797-3.393,1.258
		c-0.271,0.111-0.559,0.217-0.839,0.332c-0.938,0.41-1.857,0.872-2.767,1.347c-0.438,0.227-0.87,0.448-1.296,0.686
		c-0.777,0.436-1.534,0.923-2.298,1.413c-0.501,0.329-1.012,0.643-1.51,0.994c-0.204,0.139-0.42,0.254-0.616,0.405
		c-0.681,0.495-1.32,1.038-1.968,1.568c-0.238,0.196-0.477,0.368-0.708,0.561c-1.144,0.978-2.245,1.979-3.278,3.055
		c-6.312,6.555-10.462,14.88-11.897,24.068c-0.459,2.931,1.541,5.682,4.473,6.142C79.424,60.682,82.172,58.677,82.629,55.748"/>
	<path fill="#7DC145" d="M216.877,179.773c2.284-2.839,4.412-5.806,6.411-8.864l-32.879,18.702L216.877,179.773z"/>
	
		<linearGradient id="SVGID_1_" gradientUnits="userSpaceOnUse" x1="476.8291" y1="-109.4834" x2="454.3317" y2="-96.5038" gradientTransform="matrix(-0.9971 -0.0765 0.017 -1.0016 674.7226 112.9392)">
		<stop  offset="0" style="stop-color:#AC6539"/>
		<stop  offset="1" style="stop-color:#CC8669"/>
	</linearGradient>
	<polygon fill="url(#SVGID_1_)" points="188.452,190.725 190.41,189.611 189.266,190.036 	"/>
	<path fill="#7DC145" d="M235.676,137.493c0.555-1.457-10.93-2.273-10.562-3.848c-0.132-1.984-12.312-2.993-12.55-4.939
		l-40.33-4.205c-0.529,9.934,0.277,26.465,1.416,41.988l15.623,23.541l-0.008,0.006l1.145-0.425l32.879-18.702
		c2.411-3.688,4.607-7.525,6.572-11.504C231.604,152.159,233.145,144.133,235.676,137.493z"/>
	
		<linearGradient id="SVGID_2_" gradientUnits="userSpaceOnUse" x1="492.9854" y1="-81.4702" x2="470.4841" y2="-68.4884" gradientTransform="matrix(-0.9971 -0.0765 0.017 -1.0016 674.7226 112.9392)">
		<stop  offset="0" style="stop-color:#AC6539"/>
		<stop  offset="1" style="stop-color:#CC8669"/>
	</linearGradient>
	<path fill="url(#SVGID_2_)" d="M235.676,137.493c0.555-1.457-10.93-2.273-10.562-3.848c-0.132-1.984-12.312-2.993-12.55-4.939
		l-40.33-4.205c-0.529,9.934,0.277,26.465,1.416,41.988l15.623,23.541l-0.008,0.006l1.145-0.425l32.879-18.702
		c2.411-3.688,4.607-7.525,6.572-11.504C231.604,152.159,233.145,144.133,235.676,137.493z"/>
	<path fill="#7DC145" d="M224.195,169.543l-35.836,20.385l7.572,9.859C207.143,191.581,216.75,181.315,224.195,169.543z"/>
	
		<linearGradient id="SVGID_3_" gradientUnits="userSpaceOnUse" x1="477.1631" y1="-114.9263" x2="434.5329" y2="-60.2721" gradientTransform="matrix(-0.9971 -0.0765 0.017 -1.0016 674.7226 112.9392)">
		<stop  offset="0.011" style="stop-color:#F6FBFD"/>
		<stop  offset="1" style="stop-color:#9CCCE6"/>
	</linearGradient>
	<path fill="url(#SVGID_3_)" d="M224.195,169.543l-35.836,20.385l7.572,9.859C207.143,191.581,216.75,181.315,224.195,169.543z"/>
	<path fill="#7DC145" d="M224.195,169.543l-35.836,20.385l7.572,9.859C207.143,191.581,216.75,181.315,224.195,169.543z"/>
	<path fill="#7DC145" d="M216.964,179.667l-33.231,12.477l-12.061-10.146c-0.375,5.363-1.316,10.657-1.543,16.185
		c-0.21,5.168,0.26,10.394,0.219,15.571C188.771,206.672,204.818,194.803,216.964,179.667z"/>
	
		<linearGradient id="SVGID_4_" gradientUnits="userSpaceOnUse" x1="502.9346" y1="-140.7271" x2="515.9605" y2="-161.3516" gradientTransform="matrix(-0.9971 -0.0765 0.017 -1.0016 674.7226 112.9392)">
		<stop  offset="0.011" style="stop-color:#F6FBFD"/>
		<stop  offset="1" style="stop-color:#9CCCE6"/>
	</linearGradient>
	<path fill="url(#SVGID_4_)" d="M216.964,179.667l-33.231,12.477l-12.061-10.146c-0.375,5.363-1.316,10.657-1.543,16.185
		c-0.21,5.168,0.26,10.394,0.219,15.571C188.771,206.672,204.818,194.803,216.964,179.667z"/>
	<path fill="#EC1C24" d="M216.877,179.773l-29.543,10.979l-15.424-3.233l11.229,20.354
		C196.186,200.833,207.65,191.243,216.877,179.773z"/>
	<path fill="#7DC145" d="M175.18,177.163c0,0-11.423,17.342-19.306,41.037c7.368-1.716,14.452-4.173,21.173-7.279L175.18,177.163z"
		/>
	
		<linearGradient id="SVGID_5_" gradientUnits="userSpaceOnUse" x1="582.1367" y1="-147.4429" x2="545.4547" y2="-135.4811" gradientTransform="matrix(-0.9971 -0.0765 0.017 -1.0016 674.7226 112.9392)">
		<stop  offset="0.0449" style="stop-color:#776A6F"/>
		<stop  offset="1" style="stop-color:#9B979C"/>
	</linearGradient>
	<path fill="url(#SVGID_5_)" d="M175.18,177.163c0,0-11.423,17.342-19.306,41.037c7.368-1.716,14.452-4.173,21.173-7.279
		L175.18,177.163z"/>
	<path fill="#7DC145" d="M175.581,168.936l-11.865,28.773l4.931,16.688c2.842-1.039,5.629-2.196,8.356-3.457L175.581,168.936z"/>
	
		<linearGradient id="SVGID_6_" gradientUnits="userSpaceOnUse" x1="492.21" y1="-90.6538" x2="521.5479" y2="-191.0799" gradientTransform="matrix(-0.9971 -0.0765 0.017 -1.0016 674.7226 112.9392)">
		<stop  offset="0.0449" style="stop-color:#776A6F"/>
		<stop  offset="1" style="stop-color:#9B979C"/>
	</linearGradient>
	<path fill="url(#SVGID_6_)" d="M175.581,168.936l-11.865,28.773l4.931,16.688c2.842-1.039,5.629-2.196,8.356-3.457L175.581,168.936
		z"/>
	<g>
		
			<linearGradient id="SVGID_7_" gradientUnits="userSpaceOnUse" x1="500.5254" y1="-108.5894" x2="515.7016" y2="-116.1774" gradientTransform="matrix(-0.9971 -0.0765 0.017 -1.0016 674.7226 112.9392)">
			<stop  offset="0.011" style="stop-color:#F6FBFD"/>
			<stop  offset="1" style="stop-color:#9CCCE6"/>
		</linearGradient>
		<polygon fill="url(#SVGID_7_)" points="171.273,179.098 172.844,164.586 189.193,189.219 171.669,203.545 		"/>
	</g>
	<path fill="#9C605D" d="M257.188,113.465c0.345,0.203,0.471,0.639,0.283,0.977c-0.191,0.337-0.613,0.443-0.963,0.229
		c-1.186-0.713-6.744,3.939-12.154,10.182c-0.238,0.279-0.688,0.307-0.988,0.025c-0.312-0.271-0.348-0.724-0.1-1.014
		C245.777,120.965,254.223,111.653,257.188,113.465z"/>
	<path fill="#9C605D" d="M253.568,120.681c0.324,0.221,0.437,0.666,0.229,0.983c-0.201,0.321-0.635,0.392-0.974,0.176
		c-0.134-0.088-3.37-2.211-5.71,0.357c-0.27,0.275-0.723,0.277-1.019,0c-0.293-0.267-0.317-0.722-0.057-1.005
		C248.559,118.45,252.061,119.659,253.568,120.681z"/>
	<g>
		<g>
			
				<linearGradient id="SVGID_8_" gradientUnits="userSpaceOnUse" x1="0.5078" y1="1552.769" x2="-19.1705" y2="1599.6224" gradientTransform="matrix(-0.9968 -0.0803 0.0803 -0.9968 206.8901 1349.3523)">
				<stop  offset="0" style="stop-color:#AC6539"/>
				<stop  offset="1" style="stop-color:#CC8669"/>
			</linearGradient>
			<path fill="url(#SVGID_8_)" d="M162.04,92.356c6.911-6.978,12.308,4.748,14.662,10.569c0,0,2.05,4.237,3.853,9.419
				c-0.397,6.341-0.978,12.726-1.711,18.908c-0.066,0.013-0.132,0.033-0.193,0.039C167.285,132.254,155.128,99.309,162.04,92.356z"
				/>
			
				<linearGradient id="SVGID_9_" gradientUnits="userSpaceOnUse" x1="108.792" y1="1261.1099" x2="133.0176" y2="1261.1099" gradientTransform="matrix(-0.9968 -0.0803 0.0803 -0.9968 193.7905 1348.2976)">
				<stop  offset="0.0056" style="stop-color:#8C6A63"/>
				<stop  offset="1" style="stop-color:#56433E"/>
			</linearGradient>
			<path fill="url(#SVGID_9_)" d="M177.053,112.37c0,0,15.387-39.194,9.418-58.478c-14.568-5.87-19.543-2.512-22.017,4.806
				c-2.474,7.318,4.417,50.174,4.417,50.174L177.053,112.37z"/>
			
				<linearGradient id="SVGID_10_" gradientUnits="userSpaceOnUse" x1="-1055.5439" y1="1266.8784" x2="-1060.2301" y2="1261.2554" gradientTransform="matrix(0.9968 0.0803 0.0803 -0.9968 1183.1611 1427.0867)">
				<stop  offset="0" style="stop-color:#AC6539"/>
				<stop  offset="1" style="stop-color:#CC8669"/>
			</linearGradient>
			<path fill="url(#SVGID_10_)" d="M250.857,72.232c-0.946,23.44-1.877,81.646-21.463,91.358
				c-19.586,9.695-49.147,14.841-58.52,2.801c-9.369-12.047-8.65-90.959,9.268-114.896
				C198.049,27.559,250.857,72.232,250.857,72.232z"/>
			
				<linearGradient id="SVGID_11_" gradientUnits="userSpaceOnUse" x1="-1048.7393" y1="1257.8599" x2="-1026.9551" y2="1257.8599" gradientTransform="matrix(0.9968 0.0803 0.0803 -0.9968 1183.1611 1427.0867)">
				<stop  offset="0" style="stop-color:#1F1A2B"/>
				<stop  offset="1" style="stop-color:#605789"/>
			</linearGradient>
			<path fill="url(#SVGID_11_)" d="M237.227,120.032c0,0,3.233-40.167,3.883-59.857c15.322-3.463,19.692,0.647,20.961,8.266
				c1.268,7.635-12.399,48.833-12.399,48.833L237.227,120.032z"/>
			
				<linearGradient id="SVGID_12_" gradientUnits="userSpaceOnUse" x1="-1125.666" y1="1268.0825" x2="-1111.5254" y2="1268.0825" gradientTransform="matrix(0.9968 0.0803 0.0803 -0.9968 1183.1611 1427.0867)">
				<stop  offset="0" style="stop-color:#1F1A2B"/>
				<stop  offset="1" style="stop-color:#605789"/>
			</linearGradient>
			<path fill="url(#SVGID_12_)" d="M179.277,45.785c0,0-6.565,46.48-11.99,55.439c-3.238-18.119-5.057-34.251-2.832-42.526
				C166.686,50.415,179.277,45.785,179.277,45.785z"/>
			
				<linearGradient id="SVGID_13_" gradientUnits="userSpaceOnUse" x1="16712.9355" y1="3329.1255" x2="16718.2246" y2="3347.6392" gradientTransform="matrix(-1 -0.0068 0.0068 -1 16908.6465 3533.8071)">
				<stop  offset="0.0056" style="stop-color:#834249"/>
				<stop  offset="1" style="stop-color:#23201F"/>
			</linearGradient>
			<path fill="url(#SVGID_13_)" d="M209.76,90.5c0.167-0.23,0.312-0.502,0.315-0.819c0.012-0.053,0.008-0.104-0.005-0.152
				c-0.006-0.139-0.016-0.308-0.012-0.444c0.012-1.2,0.498-1.979,1.516-2.518c3.132-1.598,9.8-0.085,13.464,3.039
				c2.948,2.532,2.714,5.178,1.874,6.256c-0.656,0.83-1.223,0.413-1.41,0.289C222.389,93.903,215.525,90.766,209.76,90.5z"/>
			
				<linearGradient id="SVGID_14_" gradientUnits="userSpaceOnUse" x1="16750.0918" y1="3334.8306" x2="16755.3789" y2="3353.3391" gradientTransform="matrix(-1 -0.0068 0.0068 -1 16908.6465 3533.8071)">
				<stop  offset="0.0056" style="stop-color:#834249"/>
				<stop  offset="1" style="stop-color:#23201F"/>
			</linearGradient>
			<path fill="url(#SVGID_14_)" d="M172.641,84.54c0.172-0.235,0.314-0.501,0.318-0.815c0.01-0.047,0.005-0.106-0.003-0.154
				c-0.013-0.144-0.019-0.3-0.017-0.449c0.015-1.188,0.498-1.979,1.517-2.507c3.138-1.597,9.798-0.092,13.466,3.032
				c2.952,2.532,2.712,5.178,1.87,6.26c-0.653,0.824-1.214,0.414-1.406,0.285C185.273,87.949,178.416,84.808,172.641,84.54z"/>
			
				<linearGradient id="SVGID_15_" gradientUnits="userSpaceOnUse" x1="436.2637" y1="1288.2046" x2="440.7157" y2="1280.7731" gradientTransform="matrix(-0.9998 -0.0182 0.0182 -0.9998 673.0754 1404.1561)">
				<stop  offset="0" style="stop-color:#AC6539"/>
				<stop  offset="1" style="stop-color:#CC8669"/>
			</linearGradient>
			<path fill="url(#SVGID_15_)" d="M248.943,111.597c4.033-5.427,16.565-10.728,17.134,1.103
				c0.569,11.823-12.813,21.038-23.772,17.674C231.333,127.027,248.943,111.597,248.943,111.597z"/>
			<g>
				<path fill="#9C605D" d="M215.848,136.94c0.475-0.242,0.658-0.846,0.404-1.311l0,0c-0.254-0.485-0.834-0.652-1.316-0.4l0,0
					c-10.006,5.271-17.401,7.042-23.365,6.811l0,0c-8.609-0.342-11.227-3.006-18.033-7.834l0,0
					c-0.441-0.312-1.049-0.205-1.357,0.228l0,0c-0.307,0.457-0.203,1.06,0.232,1.358l0,0c6.745,4.783,9.763,7.811,19.077,8.188l0,0
					C197.93,144.233,205.669,142.311,215.848,136.94L215.848,136.94z"/>
				<g>
					<path fill="#F8F5E3" d="M177.742,138.62c8.797,5.194,18.82,7.394,37.643-2.535c-3.639,5.625-25.15,22.619-31.316,20.051
						C178.605,153.866,180.43,147.734,177.742,138.62z"/>
					<path fill="#9C605D" d="M202.518,150.315c-6.18,3.913-12.717,7.206-17.02,7.085l0,0c-0.637-0.026-1.252-0.133-1.809-0.362l0,0
						c-2.967-1.178-4.246-3.203-4.803-5.707l0,0c-0.601-2.5-0.761-7.963-2.076-12.443l0,0c-0.117-0.374,0.025-0.788,0.336-1.033l0,0
						c0.31-0.25,0.754-0.277,1.09-0.074l0,0c3.996,2.371,8.172,4.047,13.332,4.254l0,0c5.975,0.237,13.361-1.531,23.367-6.804l0,0
						c0.392-0.196,0.869-0.134,1.17,0.202l0,0c0.301,0.322,0.343,0.807,0.102,1.172l0,0
						C214.292,139.518,208.673,146.348,202.518,150.315L202.518,150.315z M201.471,148.676c5.16-4.084,7.895-6.721,9.539-9.355l0,0
						c-7.857,3.575-14.138,4.861-19.521,4.659l0,0c-4.675-0.183-8.606-1.519-12.208-3.394l0,0c0.85,3.488,1.037,8.422,1.5,10.291
						l0,0c0.596,2.238,1.167,3.262,3.65,4.365l0,0c0.289,0.119,0.678,0.198,1.142,0.209l0,0
						C188.843,155.637,195.491,152.532,201.471,148.676L201.471,148.676z"/>
				</g>
			</g>
			
				<radialGradient id="SVGID_16_" cx="12438.8281" cy="476.1655" r="19.5239" gradientTransform="matrix(-1.2077 -0.1462 0.1017 -0.5907 15191.6299 2222.4795)" gradientUnits="userSpaceOnUse">
				<stop  offset="0.0955" style="stop-color:#AA684D"/>
				<stop  offset="0.7562" style="stop-color:#CC8669"/>
			</radialGradient>
			<path fill="url(#SVGID_16_)" d="M197.135,119.691c-0.91,5.295,7.145,10.668,17.995,11.974c10.854,1.324,20.388-1.912,21.31-7.229
				c0.912-5.3-7.14-10.677-18-11.995C207.59,111.142,198.052,114.381,197.135,119.691z"/>
			<g>
				
					<radialGradient id="SVGID_17_" cx="12472.9023" cy="482.6157" r="19.5358" gradientTransform="matrix(-1.2077 -0.1462 0.1017 -0.5907 15191.6299 2222.4795)" gradientUnits="userSpaceOnUse">
					<stop  offset="0.0955" style="stop-color:#AA684D"/>
					<stop  offset="0.7562" style="stop-color:#CC8669"/>
				</radialGradient>
				<path fill="url(#SVGID_17_)" d="M177.934,103.647c10.855,1.322,18.904,6.691,17.998,11.996
					c-0.92,5.312-10.455,8.559-21.312,7.229c-3.23-0.39-6.163-1.17-8.74-2.17c0.124-5.49,0.426-11.123,0.918-16.757
					C170.084,103.312,173.917,103.165,177.934,103.647z"/>
			</g>
			<path fill="#121013" d="M182.406,101.603c0.087,2.835-1.404,5.191-3.321,5.237c-1.914,0.064-3.543-2.185-3.64-5.017
				c-0.063-2.833,1.425-5.179,3.341-5.243C180.705,96.537,182.323,98.777,182.406,101.603z"/>
			<path fill="#121013" d="M218.583,107.998c0.087,2.828-1.403,5.168-3.325,5.219c-1.91,0.058-3.544-2.187-3.624-5.016
				c-0.083-2.855,1.412-5.173,3.331-5.235C216.885,102.911,218.499,105.166,218.583,107.998z"/>
		</g>
		
			<linearGradient id="SVGID_18_" gradientUnits="userSpaceOnUse" x1="669.9287" y1="28.0635" x2="571.239" y2="27.6886" gradientTransform="matrix(-0.9971 -0.0765 0.0765 -0.9971 829.5601 125.3844)">
			<stop  offset="0" style="stop-color:#1F1A2B"/>
			<stop  offset="1" style="stop-color:#605789"/>
		</linearGradient>
		<path fill="url(#SVGID_18_)" d="M166.509,53.671c11.384-12.978,68.63-36.979,94.589,12.799
			C241.45,69.81,172.6,55.523,172.6,55.523S155.126,66.646,166.509,53.671z"/>
		<path fill="#9C605D" d="M195.318,92.767c0,0,5.873,8.665-0.584,16.623c-1.5,1.849-9.248,6.601-10.832,13.058
			c-0.699,2.862,5.685,10.008,5.685,10.008s-9.717-3.623-9.124-10.64c0.389-4.601,10.618-12.588,13.018-14.942
			C197.628,102.8,195.318,92.767,195.318,92.767z"/>
	</g>
	<path fill="#5966A9" d="M193.249,55.74c0.29,0.022,0.582-0.116,0.742-0.383c4.676-7.795,34.393-10.866,34.69-10.896
		c0.438-0.044,0.754-0.433,0.711-0.867c-0.043-0.437-0.436-0.756-0.867-0.71c-1.256,0.126-30.812,3.186-35.896,11.658
		c-0.226,0.376-0.104,0.862,0.272,1.088C193.011,55.695,193.129,55.731,193.249,55.74z"/>
	<path fill="#5966A9" d="M205.755,61.004c0.248,0.019,0.499-0.078,0.67-0.282c11.439-13.668,33.418-12.164,33.638-12.147
		c0.438,0.033,0.818-0.294,0.853-0.73c0.034-0.436-0.294-0.817-0.729-0.851c-0.935-0.072-23.006-1.591-34.977,12.711
		c-0.279,0.336-0.234,0.836,0.102,1.117C205.439,60.932,205.598,60.991,205.755,61.004z"/>
	<path fill="#5966A9" d="M226.079,62.563c0.306,0.023,0.61-0.134,0.764-0.424c3.55-6.792,18.259-8.861,18.407-8.882
		c0.434-0.059,0.738-0.458,0.68-0.892c-0.06-0.435-0.457-0.735-0.892-0.68c-0.64,0.087-15.673,2.201-19.601,9.72
		c-0.203,0.388-0.054,0.866,0.334,1.069C225.871,62.527,225.975,62.556,226.079,62.563z"/>
	<path fill="#5966A9" d="M243.941,110.197c0.437,0.033,0.816-0.293,0.851-0.73l3.201-41.713c0.032-0.437-0.293-0.818-0.729-0.852
		c-0.438-0.033-0.818,0.293-0.852,0.729l-3.201,41.714C243.176,109.782,243.503,110.163,243.941,110.197z"/>
	<path fill="#5966A9" d="M251.59,94.646c0.365,0.027,0.715-0.202,0.82-0.569l5.838-19.994c0.123-0.42-0.118-0.86-0.538-0.982
		c-0.417-0.121-0.86,0.118-0.983,0.539l-5.838,19.994c-0.121,0.42,0.118,0.86,0.539,0.982
		C251.482,94.632,251.536,94.642,251.59,94.646z"/>
	<path fill="#9C605D" d="M247.707,127.42c1.898-14.051,12.468-14.78,12.918-14.805l-0.08-1.607
		c-0.123,0.006-12.35,0.783-14.432,16.197L247.707,127.42z"/>
	<path fill="#9C605D" d="M251.486,125.569c2.671-2.902,3.666-5.184,3.041-6.971c-0.659-1.887-2.866-2.251-2.959-2.266l-0.25,1.59
		l0.125-0.795l-0.129,0.795c0.015,0.002,1.361,0.238,1.695,1.213c0.225,0.652,0.172,2.215-2.709,5.344L251.486,125.569z"/>
	
		<linearGradient id="SVGID_19_" gradientUnits="userSpaceOnUse" x1="477.1631" y1="-114.9263" x2="434.5329" y2="-60.2721" gradientTransform="matrix(-0.9971 -0.0765 0.017 -1.0016 674.7226 112.9392)">
		<stop  offset="0.011" style="stop-color:#F6FBFD"/>
		<stop  offset="1" style="stop-color:#9CCCE6"/>
	</linearGradient>
	<path fill="url(#SVGID_19_)" d="M224.195,169.543l-35.836,20.385l7.572,9.859C207.143,191.581,216.75,181.315,224.195,169.543z"/>
	<path fill="#7DC145" d="M82.658,189.161c-0.775-1.182-1.857-3.652-2.414-5.382l-0.846-22.642l-29.573,5.844l-2.979,15.566
		C59.7,197.504,76.485,208.983,95.6,215.381c-2.258-5.246-4.881-11.406-7.566-17.85C88.195,197.318,84.305,191.665,82.658,189.161z"
		/>
	
		<linearGradient id="SVGID_20_" gradientUnits="userSpaceOnUse" x1="-9.7646" y1="-55.1636" x2="-25.9125" y2="-67.9119" gradientTransform="matrix(1 0 0 -1 90 130.0791)">
		<stop  offset="0" style="stop-color:#F1A58A"/>
		<stop  offset="1" style="stop-color:#F4BB96"/>
	</linearGradient>
	<path fill="url(#SVGID_20_)" d="M82.658,189.161c-0.775-1.182-1.857-3.652-2.414-5.382l-0.846-22.642l-29.573,5.844l-2.979,15.566
		C59.7,197.504,76.485,208.983,95.6,215.381c-2.258-5.246-4.881-11.406-7.566-17.85C88.195,197.318,84.305,191.665,82.658,189.161z"
		/>
	<g>
		
			<linearGradient id="SVGID_21_" gradientUnits="userSpaceOnUse" x1="-10168.8975" y1="429.4312" x2="-10175.8809" y2="390.1489" gradientTransform="matrix(0.9922 -0.1247 -0.0699 -0.9991 10175.7061 -742.521)">
			<stop  offset="0" style="stop-color:#64222C"/>
			<stop  offset="1" style="stop-color:#AC7A6F"/>
		</linearGradient>
		<path fill="url(#SVGID_21_)" d="M93.363,51.802c11.241,14.08,30.338,63.175-0.352,106.184
			c-60.747,8.507-65.331,4.731-65.331,4.731S-25.774,92.385,19.923,59.05C36.802,33.683,83.894,39.942,93.363,51.802z"/>
		
			<linearGradient id="SVGID_22_" gradientUnits="userSpaceOnUse" x1="-9718.6445" y1="-10.3384" x2="-9726.2119" y2="-9.9636" gradientTransform="matrix(0.9947 -0.0551 -0.001 -1.0054 9772.5234 -422.7404)">
			<stop  offset="0" style="stop-color:#F1A58A"/>
			<stop  offset="1" style="stop-color:#F4BB96"/>
		</linearGradient>
		<path fill="url(#SVGID_22_)" d="M102.271,109.875c3.647-6.038,15.726,8.083-5.222,22.86c-20.948,14.779-9.872-6.479-9.872-6.479
			L102.271,109.875z"/>
		
			<linearGradient id="SVGID_23_" gradientUnits="userSpaceOnUse" x1="2502.1494" y1="838.9292" x2="2494.5833" y2="839.304" gradientTransform="matrix(-0.985 0.1937 -0.1385 -0.9881 2595.249 478.8642)">
			<stop  offset="0" style="stop-color:#F1A58A"/>
			<stop  offset="1" style="stop-color:#F4BB96"/>
		</linearGradient>
		<path fill="url(#SVGID_23_)" d="M15.679,120.763c-4.421-5.026-14.331,11.856,8.3,21.155c22.631,9.303,8.802-8.826,8.802-8.826
			L15.679,120.763z"/>
	</g>
	<g>
		<g>
			
				<linearGradient id="SVGID_24_" gradientUnits="userSpaceOnUse" x1="-9496.124" y1="378.2231" x2="-9499.1533" y2="368.1245" gradientTransform="matrix(0.9924 -0.1226 -0.0677 -0.9993 9512.1738 -689.6599)">
				<stop  offset="0" style="stop-color:#F1A58A"/>
				<stop  offset="1" style="stop-color:#F4BB96"/>
			</linearGradient>
			<path fill="url(#SVGID_24_)" d="M97.935,70.78c2.894,12.87,9.999,73.052-4.079,89.034c-14.072,15.985-50.078,21.446-65.339,5.015
				c-15.26-16.434-9.837-100.546-5.17-106.21C28.018,52.952,97.935,70.78,97.935,70.78z"/>
			<path fill="#862736" d="M31.084,108.809c5.017-13.566,17.283-11.559,22.509-1.687C46.722,103.929,43.704,98.665,31.084,108.809z"
				/>
			<path fill="#862736" d="M70.482,103.856c5.016-13.564,17.283-11.559,22.507-1.687C86.119,98.976,83.099,93.71,70.482,103.856z"/>
			<g>
				<g>
					<path fill="#533C2A" d="M53.629,121.909c-0.697-0.287-1.411-0.541-2.131-0.734c-6.086-1.664-12.156-0.043-16.389,3.791
						c0.03-0.213,0.057-0.401,0.104-0.623c1.211-5.512,6.612-8.791,12.059-7.309C50.025,117.78,52.252,119.583,53.629,121.909z"/>
				</g>
				<g>
					<path fill="#533C2A" d="M71.076,118.823c0.608-0.502,1.246-0.977,1.896-1.4c5.518-3.58,11.714-3.985,16.623-1.666
						c-0.076-0.192-0.143-0.364-0.24-0.563c-2.338-4.922-8.258-6.326-13.195-3.133C73.667,113.678,71.904,116.135,71.076,118.823z"
						/>
				</g>
				<path fill="#C98A78" d="M65.703,118.937c-0.153,1.224-0.532,7.119,3.266,11.858c3.78,4.732,6.091,0.324,3.222-1.976
					c-4.021-3.231-4.765-7.303-4.796-7.976C67.201,117.006,65.973,116.683,65.703,118.937z"/>
				<g>
					
						<linearGradient id="SVGID_25_" gradientUnits="userSpaceOnUse" x1="-6037.7861" y1="-1022.0933" x2="-6041.7881" y2="-1000.3757" gradientTransform="matrix(0.9933 -0.1094 -0.0546 -1.001 6010.4243 -1525.936)">
						<stop  offset="0.0056" style="stop-color:#EE7057"/>
						<stop  offset="1" style="stop-color:#CA3C2C"/>
					</linearGradient>
					<path fill="url(#SVGID_25_)" d="M85.353,138.187c-9.161,4.976-30.62,8.345-40.929,5.953
						C56.258,160.183,74.614,172.111,85.353,138.187z"/>
					<path fill="#FFFFFF" d="M79.635,143.208c-6.525,2.885-21.735,5.092-28.986,3.938C58.856,155.78,71.71,162.028,79.635,143.208z"
						/>
				</g>
			</g>
		</g>
		<g>
			
				<linearGradient id="SVGID_26_" gradientUnits="userSpaceOnUse" x1="-10206.7832" y1="443.1353" x2="-10214.5518" y2="431.0504" gradientTransform="matrix(0.9922 -0.1247 -0.0699 -0.9991 10175.7061 -742.521)">
				<stop  offset="0" style="stop-color:#64222C"/>
				<stop  offset="1" style="stop-color:#AC7A6F"/>
			</linearGradient>
			<path fill="url(#SVGID_26_)" d="M23.548,54.536c-1.319,1.38-2.539,2.877-3.625,4.515C-8.066,79.465-1.199,112.749,8.327,135.479
				C35.159,104.725,27.751,68.275,23.548,54.536z"/>
		</g>
		
			<linearGradient id="SVGID_27_" gradientUnits="userSpaceOnUse" x1="-10141.9443" y1="423.5874" x2="-10171.291" y2="478.8278" gradientTransform="matrix(0.9922 -0.1247 -0.0699 -0.9991 10175.7061 -742.521)">
			<stop  offset="0" style="stop-color:#64222C"/>
			<stop  offset="1" style="stop-color:#AC7A6F"/>
		</linearGradient>
		<path fill="url(#SVGID_27_)" d="M20.9,57.709c-1.469,36.445,67.497,39.494,94.862,42.606
			c-2.047-22.505-16.104-40.628-22.399-48.513C84.066,40.162,38.535,33.937,20.9,57.709z"/>
		<path fill="#6D3C33" d="M110.566,87.795c0.215-0.015,0.415-0.125,0.546-0.3c0.162-0.221,0.189-0.513,0.072-0.759
			C89.953,42.452,40.905,48.939,40.41,49.011c-0.404,0.058-0.685,0.435-0.626,0.839c0.057,0.407,0.424,0.693,0.837,0.631
			c0.479-0.064,47.529-6.263,68.604,35.63c-12.255-1.929-30.554-6.504-47.2-11.821c-20.812-6.647-28.303-10.953-28.261-12.226l0,0
			c0.003,0,0.128-0.197,0.827-0.396c10.686-3.032,43.781,6.484,44.115,6.583c0.39,0.116,0.805-0.111,0.917-0.505
			c0.114-0.392-0.11-0.805-0.506-0.919c-1.375-0.398-33.84-9.731-44.931-6.583c-1.646,0.465-1.942,1.302-1.902,1.921
			c0.407,6.163,53.9,22.086,78.125,25.626C110.462,87.798,110.514,87.799,110.566,87.795z"/>
		<path fill="#6D3C33" d="M5.5,129.713c0.199-0.014,0.391-0.108,0.521-0.27c11.953-14.564,15.197-53.727,15.331-55.387
			c0.032-0.407-0.273-0.763-0.681-0.798c-0.403-0.035-0.767,0.273-0.797,0.682c-0.03,0.388-3.097,37.399-13.715,52.849
			C6,111.538,6.896,87.247,13.751,79.779c0.275-0.299,0.257-0.769-0.043-1.043c-0.304-0.278-0.774-0.259-1.049,0.041
			c-7.164,7.799-8.277,31.611-7.951,50.209c0.005,0.312,0.204,0.589,0.496,0.688C5.301,129.706,5.403,129.719,5.5,129.713z"/>
		<path fill="#6D3C33" d="M117.477,87.797c0.049-0.004,0.098-0.014,0.146-0.023c0.394-0.11,0.627-0.519,0.518-0.914
			c-4.637-16.833-28.704-38.37-29.727-39.278c-0.306-0.27-0.775-0.245-1.047,0.061c-0.271,0.307-0.244,0.773,0.062,1.048
			c0.246,0.22,24.762,22.152,29.282,38.563C116.807,87.6,117.131,87.821,117.477,87.797z"/>
	</g>
	<path fill="#E5E7EC" d="M87.02,194.688l6.751,16.43c0.63,1.475,1.242,2.901,1.829,4.266c2.699,0.902,5.445,1.703,8.233,2.398
		l2.214-0.688L87.02,194.688z"/>
	
		<radialGradient id="SVGID_28_" cx="1471.0586" cy="9.1704" r="11.6396" gradientTransform="matrix(0.9963 0.0855 0.0855 -0.9963 -1375.1809 12.2652)" gradientUnits="userSpaceOnUse">
		<stop  offset="0" style="stop-color:#EC9E7D"/>
		<stop  offset="1" style="stop-color:#FAB78F"/>
	</radialGradient>
	<path fill="url(#SVGID_28_)" d="M102.069,130.392c-0.543,6.515-6.1,11.368-12.385,10.819c-6.293-0.531-10.938-6.256-10.378-12.78
		c0.573-6.513,6.112-11.356,12.413-10.826C97.995,118.133,102.644,123.872,102.069,130.392z"/>
	
		<radialGradient id="SVGID_29_" cx="1417.0293" cy="0.0327" r="11.6448" gradientTransform="matrix(0.9963 0.0855 0.0855 -0.9963 -1375.1809 12.2652)" gradientUnits="userSpaceOnUse">
		<stop  offset="0" style="stop-color:#EC9E7D"/>
		<stop  offset="1" style="stop-color:#FAB78F"/>
	</radialGradient>
	<path fill="url(#SVGID_29_)" d="M47.464,134.868c-0.551,6.523-6.105,11.369-12.4,10.836c-6.283-0.549-10.934-6.277-10.369-12.789
		c0.574-6.515,6.119-11.367,12.416-10.84C43.384,122.616,48.046,128.34,47.464,134.868z"/>
</g>
</svg>
