<svg xmlns="http://www.w3.org/2000/svg" version="1.1" x="0" y="0" width="470" height="420" viewBox="0" enable-background="new 0 0 470 420" xml:space="preserve"><rect fill="none" width="470" height="420"/><path fill="#41403F" d="M464.832 306.176c-1.201-3.064-3.713-5.715-6.23-7.795 0.14-0.219-4.36-5.994-6.451-8.625 -0.049-0.061-3.002-3.762-4.187-5.684 -0.305-0.496-0.165-1.17-0.444-1.656 -0.729-1.279-1.902-2.146-2.791-3.246 -0.35-0.432-0.407-1.439-0.369-1.379 -0.18-0.293-0.797-1.113-0.996-1.508 -1.517-3.014-5.26-7.15-6.979-8.928 0.157-0.931-1.365-2.688-1.365-2.89 -4.495-6.344-8.12-13.084-12.144-19.377 -0.297-0.188-0.566-0.274-0.801-0.229 -0.563-2.075-2.358-3.34-3.586-5.104 -1.645-2.359-2.839-5.281-4.528-7.514 -0.622-0.605-2.559-2.803-2.839-3.971 -0.573-2.394 1.671-4.867 2.937-6.703 -0.094-2.037 2.318-4.469 3.563-6.576 0.146-0.352-0.347-0.066-0.249-0.377 2.394-2.896 3.299-5.632 4.674-8.5 0.689 0.627 1.043-2.029 1.617-2.801 0.197 0.166 0.199 0.48 0.45 0.027 0.083-1.506 1.321-2.48 1.624-4.428 0.295 0.184 0.524 0.123 0.727-0.047 -0.017-1.586 1.612-4.027 2.433-5.828 0.032-0.307-0.658-0.416-0.497-0.754 0.64-0.006 0.703-2.52 1.387-2 0.248-4.844 1.503-9.354 0.939-14.154 -0.13 0.014-0.75 0.699-0.552 0.146 0.128-0.807 0.674-0.059 0.854-0.672 -0.229-5.148-3.939-10.463-7.683-13.768 -1.141-0.312-1.35-0.789-2.175-1.49 -0.04-1.092 0.148-2.422 0.668-3.578 3.438-7.656 10.865-17.773 14.042-24.322 0.213-2.795 3.897-5.352 3.672-8.381 0.476 0.484 0.575-0.428 0.929-0.396 1.401-3.871 3.412-6.604 4.729-9.4 -0.457-1.211-0.465-2.539-0.584-3.838 -2.745-3.209-4.387-6.713-7.926-9.709 -3.202-5.434-7.801-9.883-11.19-14.16 -1.143-1.443-2.448-3.344-3.511-4.826 -1.971-2.748-4.406-5.766-7.181-8.578 -0.979-2.566-3.035-3.93-3.955-6.484 -6.079-7.785-10.845-17.289-16.311-23.881 0.354-1.08-0.611-1.807-1.291-2.611 -0.495-1.889-1.681-3.592-3.032-5.252 0.057-0.311-0.006-0.59 0.053-0.902 -3.939-5.242-7.707-12.389-10.798-17.664 -1.062-1.812-1.992-4.031-3.034-5.252 -0.617-0.725-2.287-1.426-3.195-2.545 -0.521-0.643-0.692-2.178-1.293-2.613 -1.277-0.926-6.641-0.416-8.016-0.662 -0.641-0.115-0.824-0.223-1.528-0.182 -1.986 0.111-4.392-0.059-6.415-0.205 -0.454-0.031-0.863-0.5-1.325-0.531 -1.327-0.092-2.605 0.824-3.81 0.133 -0.365-0.068-0.467 0.838-0.855 0.672 -0.091-0.32-0.505-0.555-0.948-0.779 -0.336 0.586-0.861 0.467-1.308 0.645 -0.291-0.168-0.582-0.336-0.874-0.504 -0.539 0.379-1.232 0.178-1.757 0.619 -4.368-0.314-9.119-0.299-12.855 0.043 -2.306-0.785-4.886 0.057-6.738-0.857 -0.243 0.261 0.001 0.597-0.303 0.525 -1.637 0.336-3.576-0.469-5.163 0.051 -1.845-0.74-5.279-0.525-7.088-1.059 -6.81 0.719-14.511-1.898-21.149-0.545 -3.668-0.775-8.255-0.293-12.202-0.281 -4.428-0.688-9.971-0.781-14.856-1.344 -3.867-0.64-10.254-0.722-14.654-1.693 -0.535 0.391-1.079 0.754-1.684 0.895 -0.502-0.404-0.8-0.041-1.326-0.533 -2.506 2.453-4.713 7.066-6.264 10.85 -0.41 0.125-0.762 0.471-1.132 0.746 -1.422 4.246-4.256 7.221-5.287 11.18 -1.003 0.74-1.809 3.07-2.35 4.475 -1.929 5.014-3.632 9.277-6.729 14.08 0.139 0.309-0.114 0.721 0.121 1.004 -1.377 1.34-2.096 3.896-2.883 5.801 -3.321-0.93-5.394-1.92-8.036-1.84 -1.334-0.953-1.868-0.518-2.827-1.166 -2.497 0.246-5.076 0.193-7.62 0.266 -4.509 1.367-9.524 3.348-14.285 5.752 -3.59 3.926-8.026 6.172-11.003 11.379 -8.73 7.646-12.569 18.438-17.637 26.912 0.038 1.25-1.55 3.131-1.725 4.604 -1.708 0.541-3.777-0.135-4.74 0.531 -1.823-0.701-5.348-0.125-7.41-1.713 -3.841 0.02-7.55 0.531-11.727-0.703 -2.268 0.811-5.654 0.045-8.744-0.615 -0.304-0.033-0.415 0.658-0.753 0.496 -9.817-0.17-17.596 0.266-27.188-0.998 -1.084 0.861-2.049-0.037-3.008 0.363 -3.773-1.08-8.271-0.113-12.15-1.182 -2.43 0.684-5.171 0.203-7.868-0.109 -1.597 0.463-5.347-0.521-7.99-1.115 -4.693 6.938-9.069 14.303-12.251 21.625 -1.837 2.27-3.788 5.619-5.953 8.695 -1.576 0.504-1.487 1.92-2.067 2.771 -0.965 1.418-2.482 2.582-3.502 4.045 -4.728 6.785-9.31 14.551-13.954 21.34 -2.611 3.818-5.096 7.754-6.392 11.475 -0.844 2.014-2.322 3.914-3.038 6.877 -2.433 3.311-4.793 8.459-7.515 10.594 -0.101 0.08-0.562-0.141-0.727 0.047 -1.418 1.602-3.324 5.049-4.041 7 -0.881 2.393-2.28 4.637-3.792 7.375 0.755 1.857 2.48 1.553 3.997 2.775 7.285 12.605 15.21 25.095 22.84 37.218 1.393 3.027 1.877 6.299 4.346 9.039 1.666 6.434 6.645 11.66 9.021 17.106 0.35 0.201 0.7 0.404 1.05 0.605 4.277 7.401 11.924 12.94 17.353 20.051 0.38 0.315 0.565-0.101 0.977 0.332 0.22 0.435 0.287 0.907 0.645 1.305 0.462 0.437 0.742 0.189 1.152 0.433 1.592 1.938 3.002 3.928 5.086 5.736 0.278 1.03 1.165 1.135 1.218 2.336 0.716 0.174 1.208 1.151 1.022 1.057 2.16 1.125 4.03 8.453 6.196 9.877 1.253 0.824 2.187-0.248 3.581 0.668 0.34-0.434 0.797-0.441 1.205-0.469 4.594-0.336 9.355 1.526 14.156 0.938 1.799 0.461 3.49 0.51 5.136 0.4 2.698 0.242 6.13 0.576 8.568 0.514 1.639-0.041 4.035-0.041 4.888 0.021 1.997 0.146 4.263 0.203 6.038 0.453 2.342 0.327 5.041 0.487 5.734 0.979 2.619-0.283 5.744 0.285 7.519-0.092 2.722 0.959 7.595 0.061 11.147 1.303 6.334-0.414 12.983-0.48 18.672-0.42 0.18 0.678 0.834 0.309 1.4 0.809 0.409-0.316 0.933-0.197 1.305-0.645 0.542 0.545 1.775 0.904 1.347 1.709 1.654 1.35 2.65 3.352 4.414 4.883 2.389 2.076 4.085 4.865 6.561 6.82 1.046 0.828 2.631 0.896 3.021 2.445 0.18 0.129 0.377 0.258 0.562 0.387h-67.686C92.198 319.775 72 339.973 72 364.889 72 389.803 92.198 410 117.112 410h98.051c21.774 0 39.92-15.434 44.155-35.951 0.25 0.475 0.457 0.955 0.58 1.389 1.554 0.74 1.424 2.644 2.994 2.894 5.514 8.56 12.371 16.856 17.978 26.244 1.091 0.563 2.19 2.221 2.416 3.494 0.646 0.27 0.94 0.635 1.298 0.983 5.812 0.23 12.963 1.334 18.693 0.761 0.408 0.78 1.119-0.142 1.676 0.731 0.699-0.453 1.798-0.229 2.907-0.186 0.421 0.014 1.314 0.471 1.603 0.457 0.566-0.025 0.885-0.386 1.381-0.371 0.246 0.01 0.333 0.479 0.423 0.479 0.35 0.006 0.695-0.311 1.104-0.295 2.111 0.076 3.961 0.117 5.836 0.803 0.473-0.44 1.186 0.011 1.654-0.442 3.608 1.496 7.449-0.035 10.797 1.1 2.871-1.317 6.159 0.086 9.451-0.608 0.244 0.133 0.336 0.305 0.424 0.479 3.053-0.609 6.565-0.607 9.147-0.086 2.178-0.646 4.156 0.182 6.819-0.496 -0.118 0.279 0.33 0.406 0.599 0.58 1.988-1.334 4.22 0.357 6.543-0.422 3.676 0.83 7.541 0.117 10.225 0.07 0.915-0.017 2.435-0.148 2.954 0.541 2.835-0.599 6.286-0.88 9.047 0.09 2.323-0.64 6.125-0.345 8.873-0.011 0.181-0.245 0.31-0.684 0.578-0.6 5.326 0.842 10.707-1.201 14.983 0.717 0.513-0.473 1.08-0.75 1.83-0.342 2.574-3.643 2.46-6.826 4.46-10.957 0.032-0.305 0.381-1.156 0.81-1.4 0.683-2.2 1.808-4.487 3.59-7.026 0.182-0.441 3.652-5.111 4.122-8.352 0.334-0.22 3.18-4.654 3.967-7.273 0.941 0.152 1.084-2.027 1.791-2.697 -0.26-0.471 0.291-3.363 2.048-3.951 0.286-0.371 1.086-2.062 1.294-3.451 4.192-6.379 7.322-13.633 11.188-18.975 -0.01-0.807 0.396-0.957 0.182-1.527 3.729-6.262 6.22-12.08 9.732-18.877 2.812-5.441 5.108-10.686 8.229-13.447C463.902 312.414 467.744 307.104 464.832 306.176z"/><path fill="#FFFFFF" d="M238.143 122.571c3.012 0.193 6.291 1.766 8.44 1.141l4.013-0.482c4.518-5.271 10-8.465 14.072-14.273 0 0 6.818-10.171 6.788-13.804l0.521-0.874c0.287-2.895 0.86-4.959 1.012-7.814 -0.603-2.328-0.004-4.6-0.771-6.746 -1.177-3.287-4.362-5.654-7.254-8.854 8.38-1.373 15.866 9.18 14.688 16.18 0.8 1.656-0.521 5.303-0.277 6.139 -3.075 8.203-7.064 17.23-12.561 23.777 -2.838 3.379-4.703 7.893-7.791 10.666 -1.402 1.26-3.646 1.785-5.326 2.758 -0.176-0.102-0.35-0.201-0.525-0.303 -2.51 0.727-8.508 2.016-12.425-1.107C238.852 127.463 236.336 124.11 238.143 122.571z"/><path fill="#FFFFFF" d="M372.401 132.893c-4.809-0.275-9.061 1.521-13.102 4.102l-3.944 2.389c-0.495 0.547-1.066 0.805-1.685 0.895 -1.166 1.039-2.863 2.848-3.87 2.664 -1.36 1.91-3.906 3.641-5.743 6.717 -0.278 0.436-0.676 0.428-1.03 0.572 -4.72 7.178-7.397 18.238-4.525 25.617 2.008 1.846 4.484 5.109 6.717 5.742 0.417 0.826 1.922 1.359 2.222 2.215 -0.641 1.111-1.55 1.215-2.364 1.67 -1.243-0.527-2.987 0.84-3.434-0.115 -2.729 0.842-6.635-1.654-8.555-3.771 -5.571-6.148-4.215-14.789-2.16-21.312 1.945-4.361 3.019-7.105 5.639-10.977l0.707-1.225c2.796-2.906 5.843-7.203 9.091-9.686 1.347-1.027 2.556-2.826 3.75-3.666 1.374-0.967 3.188-0.988 4.047-2.562 1.222 0.145 2.254-0.418 3.238-1.164 2.109-0.215 4.24-0.361 6.293-0.799 0.766 0.678 0.877-0.23 1.325 0.531C366.974 130.395 370.885 130.661 372.401 132.893z"/><path fill="#E2E3E4" d="M199.046 151.092c2.335-9.029 6.764-17.291 11.289-25.211 0.58-0.229 1.094-0.703 1.535-1.447 5.529 6.73 10.058 13.158 12.991 20.332 5.633 7.9 9.44 15.16 15.562 22.75 3.606 7.412 9.999 13.82 14.29 21.316 2.551 2.719 5.729 5.268 6.83 8.375 -2.324-0.068-5.166 0.402-7.143-0.156 -7.547 1.041-15.633 0.104-23.761 0.746 -5.903-0.846-10.532 0.451-16.188-0.248 -0.6 0.154-1.286-0.018-1.831 0.342 -0.508-0.562-1.508-0.162-1.502-0.633 -4.212 0.215-7.616-0.652-11.153 0.328 -1.849-0.459-3.547-0.357-5.089 0.326 -9.878-0.428-18.832-0.08-28.871-0.104 -2.765 0.654-5.52-0.479-8.992-0.992 -2.228-0.33-4.349-0.041-6.24-0.104 -4.26-0.137-6.985-1.459-8.622-5.676 -1.992-1.631-3.086-3.625-4.46-5.609 -1.281-1.848-2.409-2.986-4.037-5.129 -0.344-0.453-0.301-1.162-0.72-1.584 -7.112-7.125-12.783-17.129-20.233-26.377 0.02-1.377-1.25-1.52-1.366-2.889 -1.921-2.178-3.595-4.268-5.483-6.666 -0.775-0.986-1.292-2.328-2.065-3.293 -0.345-0.432-0.979-0.543-1.298-0.982 -1.746-2.406-3.03-5.172-4.703-7.615 -1.002-1.463-2.295-2.627-3.54-4.377 -0.672-0.945-1.109-2.209-1.641-2.814 -0.298-0.338-0.817-0.297-1.05-0.605 -1.42-1.885-2.354-4.395-3.781-6.381 -0.229-0.32-0.749-0.432-0.948-0.783 -0.366-0.645-0.368-1.713-0.768-2.309 -2.014-2.996-3.912-5.982-5.974-9.049 -2.371-3.523-5.501-6.398-7.798-10.334 0.575-0.619 1.459-0.076 2.034-0.693 4.427 1.725 9.254 0.506 13.501 1.264 10.89 0.219 21.17 0.785 32.6 1.322 0.338 0.16 0.449-0.529 0.753-0.496 5.101 0.877 10.014-0.209 14.856 1.342 0.997-0.51 2.343 0.281 3.285-0.436 4.976 0.904 9.559 0.348 14.801 2.246 0.872-0.059 1.698-0.285 2.632-0.113 0.249 3.129-2.436 5.865-3.147 8.684 -0.493 0.182-0.734 1.305-1.259 1.371 -0.984 5-4.281 10.332-6.479 14.457 -0.99 0.51-2.324-0.85-3.555-1.119 -1.187-0.258-4.899 0.021-6.193 0.625 -0.868 0.404-1.271 1.307-2.013 1.869 -0.912 0.695-2.194 1.826-3.272 3.244 -0.847 2.289-1.499 5.16-1.565 7.963 1.267 4.74 2.488 9.49 7.26 13.289 1.252 1.838 3.249 3.662 5.168 4.383 5.031 4.195 13.145 8.627 18.688 12.891 2.046 1.574 4.035 3.611 6.998 4.041 2.031 1.578 6.251 1.688 8.636 2.42 0.556 0.576 1.36 0.166 1.124 0.883 2.992 0.779 7.47 0.676 10.622 0.998 1.252-0.242 3.01-0.562 4.739-0.529 0.765-0.66 2.636-1.379 3.615-1.412 1.371-1.203 1.844-2.344 3.42-2.691 0.334-1.486 1.96-2.975 2.902-4.623 0.461-0.807 0.605-2.217 1.415-2.449C204.033 159.055 203.473 154.245 199.046 151.092z"/><path fill="#FFFFFF" d="M275.46 335.535c-4.667 3.182-9.545 3.463-13.522-1.617 0.545-0.723 1.26-0.996 1.998-1 1.811-2.264 5.116-2.146 6.996-4.072 2.59-2.654 5.489-3.971 7.299-6.984 0.283-0.471 0.607-1.778 0.91-1.575 2.344-6.147 5.797-11.908 6.75-18.966 2.824-9.385 4.375-18.428-0.537-25.739l-2.071-1.664c-3.726-2.446-6.486-2.051-9.687-3.024 1.829-4.152 6.365-4.685 10.092-3.738 4.682 1.568 8.535 6.369 9.979 10.193 0.529 2.815 0.424 5.803 0.839 8.649 -0.366 2.756-1.44 5.758-1.517 8.688 -0.105 4.104-1.361 8.629-1.889 13.373 -3.168 9.377-7.226 19.273-14.83 26.9L275.46 335.535z"/><path fill="#FFFFFF" d="M197.761 231.309c-1.848-1.428-2.57-3.158-2.96-4.977 -2.751-2.775-5.844-3.09-9.032-3.348l-4.49 0.906c-3.512 0.549-6.539 3.157-9.271 5.146 -0.027 1.172-1.042 1.373-1.664 2.071 -4.205 4.742-7.793 9.224-11.071 15.539 -0.559 1.586-1.586 4.465-2.91 6.252 -0.103 1.89-1.233 3.881-2.229 5.479 -0.929 3.127-2.487 6.498-1.949 9.843 0.773 4.481 2.016 8.008 1.948 12.788 -1.806 0.136-3.42-0.586-4.658-0.821 -3.839-2.814-4.739-6.271-5.894-10.402 -0.117-5.6 2.648-11.242 4.388-17.299 1.079-3.754 3.594-7.908 5.59-11.701 1.767-3.357 5.083-6.002 7.685-8.863 0.277-0.307 0.391-0.916 0.707-1.225 3.101-3.039 6.955-5.215 9.735-8.377 0.751 0.285 1.521-0.377 2.336-1.219 2.094-0.218 3.21-0.83 4.921-2.06 1.566 0.433 2.317-0.551 3.763-0.858C190.242 216.574 200.318 223.48 197.761 231.309z"/><path fill="#E2E3E4" d="M410.39 71.538c0.285 0.613 0.276 1.307 0.519 1.932 5.003 5.934 9.232 11.988 14.479 18.158 -0.124 0.379 0.6 0.531 0.12 1.004 5.639 5.139 9.891 11.299 13.633 17.201 -1.068 1.141-2.345 0.941-3.837 0.584 -0.239-0.057 0.146-0.359 0.201-0.35 -1.999-0.355-3.844 0.576-3.782-0.316 -1.466-0.07-2.938 0.217-4.712 0.078 -0.841-0.064-1.646-0.609-2.401-0.688 -1.993-0.205-4.15 0.389-6.24-0.102 -0.35-0.082-0.357-0.357-0.7-0.404 -0.149-0.021-1.074 0.271-1.278 0.193 -0.127-0.045-0.147-0.457-0.424-0.477 -0.6-0.043-1.248 0.385-1.831 0.342 -0.973-0.07-1.943-0.471-2.955-0.539 -1.534-0.104-3.31 0.059-5.062-0.123 -2.996-0.309-6.625-1.285-9.619-1.119 -3.866-1.275-6.457-0.67-10.318-1.525 -0.363 0.295-0.886 0.008-1.204 0.471 -4.367-1.467-7.138-0.361-11.396-1.68 -3.683 0.496-7.461-0.395-11.33 0.225 -0.334-0.107-0.251-0.326-0.146-0.551 -13.157 1.822-26.377 1.373-38.899 1.104 -0.424-0.625-0.796-1.266-1.244-1.885 -9.418-6.406-12.579-15.338-21.049-23.35 -1.017-2.588-4.027-4.641-4.904-7.266 -2.015-1.514-3.2-5.027-4.979-7.541 -1.881-2.656-3.979-4.836-5.705-7.492 -0.272-0.42-0.287-1.107-0.545-1.482 -1.922-2.787-3.932-5.168-5.678-7.943 -1.078-1.713-2.067-3.535-3.312-5.178 -2.522-3.334-5.549-7.762-8.343-11.816 -3.485-5.055-6.571-11.094-10.078-16.084 -0.982-1.398-2.057-3.346-3.137-5.076 -1.459-2.34-3.097-4.184-3.154-6.254 13.146 0.561 26.046 3.336 38.334 2.301 1.738 0.967 2.863-0.352 4.584 0.547 2.801-0.893 6.668 0.32 10.547 0.723 1.53 0.16 3.146-0.312 4.813-0.254 0.691 0.023 1.355 0.42 2.053 0.486 1.636 0.154 3.442-0.189 5.163-0.053 0.92 0.072 1.799 0.549 2.679 0.613 3.558 0.258 7.259-0.23 10.75 0.375 7.808 0.258 15.722-0.93 24.01-0.371 -0.118-0.709 1.956-0.102 3.258 0.014 1.576 0.143 4.069-0.352 5.991-0.272 0.335 0.014 0.277 0.299 0.525 0.305 2.94 0.07 5.091 0.396 7.604 2.99 1.325 1.365 1.709 3.014 2.537 4.498 1.217 2.176 2.899 3.818 4.084 5.854 4.558 7.834 9.853 15.854 13.105 22.965 6.974 9.293 12.207 18.289 18.623 27.551C409.998 71.907 410.226 71.844 410.39 71.538z"/><path fill="#EFEDED" d="M440.849 114.551c-3.948 8.961-7.993 16.383-11.679 22.654 -0.598 1.018-1.56 2.1-1.894 2.875 -1.017 2.355-3.453 5.229-5.227 8.646 -0.372 0.717-0.281 1.688-0.688 2.402 -0.594 1.047-1.89 1.77-1.818 3.15 -0.929 0.623-1.134 1.617-1.892 2.873 -3.097-0.582-6.59-4.818-9.578-4.83 -1.594-1.693-3.509-2.828-5.746-3.783 -1.339-0.572-2.207-1.518-3.399-2.195 -5.208-2.967-10.714-5.264-16.077-8.117 -0.494-0.262-1.443-0.812-1.823-1.285 -0.884-1.102-0.716-2.098-1.863-3.643 -0.408-0.549-0.842-1.572-1.07-1.783 -0.739-0.693-2.706-1.398-3.85-2.223 -1.422-1.027-3.291-1.059-4.677-2.002 -4.277-0.125-7.807-0.172-11.403-0.051 -1.937 0.871-3.809 1.98-5.924 2.18 -1.562 0.793-2.913 2.377-4.672 2.436 -0.242 0.408 0.004 0.689-0.433 1.148 -3.049 2.295-6.602 5.562-9.109 8.506 -5.938 6.971-10.085 15.477-12.083 23.355 -2.137 8.424 0.813 16.08 8.124 21.486 3.605 1.631 6.301 2.365 10.265 2.428 1.33-0.188 2.508-0.949 4.012-0.484 1.278-0.801 1.918-1.248 2.795-2.818 3.691 1.459 5.938 3.465 8.668 6.404 1.237 2.184 2.479 4.816 3.127 6.705 -0.899 3.105-0.162 5.756-1.488 8.238 -8.355-0.941-18.79-1.248-28.036-1.953 -0.292 0.197-0.705-0.059-0.928 0.396 -1.479-0.824-2.735-0.104-3.757-0.77 -6.985-0.492-14.525-0.119-21.195-1.271 -6.739-0.854-13.777-2.562-20.361-3.123 -2.157 0.344-3.468 0.463-5.862-0.354 -3.798-0.271-7.559-0.379-11.146-1.301 0.517-3.705 3.174-8.238 5.16-10.553 0.761-2.275 1.561-3.92 3.232-5.6 2.456-5.768 7.863-13.729 11.684-18.219 0.404-0.402-0.145-0.553 0.056-0.902 1.933-1.799 2.894-4.014 4.188-6.445 1.197-2.25 3.014-4.168 3.912-6.375 1.867-1.908 4.217-5.244 6.103-8.143 4.982-7.654 9.427-16.355 12.716-24.854 1.084-2.801 2.519-6.004 4.049-8.629 0.921-0.426 1.942-0.477 2.86-0.914 9.26 0.797 17.307 0.059 26.036 0.568 1.108-1.012 3.137 0.137 3.486-0.787 3.845 0.453 10.883-1.098 15.562 0.119 0.282-0.254 4.124-0.521 4.334 0.17 0.222 0.09 0.332-0.234 0.479-0.424 2.441 0.734 5.662 0.852 8.293 0.588 0.258 0.129 0.513 0.258 0.425 0.479 2.853-0.254 5.812 0.828 9.02 0.541 1.654 0.91 3.671 0.184 5.735 0.979 0.438-0.02 0.855-0.115 1.277-0.195 4.49 1.115 9.107 1.668 12.775 1.311C421.826 113.102 431.604 112.245 440.849 114.551z"/><path fill="#C4C3C3" d="M259.889 67.934c-9.841-7.453-23.297-12.699-33.023-18.367 0.062-3.59 2.264-5.82 3.928-9.631 4.644-10.637 9.396-22.352 16.812-32.754 2.676 2.545 3.804 6.146 5.799 8.948 0.416 0.585 1.166 0.812 1.548 1.359 1.075 1.537 1.965 3.494 2.858 5.152 1.004 1.857 2.201 3.264 3.412 5 1.938 2.783 3.644 5.986 5.523 9.023 0.648 1.047 1.23 2.344 1.891 3.189 1.787 2.301 3.172 4.848 5.28 7.016 0.826 2.195 2.288 4.219 4.158 6.135 3.198 6.08 7.924 11.039 11.026 16.865 2.299 1.799 2.596 4.924 4.785 6.26 5.065 7.912 12.932 15.074 17.715 23.061 2.714 2.34 5.147 5.146 6.957 7.75 -0.195 1.912-1.735 2.949-2.626 4.551 -2.333 4.197-3.22 8.898-5.119 12.908 -2.745 5.791-7.309 12.953-11.391 19.322 -0.544 0.85-0.815 2.242-1.688 2.521 -3.77 4.781-5.448 8.684-8.404 13.346 -0.403 0.635-1.197 1.41-1.436 1.271 -2.949 5.832-7.625 10.422-10.646 16.018 -3.436 6.359-6.803 12.764-11.061 18.348 -0.709-0.65-1.373-1.309-1.595-2.088 -4.721-3.15-7.663-7.959-10.569-12.404 -7.758-8.621-12.219-18.742-19.376-27.051 -1.401-2.838-3.084-5.631-4.749-8.342 -3.306-5.381-6.345-11.24-10.328-16.461 -1.918-2.514-4.097-5.18-4.75-8.342 1.83-0.545 2.373-2.209 3.797-2.939 4.647-2.383 11.096 1.975 15.218 4.354 -0.391 4.195 2.706 7.459 6.243 10.604 1.016 0.109 1.938-0.135 3.204 0.916 5.032 0.715 7.96 0.057 12.782-0.32 4.027-1.658 8.201-5.75 10.994-9.748 2.51-3.594 4.352-6.172 5.779-8.797 0.688-0.852 0.721-0.711 1.359-1.547 0.062-0.324-0.176-0.117-0.276 0.072 4.233-7.633 9.304-16.543 9.433-24.418 0.101-6.221-1.746-12.34-6.639-17.596C271.714 68.055 265.402 65.368 259.889 67.934z"/><path fill="#FFFFFF" d="M368.421 137.362c1.418-1.232 3.087 0.006 4.758 0.646 2.332 0.896 5.25 1.342 6.529 2.836 4.552 1.008 7.598 3.32 11.629 5.314 0.562 0.279 1.38 0.977 2 1.389 2.214 1.473 5.72 2.352 7.127 3.414 0.525 0.398 1.201 1.332 2.071 1.664 1.34 0.508 3.443 2.203 5.452 2.68 3.087 2.359 7.318 4.084 10.194 6.586 0.612 0.533 0.414 0.547 1.125 0.883 1.465 0.695 5.276 4.871 6.312 6.443 0.216 0.328 0.006 0.791 0.194 1.279 0.365 0.947 1.271 2.088 1.541 2.99 0.054 0.178-0.293 0.65-0.229 0.801 0.469 1.109 0.639 2.486 0.659 4.111 0.021 1.82-0.145 3.756-0.453 6.039 -0.083 0.27 0.354 0.398 0.599 0.578 -1.217 1.104-1.118 3.543-1.301 5.084 -0.885 1.332-1.66 4.342-1.777 5.504 -2.096 2.352-2.93 5.475-4.398 8.426 -0.458 0.92-1.396 1.564-1.865 2.424 -0.785 1.436-0.945 3.146-1.725 4.604 -0.642 1.194-1.933 2.137-2.646 3.37 -0.698 1.205-2.053 3.843-3.159 5.875 -1.866 3.433-3.725 6.775-4.708 10.58 -0.142 0.578-0.509 0.312-0.68 0.772 -0.211 1.834-1.448 4.763-2.606 5.729 -0.756 2.955-3.692 8.449-5.618 12.154 -0.338 0.651-2.957 3.397-2.729 4.726 -0.708 0.633-1.579 1.114-1.588 2.348 -2.58 2.242-4.308 7.248-6.661 9.92 -0.059 0.066-1.365 0.275-0.882 1.125 -1.556 0.637-3.034 1.559-4.571 2.26 -7.083-0.637-16.354-2.23-23.678-6.672 -8.869-5.379-16.152-12.498-11.962-20.904 0.751-1.508 1.896-3.582 3.058-5.701 1.81-3.295 4.665-5.656 6.034-10.047 1.335-0.824 3.695-5.182 3.712-6.023 1.131-1.682 2.562-3.219 3.556-4.944 1.4-2.442 1.646-5.216 3.14-7.054 0.469-1.9 0.789-3.76 1.428-5.707 -0.355-0.496 0.143-1.221-0.167-1.73 1.912-2.23-0.385-4.367-0.422-6.543 -0.834-2.168-2.581-3.582-3.937-5.305 -0.313-0.398-0.941-1.568-0.721-1.582 -5.052-4.15-11.047-6.699-16.67-10.324 -5.115-4.607-3.467-11.619-2.506-17.078 1.271-2.037 1.654-4.203 2.911-6.252 1.806-2.947 4.502-4.967 5.973-7.518 0.763 0.268 1.188-0.723 1.71-1.346 1.724-0.93 3.36-1.648 5.104-3.586 2.813-0.268 4.657-3.836 7.836-3.875C365.904 137.545 367.554 137.252 368.421 137.362z"/><path fill="#FFFFFF" d="M259.968 72.647c1.347 1.244 3.343 1.934 4.697 3.178 3.338 3.062 4.72 6.99 4.964 10.799 -0.613 3.779-0.605 7.98-2.434 11.893 -2.233 4.787-6.133 9.275-8.553 12.793 -4.518 3.199-7.186 7.055-12.045 9.145 -2.802-0.068-6.505-0.922-9.721-0.945 -1.984-1.008-3.973-2.08-6.454-2.561 -0.691-0.109 0.193-0.643-0.498-0.754 -2.057-0.5-5.196-2.52-7.054-3.139 -1.615-0.098-3.652 0.912-5.667 0.928 -3.428 2.912-7.025 6.459-9.972 10.807 -2.167 3.195-3.746 6.383-5.401 8.547 -1.004 2.73-1.415 4.35-2.91 6.252 -0.096 0.311 0.396 0.025 0.249 0.379 -2.502 6.031-4.942 13.357-8.251 18.332 -1.438 0.703-2.81 1.656-4.222 2.463 -0.532-0.332-0.817 0.262-1.427-0.357 -6.938 1.104-15.52-1.453-21.458-4.457 -2.297-1.162-4.609-3.234-6.669-5.016 -5.222-4.52-8.921-8.615-10.287-14.107 -0.544-2.188-0.767-3.418-0.098-5.889 0.688-2.547 2.193-5.924 3.394-8.305 1.479-2.932 3.199-6.057 4.978-9.025 0.289-3.391 3.191-7.15 4.635-10.855 0.407-1.047 0.153-2.318 1.441-2.9 1.252-3.949 2.728-8 4.587-11.584 1.842-3.549 4.823-7.43 5.712-10.701 0.274-0.629 0.734-0.57 1.132-0.746 3.957-7.633 9.734-12.828 15.723-19.152 0.814-0.457 1.704-0.629 2.289-1.943 0.653-0.691 1.564-0.418 2.088-1.596 1.519-0.406 2.994-0.971 4.294-2.186 3.887-0.754 7.295-2.525 11.115-2.684 2.479-0.102 4.778 0.971 7.64 0.912 1.182 0.549 1.818 0.932 3.028 0.814 6.262 2.113 12.042 4.633 17.633 7.848 3.525 2.029 7.385 3.211 11.004 5.188 1.258 0.686 2.369 1.629 4.099 2.6 2.935 1.646 5.882 3.893 8.244 5.926C260.115 72.452 260.277 72.733 259.968 72.647z"/><path fill="#E2E3E4" d="M409.249 232.326c5.473 6.902 9.026 14.176 14.694 20.613 -0.033 0.403 0.172 0.742 0.02 1.178 1.911 4.07 5.415 7.494 7.293 11.211 0.213 0.418 1.293 1.832 1.669 2.361 0.235 0.334 0.054 1.051 0.37 1.381 0.209 0.217 0.453 0.658 0.498 0.754 0.42 0.912 1.955 1.789 2.745 2.52 -0.387 0.877 2.279 3.652 2.812 4.424 0.9 1.297 2.522 4.072 2.665 3.869 0.055 0.73 0.632 2.094 1.596 2.088 -0.134 1.465 2.005 3.705 3.559 5.555 -0.137 1.025 1.114 2.46 1.919 2.74 0.046 1.172 3.079 3.881 3.659 5.379 0.675 0.084 2.354 2.574 2.866 3.521 0.361 0.248 4.669 5.85 5.551 8.57 -3.983 0.988-11.698-0.398-12.002-0.629 -3.335 0.065-6.738-0.123-10.197-0.521 -0.778 0.154-8.756 0.078-9.048-0.09 -5.361-0.586-11.038-0.393-15.959-1.049 -0.521 0.635-2.631 0.113-2.981-0.09 -1.374 0.209-3.736-0.338-4.535 0.18 -4.231-0.533-9.512-1.07-13.483-0.084 -2.543-0.477-4.706 0.469-7.242 0.02 -0.333-0.137-3.452 0.57-5.339-0.051 -5.701 0.471-12.123-0.84-17.439-0.502 -6.462-1.871-15.049-3.166-20.967-2.074 -2.688-1.762-6.137-6.342-6.036-6.518 -2.384-2.418-4.07-5.023-5.604-7.668 -11.044-10.242-18.458-21.672-26.167-33.072 -0.894-1.322-2.132-2.316-3.041-3.623 -0.749-1.08-1.136-2.514-1.863-3.643 -3.204-4.967-6.928-9.361-9.588-13.701 -2.86-4.666-4.763-9.473-7.683-13.768 -3.202-3.332-4.817-7.092-6.868-10.732 -1.869-2.703-4.47-5.21-5.026-8.267 0.131 0.119 0.204 0.029 0.276-0.072 3.774-0.637 8.166 1.035 12.001 0.629 0.617 0.518 2.517 0.672 3.582 0.668 7.308-0.027 13.859 1.895 21.74 2.754 6.548 1.549 11.91-0.102 18.013 1.533 6.042-0.033 12.169 0.607 18.867 0.859 3.344 0.127 6.695 1.057 10.195 0.523 1.289 0.918 2.567 0.258 4.531 1.447 -0.048 0.309 0.025 0.586 0.222 0.83 -4.316 8.379-9.95 17.014-15.32 24.516 -0.753-0.133-0.865 0.029-1.501-0.633 -0.57 0.266-1.271 0.047-2.054-0.486 -1.893-0.068-3.572 0.648-5.393 0.854 -2.415 1.332-6.359 4.4-6.275 8.041 -1.813 5.533 1.331 12.65 5.117 15.787 1.494 2.644 4.502 5.088 7.085 7.123 1.604 1.267 3.987 2.875 5.499 3.408 4.722 3.971 10.079 4.592 15.452 7.988 0.118-0.129 0.026-0.205-0.073-0.275 2.32 1.654 7.699 2.223 10.531 3.982 4.106 0.043 10.264 2.629 14.562 0.238 0.616 0.922 1.403-0.56 2.354-0.039 2.766-1.424 3.823-2.689 6.438-4.684 0.318-0.332-0.191-0.441-0.049-0.728 3.551-3.746 0.586-10.297-3.806-11.996 -0.038-0.481 0.117-1.019-0.369-1.379 1.041-0.563 0.849-2.606 2.066-2.771 -0.067-0.279-0.142-0.556-0.221-0.83 3.009-2.984 5.214-8.402 7.42-12.047 0.211-0.347 0.303-0.556 0.653-0.32C404.677 241.637 406.326 237.455 409.249 232.326z"/><path fill="#FFFFFF" d="M158.306 160.235c2.64 1.613 5.86 4.885 9.294 6.531 2.419 1.16 5.639 1.461 8.285 2.217 3.844 1.1 8.121 2.219 12.271 2.186 2.796-0.023 6.374-1.189 8.132-2.771 1.183-1.064 3.131-3.684 3.557-4.945 0.968-2.883 0.393-6.791-2.67-8.309 -1.521 1.689-2.361 3.412-3.582 5.398 -2.195 1.244-4.519 2.742-7.332 3 0.056-0.098-6.13 0.012-8.67-0.34 -1.279-0.178-2.71-1.119-4.254-1.523 -0.937-0.244-2.042-0.027-2.88-0.262 -4.03-1.127-5.686-2.938-8.729-3.875l-3.526-1.568c-1.705-2.717-4.914-4.055-7.389-6.6 -0.318-0.328-0.307-0.918-0.646-1.305 -1.702-1.947-3.819-3.305-5.041-5.01 -0.422-1.225-0.479-2.807-1.514-3.441 -0.286-1.648-1.053-3.168-1.432-4.793 0.4-1.686-0.143-3.117 0.197-4.785 0.929-0.176 1.995-2.203 1.468-3.352 -3.061-2.301-8.037-0.572-10.266 3.639 -1.03 4.268 0.225 7.926 1.477 11.584 5.765 8.588 14.691 12.182 22.2 17.717L158.306 160.235z"/><path fill="#FFFFFF" d="M355.744 271.658c-6.267-2.492-13.485-7.545-18.763-13.166 -4.317-4.598-7.04-11.598-2.956-17.105 1.753-1.209 3.022-1.613 4.598-2.711 0.779 0.68 2.101-0.346 3.332 0.291 0.339 0.354 0.133 0.852 0.471 1.205 -3.459 4.197-1.679 8.715-0.758 12.627 1.521 2.242 3.256 4.025 4.157 6.135 2.058 1.371 4.2 2.719 5.169 4.383 1.854 0.654 2.819 2.683 5 2.652 1.836 2.467 4.831 2.402 7.229 3.24 1.16 0.406 2.138 1.484 3.324 1.92 0.867 0.318 1.598-0.074 2.531 0.062 3.176 0.461 6.288 1.213 9.289 2.096 1.512 0.01 2.119-0.23 3.606 0.217 1.756 0.109 3.142-1.162 4.793-1.432 -0.045-2.539 2.605-2.484 2.803-4.449 0.894 0.596 2.604 1.1 3.499 2.02 2.948 3.037-0.136 6.679-2.695 8.711 -2.453 0.41-4.64 1.812-7.25 1.646 -0.551-0.148-1.929-0.207-2.632 0.113 -6.992-1.443-13.358-2.662-21.497-6.812L355.744 271.658z"/><path fill="#EFEDED" d="M454.158 322.645c-0.65 1.049-1.809 2.115-1.368 3.179 -1.415 1.821-3.327 5.288-3.745 8.102 -1.316 1.625-2.857 3.619-2.58 5.277 -0.231 0.594-2.23 2.153-1.542 3.073 -2.819 2.978-6.177 11.357-6.714 10.824 -2.247 3.814-3.276 6.828-5.233 10.275 -0.264 0.465-0.594 0.396-0.956 0.85 -0.936 1.16-1.215 3.195-2 4.676 -4.147 7.804-9.018 17.248-13.418 24.449 -0.561 0.918-1.74 1.4-1.34 2.728 -0.968 0.922-2.059 3.264-2.121 3.674 -0.223 1.455-0.34 1.115-0.938 2.025 -0.377 0.575-0.055 1.457-0.309 2.153 -0.115 0.314-0.591 1.377-1.24 2.549 -0.235 0.427-0.617 0.648-0.533 1.328 -0.727 0.041-2.52 0.228-3.229-0.467 -7.021 1.479-15.646 0.697-23.937 0.646 -3.073-0.021-6.299-0.199-9 0.637 -0.599-0.576-0.829 0.219-1.428-0.357 -0.157 0.238-0.29 0.213-0.827 0.222 -7.271 0.362-15.445-1.033-22.906 0.073 -1.705-0.536-4.436-0.446-6.415-0.202 -1.687-0.408-3.217-0.229-4.712 0.077 -4.332-0.809-7.36 0.293-11.477-0.325 -0.467-0.086-0.791 0.358-1.204 0.471 -3.699-1.205-8.187-0.389-12.677-1.486 -0.606 0.679-1.69-0.43-2.279 0.316 -0.769-0.805-1.85-0.56-2.706-0.162 -2.842-0.85-5.299-0.268-8.092-0.938 -0.344 0.006-0.705-0.058-0.93 0.397 -4.306-0.777-8.746-0.188-12.121-1.633 0.676-4.146 3.023-6.492 3.477-9.658 1.941-1.205 2.919-5.959 3.893-7.553 2.938-4.804 5.311-10.173 8.614-15.32 1.411-2.2 3.116-4.129 4.364-6.346 0.423-0.755 0.517-1.74 0.963-2.479 1.504-2.49 3.422-4.502 4.842-6.77 1.591-2.541 2.758-5.289 3.895-7.553 2.437-4.857 6.294-9.104 8.33-13.621 3.065-2.637 4.565-7.338 7.111-9.894 -0.492-0.629 1.69-2.832 1.899-4.502 0.188 0.121 1.038-1.062 1.487-2.174 0.778-1.92 1.527-3.832 2.155-5.754 0.353-1.078 1.206-2.076 1.646-3.252 0.485-1.312 0.212-2.336 1.394-3.627 0.323-0.082 0.733 0.157 1.15 0.43 2.648-0.33 5.15-0.914 7.243-0.017 2.98 0.138 4.446-0.336 7.288 0.709 1.261-0.038 2.437-0.049 3.307 0.74 7.653 0.951 15.184 1.773 22.023 1.051 6.912 1.384 26.389-0.436 28.144 0.15 3.205-0.918 17.287 1.26 18.894 0.41 9.618 1.488 18.421 0.629 27.732 2.479 1.02-0.426 2.081-0.202 3.204 0.918 -0.711 0.634 0.202 0.832-0.357 1.427 -1.279-0.649-0.678 3.137-2.498 3.924C455.76 319.404 454.265 321.359 454.158 322.645z"/><path fill="#EFEDED" d="M227.482 265.498c-0.602-0.332-1.253-0.65-1.198-1.158 -6.698-4.133-11.411-12.08-17.211-17.871 -2.25-4.08-6.546-7.613-8.896-11.668 0.959-0.902 0.864-2.26 1.569-3.525 -0.44-2.235-0.157-4.147-0.624-6.192 -0.576-2.517-3.015-4.824-5.034-6.64 -0.771-0.692-1.704-1.42-2.597-1.967 -7.926-4.846-15.392-0.205-22.112 1.933 -4.773 3.348-9.416 7.188-13.985 11.289 -0.389 0.838-0.86 1.776-1.159 1.198 -1.87 3.056-5.475 6.22-7.488 10.144 -0.071 0.137-0.031 0.836-0.156 1.076 -1.543 2.963-3.475 6.467-4.681 10.129 -2.826 8.573-5.859 15.623-2.586 23.471 2.28 5.466 8.421 10.318 14.772 8.763 1.147 1.51 1.892 3.606 3.162 4.627 1.036 3.418 4.522 6.184 5.396 9.647 -1.465 0.058-3.568 0.658-4.711 0.078 -0.919 0.063-1.695 0.666-2.733 0.287 -6.922 1.032-14.519-0.455-21.627-0.121 -4.531-0.897-8.575 0.015-13.3-1.613 -0.365 0.298-0.885 0.009-1.206 0.474 -3.989-0.941-9.068 0.014-13.152-1.062 -3.19 0.426-6.347-0.484-10.125-0.246 -2.475-0.955-4.422 0.055-6.838-0.682 -0.752-0.219-4.157 0.602-5.312-0.5 -1.602-1.527 1.445-3.953 1.181-6.084 2.972-4.238 4.563-6.539 7.515-10.592 2.308-7.082 7.077-12.957 10.688-19.728 0.705-1.319 0.823-2.928 1.522-4.254 0.705-1.334 1.868-2.461 2.673-3.821 1.334-2.25 2.568-5.089 4.068-7.449 0.381-0.603 1.163-1.103 1.462-1.726 1.188-2.476 2.548-6.139 4.149-8.803 2.482-4.132 5.787-8.123 8.775-11.966 1.97-2.532 4.092-4.85 5.872-7.342 1.512-2.117 2.667-4.541 4.188-6.446 0.614-0.768 1.529-1.287 2.113-2.045 0.774-1.002 0.751-1.826 1.415-2.449 0.31-0.291 1.027-0.158 1.481-0.545 0.841-0.717 1.271-1.959 2.243-2.672 1.908 0.033 3.331-0.08 5.587 0.426 7.611-0.404 16.33 2.873 23.201 1.031 7.612 0.33 13.776 0.738 21.729-0.055 0.447 0.232 0.732-0.016 0.875 0.506 4.118-1.01 8.224-0.256 12.184-0.898 1.93 0.594 4.62 0.705 7.464 0.811 2.102 0.076 4.519 0.141 6.819-0.496 2.212 0.807 5.124-0.318 7.768 0.285 2.316-0.373 4.851 0.07 7.243-0.018 0.368-0.277 0.812-0.285 1.205-0.471 0.636 0.645 1.312-0.008 1.501 0.633 5.251-1.012 11.15 0.4 16.345-0.83 0.515 0.744 1.29-0.01 1.951 0.66 1.749-0.465 3.753 0.025 5.836 0.803 -0.282 3.982-2.483 7.844-3.962 11.71 -0.225 0.211-0.145-0.107-0.352-0.201 -4.009 9.127-10.369 15.496-15.268 23.615 -1.057 1.75-1.734 3.631-2.68 5.451 -2.127 4.096-5.403 7.518-7.745 11.393C232.296 257.781 230.255 261.875 227.482 265.498z"/><path fill="#C4C3C3" d="M140.375 196.543c-1.621 2.906-3.92 5.232-5.724 7.893 -5.236 7.724-10.731 15.669-16.814 22.255 -2.204 2.779-3.704 6.649-5.611 10.524 -1.566 3.185-3.921 6.068-5.805 9.248 -0.439 0.742-0.471 1.752-0.963 2.476 -0.908 1.334-1.981 2.506-2.977 4.35 -1.397 2.588-2.775 6.258-4.554 9.502 -1.123 2.049-2.337 4.346-3.637 6.299 -0.595 0.895-1.486 1.613-1.966 2.598 -1.075 2.207-1.635 4.658-2.762 6.806 -1.271 2.422-3.472 4.174-5.017 6.668 -1.532 2.476-2.276 5.096-3.892 7.551 -1.678-1.19-1.645-3.26-2.61-4.772 -1.271-1.988-2.969-3.502-4.664-5.256 -0.794-0.824-1.303-2.031-2.092-2.845 -0.98-1.008-2.149-1.719-3.096-2.719 -3.129-3.302-6.223-6.914-9.326-10.519 -3.372-3.219-6.524-5.988-8.579-9.385 -0.923 0.203-0.55-0.838-1.474-1.086 0.104-1.221-1.03-1.711-1.567-2.537 -1.279-1.973-2.031-4.238-3.155-6.256 -1.21-2.174-2.802-4.105-3.956-6.482 -1.725-3.553-3.537-7.108-4.965-10.799 -0.471-1.219-0.901-2.709-1.587-3.717 -0.491-0.719-1.579-1.102-1.317-2.16 -0.587-0.287-0.563-0.736-1.3-0.981 -2.839-6.017-7.222-11.191-10.024-16.986 -0.35-0.201-0.7-0.404-1.05-0.605 -0.489-2.154-3.065-5.053-4.352-7.414 -0.135-0.248 0.025-0.768-0.122-1.002 -2.235-3.615-6.196-6.508-3.638-10.268 1.076-6.926 8.097-10.543 9.691-15.168 3.969-4.775 6.054-12.406 8.749-17.58 2.916-5.596 7.598-10.504 10.796-15.463 0.04-0.986 0.933-2.461 1.893-2.875 3.969-7.566 9.63-12.559 13.899-20.438 4.172-5.367 6.403-12.383 10.985-18.623 8.082 7.658 13.701 18.539 19.127 26.676 0.961 1.172 1.378 2.49 2.867 3.521 3.279 5.883 7.136 10.014 10.509 14.934 1.387 2.023 3.206 4.158 4.231 6.41 3.038 1.932 3.137 5.152 5.659 6.766 -0.182 0.443 0.77 0.582 0.296 1.104 3.766 4.338 6.252 8.582 9.339 13.324 1.971 1.105 2.574 3.426 3.687 4.928 0.241 0.324 0.696 0.059 0.802 0.23 0.223 0.363 0.16 0.703 0.646 1.307 4.382 5.451 9.553 10.879 13.255 17.451C139.73 193.69 139.926 195.506 140.375 196.543z"/><path fill="#FFFFFF" d="M282.688 277.773c-0.82-0.861-2.502-2.328-3.25-1.646 -0.602-0.731-1.894-0.854-2.681-0.612 -0.694-0.982-3.178-0.4-4.03-0.695 -0.199-0.068-0.002-0.545-0.147-0.551 -1.067-0.047-2.938 0.889-4.313 1.008 -0.306 0.027-0.609-0.346-0.978-0.33 -1.468 0.066-3.575 0.906-5.595 1.203 -0.846 0.125-1.741-0.324-2.43-0.236 -0.742 0.096-2.082 0.375-2.384 0.49 -1.041 0.402-2.698 0.637-3.965 1.211 -1.382-0.652-3.396 0.957-5.789-0.076 -0.685 0.764-1.832-0.215-2.56 0.391 -5.901-1.885-10.308-2.859-15.681-7.188 -0.486-0.342-0.767 0.086-1.251-0.256 -1.379-2.412-4.06-3.135-6.043-4.891 -0.767-0.677-1.031-1.556-1.844-2.464 -2.847-3.176-8.277-7.559-10.248-11.748 -0.767 0.146-1.05-1.094-1.17-1.61 -5.29-6.021-9.885-11.267-13.808-17.303 -1.777-0.904-2.394-2.119-2.691-3.421 -1.734-1.771-4.637-2.077-6.831-2.311 -2.907 0.784-6.365 1.35-8.988 3.44 -1.778 1.42-2.557 3.9-4.633 4.793 -0.41 1.492-2.027 1.81-2.094 3.224 -1.792 1.288-3.237 3.336-4.484 5.342 -1.739 2.801-2.719 5.724-4.049 8.631 -0.353 0.771-1.219 1.424-1.488 2.172 -0.319 0.892-0.165 1.724-0.512 2.505 -1.559 3.508-3.309 6.866-3.604 10.284 1.34 8.447 2.958 17.339 8.964 24.074 2.086 4.862 7.138 8.935 9.588 13.701 1.362 0.184 1.628 2.268 3.021 2.442 -0.002 1.084 1.99 1.637 1.918 2.74 1.509 0.582 1.134 1.668 2.671 2.242 2.471 2.65 5.492 5.225 8.614 7.305 0.072 0.049 0.146 0.092 0.218 0.139h25.02c12.106 0 23.09 4.777 31.193 12.539 6.842-0.489 13.621-1.215 19.668-4.668 2.09-2.971 5.385-3.399 7.502-7.336 0.65-0.146 1.143-0.891 1.783-1.067 1.737-3.093 3.523-6.941 4.379-9.604 3.612-6.023 4.358-14.226 6.16-21.175C285.389 284.746 285.042 280.744 282.688 277.773z"/><path fill="#FFFFFF" d="M282.688 277.773C282.833 277.957 282.984 277.547 282.688 277.773L282.688 277.773z"/><path fill="#C4C3C3" d="M332.29 298.945c-2.516-4.404-5.919-8.57-10.295-12.478 -0.995-2.338-3.823-4.217-5.585-6.489 -2.953-3.812-5.787-8.271-8.82-11.394 -0.118-0.51-0.426-0.969-0.545-1.479 -2.003-1.83-3.012-3.926-3.982-6.033 -1.617-1.145-1.812-2.67-3.391-3.824 -2.786-5.697-7.166-10.219-10.005-15.809 -0.688-0.209-0.522-0.648-1.124-0.881 -5.33-10.42-13.114-21.16-19.529-32.042 -0.443 0.109-1.031-0.998-1.549-1.359 -0.501 1.086-0.759 1.367-0.761 2.127 -5.444 11.021-12.129 20.738-19.006 30.089 -1.273 2.063-1.884 4.729-3.313 6.951 -1.447 2.25-3.389 4.123-4.641 6.42 -1.379 2.532-2.623 4.979-4.27 7.801 -1.538 2.636-4.727 4.943-4.445 7.699 2.021 1.037 4.935 3.575 6.852 3.487 1.494 1.398 3.323 1.078 4.879 1.65 5.812 2.139 11.967-0.412 17.899-1.098 2.956-0.342 5.737-0.623 8.474-0.939 1.614-3.522 3.566-5.738 6.074-7.69 4.5-0.857 9.729-0.863 14.074 2.293 2.818 2.045 4.898 4.875 6.783 7.646 0.469 2.441 1.645 4.512 1.748 7.076 0.053 1.338-0.438 2.613-0.42 3.957 0.01 0.686 0.433 1.389 0.418 2.107 -0.023 1.141-0.151 2.629-0.317 3.783 -0.94 6.506-1.392 13.396-3.798 19.506 0.562 1.604-0.59 2.783-1.07 4.281 -0.742 2.311-1.529 5.016-2.688 7.079 -0.451 0.802-1.313 1.459-1.767 2.248 -1.353 2.365-2.135 5.027-3.517 7.304 -1.396 2.301-3.313 3.741-5.034 5.487 -0.813 0.826-1.323 2.007-2.244 2.675 -1.751 1.27-3.935 1.116-5.647 2.104 -2.727-0.24-6.11 0.008-8.688-1.519 0.112 0.051 0.224 0.094 0.276-0.074 -0.227-0.104-0.445-0.188-0.553 0.148 -1.75-1.652-3.408-3.328-5.039-5.01 -2.779 0.688-5.453 0.92-8.117 1.029 6.648 7.856 10.668 18.008 10.668 29.105 0 1.256-0.064 2.495-0.166 3.725 0.488 0.8 0.963 1.599 1.412 2.396 0.35 0.203 0.698 0.404 1.051 0.607 -0.543 0.438 0.488 0.461-0.055 0.9 1.241 0.524 1.92 2.295 2.69 3.42 7.063 7.812 11.483 16.809 17.911 24.338 4.331-7.619 6.473-14.148 11.929-22.275 2.091-4.938 4.216-8.125 7.521-12.221 4.185-7.699 9.46-16.453 14.42-24.572 3.833-6.271 8.531-12.053 12.062-18.467 2.712-4.926 4.481-10.146 6.958-14.881 0.012-0.742 0.193-1.529 0.411-2.328 0.175-0.822 0.782-0.025 0.957-0.848C335.467 302.395 334.446 300.475 332.29 298.945z"/><path fill="#7DC144" d="M112.714 354.912c0.192-0.814 0.433-1.68 0.721-2.592s0.563-1.704 0.828-2.377l2.951-7.416c0.24-0.6 0.553-1.271 0.937-2.017 0.384-0.743 0.768-1.392 1.152-1.942 -0.337-0.024-0.732-0.066-1.188-0.127 -0.456-0.061-0.853-0.139-1.188-0.233 -0.049-0.192-0.103-0.433-0.162-0.72 -0.061-0.288-0.108-0.588-0.145-0.9 -0.036-0.312-0.066-0.617-0.09-0.918 -0.024-0.3-0.036-0.559-0.036-0.773h9.828c-0.024 0.239-0.066 0.517-0.126 0.828 -0.061 0.312-0.126 0.629-0.198 0.953 -0.071 0.324-0.149 0.631-0.233 0.918 -0.085 0.288-0.175 0.541-0.271 0.756 -0.288 0.072-0.611 0.133-0.972 0.182 -0.361 0.048-0.685 0.084-0.972 0.107l-10.225 22.211h-4.319l-5.832-22.248c-0.288-0.047-0.595-0.106-0.918-0.18 -0.324-0.072-0.619-0.154-0.883-0.252 -0.12-0.408-0.216-0.941-0.288-1.602 -0.071-0.66-0.107-1.219-0.107-1.676h11.16c-0.049 0.457-0.181 1.026-0.396 1.711 -0.216 0.685-0.42 1.267-0.612 1.746 -0.144 0.049-0.336 0.084-0.575 0.107 -0.24 0.023-0.492 0.055-0.756 0.09 -0.265 0.036-0.522 0.061-0.774 0.072 -0.252 0.013-0.45 0.018-0.594 0.018 0.239 0.48 0.497 1.068 0.773 1.766 0.275 0.695 0.486 1.367 0.63 2.016l1.729 7.523c0.167 0.697 0.324 1.488 0.468 2.377 0.145 0.888 0.228 1.752 0.252 2.592H112.714L112.714 354.912z"/><path fill="#7DC144" d="M123.623 346.775c0-0.168 0.023-0.401 0.072-0.701 0.047-0.301 0.113-0.612 0.197-0.938 0.084-0.324 0.181-0.623 0.288-0.898 0.108-0.276 0.222-0.475 0.342-0.596 0.552-0.334 1.248-0.588 2.088-0.756 0.84-0.166 1.68-0.252 2.521-0.252 0.312 0 0.678 0.03 1.098 0.09 0.42 0.062 0.798 0.139 1.135 0.234l-1.584 13.464c0 0.097 0.018 0.211 0.054 0.343 0.036 0.133 0.065 0.223 0.09 0.271l2.52-0.252c0 0.216-0.03 0.468-0.09 0.756s-0.132 0.588-0.216 0.899 -0.187 0.605-0.306 0.883c-0.12 0.275-0.24 0.51-0.36 0.701 -0.312 0.121-0.702 0.239-1.17 0.359 -0.468 0.12-0.954 0.229-1.458 0.324 -0.504 0.096-1.008 0.174-1.512 0.234 -0.504 0.06-0.948 0.09-1.332 0.09 -0.168-0.17-0.349-0.391-0.54-0.666 -0.192-0.276-0.372-0.576-0.54-0.9s-0.306-0.643-0.414-0.954c-0.108-0.312-0.162-0.575-0.162-0.792l1.8-11.16L123.623 346.775zM129.418 332.88c0.912 0 1.644 0.265 2.196 0.792 0.552 0.528 0.827 1.296 0.827 2.305 0 1.057-0.287 1.871-0.863 2.447 -0.576 0.576-1.296 0.864-2.16 0.864 -2.064 0-3.096-1.104-3.096-3.312 0-0.912 0.293-1.656 0.882-2.231C127.792 333.168 128.53 332.88 129.418 332.88z"/><path fill="#7DC144" d="M146.626 342.672c0.24 0.672 0.36 1.464 0.36 2.376 0 0.479-0.036 0.948-0.108 1.404 -0.072 0.456-0.168 0.84-0.288 1.151 -0.336-0.191-0.744-0.349-1.224-0.469 -0.48-0.119-0.924-0.18-1.332-0.18 -0.864 0-1.62 0.275-2.269 0.828 -0.647 0.552-1.164 1.248-1.548 2.088l-0.972 10.404c-0.384 0.07-0.846 0.132-1.386 0.18s-1.087 0.072-1.639 0.072c-0.408 0-0.822-0.02-1.241-0.055 -0.421-0.037-0.774-0.103-1.062-0.197l1.836-13.717 -2.52 0.217c0-0.168 0.023-0.402 0.071-0.702 0.048-0.3 0.114-0.612 0.198-0.937 0.084-0.326 0.181-0.625 0.288-0.9 0.108-0.275 0.222-0.473 0.342-0.594 0.504-0.336 1.092-0.588 1.765-0.756 0.671-0.168 1.367-0.253 2.088-0.253 0.695 0 1.368 0.108 2.016 0.324l-0.396 3.815h0.54c0.144-0.553 0.342-1.092 0.594-1.619 0.252-0.528 0.563-0.996 0.936-1.404s0.822-0.73 1.351-0.973c0.527-0.239 1.14-0.359 1.836-0.359 0.336 0 0.659 0.023 0.972 0.072C146.146 342.54 146.411 342.6 146.626 342.672z"/><path fill="#7DC144" d="M151.306 338.82c0.216-0.12 0.504-0.234 0.864-0.344 0.359-0.106 0.749-0.209 1.17-0.306 0.419-0.096 0.833-0.168 1.242-0.216 0.407-0.048 0.779-0.072 1.115-0.072l-0.611 5.148h4.859c0.048 0.191 0.072 0.384 0.072 0.576v0.539c0 0.408-0.018 0.834-0.054 1.277 -0.036 0.444-0.09 0.834-0.162 1.17h-5.185l-0.792 7.812c-0.096 0.814-0.03 1.428 0.198 1.836s0.762 0.611 1.603 0.611c0.527 0 1.062-0.061 1.602-0.181s1.122-0.274 1.746-0.468c0 0.527-0.114 1.164-0.342 1.908 -0.229 0.744-0.511 1.344-0.847 1.8 -0.792 0.384-1.578 0.666-2.357 0.847 -0.78 0.18-1.507 0.271-2.178 0.271 -1.705 0-2.929-0.402-3.673-1.206 -0.744-0.805-1.115-1.926-1.115-3.366 0-0.456 0.036-1.067 0.107-1.836 0.072-0.769 0.174-1.606 0.307-2.521 0.131-0.912 0.275-1.849 0.432-2.809 0.157-0.96 0.306-1.859 0.45-2.699h-2.772c0.072-0.553 0.216-1.146 0.433-1.783 0.216-0.635 0.419-1.121 0.611-1.457 0.312-0.145 0.66-0.281 1.044-0.414 0.384-0.131 0.757-0.233 1.116-0.307L151.306 338.82z"/><path fill="#7DC144" d="M168.082 342.96c-0.048 0.456-0.12 1.026-0.216 1.71 -0.096 0.684-0.192 1.422-0.288 2.214 -0.096 0.792-0.192 1.608-0.288 2.448 -0.096 0.84-0.18 1.638-0.252 2.395 -0.071 0.756-0.132 1.435-0.18 2.033 -0.049 0.602-0.072 1.057-0.072 1.368 0 0.672 0.108 1.212 0.324 1.62 0.216 0.408 0.588 0.611 1.116 0.611 0.6 0 1.188-0.221 1.764-0.666 0.576-0.443 1.032-0.905 1.368-1.387l1.188-8.748 -2.232 0.182c0-0.168 0.023-0.402 0.072-0.702 0.048-0.3 0.113-0.606 0.197-0.918s0.181-0.606 0.288-0.882c0.108-0.276 0.222-0.475 0.343-0.596 0.552-0.334 1.224-0.588 2.016-0.756 0.792-0.166 1.596-0.252 2.412-0.252 0.312 0 0.672 0.03 1.08 0.09 0.407 0.062 0.768 0.14 1.08 0.234l-1.296 13.464c0 0.097 0.018 0.211 0.054 0.343 0.036 0.133 0.065 0.223 0.09 0.271l2.484-0.252c0 0.216-0.03 0.468-0.091 0.756 -0.06 0.288-0.132 0.588-0.216 0.899s-0.186 0.605-0.306 0.883c-0.12 0.275-0.24 0.51-0.36 0.701 -0.312 0.121-0.702 0.24-1.17 0.359 -0.468 0.12-0.966 0.229-1.494 0.324 -0.527 0.096-1.044 0.174-1.548 0.234 -0.504 0.06-0.936 0.09-1.296 0.09 -0.24-0.408-0.444-0.912-0.612-1.514 -0.168-0.6-0.275-1.127-0.323-1.584h-0.324c-0.216 0.385-0.475 0.764-0.774 1.135 -0.299 0.373-0.666 0.701-1.098 0.99 -0.432 0.287-0.937 0.521-1.512 0.701 -0.576 0.182-1.236 0.271-1.979 0.271 -0.552 0-1.098-0.086-1.638-0.252 -0.54-0.17-1.026-0.444-1.458-0.828 -0.433-0.385-0.78-0.895-1.044-1.53 -0.265-0.636-0.396-1.422-0.396-2.358 0-0.504 0.048-1.17 0.145-1.996 0.096-0.828 0.216-1.698 0.359-2.61 0.145-0.912 0.294-1.806 0.45-2.683 0.156-0.875 0.294-1.613 0.414-2.215l-2.52 0.217c0-0.168 0.023-0.401 0.071-0.701 0.048-0.301 0.114-0.612 0.198-0.938 0.084-0.324 0.18-0.623 0.288-0.898 0.108-0.276 0.222-0.475 0.342-0.596 0.552-0.334 1.248-0.588 2.088-0.756 0.84-0.167 1.68-0.252 2.521-0.252 0.312 0 0.678 0.03 1.098 0.09C167.368 342.786 167.746 342.864 168.082 342.96z"/><path fill="#7DC144" d="M187.125 361.032c-2.28 0-4.003-0.624-5.166-1.872 -1.165-1.248-1.746-3.145-1.746-5.688 0-1.152 0.12-2.269 0.359-3.349 0.24-1.08 0.636-2.101 1.188-3.062 0.768-1.367 1.823-2.482 3.168-3.348 1.344-0.863 2.988-1.296 4.932-1.296 2.256 0 3.984 0.624 5.185 1.872 1.199 1.248 1.8 3.145 1.8 5.688 0 1.226-0.15 2.432-0.45 3.619s-0.762 2.285-1.386 3.293c-0.769 1.226-1.807 2.222-3.114 2.988C190.586 360.646 188.998 361.032 187.125 361.032zM187.809 357.611c0.696 0 1.278-0.203 1.746-0.611 0.468-0.408 0.846-0.948 1.134-1.62 0.336-0.743 0.563-1.584 0.685-2.521 0.119-0.937 0.18-1.859 0.18-2.771 0-1.512-0.168-2.604-0.504-3.275 -0.337-0.672-0.889-1.008-1.656-1.008 -0.647 0-1.218 0.211-1.71 0.629 -0.492 0.422-0.895 0.979-1.206 1.676 -0.359 0.791-0.606 1.674-0.738 2.646 -0.132 0.972-0.197 1.878-0.197 2.718 0 1.488 0.186 2.551 0.558 3.188C186.473 357.296 187.041 357.611 187.809 357.611z"/><path fill="#7DC144" d="M205.773 342.96c-0.048 0.456-0.12 1.026-0.216 1.71 -0.096 0.684-0.192 1.422-0.288 2.214s-0.192 1.608-0.288 2.448 -0.18 1.638-0.252 2.395c-0.071 0.756-0.132 1.435-0.18 2.033 -0.049 0.602-0.072 1.057-0.072 1.368 0 0.672 0.108 1.212 0.324 1.62 0.216 0.408 0.588 0.611 1.116 0.611 0.6 0 1.188-0.221 1.764-0.666 0.576-0.443 1.032-0.905 1.368-1.387l1.188-8.748 -2.232 0.182c0-0.168 0.023-0.402 0.072-0.702 0.048-0.3 0.113-0.606 0.197-0.918s0.181-0.606 0.288-0.882c0.108-0.276 0.222-0.475 0.343-0.596 0.552-0.334 1.224-0.588 2.016-0.756 0.792-0.166 1.596-0.252 2.412-0.252 0.312 0 0.672 0.03 1.08 0.09 0.407 0.062 0.768 0.14 1.08 0.234l-1.296 13.464c0 0.097 0.018 0.211 0.054 0.343 0.036 0.133 0.065 0.223 0.09 0.271l2.484-0.252c0 0.216-0.03 0.468-0.091 0.756 -0.06 0.288-0.132 0.588-0.216 0.899s-0.186 0.605-0.306 0.883c-0.12 0.275-0.24 0.51-0.36 0.701 -0.312 0.121-0.702 0.24-1.17 0.359 -0.468 0.12-0.966 0.229-1.494 0.324 -0.527 0.096-1.044 0.174-1.548 0.234 -0.504 0.06-0.936 0.09-1.296 0.09 -0.24-0.408-0.444-0.912-0.612-1.514 -0.168-0.6-0.275-1.127-0.323-1.584h-0.324c-0.216 0.385-0.475 0.764-0.774 1.135 -0.299 0.373-0.666 0.701-1.098 0.99 -0.432 0.287-0.937 0.521-1.512 0.701 -0.576 0.182-1.236 0.271-1.98 0.271 -0.552 0-1.098-0.086-1.638-0.252 -0.54-0.17-1.026-0.444-1.458-0.828 -0.433-0.385-0.78-0.895-1.044-1.53 -0.265-0.636-0.396-1.422-0.396-2.358 0-0.504 0.048-1.17 0.145-1.996 0.096-0.828 0.216-1.698 0.359-2.61 0.145-0.912 0.294-1.806 0.45-2.683 0.156-0.875 0.294-1.613 0.414-2.215l-2.52 0.217c0-0.168 0.023-0.401 0.071-0.701 0.048-0.301 0.114-0.612 0.198-0.938 0.084-0.324 0.18-0.623 0.288-0.898 0.108-0.276 0.222-0.475 0.342-0.596 0.552-0.334 1.248-0.588 2.088-0.756 0.84-0.167 1.68-0.252 2.521-0.252 0.312 0 0.678 0.03 1.098 0.09C205.059 342.786 205.437 342.864 205.773 342.96z"/><path fill="#7DC144" d="M226.978 345.805c-0.097-0.049-0.259-0.107-0.486-0.181 -0.229-0.072-0.438-0.108-0.63-0.108 -0.433 0-0.822 0.146-1.17 0.434 -0.349 0.287-0.522 0.684-0.522 1.188 0 0.408 0.174 0.77 0.522 1.08 0.348 0.312 0.779 0.624 1.296 0.938 0.516 0.312 1.08 0.63 1.691 0.953 0.612 0.324 1.176 0.715 1.692 1.17 0.516 0.457 0.948 0.984 1.296 1.584 0.348 0.601 0.522 1.32 0.522 2.16 0 1.08-0.229 1.998-0.685 2.754 -0.456 0.757-1.05 1.375-1.782 1.854 -0.731 0.48-1.571 0.834-2.52 1.062 -0.948 0.229-1.914 0.343-2.898 0.343 -1.824 0-3.282-0.312-4.374-0.937 -1.092-0.625-1.674-1.633-1.745-3.023 0.191-0.288 0.468-0.553 0.827-0.792 0.36-0.24 0.762-0.438 1.206-0.595 0.444-0.155 0.912-0.281 1.404-0.379 0.491-0.096 0.966-0.144 1.422-0.144 0.048 0.864 0.271 1.524 0.666 1.979 0.396 0.457 0.87 0.685 1.422 0.685 0.48 0 0.924-0.168 1.332-0.504 0.408-0.337 0.612-0.792 0.612-1.368 0-0.408-0.168-0.768-0.504-1.08 -0.337-0.312-0.756-0.605-1.26-0.882 -0.504-0.274-1.051-0.576-1.639-0.899 -0.588-0.324-1.134-0.721-1.638-1.188 -0.504-0.47-0.924-1.026-1.26-1.675 -0.337-0.647-0.504-1.439-0.504-2.377 0-0.791 0.167-1.518 0.504-2.178 0.336-0.658 0.81-1.229 1.422-1.71 0.612-0.479 1.361-0.856 2.25-1.134 0.888-0.275 1.872-0.414 2.952-0.414 0.792 0 1.655 0.104 2.592 0.307 0.936 0.203 1.848 0.51 2.736 0.918 -0.024 0.647-0.126 1.429-0.307 2.34 -0.18 0.912-0.402 1.691-0.666 2.341 -0.672 0-1.392-0.103-2.16-0.308 -0.768-0.203-1.354-0.438-1.764-0.701L226.978 345.805z"/><path fill="#7DC144" d="M143.801 368.279c-0.697-0.359-1.489-0.539-2.376-0.539 -1.129 0-2.167 0.264-3.114 0.792 -0.948 0.528-1.776 1.266-2.484 2.214 -0.708 0.947-1.26 2.094-1.656 3.438 -0.396 1.346-0.594 2.846-0.594 4.5 0 2.881 0.588 4.976 1.765 6.282 1.175 1.31 2.747 1.962 4.716 1.962 0.455 0 0.972-0.029 1.548-0.09s1.182-0.148 1.818-0.27c0.635-0.12 1.271-0.266 1.907-0.434 0.636-0.167 1.242-0.359 1.818-0.576 0 0.266-0.036 0.56-0.108 0.883 -0.071 0.324-0.162 0.654-0.27 0.99s-0.234 0.66-0.378 0.973c-0.145 0.312-0.288 0.588-0.433 0.826 -1.056 0.554-2.244 1.01-3.563 1.369 -1.32 0.359-2.664 0.539-4.032 0.539 -1.656 0-3.138-0.281-4.446-0.846 -1.308-0.562-2.418-1.368-3.33-2.412s-1.607-2.298-2.088-3.762 -0.72-3.084-0.72-4.86c0-2.256 0.384-4.312 1.152-6.174 0.768-1.858 1.8-3.45 3.096-4.771 1.296-1.319 2.808-2.34 4.536-3.061 1.728-0.72 3.552-1.08 5.472-1.08 1.32 0 2.58 0.156 3.78 0.469 1.2 0.312 2.268 0.721 3.204 1.225 -0.049 0.552-0.12 1.134-0.216 1.746 -0.097 0.611-0.198 1.229-0.307 1.854 -0.107 0.625-0.229 1.23-0.359 1.818 -0.133 0.588-0.271 1.109-0.414 1.564 -0.673 0-1.422-0.102-2.25-0.306 -0.828-0.203-1.494-0.45-1.998-0.737L143.801 368.279z"/><path fill="#7DC144" d="M146.212 376.452c0-0.168 0.024-0.401 0.072-0.702 0.049-0.3 0.114-0.611 0.198-0.938 0.084-0.322 0.18-0.629 0.288-0.918 0.107-0.287 0.21-0.49 0.306-0.61 0.504-0.24 1.092-0.427 1.764-0.56 0.672-0.131 1.368-0.197 2.088-0.197 0.648 0 1.309 0.121 1.98 0.359l2.016 9.217c0.072 0.287 0.138 0.631 0.198 1.025 0.06 0.396 0.113 0.811 0.162 1.242 0.048 0.432 0.096 0.852 0.144 1.26 0.048 0.408 0.072 0.77 0.072 1.08h0.433c0.6-1.535 1.175-3.168 1.728-4.896 0.552-1.729 1.044-3.349 1.476-4.859 0-0.168-0.048-0.372-0.144-0.611l-2.448 0.145c0.023-0.24 0.072-0.518 0.145-0.828 0.071-0.312 0.162-0.618 0.27-0.918 0.108-0.301 0.228-0.576 0.36-0.828 0.132-0.252 0.27-0.45 0.414-0.594 0.264-0.096 0.617-0.187 1.062-0.271 0.444-0.084 0.906-0.154 1.386-0.216 0.48-0.06 0.942-0.108 1.387-0.146 0.443-0.035 0.798-0.053 1.062-0.053 0.145 0.119 0.3 0.329 0.468 0.629 0.168 0.301 0.33 0.631 0.486 0.99 0.156 0.36 0.288 0.721 0.396 1.08 0.107 0.359 0.162 0.648 0.162 0.864 -0.553 1.438-1.188 2.97-1.908 4.59 -0.721 1.62-1.465 3.187-2.232 4.698 -0.769 1.512-1.524 2.892-2.268 4.14 -0.744 1.248-1.417 2.231-2.017 2.952 -1.151 1.344-2.388 2.586-3.708 3.727 -1.32 1.14-2.844 2.069-4.571 2.789 -0.192-0.239-0.378-0.552-0.559-0.936 -0.18-0.385-0.342-0.792-0.485-1.225 -0.145-0.433-0.258-0.858-0.343-1.277 -0.083-0.422-0.126-0.799-0.126-1.135 1.225-0.359 2.388-0.834 3.492-1.422s2.04-1.326 2.809-2.215l-3.816-14.58L146.212 376.452z"/><path fill="#7DC144" d="M174.581 375.984c-0.312-0.12-0.672-0.182-1.08-0.182 -0.601 0-1.14 0.139-1.62 0.414 -0.48 0.276-0.876 0.654-1.188 1.135 -0.265 0.408-0.492 0.863-0.685 1.367 -0.193 0.504-0.342 1.021-0.45 1.549 -0.107 0.527-0.186 1.057-0.233 1.584 -0.049 0.527-0.072 1.021-0.072 1.477 0 2.4 0.984 3.6 2.952 3.6 0.456 0 0.948-0.041 1.476-0.125 0.528-0.085 1.05-0.191 1.566-0.324 0.516-0.131 1.014-0.289 1.494-0.469 0.479-0.18 0.912-0.365 1.296-0.558 0 0.528-0.12 1.146-0.36 1.854 -0.24 0.707-0.516 1.291-0.828 1.746 -0.696 0.504-1.524 0.959-2.483 1.367 -0.96 0.408-2.052 0.612-3.276 0.612 -2.4 0-4.176-0.618-5.328-1.854 -1.151-1.234-1.728-2.922-1.728-5.058 0-1.584 0.222-3.114 0.666-4.59 0.443-1.478 1.134-2.778 2.069-3.906 0.84-0.983 1.872-1.765 3.097-2.34 1.224-0.576 2.592-0.864 4.104-0.864 1.08 0 2.076 0.145 2.988 0.432 0.912 0.289 1.752 0.674 2.52 1.152 0 0.842-0.107 1.729-0.323 2.664 -0.216 0.936-0.517 1.812-0.9 2.628 -0.288 0-0.612-0.022-0.972-0.071 -0.36-0.049-0.721-0.119-1.08-0.217 -0.36-0.096-0.708-0.21-1.044-0.342 -0.337-0.132-0.612-0.282-0.828-0.45L174.581 375.984z"/><path fill="#7DC144" d="M186.316 386.424c0 0.098 0.019 0.211 0.055 0.342 0.035 0.133 0.065 0.224 0.09 0.271l2.52-0.252c0 0.216-0.03 0.468-0.09 0.756 -0.061 0.288-0.132 0.588-0.216 0.898 -0.084 0.312-0.187 0.606-0.306 0.884 -0.121 0.274-0.24 0.51-0.36 0.7 -0.312 0.121-0.702 0.24-1.17 0.36 -0.468 0.12-0.954 0.228-1.458 0.324s-1.008 0.174-1.512 0.233c-0.505 0.061-0.949 0.091-1.332 0.091 -0.169-0.169-0.349-0.392-0.54-0.666 -0.192-0.276-0.373-0.576-0.54-0.9 -0.169-0.323-0.307-0.642-0.414-0.954 -0.108-0.312-0.162-0.576-0.162-0.791l2.664-19.801 -2.448 0.252c0-0.168 0.023-0.4 0.072-0.701 0.048-0.301 0.113-0.611 0.198-0.937 0.083-0.324 0.186-0.624 0.306-0.9 0.12-0.274 0.239-0.474 0.36-0.594 0.552-0.336 1.241-0.588 2.069-0.756s1.662-0.252 2.502-0.252c0.312 0 0.678 0.03 1.099 0.09 0.419 0.06 0.797 0.14 1.134 0.233L186.316 386.424z"/><path fill="#7DC144" d="M195.136 383.977c0 1.08 0.204 1.83 0.612 2.25 0.407 0.42 1.008 0.629 1.8 0.629 0.504 0 1.044-0.041 1.62-0.125s1.146-0.191 1.71-0.323c0.563-0.132 1.109-0.294 1.638-0.486 0.527-0.19 0.996-0.396 1.404-0.612 0 0.504-0.108 1.11-0.324 1.818 -0.216 0.708-0.456 1.303-0.72 1.782 -0.696 0.528-1.591 1.014-2.683 1.458 -1.092 0.443-2.334 0.666-3.726 0.666 -2.208 0-3.84-0.576-4.896-1.729 -1.057-1.152-1.584-2.845-1.584-5.076 0-1.487 0.221-3.013 0.665-4.571 0.444-1.562 1.122-2.916 2.034-4.068 0.792-0.983 1.752-1.758 2.88-2.321s2.448-0.847 3.96-0.847c1.801 0 3.174 0.408 4.122 1.224 0.948 0.816 1.423 1.957 1.423 3.42 0 0.722-0.145 1.436-0.433 2.144 -0.288 0.708-0.805 1.362-1.548 1.962 -0.744 0.602-1.759 1.104-3.042 1.512 -1.284 0.408-2.922 0.686-4.914 0.828v0.467H195.136zM195.46 380.268c1.031-0.07 1.854-0.209 2.466-0.414 0.612-0.203 1.08-0.449 1.404-0.736 0.323-0.288 0.533-0.596 0.63-0.918 0.096-0.324 0.144-0.643 0.144-0.954 0-0.479-0.096-0.87-0.288-1.17s-0.516-0.45-0.972-0.45c-0.504 0-0.979 0.174-1.422 0.521 -0.444 0.349-0.811 0.773-1.098 1.277 -0.24 0.385-0.433 0.854-0.576 1.404C195.604 379.38 195.508 379.859 195.46 380.268z"/><path fill="#7DC144" d="M447.07 318.428H311.882c-12.664 0-22.931 10.266-22.931 22.932 0 12.664 10.267 22.931 22.931 22.931H447.07c12.664 0 22.93-10.267 22.93-22.931C470 328.693 459.734 318.428 447.07 318.428z"/><path fill="#FFFFFF" d="M307.365 331.965c-0.271 0-0.586-0.02-0.95-0.058s-0.663-0.077-0.894-0.115c-0.02-0.173-0.027-0.374-0.027-0.604 0-0.229 0.004-0.476 0.014-0.733 0.01-0.261 0.029-0.521 0.059-0.778s0.053-0.484 0.072-0.677c0.422-0.058 0.949-0.108 1.583-0.158 0.635-0.048 1.296-0.091 1.987-0.129 0.691-0.039 1.367-0.067 2.03-0.087 0.662-0.02 1.224-0.027 1.685-0.027 1.307 0 2.472 0.096 3.499 0.286 1.027 0.192 1.896 0.515 2.606 0.966 0.71 0.45 1.253 1.032 1.627 1.741 0.375 0.711 0.562 1.584 0.562 2.621 0 1.269-0.235 2.36-0.706 3.283 -0.471 0.922-1.09 1.687-1.856 2.289 -0.77 0.604-1.643 1.057-2.621 1.354 -0.979 0.3-1.979 0.447-2.995 0.447 -0.385 0-0.783-0.021-1.195-0.058 -0.413-0.039-0.733-0.088-0.965-0.145l-0.346 4.867c0.44 0.038 0.936 0.091 1.482 0.158 0.547 0.066 1.003 0.147 1.368 0.244 0.038 0.153 0.062 0.352 0.072 0.59 0.01 0.24 0.014 0.49 0.014 0.75 0 0.259-0.014 0.504-0.043 0.734 -0.028 0.229-0.062 0.422-0.101 0.575h-9.878c0.019-0.174 0.057-0.379 0.114-0.618 0.058-0.24 0.125-0.486 0.201-0.734 0.076-0.25 0.153-0.48 0.23-0.691 0.076-0.211 0.152-0.395 0.23-0.547 0.229-0.098 0.541-0.188 0.936-0.273s0.744-0.148 1.051-0.188L307.365 331.965zM311.051 338.646c0.098 0.02 0.23 0.039 0.403 0.057 0.173 0.02 0.359 0.039 0.562 0.059 0.203 0.021 0.398 0.033 0.592 0.043 0.19 0.01 0.354 0.014 0.488 0.014 0.52 0 1.014-0.079 1.483-0.243 0.471-0.163 0.883-0.408 1.238-0.734 0.354-0.325 0.633-0.743 0.835-1.253 0.202-0.509 0.303-1.099 0.303-1.771 0-1.172-0.346-2.041-1.037-2.606 -0.689-0.565-1.688-0.851-2.995-0.851 -0.211 0-0.471 0.007-0.776 0.016 -0.309 0.012-0.538 0.034-0.691 0.072L311.051 338.646z"/><path fill="#FFFFFF" d="M331.355 335.104c0.19 0.539 0.287 1.172 0.287 1.901 0 0.384-0.027 0.759-0.087 1.123 -0.057 0.364-0.134 0.673-0.229 0.921 -0.27-0.152-0.595-0.277-0.979-0.374 -0.385-0.096-0.738-0.144-1.064-0.144 -0.691 0-1.296 0.221-1.814 0.662 -0.518 0.44-0.932 0.998-1.237 1.67l-0.778 8.324c-0.308 0.057-0.676 0.104-1.108 0.144 -0.432 0.039-0.868 0.058-1.31 0.058 -0.328 0-0.658-0.015-0.994-0.043 -0.336-0.029-0.619-0.082-0.85-0.158l1.469-10.973 -2.017 0.172c0-0.134 0.02-0.32 0.058-0.561 0.039-0.24 0.092-0.49 0.158-0.75 0.067-0.26 0.145-0.498 0.229-0.721 0.087-0.219 0.178-0.379 0.274-0.476 0.402-0.269 0.873-0.47 1.411-0.604 0.536-0.135 1.094-0.201 1.67-0.201 0.557 0 1.095 0.087 1.612 0.259l-0.315 3.054h0.432c0.115-0.441 0.273-0.873 0.476-1.297 0.201-0.422 0.45-0.796 0.749-1.123 0.298-0.326 0.656-0.585 1.079-0.777 0.424-0.191 0.911-0.287 1.47-0.287 0.269 0 0.527 0.02 0.777 0.058C330.97 334.998 331.183 335.047 331.355 335.104z"/><path fill="#FFFFFF" d="M336.395 349.792c-1.823 0-3.201-0.499-4.133-1.497 -0.931-0.998-1.396-2.516-1.396-4.551 0-0.922 0.096-1.814 0.288-2.68 0.19-0.863 0.508-1.68 0.949-2.447 0.614-1.094 1.46-1.986 2.534-2.678 1.075-0.692 2.392-1.037 3.945-1.037 1.805 0 3.188 0.5 4.147 1.498s1.439 2.516 1.439 4.55c0 0.979-0.12 1.944-0.36 2.895 -0.239 0.951-0.608 1.829-1.107 2.636 -0.615 0.979-1.445 1.775-2.491 2.391C339.165 349.484 337.892 349.792 336.395 349.792zM336.943 347.057c0.557 0 1.021-0.164 1.396-0.49 0.374-0.325 0.677-0.758 0.907-1.297 0.269-0.594 0.45-1.267 0.547-2.016 0.097-0.748 0.145-1.486 0.145-2.217 0-1.21-0.135-2.084-0.402-2.621 -0.271-0.537-0.711-0.807-1.325-0.807 -0.519 0-0.975 0.168-1.368 0.504 -0.393 0.336-0.715 0.783-0.965 1.34 -0.287 0.633-0.484 1.339-0.59 2.115 -0.105 0.779-0.158 1.504-0.158 2.176 0 1.189 0.148 2.04 0.445 2.549C335.873 346.802 336.328 347.057 336.943 347.057z"/><path fill="#FFFFFF" d="M357.535 346.105c0 0.076 0.014 0.168 0.043 0.272s0.053 0.179 0.072 0.218l2.016-0.203c0 0.174-0.024 0.375-0.072 0.604s-0.104 0.472-0.172 0.722c-0.068 0.248-0.148 0.483-0.246 0.704 -0.096 0.222-0.19 0.408-0.287 0.562 -0.25 0.098-0.565 0.193-0.95 0.289s-0.782 0.182-1.195 0.26c-0.412 0.076-0.825 0.139-1.238 0.188 -0.412 0.047-0.763 0.071-1.051 0.071 -0.191-0.327-0.355-0.716-0.49-1.167 -0.134-0.451-0.221-0.84-0.258-1.166h-0.26c-0.386 0.672-0.912 1.229-1.584 1.67s-1.498 0.663-2.478 0.663c-0.615 0-1.182-0.101-1.699-0.303 -0.519-0.201-0.971-0.522-1.354-0.966 -0.385-0.44-0.688-0.998-0.908-1.67 -0.221-0.672-0.33-1.486-0.33-2.447 0-1.152 0.178-2.299 0.532-3.441s0.85-2.175 1.483-3.096c0.595-0.864 1.411-1.574 2.446-2.132 1.037-0.558 2.133-0.835 3.283-0.835 0.346 0 0.696 0.033 1.052 0.101 0.354 0.067 0.667 0.169 0.938 0.304l0.547-4.004 -1.959 0.201c0-0.135 0.02-0.32 0.059-0.562 0.037-0.238 0.091-0.488 0.158-0.748 0.066-0.26 0.148-0.499 0.244-0.721 0.096-0.221 0.191-0.379 0.288-0.476 0.441-0.269 0.993-0.472 1.656-0.604 0.662-0.133 1.329-0.201 2.001-0.201 0.25 0 0.537 0.025 0.864 0.072 0.326 0.049 0.623 0.11 0.894 0.188L357.535 346.105zM354.482 337.725c-0.213-0.058-0.396-0.101-0.549-0.129 -0.152-0.029-0.354-0.044-0.604-0.044 -0.557 0-1.076 0.149-1.555 0.446 -0.48 0.299-0.875 0.677-1.183 1.139 -0.44 0.652-0.758 1.439-0.95 2.361 -0.191 0.921-0.287 1.766-0.287 2.533 0 1.019 0.139 1.725 0.418 2.117 0.276 0.395 0.666 0.591 1.166 0.591 0.498 0 0.95-0.115 1.354-0.347 0.403-0.229 0.807-0.576 1.21-1.037L354.482 337.725z"/><path fill="#FFFFFF" d="M366.491 335.334c-0.038 0.365-0.098 0.821-0.173 1.368 -0.076 0.548-0.154 1.138-0.23 1.771s-0.154 1.286-0.229 1.959c-0.076 0.672-0.145 1.311-0.201 1.916 -0.059 0.604-0.105 1.146-0.146 1.627 -0.04 0.48-0.057 0.844-0.057 1.094 0 0.537 0.086 0.971 0.259 1.297s0.47 0.488 0.894 0.488c0.479 0 0.949-0.178 1.41-0.533 0.461-0.354 0.825-0.723 1.095-1.107l0.95-6.998 -1.784 0.145c0-0.135 0.019-0.321 0.057-0.562 0.039-0.24 0.092-0.484 0.158-0.734 0.067-0.25 0.145-0.483 0.229-0.705 0.087-0.221 0.179-0.379 0.274-0.477 0.44-0.268 0.979-0.47 1.612-0.604 0.634-0.135 1.276-0.202 1.93-0.202 0.25 0 0.537 0.024 0.864 0.071 0.325 0.049 0.613 0.11 0.863 0.188l-1.036 10.771c0 0.076 0.014 0.168 0.043 0.272 0.028 0.104 0.053 0.179 0.071 0.218l1.987-0.203c0 0.174-0.024 0.375-0.072 0.604s-0.104 0.472-0.173 0.722c-0.067 0.248-0.147 0.483-0.244 0.704 -0.097 0.222-0.192 0.408-0.289 0.562 -0.249 0.098-0.561 0.193-0.936 0.289s-0.773 0.182-1.195 0.26c-0.422 0.076-0.835 0.139-1.238 0.188 -0.402 0.047-0.747 0.071-1.036 0.071 -0.191-0.327-0.355-0.729-0.489-1.21 -0.134-0.479-0.222-0.902-0.259-1.268h-0.261c-0.172 0.309-0.379 0.609-0.618 0.908 -0.24 0.297-0.533 0.561-0.88 0.791 -0.345 0.229-0.748 0.418-1.209 0.562s-0.988 0.216-1.584 0.216c-0.44 0-0.879-0.066-1.311-0.202 -0.433-0.135-0.82-0.354-1.166-0.661 -0.346-0.308-0.625-0.716-0.836-1.226 -0.211-0.509-0.316-1.138-0.316-1.886 0-0.403 0.039-0.938 0.115-1.6s0.173-1.357 0.288-2.088c0.115-0.729 0.235-1.443 0.36-2.146 0.125-0.699 0.233-1.291 0.33-1.771l-2.017 0.173c0-0.135 0.021-0.32 0.059-0.562 0.037-0.24 0.091-0.49 0.158-0.75 0.066-0.259 0.145-0.498 0.23-0.72 0.086-0.221 0.177-0.379 0.272-0.477 0.441-0.268 0.998-0.47 1.67-0.604 0.673-0.135 1.345-0.202 2.017-0.202 0.25 0 0.543 0.024 0.879 0.071C365.919 335.195 366.222 335.258 366.491 335.334z"/><path fill="#FFFFFF" d="M384.635 337.754c-0.25-0.096-0.538-0.145-0.863-0.145 -0.48 0-0.912 0.111-1.297 0.33 -0.384 0.223-0.7 0.523-0.949 0.908 -0.213 0.325-0.396 0.69-0.548 1.094 -0.153 0.404-0.273 0.816-0.359 1.238 -0.087 0.424-0.149 0.846-0.188 1.268 -0.038 0.424-0.058 0.816-0.058 1.182 0 1.92 0.787 2.88 2.361 2.88 0.364 0 0.759-0.032 1.182-0.101 0.422-0.067 0.84-0.154 1.252-0.26 0.413-0.105 0.812-0.23 1.195-0.375 0.384-0.144 0.729-0.291 1.037-0.445 0 0.422-0.097 0.917-0.288 1.482 -0.192 0.565-0.413 1.032-0.663 1.396 -0.558 0.402-1.219 0.77-1.986 1.095 -0.769 0.326-1.642 0.489-2.621 0.489 -1.92 0-3.341-0.494-4.262-1.482 -0.922-0.988-1.383-2.338-1.383-4.047 0-1.268 0.178-2.49 0.533-3.673 0.354-1.18 0.905-2.222 1.654-3.125 0.672-0.786 1.497-1.409 2.479-1.871 0.979-0.461 2.072-0.69 3.282-0.69 0.863 0 1.66 0.115 2.391 0.346 0.729 0.23 1.4 0.537 2.017 0.922 0 0.672-0.087 1.382-0.26 2.131 -0.173 0.748-0.413 1.449-0.72 2.102 -0.23 0-0.489-0.018-0.778-0.057 -0.287-0.039-0.575-0.096-0.863-0.173s-0.565-0.168-0.836-0.274c-0.269-0.104-0.487-0.225-0.662-0.358L384.635 337.754z"/><path fill="#FFFFFF" d="M392.411 332.021c0.173-0.097 0.403-0.188 0.69-0.273 0.288-0.086 0.601-0.168 0.937-0.244s0.667-0.135 0.993-0.173 0.625-0.058 0.894-0.058l-0.489 4.119h3.889c0.038 0.152 0.058 0.307 0.058 0.459v0.434c0 0.326-0.015 0.667-0.043 1.021s-0.072 0.668-0.13 0.937h-4.146l-0.634 6.249c-0.078 0.652-0.024 1.143 0.158 1.469 0.183 0.327 0.609 0.49 1.281 0.49 0.422 0 0.85-0.049 1.281-0.145 0.432-0.097 0.896-0.222 1.396-0.375 0 0.424-0.091 0.933-0.272 1.526 -0.183 0.597-0.408 1.076-0.677 1.438 -0.635 0.31-1.264 0.533-1.887 0.679 -0.625 0.144-1.205 0.216-1.742 0.216 -1.362 0-2.344-0.32-2.938-0.965 -0.597-0.645-0.895-1.541-0.895-2.692 0-0.364 0.028-0.854 0.087-1.469 0.058-0.615 0.14-1.287 0.244-2.017 0.105-0.73 0.222-1.479 0.347-2.248 0.125-0.768 0.244-1.485 0.359-2.158h-2.218c0.058-0.441 0.173-0.917 0.346-1.426 0.173-0.51 0.336-0.897 0.49-1.168 0.248-0.114 0.527-0.225 0.834-0.33 0.308-0.104 0.605-0.188 0.893-0.244L392.411 332.021z"/><path fill="#FFFFFF" d="M399.611 338.387c0-0.134 0.019-0.32 0.057-0.561 0.039-0.24 0.092-0.49 0.158-0.75 0.067-0.26 0.145-0.498 0.229-0.721 0.087-0.22 0.179-0.379 0.273-0.476 0.44-0.269 0.999-0.47 1.671-0.604s1.344-0.201 2.017-0.201c0.249 0 0.542 0.023 0.878 0.07 0.337 0.049 0.639 0.111 0.907 0.188l-1.268 10.771c0 0.078 0.015 0.168 0.043 0.273 0.029 0.105 0.053 0.178 0.072 0.217l2.017-0.201c0 0.172-0.024 0.373-0.072 0.604s-0.105 0.471-0.173 0.721c-0.067 0.249-0.147 0.484-0.244 0.705s-0.192 0.408-0.289 0.562c-0.249 0.097-0.561 0.191-0.936 0.287 -0.375 0.097-0.765 0.183-1.166 0.261 -0.403 0.075-0.808 0.139-1.21 0.187 -0.403 0.049-0.759 0.072-1.065 0.072 -0.135-0.135-0.278-0.312-0.432-0.532 -0.154-0.221-0.299-0.461-0.433-0.721 -0.135-0.261-0.245-0.515-0.331-0.765 -0.087-0.248-0.131-0.461-0.131-0.633l1.44-8.928L399.611 338.387zM404.248 327.27c0.729 0 1.313 0.213 1.756 0.635 0.442 0.423 0.663 1.037 0.663 1.844 0 0.845-0.23 1.497-0.691 1.958s-1.035 0.69-1.728 0.69c-1.652 0-2.477-0.883-2.477-2.648 0-0.729 0.233-1.325 0.704-1.786C402.947 327.501 403.537 327.27 404.248 327.27z"/><path fill="#FFFFFF" d="M406.378 338.33c0-0.135 0.021-0.326 0.057-0.576 0.039-0.25 0.088-0.504 0.146-0.764s0.125-0.504 0.201-0.734c0.078-0.23 0.153-0.395 0.229-0.49 0.404-0.211 0.874-0.379 1.412-0.504 0.537-0.123 1.104-0.187 1.699-0.187 0.557 0 1.113 0.087 1.67 0.259l1.209 7.488c0.039 0.229 0.077 0.5 0.115 0.807 0.039 0.307 0.077 0.619 0.115 0.936s0.067 0.629 0.087 0.937c0.019 0.31 0.027 0.586 0.027 0.836h0.347c0.289-0.614 0.57-1.258 0.85-1.93 0.279-0.673 0.557-1.349 0.836-2.03 0.277-0.682 0.537-1.354 0.777-2.018 0.239-0.661 0.456-1.299 0.647-1.914 0-0.135-0.039-0.299-0.114-0.489l-2.018 0.173c0.02-0.191 0.053-0.413 0.102-0.663 0.048-0.247 0.11-0.493 0.188-0.733 0.076-0.239 0.168-0.465 0.273-0.676 0.104-0.211 0.217-0.375 0.332-0.49 0.211-0.076 0.493-0.158 0.85-0.244 0.354-0.088 0.729-0.158 1.123-0.217 0.393-0.058 0.768-0.105 1.123-0.145 0.354-0.039 0.638-0.059 0.85-0.059 0.115 0.097 0.254 0.265 0.418 0.505 0.162 0.239 0.316 0.5 0.46 0.776 0.145 0.279 0.265 0.562 0.36 0.851s0.145 0.519 0.145 0.69c-0.787 1.959-1.753 3.971-2.895 6.033 -1.143 2.064-2.377 4.152-3.701 6.266l-3.889-0.604 -2.275-11.262L406.378 338.33z"/><path fill="#FFFFFF" d="M421.008 338.387c0-0.134 0.02-0.32 0.059-0.561 0.037-0.24 0.091-0.49 0.157-0.75 0.067-0.26 0.146-0.498 0.23-0.721 0.086-0.22 0.178-0.379 0.272-0.476 0.441-0.269 0.998-0.47 1.671-0.604 0.672-0.135 1.344-0.201 2.017-0.201 0.249 0 0.542 0.023 0.878 0.07 0.336 0.049 0.639 0.111 0.908 0.188l-1.269 10.771c0 0.078 0.015 0.168 0.043 0.273 0.029 0.105 0.054 0.178 0.072 0.217l2.016-0.201c0 0.172-0.022 0.373-0.071 0.604 -0.048 0.23-0.105 0.471-0.172 0.721 -0.068 0.249-0.149 0.484-0.245 0.705 -0.098 0.221-0.192 0.408-0.288 0.562 -0.25 0.097-0.562 0.191-0.937 0.287 -0.375 0.097-0.764 0.183-1.167 0.261 -0.402 0.075-0.806 0.139-1.21 0.187 -0.401 0.049-0.758 0.072-1.063 0.072 -0.135-0.135-0.279-0.312-0.434-0.532 -0.152-0.221-0.298-0.461-0.433-0.721 -0.134-0.261-0.244-0.515-0.33-0.765 -0.087-0.248-0.131-0.461-0.131-0.633l1.441-8.928L421.008 338.387zM425.645 327.27c0.729 0 1.315 0.213 1.758 0.635 0.441 0.423 0.662 1.037 0.662 1.844 0 0.845-0.23 1.497-0.691 1.958s-1.036 0.69-1.729 0.69c-1.65 0-2.477-0.883-2.477-2.648 0-0.729 0.235-1.325 0.706-1.786C424.344 327.5 424.935 327.27 425.645 327.27z"/><path fill="#FFFFFF" d="M432.039 332.021c0.173-0.097 0.403-0.188 0.691-0.273 0.286-0.086 0.6-0.168 0.936-0.244s0.667-0.135 0.994-0.173c0.326-0.038 0.623-0.058 0.893-0.058l-0.49 4.119h3.89c0.038 0.152 0.058 0.307 0.058 0.459v0.434c0 0.326-0.015 0.667-0.044 1.021 -0.028 0.354-0.071 0.668-0.129 0.937h-4.146l-0.635 6.249c-0.075 0.652-0.022 1.143 0.158 1.469 0.184 0.327 0.609 0.49 1.282 0.49 0.422 0 0.85-0.049 1.282-0.145 0.432-0.097 0.896-0.222 1.396-0.375 0 0.424-0.092 0.933-0.272 1.526 -0.185 0.597-0.408 1.076-0.679 1.438 -0.633 0.31-1.262 0.533-1.887 0.679 -0.623 0.144-1.205 0.216-1.742 0.216 -1.362 0-2.342-0.32-2.938-0.965s-0.894-1.541-0.894-2.692c0-0.364 0.029-0.854 0.086-1.469 0.06-0.615 0.141-1.287 0.246-2.017 0.104-0.729 0.221-1.479 0.346-2.248 0.125-0.768 0.245-1.485 0.359-2.158h-2.218c0.058-0.441 0.173-0.917 0.346-1.426 0.174-0.51 0.335-0.897 0.489-1.168 0.25-0.114 0.528-0.225 0.836-0.33 0.308-0.104 0.604-0.188 0.894-0.244L432.039 332.021z"/><path fill="#FFFFFF" d="M438.749 338.128c0-0.134 0.02-0.321 0.058-0.562 0.039-0.24 0.093-0.49 0.158-0.75 0.068-0.258 0.146-0.504 0.23-0.733 0.087-0.229 0.168-0.394 0.245-0.489 0.402-0.191 0.874-0.341 1.41-0.447 0.537-0.104 1.095-0.158 1.671-0.158 0.52 0 1.047 0.098 1.584 0.289l1.612 7.373c0.059 0.229 0.11 0.504 0.158 0.82s0.092 0.647 0.13 0.993c0.038 0.347 0.077 0.683 0.115 1.009s0.058 0.613 0.058 0.863h0.347c0.479-1.229 0.939-2.535 1.383-3.917 0.44-1.382 0.834-2.679 1.18-3.888 0-0.135-0.038-0.299-0.115-0.49l-1.958 0.115c0.02-0.191 0.059-0.412 0.115-0.662 0.059-0.249 0.13-0.494 0.216-0.734 0.087-0.24 0.184-0.461 0.288-0.662 0.105-0.201 0.216-0.359 0.331-0.476 0.211-0.076 0.494-0.147 0.851-0.216 0.354-0.066 0.725-0.125 1.108-0.174 0.384-0.047 0.753-0.086 1.108-0.114 0.354-0.028 0.638-0.043 0.85-0.043 0.115 0.097 0.24 0.265 0.374 0.504 0.135 0.239 0.264 0.504 0.389 0.792s0.23 0.576 0.317 0.863c0.087 0.289 0.13 0.52 0.13 0.69 -0.44 1.152-0.951 2.378-1.525 3.673 -0.576 1.297-1.172 2.549-1.786 3.758 -0.614 1.211-1.22 2.313-1.814 3.312 -0.595 0.998-1.133 1.786-1.612 2.362 -0.922 1.075-1.91 2.069-2.966 2.981 -1.057 0.91-2.274 1.654-3.657 2.23 -0.154-0.192-0.304-0.442-0.446-0.749 -0.144-0.308-0.274-0.634-0.39-0.979 -0.116-0.346-0.205-0.688-0.273-1.022 -0.066-0.336-0.1-0.64-0.1-0.906 0.979-0.289 1.909-0.668 2.793-1.14 0.883-0.471 1.632-1.061 2.245-1.771l-3.053-11.663L438.749 338.128z"/><path fill="#7DC144" d="M447.07 14.044H263.882c-12.664 0-22.931 10.267-22.931 22.931s10.267 22.931 22.931 22.931H447.07c12.664 0 22.93-10.267 22.93-22.931S459.734 14.044 447.07 14.044z"/><path fill="#FFFFFF" d="M266.532 37.95c-0.212 2.861-1.046 5.324-2.505 7.387 -1.461 2.064-3.485 3.682-6.077 4.853 -0.249-0.269-0.489-0.629-0.72-1.08 -0.23-0.451-0.375-0.859-0.434-1.224 1.729-0.979 3.005-2.261 3.831-3.845 0.824-1.584 1.324-3.365 1.497-5.342l0.979-11.203c-0.385-0.039-0.807-0.086-1.268-0.144s-0.826-0.125-1.094-0.202c-0.02-0.153-0.029-0.35-0.029-0.59 0-0.24 0.01-0.49 0.029-0.749 0.02-0.259 0.047-0.504 0.086-0.734 0.038-0.23 0.076-0.422 0.115-0.576h8.727c0.02 0.097 0.028 0.173 0.028 0.23v0.144c0 0.346-0.028 0.749-0.087 1.21 -0.057 0.46-0.135 0.816-0.229 1.065 -0.25 0.077-0.591 0.144-1.022 0.202 -0.43 0.058-0.782 0.096-1.051 0.115L266.532 37.95z"/><path fill="#FFFFFF" d="M274.078 45.409c-1.824 0-3.202-0.499-4.133-1.498 -0.932-0.998-1.396-2.515-1.396-4.551 0-0.921 0.096-1.814 0.287-2.678 0.191-0.864 0.51-1.68 0.951-2.448 0.613-1.095 1.459-1.987 2.533-2.679 1.076-0.691 2.391-1.037 3.945-1.037 1.805 0 3.188 0.5 4.147 1.498 0.959 0.999 1.438 2.516 1.438 4.55 0 0.979-0.119 1.944-0.358 2.895 -0.24 0.95-0.609 1.829-1.109 2.635 -0.614 0.979-1.444 1.776-2.489 2.39C276.848 45.102 275.575 45.409 274.078 45.409zM274.625 42.673c0.557 0 1.021-0.163 1.396-0.489 0.375-0.326 0.678-0.758 0.908-1.296 0.268-0.595 0.449-1.267 0.547-2.016 0.096-0.749 0.144-1.488 0.144-2.218 0-1.209-0.134-2.083-0.403-2.621 -0.27-0.538-0.711-0.807-1.324-0.807 -0.519 0-0.975 0.168-1.367 0.504 -0.395 0.336-0.717 0.783-0.965 1.339 -0.289 0.634-0.485 1.339-0.592 2.117 -0.105 0.778-0.158 1.502-0.158 2.174 0 1.191 0.148 2.041 0.446 2.549C273.555 42.419 274.009 42.673 274.625 42.673z"/><path fill="#FFFFFF" d="M285.367 26.919l-1.959 0.202c0-0.134 0.02-0.321 0.059-0.562 0.038-0.24 0.092-0.49 0.158-0.749 0.066-0.259 0.148-0.499 0.244-0.72 0.096-0.221 0.191-0.379 0.289-0.476 0.441-0.27 0.992-0.47 1.654-0.604 0.664-0.134 1.33-0.202 2.002-0.202 0.25 0 0.543 0.024 0.879 0.072s0.639 0.111 0.908 0.188l-0.404 4.205c-0.038 0.327-0.092 0.691-0.158 1.095 -0.066 0.403-0.145 0.811-0.23 1.224 -0.086 0.413-0.178 0.816-0.272 1.21 -0.095 0.394-0.191 0.744-0.288 1.051h0.434c0.229-0.614 0.656-1.156 1.28-1.627 0.623-0.47 1.474-0.706 2.549-0.706 0.499 0 1.003 0.101 1.513 0.302 0.509 0.201 0.965 0.519 1.367 0.951 0.403 0.432 0.729 0.993 0.979 1.685 0.249 0.691 0.374 1.517 0.374 2.477 0 0.615-0.053 1.253-0.158 1.916 -0.105 0.662-0.259 1.311-0.461 1.944 -0.202 0.634-0.445 1.229-0.734 1.786 -0.287 0.557-0.613 1.037-0.979 1.44 -0.729 0.788-1.579 1.382-2.549 1.786 -0.969 0.403-2.041 0.605-3.211 0.605 -0.863 0-1.775-0.101-2.736-0.303 -0.96-0.201-1.871-0.437-2.734-0.706L285.367 26.919zM287.527 42.471c0.152 0.058 0.33 0.101 0.533 0.13 0.2 0.029 0.406 0.043 0.619 0.043 0.44 0 0.901-0.096 1.381-0.288 0.48-0.192 0.864-0.461 1.152-0.807 0.441-0.519 0.768-1.229 0.979-2.131s0.316-1.814 0.316-2.736c0-1.037-0.125-1.824-0.375-2.362 -0.249-0.537-0.652-0.806-1.209-0.806 -0.48 0-0.961 0.173-1.439 0.519 -0.479 0.345-0.864 0.739-1.151 1.181L287.527 42.471z"/><path fill="#FFFFFF" d="M314.742 27.006c-0.326-0.173-0.633-0.292-0.922-0.36 -0.287-0.067-0.596-0.101-0.921-0.101 -0.979 0-1.743 0.25-2.29 0.749 -0.547 0.5-0.82 1.114-0.82 1.843 0 0.633 0.211 1.162 0.633 1.584 0.423 0.422 0.946 0.811 1.57 1.166 0.623 0.356 1.301 0.711 2.03 1.066 0.729 0.355 1.405 0.773 2.029 1.253s1.147 1.056 1.57 1.728c0.422 0.672 0.633 1.508 0.633 2.506 0 1.306-0.229 2.41-0.69 3.312 -0.462 0.903-1.084 1.632-1.871 2.189 -0.788 0.557-1.699 0.955-2.736 1.195 -1.037 0.24-2.131 0.36-3.283 0.36 -0.979 0-2.012-0.082-3.096-0.245 -1.086-0.163-2.088-0.437-3.01-0.821 0.037-0.403 0.091-0.854 0.158-1.354 0.065-0.499 0.145-1.008 0.229-1.526 0.085-0.518 0.183-1.022 0.288-1.512 0.104-0.489 0.216-0.926 0.331-1.31 0.229 0 0.499 0.014 0.807 0.043s0.623 0.062 0.95 0.101c0.326 0.039 0.645 0.091 0.95 0.158 0.307 0.067 0.565 0.14 0.776 0.216l-0.259 2.996c0.441 0.173 0.897 0.316 1.368 0.432 0.471 0.116 0.965 0.173 1.482 0.173 1.037 0 1.873-0.254 2.506-0.763 0.634-0.508 0.951-1.262 0.951-2.261 0-0.652-0.207-1.19-0.619-1.613 -0.414-0.422-0.933-0.801-1.557-1.138 -0.624-0.335-1.296-0.677-2.017-1.022 -0.719-0.345-1.392-0.758-2.016-1.238 -0.624-0.479-1.144-1.07-1.556-1.771 -0.414-0.701-0.619-1.588-0.619-2.664 0-1.978 0.644-3.547 1.931-4.709 1.285-1.161 3.108-1.742 5.472-1.742 0.901 0 1.862 0.086 2.88 0.259 1.019 0.173 1.959 0.422 2.822 0.749 -0.039 0.346-0.092 0.745-0.158 1.195 -0.066 0.451-0.147 0.912-0.245 1.382 -0.097 0.471-0.206 0.932-0.331 1.382 -0.125 0.452-0.243 0.85-0.358 1.195 -0.23 0-0.49-0.019-0.778-0.058 -0.288-0.038-0.581-0.091-0.878-0.158 -0.299-0.067-0.586-0.144-0.864-0.23 -0.277-0.086-0.515-0.177-0.706-0.273L314.742 27.006z"/><path fill="#FFFFFF" d="M327.298 43.076c-0.384 0.672-0.901 1.229-1.555 1.67s-1.45 0.663-2.392 0.663c-0.575 0-1.107-0.106-1.598-0.317s-0.912-0.537-1.268-0.979c-0.355-0.441-0.64-1.008-0.851-1.699 -0.212-0.691-0.315-1.517-0.315-2.477 0-1.152 0.177-2.29 0.531-3.413 0.354-1.124 0.889-2.146 1.6-3.067 0.69-0.883 1.56-1.593 2.604-2.131 1.048-0.537 2.271-0.806 3.674-0.806 0.96 0 1.856 0.154 2.691 0.461 0.836 0.307 1.541 0.653 2.117 1.037l-1.152 9.706c0 0.077 0.016 0.168 0.043 0.273 0.029 0.106 0.054 0.178 0.072 0.216l2.016-0.202c0 0.173-0.022 0.375-0.07 0.604s-0.106 0.471-0.173 0.72c-0.067 0.25-0.148 0.485-0.245 0.706 -0.098 0.221-0.192 0.408-0.288 0.562 -0.25 0.096-0.566 0.192-0.95 0.288 -0.384 0.096-0.782 0.182-1.195 0.259 -0.413 0.077-0.825 0.139-1.237 0.187 -0.413 0.048-0.764 0.072-1.053 0.072 -0.19-0.327-0.354-0.715-0.487-1.167 -0.136-0.451-0.223-0.84-0.261-1.167L327.298 43.076 327.298 43.076zM328.421 33.227c-0.153-0.038-0.321-0.067-0.504-0.086 -0.182-0.019-0.341-0.029-0.475-0.029 -0.558 0-1.08 0.173-1.57 0.519 -0.488 0.346-0.896 0.759-1.223 1.238 -0.214 0.308-0.391 0.658-0.533 1.051 -0.146 0.394-0.26 0.807-0.347 1.238 -0.086 0.432-0.153 0.864-0.2 1.296 -0.05 0.432-0.072 0.831-0.072 1.195 0 1.018 0.129 1.724 0.389 2.117 0.259 0.394 0.609 0.591 1.052 0.591 0.863 0 1.65-0.471 2.36-1.412L328.421 33.227z"/><path fill="#FFFFFF" d="M337.148 27.64c0.174-0.096 0.403-0.188 0.69-0.274 0.288-0.086 0.601-0.168 0.937-0.245s0.668-0.134 0.993-0.173c0.326-0.038 0.624-0.058 0.894-0.058l-0.489 4.119h3.888c0.039 0.154 0.06 0.307 0.06 0.46v0.432c0 0.327-0.017 0.667-0.044 1.022 -0.028 0.355-0.071 0.667-0.13 0.936H339.8l-0.634 6.25c-0.077 0.653-0.024 1.143 0.158 1.469 0.183 0.327 0.608 0.49 1.282 0.49 0.422 0 0.85-0.048 1.28-0.144 0.433-0.096 0.896-0.221 1.396-0.375 0 0.422-0.092 0.932-0.273 1.526 -0.183 0.595-0.408 1.076-0.677 1.44 -0.634 0.308-1.263 0.533-1.887 0.677s-1.205 0.216-1.742 0.216c-1.363 0-2.343-0.322-2.938-0.965s-0.894-1.541-0.894-2.693c0-0.365 0.029-0.854 0.087-1.469 0.058-0.614 0.14-1.286 0.245-2.016 0.104-0.729 0.221-1.478 0.346-2.247 0.125-0.768 0.244-1.487 0.359-2.16h-2.217c0.057-0.441 0.172-0.917 0.346-1.426 0.172-0.508 0.335-0.897 0.489-1.167 0.249-0.115 0.527-0.225 0.835-0.331 0.307-0.105 0.604-0.187 0.893-0.245L337.148 27.64z"/><path fill="#FFFFFF" d="M344.349 34.004c0-0.134 0.02-0.321 0.058-0.562 0.039-0.24 0.092-0.49 0.158-0.749 0.067-0.259 0.145-0.499 0.229-0.72 0.087-0.22 0.178-0.379 0.273-0.475 0.44-0.269 0.999-0.47 1.671-0.604 0.672-0.134 1.344-0.202 2.017-0.202 0.249 0 0.542 0.024 0.878 0.072 0.336 0.048 0.639 0.111 0.907 0.188l-1.268 10.771c0 0.077 0.015 0.168 0.043 0.273 0.028 0.106 0.053 0.178 0.071 0.216l2.018-0.202c0 0.173-0.024 0.375-0.072 0.604s-0.106 0.471-0.173 0.72c-0.067 0.25-0.148 0.485-0.244 0.706 -0.097 0.221-0.193 0.408-0.289 0.562 -0.249 0.096-0.561 0.192-0.936 0.288 -0.375 0.096-0.765 0.182-1.166 0.259 -0.403 0.077-0.808 0.139-1.21 0.187 -0.403 0.048-0.76 0.072-1.065 0.072 -0.135-0.135-0.279-0.312-0.432-0.533 -0.154-0.221-0.3-0.461-0.434-0.72 -0.134-0.259-0.245-0.514-0.331-0.763s-0.13-0.461-0.13-0.634l1.44-8.928L344.349 34.004zM348.986 22.887c0.729 0 1.313 0.212 1.756 0.634 0.44 0.422 0.663 1.037 0.663 1.843 0 0.845-0.23 1.498-0.691 1.958 -0.461 0.46-1.036 0.691-1.728 0.691 -1.652 0-2.478-0.883-2.478-2.649 0-0.729 0.234-1.325 0.705-1.786S348.275 22.887 348.986 22.887z"/><path fill="#FFFFFF" d="M359.699 33.227c-0.077-0.038-0.207-0.086-0.39-0.144 -0.184-0.058-0.352-0.086-0.504-0.086 -0.346 0-0.657 0.115-0.937 0.346 -0.279 0.231-0.417 0.547-0.417 0.95 0 0.327 0.139 0.615 0.417 0.864 0.277 0.249 0.624 0.5 1.036 0.749 0.413 0.25 0.864 0.504 1.354 0.763 0.49 0.259 0.941 0.571 1.354 0.936 0.413 0.365 0.759 0.788 1.036 1.268 0.278 0.48 0.418 1.056 0.418 1.728 0 0.864-0.184 1.598-0.548 2.203 -0.364 0.604-0.84 1.099-1.426 1.483 -0.586 0.384-1.258 0.667-2.016 0.85 -0.76 0.183-1.531 0.274-2.318 0.274 -1.46 0-2.626-0.25-3.5-0.749 -0.873-0.499-1.339-1.305-1.396-2.419 0.152-0.23 0.375-0.441 0.662-0.634 0.288-0.192 0.608-0.35 0.965-0.475 0.354-0.125 0.729-0.226 1.123-0.303 0.394-0.076 0.772-0.115 1.139-0.115 0.037 0.691 0.215 1.219 0.532 1.584 0.316 0.365 0.696 0.547 1.138 0.547 0.384 0 0.738-0.134 1.065-0.403 0.326-0.269 0.488-0.634 0.488-1.095 0-0.326-0.135-0.614-0.401-0.864 -0.271-0.25-0.605-0.485-1.008-0.706 -0.404-0.221-0.842-0.461-1.312-0.72 -0.471-0.259-0.908-0.576-1.311-0.95 -0.404-0.375-0.74-0.821-1.008-1.339 -0.271-0.519-0.404-1.152-0.404-1.901 0-0.633 0.135-1.214 0.404-1.742 0.268-0.528 0.646-0.984 1.137-1.368 0.49-0.384 1.09-0.686 1.801-0.907 0.709-0.22 1.497-0.331 2.361-0.331 0.633 0 1.323 0.082 2.072 0.245 0.749 0.164 1.479 0.408 2.188 0.734 -0.021 0.519-0.1 1.143-0.244 1.872 -0.145 0.73-0.322 1.354-0.533 1.872 -0.537 0-1.112-0.082-1.729-0.245 -0.613-0.163-1.084-0.35-1.41-0.562L359.699 33.227z"/><path fill="#FFFFFF" d="M374.013 31.009c0.037 0.365 0.047 0.835 0.028 1.411 -0.02 0.576-0.067 1.056-0.144 1.44h-3.976l-1.498 15.149c-0.288 0.057-0.647 0.105-1.08 0.144 -0.432 0.039-0.858 0.058-1.28 0.058 -0.326 0-0.648-0.014-0.966-0.043 -0.316-0.029-0.59-0.082-0.819-0.158l1.871-15.149h-2.332c0.057-0.441 0.172-0.917 0.346-1.426 0.172-0.508 0.335-0.897 0.488-1.167 0.27-0.115 0.562-0.225 0.879-0.331 0.315-0.105 0.629-0.187 0.936-0.245l0.174-1.268c0.135-1.037 0.402-1.919 0.808-2.649 0.401-0.729 0.893-1.329 1.469-1.8 0.576-0.47 1.219-0.811 1.93-1.022 0.709-0.211 1.449-0.317 2.218-0.317 0.479 0 1.036 0.053 1.67 0.158 0.635 0.106 1.314 0.284 2.045 0.533 0 0.288-0.028 0.614-0.086 0.979 -0.059 0.365-0.129 0.734-0.216 1.109 -0.088 0.375-0.188 0.739-0.304 1.094 -0.114 0.355-0.24 0.667-0.374 0.936 -0.25 0-0.519-0.024-0.807-0.072s-0.571-0.11-0.851-0.188c-0.277-0.076-0.543-0.163-0.792-0.259 -0.248-0.096-0.461-0.201-0.634-0.316l0.173-1.325c-0.152-0.058-0.298-0.086-0.432-0.086 -0.442 0-0.854 0.25-1.239 0.749 -0.384 0.5-0.643 1.296-0.776 2.391l-0.201 1.67H374.013L374.013 31.009z"/><path fill="#FFFFFF" d="M380.896 43.076c-0.386 0.672-0.903 1.229-1.557 1.67s-1.45 0.663-2.391 0.663c-0.575 0-1.108-0.106-1.6-0.317 -0.488-0.211-0.911-0.537-1.267-0.979 -0.355-0.441-0.639-1.008-0.85-1.699 -0.212-0.691-0.317-1.517-0.317-2.477 0-1.152 0.178-2.29 0.533-3.413 0.354-1.124 0.888-2.146 1.599-3.067 0.69-0.883 1.561-1.593 2.606-2.131 1.046-0.537 2.27-0.806 3.672-0.806 0.959 0 1.856 0.154 2.692 0.461 0.834 0.307 1.54 0.653 2.116 1.037l-1.151 9.706c0 0.077 0.015 0.168 0.044 0.273 0.027 0.106 0.053 0.178 0.07 0.216l2.018-0.202c0 0.173-0.025 0.375-0.072 0.604 -0.049 0.229-0.105 0.471-0.173 0.72 -0.068 0.249-0.149 0.485-0.245 0.706s-0.191 0.408-0.287 0.562c-0.25 0.096-0.566 0.192-0.951 0.288 -0.385 0.096-0.781 0.182-1.194 0.259 -0.413 0.077-0.826 0.139-1.238 0.187 -0.413 0.048-0.764 0.072-1.051 0.072 -0.192-0.327-0.355-0.715-0.49-1.167 -0.135-0.452-0.221-0.84-0.259-1.167L380.896 43.076 380.896 43.076zM382.019 33.227c-0.153-0.038-0.321-0.067-0.504-0.086 -0.184-0.019-0.342-0.029-0.476-0.029 -0.558 0-1.08 0.173-1.569 0.519 -0.489 0.346-0.897 0.759-1.225 1.238 -0.211 0.308-0.389 0.658-0.533 1.051 -0.144 0.394-0.258 0.807-0.345 1.238 -0.087 0.432-0.154 0.864-0.202 1.296 -0.048 0.432-0.072 0.831-0.072 1.195 0 1.018 0.131 1.724 0.391 2.117 0.259 0.394 0.607 0.591 1.051 0.591 0.864 0 1.65-0.471 2.362-1.412L382.019 33.227z"/><path fill="#FFFFFF" d="M396.447 33.371c-0.25-0.096-0.537-0.144-0.863-0.144 -0.48 0-0.912 0.111-1.297 0.331 -0.384 0.221-0.701 0.523-0.95 0.907 -0.212 0.327-0.394 0.691-0.547 1.095 -0.153 0.403-0.274 0.816-0.36 1.238s-0.147 0.845-0.188 1.267c-0.038 0.423-0.058 0.816-0.058 1.181 0 1.92 0.787 2.88 2.361 2.88 0.364 0 0.758-0.033 1.181-0.101 0.423-0.067 0.841-0.153 1.254-0.259 0.411-0.105 0.811-0.23 1.194-0.374s0.729-0.292 1.037-0.447c0 0.423-0.097 0.917-0.289 1.483 -0.19 0.566-0.412 1.032-0.662 1.397 -0.557 0.403-1.219 0.768-1.985 1.094 -0.771 0.326-1.644 0.49-2.621 0.49 -1.92 0-3.343-0.494-4.264-1.483 -0.922-0.989-1.382-2.337-1.382-4.046 0-1.267 0.177-2.491 0.532-3.672 0.354-1.181 0.907-2.222 1.655-3.125 0.672-0.787 1.498-1.411 2.478-1.872 0.979-0.46 2.073-0.691 3.283-0.691 0.864 0 1.661 0.115 2.39 0.346 0.73 0.23 1.402 0.538 2.018 0.921 0 0.672-0.087 1.382-0.259 2.131 -0.175 0.749-0.414 1.45-0.722 2.102 -0.229 0-0.489-0.019-0.776-0.058 -0.288-0.038-0.576-0.096-0.863-0.172 -0.289-0.077-0.567-0.168-0.836-0.274 -0.271-0.105-0.489-0.225-0.662-0.36L396.447 33.371z"/><path fill="#FFFFFF" d="M404.222 27.64c0.175-0.096 0.404-0.188 0.691-0.274 0.288-0.086 0.6-0.168 0.936-0.245s0.668-0.134 0.994-0.173c0.326-0.038 0.624-0.058 0.894-0.058l-0.489 4.119h3.888c0.039 0.154 0.06 0.307 0.06 0.46v0.432c0 0.327-0.017 0.667-0.044 1.022 -0.028 0.355-0.071 0.667-0.131 0.936h-4.146l-0.634 6.25c-0.077 0.653-0.024 1.143 0.158 1.469 0.183 0.327 0.608 0.49 1.281 0.49 0.422 0 0.851-0.048 1.281-0.144 0.432-0.096 0.896-0.221 1.396-0.375 0 0.422-0.093 0.932-0.273 1.526 -0.183 0.595-0.408 1.076-0.677 1.44 -0.634 0.308-1.264 0.533-1.888 0.677s-1.204 0.216-1.741 0.216c-1.363 0-2.344-0.322-2.938-0.965 -0.596-0.643-0.894-1.541-0.894-2.693 0-0.365 0.028-0.854 0.087-1.469 0.058-0.614 0.14-1.286 0.245-2.016 0.104-0.729 0.221-1.478 0.346-2.247 0.125-0.768 0.244-1.487 0.359-2.16h-2.218c0.058-0.441 0.172-0.917 0.347-1.426 0.172-0.508 0.335-0.897 0.488-1.167 0.249-0.115 0.528-0.225 0.835-0.331 0.308-0.105 0.605-0.187 0.894-0.245L404.222 27.64z"/><path fill="#FFFFFF" d="M411.423 34.004c0-0.134 0.02-0.321 0.058-0.562 0.038-0.24 0.092-0.49 0.157-0.749 0.068-0.259 0.146-0.499 0.23-0.72 0.087-0.22 0.178-0.379 0.272-0.475 0.441-0.269 0.999-0.47 1.672-0.604 0.672-0.134 1.344-0.202 2.017-0.202 0.249 0 0.542 0.024 0.878 0.072 0.336 0.048 0.638 0.111 0.907 0.188l-1.269 10.771c0 0.077 0.016 0.168 0.043 0.273 0.029 0.106 0.054 0.178 0.072 0.216l2.017-0.202c0 0.173-0.023 0.375-0.071 0.604s-0.106 0.471-0.173 0.72c-0.067 0.25-0.148 0.485-0.244 0.706 -0.098 0.221-0.193 0.408-0.289 0.562 -0.249 0.096-0.562 0.192-0.937 0.288 -0.375 0.096-0.764 0.182-1.166 0.259 -0.402 0.077-0.807 0.139-1.21 0.187 -0.402 0.048-0.759 0.072-1.064 0.072 -0.135-0.135-0.279-0.312-0.433-0.533s-0.299-0.461-0.433-0.72c-0.134-0.259-0.245-0.514-0.331-0.763s-0.13-0.461-0.13-0.634l1.44-8.928L411.423 34.004zM416.06 22.887c0.729 0 1.314 0.212 1.757 0.634 0.44 0.422 0.662 1.037 0.662 1.843 0 0.845-0.229 1.498-0.69 1.958 -0.461 0.46-1.036 0.691-1.729 0.691 -1.651 0-2.477-0.883-2.477-2.649 0-0.729 0.234-1.325 0.705-1.786S415.349 22.887 416.06 22.887z"/><path fill="#FFFFFF" d="M425.044 45.409c-1.824 0-3.201-0.499-4.133-1.498 -0.933-0.998-1.396-2.515-1.396-4.551 0-0.921 0.097-1.814 0.288-2.678 0.191-0.864 0.51-1.68 0.95-2.448 0.614-1.095 1.459-1.987 2.534-2.679 1.075-0.691 2.391-1.037 3.946-1.037 1.805 0 3.187 0.5 4.146 1.498 0.96 0.999 1.44 2.516 1.44 4.55 0 0.979-0.12 1.944-0.36 2.895 -0.24 0.95-0.609 1.829-1.109 2.635 -0.612 0.979-1.443 1.776-2.489 2.39C427.814 45.102 426.542 45.409 425.044 45.409zM425.591 42.673c0.558 0 1.023-0.163 1.397-0.489 0.374-0.326 0.677-0.758 0.906-1.296 0.27-0.595 0.451-1.267 0.548-2.016 0.096-0.749 0.145-1.488 0.145-2.218 0-1.209-0.135-2.083-0.404-2.621 -0.269-0.538-0.71-0.807-1.323-0.807 -0.519 0-0.976 0.168-1.367 0.504 -0.396 0.336-0.717 0.783-0.965 1.339 -0.289 0.634-0.486 1.339-0.592 2.117s-0.158 1.502-0.158 2.174c0 1.191 0.147 2.041 0.446 2.549C424.521 42.419 424.977 42.673 425.591 42.673z"/><path fill="#FFFFFF" d="M439.416 33.428c0.173-0.364 0.389-0.72 0.648-1.065 0.259-0.346 0.562-0.658 0.905-0.936 0.347-0.278 0.75-0.499 1.211-0.663 0.46-0.163 0.998-0.245 1.612-0.245 0.46 0 0.917 0.067 1.368 0.202 0.451 0.135 0.854 0.355 1.209 0.662 0.354 0.308 0.639 0.716 0.85 1.224 0.211 0.509 0.316 1.138 0.316 1.886 0 0.403-0.033 0.907-0.101 1.512s-0.145 1.238-0.229 1.901c-0.087 0.662-0.184 1.33-0.289 2.001 -0.104 0.672-0.196 1.277-0.272 1.814 0 0.077 0.015 0.168 0.043 0.273 0.028 0.106 0.053 0.178 0.071 0.216l2.104-0.202c0 0.173-0.025 0.375-0.072 0.604 -0.049 0.23-0.105 0.471-0.174 0.72 -0.066 0.25-0.148 0.485-0.244 0.706 -0.096 0.221-0.192 0.408-0.288 0.562 -0.249 0.096-0.565 0.192-0.95 0.288 -0.385 0.096-0.783 0.182-1.194 0.259 -0.413 0.077-0.826 0.139-1.238 0.187 -0.413 0.048-0.765 0.072-1.051 0.072 -0.136-0.135-0.279-0.312-0.434-0.533 -0.153-0.221-0.298-0.461-0.433-0.72 -0.134-0.259-0.244-0.514-0.33-0.763 -0.087-0.25-0.13-0.461-0.13-0.634 0.096-0.499 0.206-1.099 0.331-1.8s0.24-1.411 0.346-2.131c0.105-0.72 0.196-1.401 0.273-2.045 0.075-0.643 0.114-1.156 0.114-1.541 0-0.537-0.101-0.969-0.303-1.296 -0.201-0.326-0.533-0.49-0.993-0.49 -0.25 0-0.499 0.062-0.749 0.187s-0.483 0.279-0.705 0.461c-0.221 0.183-0.428 0.389-0.618 0.619 -0.193 0.23-0.355 0.461-0.49 0.691l-1.037 9.389c-0.326 0.058-0.705 0.106-1.137 0.144 -0.434 0.038-0.869 0.058-1.312 0.058 -0.346 0-0.678-0.015-0.994-0.043 -0.315-0.028-0.6-0.081-0.85-0.158l1.643-10.973 -2.017 0.173c0-0.134 0.019-0.321 0.058-0.562 0.038-0.24 0.091-0.49 0.158-0.749 0.066-0.259 0.146-0.499 0.23-0.72 0.086-0.22 0.178-0.379 0.272-0.475 0.403-0.269 0.873-0.47 1.411-0.604 0.538-0.134 1.095-0.202 1.671-0.202 0.557 0 1.094 0.086 1.612 0.259l-0.259 2.477h0.434V33.428z"/><path fill="#7DC144" d="M158.118 171.343H22.931C10.267 171.343 0 181.609 0 194.274c0 12.664 10.267 22.93 22.931 22.93h135.187c12.665 0 22.931-10.266 22.931-22.93C181.048 181.609 170.782 171.343 158.118 171.343z"/><path fill="#FFFFFF" d="M13.388 202.218c0.019-0.173 0.058-0.379 0.115-0.619 0.058-0.24 0.12-0.485 0.187-0.734s0.144-0.48 0.23-0.691 0.168-0.393 0.245-0.547c0.211-0.096 0.523-0.188 0.936-0.274s0.763-0.148 1.051-0.187l1.267-14.371c-0.288-0.039-0.609-0.086-0.964-0.144 -0.356-0.058-0.639-0.125-0.85-0.202 -0.02-0.153-0.029-0.35-0.029-0.59 0-0.24 0.009-0.49 0.029-0.749 0.019-0.259 0.043-0.504 0.072-0.734 0.029-0.23 0.062-0.422 0.101-0.576h15.207l-0.49 5.213c-0.48 0-1.018-0.033-1.613-0.101 -0.595-0.067-1.104-0.177-1.526-0.331 -0.039-0.269-0.072-0.605-0.101-1.008 -0.029-0.403-0.043-0.758-0.043-1.065h-5.587l-0.403 5.961h4.464c0.039-0.153 0.091-0.355 0.159-0.604 0.067-0.25 0.129-0.471 0.187-0.663 0.422-0.134 0.922-0.24 1.498-0.317 0.576-0.077 1.113-0.115 1.613-0.115l-0.403 5.904c-0.48 0.039-1.013 0.043-1.599 0.014s-1.08-0.11-1.483-0.245c-0.039-0.173-0.072-0.394-0.101-0.663 -0.029-0.269-0.043-0.49-0.043-0.662H21.02l-0.489 6.336h5.443c0.058-0.384 0.139-0.787 0.245-1.21 0.105-0.422 0.225-0.796 0.36-1.123 0.191-0.058 0.432-0.115 0.72-0.173 0.288-0.058 0.585-0.105 0.893-0.144 0.307-0.038 0.614-0.067 0.921-0.086 0.307-0.019 0.576-0.029 0.807-0.029l-0.432 5.53h-16.1V202.218z"/><path fill="#FFFFFF" d="M37.033 190.727c0.173-0.364 0.389-0.72 0.648-1.065 0.259-0.346 0.562-0.658 0.907-0.936 0.346-0.278 0.749-0.499 1.21-0.663 0.46-0.163 0.998-0.245 1.613-0.245 0.46 0 0.917 0.067 1.368 0.202 0.451 0.135 0.854 0.355 1.21 0.662 0.355 0.308 0.638 0.716 0.85 1.224 0.211 0.509 0.316 1.138 0.316 1.886 0 0.403-0.034 0.907-0.101 1.512 -0.067 0.605-0.144 1.238-0.23 1.901 -0.086 0.662-0.183 1.33-0.288 2.001 -0.105 0.672-0.197 1.277-0.273 1.814 0 0.077 0.014 0.168 0.043 0.273 0.029 0.106 0.053 0.178 0.072 0.216l2.103-0.202c0 0.173-0.024 0.375-0.072 0.604 -0.048 0.23-0.105 0.471-0.173 0.72 -0.068 0.249-0.149 0.485-0.245 0.706 -0.096 0.221-0.192 0.408-0.288 0.562 -0.25 0.096-0.566 0.192-0.95 0.288 -0.384 0.096-0.783 0.182-1.195 0.259 -0.413 0.077-0.826 0.139-1.238 0.187 -0.413 0.048-0.763 0.072-1.051 0.072 -0.135-0.135-0.279-0.312-0.432-0.533 -0.154-0.221-0.298-0.461-0.432-0.72 -0.134-0.259-0.245-0.514-0.331-0.763 -0.086-0.249-0.129-0.461-0.129-0.634 0.096-0.499 0.206-1.099 0.331-1.8 0.125-0.701 0.24-1.411 0.346-2.131 0.105-0.72 0.196-1.401 0.273-2.045 0.077-0.643 0.115-1.156 0.115-1.541 0-0.537-0.101-0.969-0.302-1.296 -0.202-0.326-0.533-0.49-0.994-0.49 -0.25 0-0.5 0.062-0.749 0.187 -0.25 0.125-0.485 0.279-0.706 0.461 -0.221 0.183-0.427 0.389-0.619 0.619s-0.355 0.461-0.49 0.691l-1.037 9.389c-0.327 0.058-0.706 0.106-1.138 0.144 -0.432 0.038-0.869 0.058-1.311 0.058 -0.345 0-0.677-0.015-0.993-0.043 -0.317-0.029-0.601-0.081-0.85-0.158l1.642-10.973 -2.016 0.173c0-0.134 0.019-0.321 0.058-0.562 0.038-0.24 0.091-0.49 0.158-0.749 0.067-0.259 0.144-0.499 0.23-0.72 0.086-0.22 0.177-0.379 0.273-0.475 0.403-0.269 0.874-0.47 1.411-0.604 0.537-0.134 1.095-0.202 1.67-0.202 0.557 0 1.095 0.086 1.613 0.259l-0.259 2.477h0.432V190.727z"/><path fill="#FFFFFF" d="M55.119 199.827c-0.365 0.749-0.874 1.368-1.526 1.858 -0.653 0.49-1.45 0.734-2.391 0.734 -0.615 0-1.176-0.101-1.685-0.302 -0.509-0.202-0.951-0.519-1.325-0.951 -0.375-0.432-0.667-0.983-0.878-1.656 -0.211-0.672-0.317-1.488-0.317-2.448 0-1.152 0.177-2.275 0.533-3.37 0.355-1.094 0.888-2.092 1.599-2.995 0.691-0.864 1.56-1.56 2.606-2.088 1.046-0.528 2.271-0.792 3.672-0.792 0.959 0 1.862 0.154 2.707 0.461 0.845 0.307 1.555 0.653 2.131 1.037l-1.325 12.413c-0.115 1.037-0.312 2.021-0.591 2.952 -0.278 0.931-0.701 1.742-1.267 2.434 -0.566 0.692-1.296 1.238-2.188 1.642 -0.893 0.403-2.002 0.605-3.327 0.605 -0.672 0-1.411-0.062-2.218-0.188 -0.806-0.125-1.545-0.293-2.217-0.504 -0.308-0.73-0.461-1.536-0.461-2.419 0-0.212 0.02-0.461 0.058-0.749 0.039-0.288 0.086-0.528 0.144-0.72 0.806 0.48 1.617 0.845 2.434 1.095 0.816 0.249 1.541 0.375 2.174 0.375 0.595 0 1.089-0.082 1.483-0.245 0.393-0.163 0.71-0.394 0.95-0.691 0.24-0.298 0.422-0.648 0.547-1.051 0.125-0.403 0.216-0.835 0.273-1.296 0.058-0.48 0.168-1.013 0.331-1.599 0.163-0.585 0.341-1.099 0.533-1.541L55.119 199.827 55.119 199.827zM56.127 190.525c-0.154-0.038-0.327-0.067-0.518-0.086 -0.192-0.019-0.355-0.029-0.49-0.029 -0.557 0-1.08 0.168-1.57 0.504 -0.489 0.336-0.897 0.734-1.224 1.195 -0.212 0.288-0.389 0.629-0.533 1.022 -0.144 0.394-0.259 0.797-0.345 1.209 -0.086 0.413-0.154 0.831-0.202 1.253 -0.048 0.422-0.072 0.807-0.072 1.152 0 0.999 0.139 1.681 0.418 2.045 0.278 0.365 0.677 0.547 1.195 0.547 0.461 0 0.931-0.197 1.411-0.59s0.912-0.955 1.296-1.685L56.127 190.525z"/><path fill="#FFFFFF" d="M69.173 200.375c-0.384 0.672-0.903 1.229-1.555 1.67 -0.653 0.441-1.45 0.663-2.391 0.663 -0.576 0-1.108-0.106-1.598-0.317 -0.49-0.211-0.912-0.537-1.267-0.979 -0.355-0.441-0.639-1.008-0.85-1.699 -0.212-0.691-0.317-1.517-0.317-2.477 0-1.152 0.177-2.29 0.533-3.413 0.355-1.124 0.888-2.146 1.599-3.067 0.691-0.883 1.56-1.593 2.606-2.131 1.046-0.537 2.271-0.806 3.672-0.806 0.959 0 1.857 0.154 2.693 0.461 0.835 0.307 1.541 0.653 2.117 1.037l-1.152 9.706c0 0.077 0.015 0.168 0.043 0.273 0.029 0.106 0.053 0.178 0.072 0.216l2.016-0.202c0 0.173-0.024 0.375-0.072 0.604 -0.048 0.23-0.106 0.471-0.173 0.72 -0.067 0.25-0.149 0.485-0.245 0.706 -0.096 0.221-0.192 0.408-0.288 0.562 -0.25 0.096-0.567 0.192-0.951 0.288 -0.384 0.096-0.782 0.182-1.195 0.259 -0.413 0.077-0.826 0.139-1.238 0.187 -0.413 0.048-0.763 0.072-1.051 0.072 -0.192-0.327-0.355-0.715-0.489-1.167 -0.135-0.451-0.221-0.84-0.259-1.167L69.173 200.375 69.173 200.375zM70.296 190.525c-0.154-0.038-0.322-0.067-0.504-0.086 -0.183-0.019-0.341-0.029-0.475-0.029 -0.557 0-1.08 0.173-1.57 0.519 -0.489 0.346-0.897 0.759-1.224 1.238 -0.212 0.308-0.389 0.658-0.533 1.051 -0.144 0.394-0.259 0.807-0.345 1.238 -0.086 0.432-0.154 0.864-0.202 1.296 -0.048 0.432-0.072 0.831-0.072 1.195 0 1.018 0.13 1.724 0.389 2.117 0.259 0.394 0.609 0.591 1.051 0.591 0.864 0 1.651-0.471 2.362-1.412L70.296 190.525z"/><path fill="#FFFFFF" d="M84.178 199.827c-0.365 0.749-0.874 1.368-1.526 1.858 -0.653 0.49-1.45 0.734-2.391 0.734 -0.615 0-1.176-0.101-1.685-0.302 -0.509-0.202-0.951-0.519-1.325-0.951 -0.375-0.432-0.667-0.983-0.878-1.656 -0.211-0.672-0.317-1.488-0.317-2.448 0-1.152 0.177-2.275 0.533-3.37 0.355-1.094 0.888-2.092 1.599-2.995 0.691-0.864 1.56-1.56 2.606-2.088s2.271-0.792 3.672-0.792c0.959 0 1.862 0.154 2.707 0.461 0.845 0.307 1.555 0.653 2.131 1.037l-1.325 12.413c-0.115 1.037-0.312 2.021-0.591 2.952 -0.278 0.931-0.701 1.742-1.267 2.434 -0.566 0.692-1.296 1.238-2.188 1.642 -0.893 0.403-2.002 0.605-3.327 0.605 -0.672 0-1.411-0.062-2.218-0.188 -0.806-0.125-1.545-0.293-2.217-0.504 -0.308-0.73-0.461-1.536-0.461-2.419 0-0.212 0.02-0.461 0.058-0.749 0.039-0.288 0.086-0.528 0.144-0.72 0.806 0.48 1.617 0.845 2.434 1.095 0.816 0.249 1.541 0.375 2.174 0.375 0.595 0 1.089-0.082 1.483-0.245 0.393-0.163 0.71-0.394 0.95-0.691 0.24-0.298 0.422-0.648 0.547-1.051 0.125-0.403 0.216-0.835 0.273-1.296 0.058-0.48 0.168-1.013 0.331-1.599 0.163-0.585 0.341-1.099 0.533-1.541L84.178 199.827 84.178 199.827zM85.186 190.525c-0.154-0.038-0.327-0.067-0.518-0.086 -0.192-0.019-0.355-0.029-0.49-0.029 -0.557 0-1.08 0.168-1.57 0.504 -0.489 0.336-0.897 0.734-1.224 1.195 -0.212 0.288-0.389 0.629-0.533 1.022 -0.144 0.394-0.259 0.797-0.345 1.209 -0.086 0.413-0.154 0.831-0.202 1.253 -0.048 0.422-0.072 0.807-0.072 1.152 0 0.999 0.139 1.681 0.418 2.045 0.278 0.365 0.677 0.547 1.195 0.547 0.461 0 0.931-0.197 1.411-0.59s0.912-0.955 1.296-1.685L85.186 190.525z"/><path fill="#FFFFFF" d="M94.286 197.062c0 0.864 0.163 1.464 0.49 1.8 0.326 0.336 0.806 0.504 1.44 0.504 0.403 0 0.835-0.033 1.296-0.101 0.461-0.067 0.917-0.153 1.368-0.259 0.451-0.105 0.888-0.235 1.311-0.389 0.422-0.153 0.796-0.317 1.123-0.49 0 0.403-0.086 0.889-0.259 1.455 -0.173 0.566-0.365 1.042-0.576 1.426 -0.557 0.422-1.272 0.811-2.146 1.167 -0.874 0.355-1.867 0.533-2.98 0.533 -1.767 0-3.072-0.461-3.917-1.382 -0.845-0.922-1.267-2.275-1.267-4.061 0-1.19 0.177-2.409 0.533-3.658 0.355-1.248 0.897-2.333 1.627-3.254 0.634-0.787 1.401-1.406 2.304-1.857 0.902-0.451 1.958-0.677 3.168-0.677 1.44 0 2.539 0.327 3.298 0.979 0.758 0.653 1.137 1.565 1.137 2.736 0 0.576-0.115 1.147-0.345 1.713s-0.644 1.09-1.239 1.57c-0.595 0.48-1.407 0.883-2.434 1.209 -1.027 0.327-2.337 0.547-3.931 0.662L94.286 197.062 94.286 197.062zM94.545 194.096c0.825-0.058 1.483-0.168 1.973-0.331 0.49-0.163 0.864-0.36 1.124-0.59 0.259-0.23 0.427-0.476 0.504-0.735 0.077-0.259 0.115-0.513 0.115-0.763 0-0.384-0.077-0.695-0.23-0.936 -0.154-0.24-0.413-0.36-0.778-0.36 -0.403 0-0.782 0.14-1.137 0.417 -0.355 0.279-0.648 0.62-0.878 1.022 -0.192 0.308-0.346 0.682-0.461 1.124C94.661 193.386 94.583 193.77 94.545 194.096z"/><path fill="#FFFFFF" d="M111.394 202.103c0.173-0.979 0.331-1.973 0.475-2.981s0.273-1.944 0.389-2.808c0.115-0.864 0.206-1.627 0.274-2.29 0.067-0.663 0.101-1.157 0.101-1.483 0-0.537-0.111-0.969-0.331-1.296 -0.221-0.326-0.562-0.49-1.022-0.49 -0.23 0-0.461 0.062-0.691 0.187s-0.451 0.279-0.662 0.461c-0.211 0.183-0.403 0.389-0.576 0.619s-0.327 0.461-0.461 0.691l-1.037 9.389c-0.327 0.058-0.706 0.106-1.138 0.144 -0.432 0.038-0.869 0.058-1.311 0.058 -0.345 0-0.677-0.015-0.993-0.043 -0.317-0.029-0.601-0.081-0.85-0.158l1.642-10.973 -2.016 0.173c0-0.134 0.019-0.321 0.058-0.562 0.038-0.24 0.091-0.49 0.158-0.749 0.067-0.259 0.144-0.499 0.23-0.72 0.086-0.22 0.177-0.379 0.273-0.475 0.403-0.269 0.874-0.47 1.411-0.604 0.537-0.134 1.095-0.202 1.67-0.202 0.557 0 1.095 0.086 1.613 0.259l-0.259 2.477h0.432c0.173-0.364 0.384-0.72 0.634-1.065 0.25-0.346 0.547-0.658 0.893-0.936 0.346-0.278 0.744-0.499 1.195-0.663 0.451-0.163 0.965-0.245 1.541-0.245 0.806 0 1.531 0.211 2.174 0.633 0.643 0.423 1.061 1.143 1.253 2.16h0.259c0.154-0.364 0.351-0.715 0.591-1.051 0.24-0.335 0.528-0.633 0.864-0.893 0.336-0.26 0.725-0.465 1.167-0.619 0.441-0.154 0.94-0.23 1.498-0.23 0.461 0 0.912 0.067 1.354 0.202 0.441 0.134 0.835 0.355 1.181 0.662 0.346 0.308 0.624 0.716 0.835 1.224 0.211 0.509 0.317 1.138 0.317 1.886 0 0.403-0.034 0.907-0.101 1.512 -0.067 0.605-0.144 1.238-0.23 1.901 -0.086 0.662-0.183 1.33-0.288 2.001 -0.106 0.672-0.197 1.277-0.274 1.814 0 0.077 0.015 0.168 0.043 0.273 0.029 0.106 0.053 0.178 0.072 0.216l2.103-0.202c0 0.173-0.024 0.375-0.072 0.604 -0.048 0.23-0.105 0.471-0.172 0.72 -0.068 0.25-0.149 0.485-0.245 0.706 -0.096 0.221-0.192 0.408-0.288 0.562 -0.25 0.096-0.566 0.192-0.95 0.288s-0.783 0.182-1.195 0.259c-0.413 0.077-0.826 0.139-1.238 0.187 -0.413 0.048-0.763 0.072-1.051 0.072 -0.134-0.135-0.278-0.312-0.432-0.533 -0.154-0.221-0.298-0.461-0.432-0.72 -0.135-0.259-0.245-0.514-0.332-0.763 -0.087-0.249-0.129-0.461-0.129-0.634 0.096-0.499 0.206-1.099 0.331-1.8s0.24-1.411 0.346-2.131c0.105-0.72 0.197-1.401 0.273-2.045 0.077-0.643 0.115-1.156 0.115-1.541 0-0.537-0.101-0.969-0.302-1.296 -0.202-0.326-0.523-0.49-0.965-0.49 -0.48 0-0.946 0.207-1.397 0.619 -0.451 0.413-0.811 0.85-1.08 1.311l-1.066 9.417c-0.327 0.058-0.691 0.106-1.094 0.144 -0.403 0.038-0.826 0.058-1.267 0.058 -0.346 0-0.677-0.015-0.994-0.043C111.901 202.23 111.624 202.18 111.394 202.103z"/><path fill="#FFFFFF" d="M130.66 197.062c0 0.864 0.163 1.464 0.49 1.8 0.326 0.336 0.806 0.504 1.44 0.504 0.403 0 0.835-0.033 1.296-0.101 0.461-0.067 0.917-0.153 1.368-0.259 0.451-0.105 0.888-0.235 1.311-0.389 0.422-0.153 0.796-0.317 1.123-0.49 0 0.403-0.086 0.889-0.259 1.455 -0.173 0.566-0.365 1.042-0.576 1.426 -0.557 0.422-1.272 0.811-2.146 1.167 -0.874 0.355-1.867 0.533-2.98 0.533 -1.767 0-3.072-0.461-3.917-1.382 -0.845-0.922-1.267-2.275-1.267-4.061 0-1.19 0.177-2.409 0.533-3.658 0.355-1.248 0.897-2.333 1.627-3.254 0.634-0.787 1.401-1.406 2.304-1.857 0.902-0.451 1.958-0.677 3.168-0.677 1.44 0 2.539 0.327 3.298 0.979 0.758 0.653 1.137 1.565 1.137 2.736 0 0.576-0.115 1.147-0.345 1.713s-0.644 1.09-1.239 1.57c-0.595 0.48-1.407 0.883-2.434 1.209 -1.027 0.327-2.337 0.547-3.931 0.662L130.66 197.062 130.66 197.062zM130.919 194.096c0.825-0.058 1.483-0.168 1.973-0.331 0.49-0.163 0.864-0.36 1.124-0.59 0.259-0.23 0.427-0.476 0.504-0.735 0.077-0.259 0.115-0.513 0.115-0.763 0-0.384-0.077-0.695-0.23-0.936 -0.154-0.24-0.413-0.36-0.778-0.36 -0.403 0-0.782 0.14-1.137 0.417 -0.355 0.279-0.648 0.62-0.878 1.022 -0.192 0.308-0.346 0.682-0.461 1.124C131.035 193.386 130.958 193.77 130.919 194.096z"/><path fill="#FFFFFF" d="M145.117 190.727c0.173-0.364 0.389-0.72 0.648-1.065 0.259-0.346 0.562-0.658 0.907-0.936 0.346-0.278 0.749-0.499 1.21-0.663 0.46-0.163 0.998-0.245 1.613-0.245 0.46 0 0.917 0.067 1.368 0.202 0.451 0.135 0.854 0.355 1.21 0.662 0.355 0.308 0.638 0.716 0.85 1.224 0.211 0.509 0.316 1.138 0.316 1.886 0 0.403-0.034 0.907-0.101 1.512 -0.067 0.605-0.144 1.238-0.23 1.901 -0.086 0.662-0.183 1.33-0.288 2.001 -0.105 0.672-0.197 1.277-0.273 1.814 0 0.077 0.014 0.168 0.043 0.273 0.029 0.106 0.053 0.178 0.072 0.216l2.103-0.202c0 0.173-0.024 0.375-0.072 0.604 -0.048 0.23-0.105 0.471-0.173 0.72 -0.068 0.249-0.149 0.485-0.245 0.706 -0.096 0.221-0.192 0.408-0.288 0.562 -0.25 0.096-0.566 0.192-0.95 0.288 -0.384 0.096-0.783 0.182-1.195 0.259 -0.413 0.077-0.826 0.139-1.238 0.187 -0.413 0.048-0.763 0.072-1.051 0.072 -0.135-0.135-0.279-0.312-0.432-0.533 -0.154-0.221-0.298-0.461-0.432-0.72 -0.134-0.259-0.245-0.514-0.331-0.763s-0.129-0.461-0.129-0.634c0.096-0.499 0.206-1.099 0.331-1.8 0.125-0.701 0.24-1.411 0.346-2.131 0.105-0.72 0.196-1.401 0.273-2.045 0.077-0.643 0.115-1.156 0.115-1.541 0-0.537-0.101-0.969-0.302-1.296 -0.202-0.326-0.533-0.49-0.994-0.49 -0.25 0-0.5 0.062-0.749 0.187 -0.25 0.125-0.485 0.279-0.706 0.461 -0.221 0.183-0.427 0.389-0.619 0.619s-0.355 0.461-0.49 0.691l-1.037 9.389c-0.327 0.058-0.706 0.106-1.138 0.144 -0.432 0.038-0.869 0.058-1.311 0.058 -0.345 0-0.677-0.015-0.993-0.043 -0.317-0.029-0.601-0.081-0.85-0.158l1.642-10.973 -2.016 0.173c0-0.134 0.019-0.321 0.058-0.562 0.038-0.24 0.091-0.49 0.158-0.749 0.067-0.259 0.144-0.499 0.23-0.72 0.086-0.22 0.177-0.379 0.273-0.475 0.403-0.269 0.874-0.47 1.411-0.604 0.537-0.134 1.095-0.202 1.67-0.202 0.557 0 1.095 0.086 1.613 0.259l-0.259 2.477h0.432V190.727z"/><path fill="#FFFFFF" d="M158.049 184.938c0.173-0.096 0.403-0.188 0.691-0.274 0.288-0.086 0.6-0.168 0.936-0.245 0.336-0.077 0.667-0.134 0.994-0.173 0.326-0.038 0.624-0.058 0.893-0.058l-0.49 4.119h3.888c0.038 0.154 0.058 0.307 0.058 0.46v0.432c0 0.327-0.015 0.667-0.043 1.022 -0.029 0.355-0.072 0.667-0.129 0.936H160.7l-0.633 6.25c-0.077 0.653-0.024 1.143 0.158 1.469 0.182 0.327 0.609 0.49 1.282 0.49 0.422 0 0.85-0.048 1.282-0.144 0.432-0.096 0.897-0.221 1.396-0.375 0 0.422-0.091 0.932-0.273 1.526 -0.183 0.595-0.408 1.076-0.677 1.44 -0.634 0.308-1.263 0.533-1.887 0.677 -0.624 0.144-1.205 0.216-1.742 0.216 -1.363 0-2.343-0.322-2.938-0.965 -0.596-0.643-0.893-1.541-0.893-2.693 0-0.365 0.029-0.854 0.086-1.469 0.058-0.614 0.139-1.286 0.245-2.016 0.105-0.729 0.22-1.478 0.345-2.247 0.125-0.768 0.245-1.487 0.36-2.16h-2.218c0.058-0.441 0.173-0.917 0.346-1.426 0.173-0.508 0.335-0.897 0.49-1.167 0.249-0.115 0.528-0.225 0.835-0.331 0.307-0.105 0.605-0.187 0.893-0.245L158.049 184.938z"/></svg>